G04 #@! TF.GenerationSoftware,KiCad,Pcbnew,(5.1.5)-3*
G04 #@! TF.CreationDate,2021-04-09T09:54:44-05:00*
G04 #@! TF.ProjectId,turner_pcb,7475726e-6572-45f7-9063-622e6b696361,rev?*
G04 #@! TF.SameCoordinates,Original*
G04 #@! TF.FileFunction,Copper,L1,Top*
G04 #@! TF.FilePolarity,Positive*
%FSLAX46Y46*%
G04 Gerber Fmt 4.6, Leading zero omitted, Abs format (unit mm)*
G04 Created by KiCad (PCBNEW (5.1.5)-3) date 2021-04-09 09:54:44*
%MOMM*%
%LPD*%
G04 APERTURE LIST*
%ADD10C,1.600000*%
%ADD11R,1.600000X1.600000*%
%ADD12C,0.150000*%
%ADD13C,1.500000*%
%ADD14O,1.600000X1.600000*%
%ADD15C,0.250000*%
%ADD16C,0.762000*%
%ADD17C,0.508000*%
%ADD18C,0.254000*%
G04 APERTURE END LIST*
D10*
X54803200Y-35102800D03*
D11*
X51003200Y-35102800D03*
G04 #@! TA.AperFunction,ComponentPad*
D12*
G36*
X55490104Y-58357004D02*
G01*
X55514373Y-58360604D01*
X55538171Y-58366565D01*
X55561271Y-58374830D01*
X55583449Y-58385320D01*
X55604493Y-58397933D01*
X55624198Y-58412547D01*
X55642377Y-58429023D01*
X55658853Y-58447202D01*
X55673467Y-58466907D01*
X55686080Y-58487951D01*
X55696570Y-58510129D01*
X55704835Y-58533229D01*
X55710796Y-58557027D01*
X55714396Y-58581296D01*
X55715600Y-58605800D01*
X55715600Y-59605800D01*
X55714396Y-59630304D01*
X55710796Y-59654573D01*
X55704835Y-59678371D01*
X55696570Y-59701471D01*
X55686080Y-59723649D01*
X55673467Y-59744693D01*
X55658853Y-59764398D01*
X55642377Y-59782577D01*
X55624198Y-59799053D01*
X55604493Y-59813667D01*
X55583449Y-59826280D01*
X55561271Y-59836770D01*
X55538171Y-59845035D01*
X55514373Y-59850996D01*
X55490104Y-59854596D01*
X55465600Y-59855800D01*
X54465600Y-59855800D01*
X54441096Y-59854596D01*
X54416827Y-59850996D01*
X54393029Y-59845035D01*
X54369929Y-59836770D01*
X54347751Y-59826280D01*
X54326707Y-59813667D01*
X54307002Y-59799053D01*
X54288823Y-59782577D01*
X54272347Y-59764398D01*
X54257733Y-59744693D01*
X54245120Y-59723649D01*
X54234630Y-59701471D01*
X54226365Y-59678371D01*
X54220404Y-59654573D01*
X54216804Y-59630304D01*
X54215600Y-59605800D01*
X54215600Y-58605800D01*
X54216804Y-58581296D01*
X54220404Y-58557027D01*
X54226365Y-58533229D01*
X54234630Y-58510129D01*
X54245120Y-58487951D01*
X54257733Y-58466907D01*
X54272347Y-58447202D01*
X54288823Y-58429023D01*
X54307002Y-58412547D01*
X54326707Y-58397933D01*
X54347751Y-58385320D01*
X54369929Y-58374830D01*
X54393029Y-58366565D01*
X54416827Y-58360604D01*
X54441096Y-58357004D01*
X54465600Y-58355800D01*
X55465600Y-58355800D01*
X55490104Y-58357004D01*
G37*
G04 #@! TD.AperFunction*
D13*
X54965600Y-62105800D03*
X51965600Y-59105800D03*
X51965600Y-62105800D03*
D14*
X90424000Y-59283600D03*
X103124000Y-41503600D03*
X90424000Y-56743600D03*
X103124000Y-44043600D03*
X90424000Y-54203600D03*
X103124000Y-46583600D03*
X90424000Y-51663600D03*
X103124000Y-49123600D03*
X90424000Y-49123600D03*
X103124000Y-51663600D03*
X90424000Y-46583600D03*
X103124000Y-54203600D03*
X90424000Y-44043600D03*
X103124000Y-56743600D03*
X90424000Y-41503600D03*
D11*
X103124000Y-59283600D03*
X78917800Y-66471800D03*
D14*
X63677800Y-33451800D03*
X78917800Y-63931800D03*
X63677800Y-35991800D03*
X78917800Y-61391800D03*
X63677800Y-38531800D03*
X78917800Y-58851800D03*
X63677800Y-41071800D03*
X78917800Y-56311800D03*
X63677800Y-43611800D03*
X78917800Y-53771800D03*
X63677800Y-46151800D03*
X78917800Y-51231800D03*
X63677800Y-48691800D03*
X78917800Y-48691800D03*
X63677800Y-51231800D03*
X78917800Y-46151800D03*
X63677800Y-53771800D03*
X78917800Y-43611800D03*
X63677800Y-56311800D03*
X78917800Y-41071800D03*
X63677800Y-58851800D03*
X78917800Y-38531800D03*
X63677800Y-61391800D03*
X78917800Y-35991800D03*
X63677800Y-63931800D03*
X78917800Y-33451800D03*
X63677800Y-66471800D03*
X78917800Y-30911800D03*
X63677800Y-30911800D03*
G04 #@! TA.AperFunction,ComponentPad*
D12*
G36*
X94098104Y-67729604D02*
G01*
X94122373Y-67733204D01*
X94146171Y-67739165D01*
X94169271Y-67747430D01*
X94191449Y-67757920D01*
X94212493Y-67770533D01*
X94232198Y-67785147D01*
X94250377Y-67801623D01*
X94266853Y-67819802D01*
X94281467Y-67839507D01*
X94294080Y-67860551D01*
X94304570Y-67882729D01*
X94312835Y-67905829D01*
X94318796Y-67929627D01*
X94322396Y-67953896D01*
X94323600Y-67978400D01*
X94323600Y-68978400D01*
X94322396Y-69002904D01*
X94318796Y-69027173D01*
X94312835Y-69050971D01*
X94304570Y-69074071D01*
X94294080Y-69096249D01*
X94281467Y-69117293D01*
X94266853Y-69136998D01*
X94250377Y-69155177D01*
X94232198Y-69171653D01*
X94212493Y-69186267D01*
X94191449Y-69198880D01*
X94169271Y-69209370D01*
X94146171Y-69217635D01*
X94122373Y-69223596D01*
X94098104Y-69227196D01*
X94073600Y-69228400D01*
X93073600Y-69228400D01*
X93049096Y-69227196D01*
X93024827Y-69223596D01*
X93001029Y-69217635D01*
X92977929Y-69209370D01*
X92955751Y-69198880D01*
X92934707Y-69186267D01*
X92915002Y-69171653D01*
X92896823Y-69155177D01*
X92880347Y-69136998D01*
X92865733Y-69117293D01*
X92853120Y-69096249D01*
X92842630Y-69074071D01*
X92834365Y-69050971D01*
X92828404Y-69027173D01*
X92824804Y-69002904D01*
X92823600Y-68978400D01*
X92823600Y-67978400D01*
X92824804Y-67953896D01*
X92828404Y-67929627D01*
X92834365Y-67905829D01*
X92842630Y-67882729D01*
X92853120Y-67860551D01*
X92865733Y-67839507D01*
X92880347Y-67819802D01*
X92896823Y-67801623D01*
X92915002Y-67785147D01*
X92934707Y-67770533D01*
X92955751Y-67757920D01*
X92977929Y-67747430D01*
X93001029Y-67739165D01*
X93024827Y-67733204D01*
X93049096Y-67729604D01*
X93073600Y-67728400D01*
X94073600Y-67728400D01*
X94098104Y-67729604D01*
G37*
G04 #@! TD.AperFunction*
D13*
X96573600Y-68478400D03*
X99573600Y-68478400D03*
X93573600Y-71478400D03*
X96573600Y-71478400D03*
X99573600Y-71478400D03*
G04 #@! TA.AperFunction,ComponentPad*
D12*
G36*
X55693304Y-45479204D02*
G01*
X55717573Y-45482804D01*
X55741371Y-45488765D01*
X55764471Y-45497030D01*
X55786649Y-45507520D01*
X55807693Y-45520133D01*
X55827398Y-45534747D01*
X55845577Y-45551223D01*
X55862053Y-45569402D01*
X55876667Y-45589107D01*
X55889280Y-45610151D01*
X55899770Y-45632329D01*
X55908035Y-45655429D01*
X55913996Y-45679227D01*
X55917596Y-45703496D01*
X55918800Y-45728000D01*
X55918800Y-46728000D01*
X55917596Y-46752504D01*
X55913996Y-46776773D01*
X55908035Y-46800571D01*
X55899770Y-46823671D01*
X55889280Y-46845849D01*
X55876667Y-46866893D01*
X55862053Y-46886598D01*
X55845577Y-46904777D01*
X55827398Y-46921253D01*
X55807693Y-46935867D01*
X55786649Y-46948480D01*
X55764471Y-46958970D01*
X55741371Y-46967235D01*
X55717573Y-46973196D01*
X55693304Y-46976796D01*
X55668800Y-46978000D01*
X54668800Y-46978000D01*
X54644296Y-46976796D01*
X54620027Y-46973196D01*
X54596229Y-46967235D01*
X54573129Y-46958970D01*
X54550951Y-46948480D01*
X54529907Y-46935867D01*
X54510202Y-46921253D01*
X54492023Y-46904777D01*
X54475547Y-46886598D01*
X54460933Y-46866893D01*
X54448320Y-46845849D01*
X54437830Y-46823671D01*
X54429565Y-46800571D01*
X54423604Y-46776773D01*
X54420004Y-46752504D01*
X54418800Y-46728000D01*
X54418800Y-45728000D01*
X54420004Y-45703496D01*
X54423604Y-45679227D01*
X54429565Y-45655429D01*
X54437830Y-45632329D01*
X54448320Y-45610151D01*
X54460933Y-45589107D01*
X54475547Y-45569402D01*
X54492023Y-45551223D01*
X54510202Y-45534747D01*
X54529907Y-45520133D01*
X54550951Y-45507520D01*
X54573129Y-45497030D01*
X54596229Y-45488765D01*
X54620027Y-45482804D01*
X54644296Y-45479204D01*
X54668800Y-45478000D01*
X55668800Y-45478000D01*
X55693304Y-45479204D01*
G37*
G04 #@! TD.AperFunction*
D13*
X52168800Y-46228000D03*
X95221800Y-29232600D03*
X98221800Y-29232600D03*
X95221800Y-32232600D03*
G04 #@! TA.AperFunction,ComponentPad*
D12*
G36*
X98746304Y-31483804D02*
G01*
X98770573Y-31487404D01*
X98794371Y-31493365D01*
X98817471Y-31501630D01*
X98839649Y-31512120D01*
X98860693Y-31524733D01*
X98880398Y-31539347D01*
X98898577Y-31555823D01*
X98915053Y-31574002D01*
X98929667Y-31593707D01*
X98942280Y-31614751D01*
X98952770Y-31636929D01*
X98961035Y-31660029D01*
X98966996Y-31683827D01*
X98970596Y-31708096D01*
X98971800Y-31732600D01*
X98971800Y-32732600D01*
X98970596Y-32757104D01*
X98966996Y-32781373D01*
X98961035Y-32805171D01*
X98952770Y-32828271D01*
X98942280Y-32850449D01*
X98929667Y-32871493D01*
X98915053Y-32891198D01*
X98898577Y-32909377D01*
X98880398Y-32925853D01*
X98860693Y-32940467D01*
X98839649Y-32953080D01*
X98817471Y-32963570D01*
X98794371Y-32971835D01*
X98770573Y-32977796D01*
X98746304Y-32981396D01*
X98721800Y-32982600D01*
X97721800Y-32982600D01*
X97697296Y-32981396D01*
X97673027Y-32977796D01*
X97649229Y-32971835D01*
X97626129Y-32963570D01*
X97603951Y-32953080D01*
X97582907Y-32940467D01*
X97563202Y-32925853D01*
X97545023Y-32909377D01*
X97528547Y-32891198D01*
X97513933Y-32871493D01*
X97501320Y-32850449D01*
X97490830Y-32828271D01*
X97482565Y-32805171D01*
X97476604Y-32781373D01*
X97473004Y-32757104D01*
X97471800Y-32732600D01*
X97471800Y-31732600D01*
X97473004Y-31708096D01*
X97476604Y-31683827D01*
X97482565Y-31660029D01*
X97490830Y-31636929D01*
X97501320Y-31614751D01*
X97513933Y-31593707D01*
X97528547Y-31574002D01*
X97545023Y-31555823D01*
X97563202Y-31539347D01*
X97582907Y-31524733D01*
X97603951Y-31512120D01*
X97626129Y-31501630D01*
X97649229Y-31493365D01*
X97673027Y-31487404D01*
X97697296Y-31483804D01*
X97721800Y-31482600D01*
X98721800Y-31482600D01*
X98746304Y-31483804D01*
G37*
G04 #@! TD.AperFunction*
G04 #@! TA.AperFunction,SMDPad,CuDef*
G36*
X106686779Y-56742844D02*
G01*
X106709834Y-56746263D01*
X106732443Y-56751927D01*
X106754387Y-56759779D01*
X106775457Y-56769744D01*
X106795448Y-56781726D01*
X106814168Y-56795610D01*
X106831438Y-56811262D01*
X106847090Y-56828532D01*
X106860974Y-56847252D01*
X106872956Y-56867243D01*
X106882921Y-56888313D01*
X106890773Y-56910257D01*
X106896437Y-56932866D01*
X106899856Y-56955921D01*
X106901000Y-56979200D01*
X106901000Y-57579200D01*
X106899856Y-57602479D01*
X106896437Y-57625534D01*
X106890773Y-57648143D01*
X106882921Y-57670087D01*
X106872956Y-57691157D01*
X106860974Y-57711148D01*
X106847090Y-57729868D01*
X106831438Y-57747138D01*
X106814168Y-57762790D01*
X106795448Y-57776674D01*
X106775457Y-57788656D01*
X106754387Y-57798621D01*
X106732443Y-57806473D01*
X106709834Y-57812137D01*
X106686779Y-57815556D01*
X106663500Y-57816700D01*
X106188500Y-57816700D01*
X106165221Y-57815556D01*
X106142166Y-57812137D01*
X106119557Y-57806473D01*
X106097613Y-57798621D01*
X106076543Y-57788656D01*
X106056552Y-57776674D01*
X106037832Y-57762790D01*
X106020562Y-57747138D01*
X106004910Y-57729868D01*
X105991026Y-57711148D01*
X105979044Y-57691157D01*
X105969079Y-57670087D01*
X105961227Y-57648143D01*
X105955563Y-57625534D01*
X105952144Y-57602479D01*
X105951000Y-57579200D01*
X105951000Y-56979200D01*
X105952144Y-56955921D01*
X105955563Y-56932866D01*
X105961227Y-56910257D01*
X105969079Y-56888313D01*
X105979044Y-56867243D01*
X105991026Y-56847252D01*
X106004910Y-56828532D01*
X106020562Y-56811262D01*
X106037832Y-56795610D01*
X106056552Y-56781726D01*
X106076543Y-56769744D01*
X106097613Y-56759779D01*
X106119557Y-56751927D01*
X106142166Y-56746263D01*
X106165221Y-56742844D01*
X106188500Y-56741700D01*
X106663500Y-56741700D01*
X106686779Y-56742844D01*
G37*
G04 #@! TD.AperFunction*
G04 #@! TA.AperFunction,SMDPad,CuDef*
G36*
X106686779Y-58467844D02*
G01*
X106709834Y-58471263D01*
X106732443Y-58476927D01*
X106754387Y-58484779D01*
X106775457Y-58494744D01*
X106795448Y-58506726D01*
X106814168Y-58520610D01*
X106831438Y-58536262D01*
X106847090Y-58553532D01*
X106860974Y-58572252D01*
X106872956Y-58592243D01*
X106882921Y-58613313D01*
X106890773Y-58635257D01*
X106896437Y-58657866D01*
X106899856Y-58680921D01*
X106901000Y-58704200D01*
X106901000Y-59304200D01*
X106899856Y-59327479D01*
X106896437Y-59350534D01*
X106890773Y-59373143D01*
X106882921Y-59395087D01*
X106872956Y-59416157D01*
X106860974Y-59436148D01*
X106847090Y-59454868D01*
X106831438Y-59472138D01*
X106814168Y-59487790D01*
X106795448Y-59501674D01*
X106775457Y-59513656D01*
X106754387Y-59523621D01*
X106732443Y-59531473D01*
X106709834Y-59537137D01*
X106686779Y-59540556D01*
X106663500Y-59541700D01*
X106188500Y-59541700D01*
X106165221Y-59540556D01*
X106142166Y-59537137D01*
X106119557Y-59531473D01*
X106097613Y-59523621D01*
X106076543Y-59513656D01*
X106056552Y-59501674D01*
X106037832Y-59487790D01*
X106020562Y-59472138D01*
X106004910Y-59454868D01*
X105991026Y-59436148D01*
X105979044Y-59416157D01*
X105969079Y-59395087D01*
X105961227Y-59373143D01*
X105955563Y-59350534D01*
X105952144Y-59327479D01*
X105951000Y-59304200D01*
X105951000Y-58704200D01*
X105952144Y-58680921D01*
X105955563Y-58657866D01*
X105961227Y-58635257D01*
X105969079Y-58613313D01*
X105979044Y-58592243D01*
X105991026Y-58572252D01*
X106004910Y-58553532D01*
X106020562Y-58536262D01*
X106037832Y-58520610D01*
X106056552Y-58506726D01*
X106076543Y-58494744D01*
X106097613Y-58484779D01*
X106119557Y-58476927D01*
X106142166Y-58471263D01*
X106165221Y-58467844D01*
X106188500Y-58466700D01*
X106663500Y-58466700D01*
X106686779Y-58467844D01*
G37*
G04 #@! TD.AperFunction*
D15*
X106146600Y-59283600D02*
X106426000Y-59004200D01*
X103124000Y-59283600D02*
X106146600Y-59283600D01*
X58219600Y-58851800D02*
X54965600Y-62105800D01*
X63677800Y-58851800D02*
X58219600Y-58851800D01*
X96573600Y-63294000D02*
X96573600Y-68478400D01*
X103124000Y-56743600D02*
X96573600Y-63294000D01*
X97648601Y-67403399D02*
X97323599Y-67728401D01*
X100089601Y-67403399D02*
X97648601Y-67403399D01*
X101098611Y-68412409D02*
X100089601Y-67403399D01*
X97323599Y-67728401D02*
X96573600Y-68478400D01*
X101098611Y-72180801D02*
X101098611Y-68412409D01*
X99375983Y-73903429D02*
X101098611Y-72180801D01*
X78729430Y-73903430D02*
X99375983Y-73903429D01*
X63677800Y-58851800D02*
X78729430Y-73903430D01*
X105890400Y-56743600D02*
X106426000Y-57279200D01*
X103124000Y-56743600D02*
X105890400Y-56743600D01*
X79717799Y-50431801D02*
X78917800Y-51231800D01*
X90780801Y-50431801D02*
X79717799Y-50431801D01*
X91999011Y-49213591D02*
X90780801Y-50431801D01*
X91999011Y-41947241D02*
X91999011Y-49213591D01*
X91555370Y-41503600D02*
X91999011Y-41947241D01*
X90424000Y-41503600D02*
X91555370Y-41503600D01*
X79349600Y-56743600D02*
X78917800Y-56311800D01*
X90424000Y-56743600D02*
X79349600Y-56743600D01*
X78117801Y-54571799D02*
X78917800Y-53771800D01*
X77792799Y-56851801D02*
X77792799Y-54896801D01*
X77792799Y-54896801D02*
X78117801Y-54571799D01*
X78667797Y-57726799D02*
X77792799Y-56851801D01*
X88867199Y-57726799D02*
X78667797Y-57726799D01*
X90424000Y-59283600D02*
X88867199Y-57726799D01*
X62546430Y-38531800D02*
X62470230Y-38608000D01*
X63677800Y-38531800D02*
X62546430Y-38531800D01*
X62470230Y-38608000D02*
X61087000Y-38608000D01*
X61087000Y-38608000D02*
X60121800Y-39573200D01*
X60121800Y-39573200D02*
X60121800Y-54965600D01*
X60121800Y-54965600D02*
X58420000Y-56667400D01*
X54404000Y-56667400D02*
X51965600Y-59105800D01*
X58420000Y-56667400D02*
X54404000Y-56667400D01*
X78117801Y-47891801D02*
X78917800Y-48691800D01*
X77792799Y-47566799D02*
X78117801Y-47891801D01*
X77792799Y-45611799D02*
X77792799Y-47566799D01*
X78377799Y-45026799D02*
X77792799Y-45611799D01*
X79457801Y-45026799D02*
X78377799Y-45026799D01*
X80042801Y-44441799D02*
X79457801Y-45026799D01*
X80042801Y-40531799D02*
X80042801Y-44441799D01*
X79457801Y-39946799D02*
X80042801Y-40531799D01*
X78377799Y-39946799D02*
X79457801Y-39946799D01*
X75992761Y-42331837D02*
X78377799Y-39946799D01*
X75992761Y-65731763D02*
X75992761Y-42331837D01*
X83714418Y-73453420D02*
X75992761Y-65731763D01*
X99189582Y-73453420D02*
X83714418Y-73453420D01*
X100648601Y-71994401D02*
X99189582Y-73453420D01*
X100648601Y-69553401D02*
X100648601Y-71994401D01*
X99573600Y-68478400D02*
X100648601Y-69553401D01*
X79717799Y-46951799D02*
X78917800Y-46151800D01*
X78667797Y-49816801D02*
X79457801Y-49816801D01*
X77342789Y-51141809D02*
X78667797Y-49816801D01*
X77342789Y-58941791D02*
X77342789Y-51141809D01*
X79457801Y-49816801D02*
X80042801Y-49231801D01*
X78377799Y-59976801D02*
X77342789Y-58941791D01*
X80042801Y-47276801D02*
X79717799Y-46951799D01*
X83132661Y-59976801D02*
X78377799Y-59976801D01*
X80042801Y-49231801D02*
X80042801Y-47276801D01*
X93573600Y-70417740D02*
X83132661Y-59976801D01*
X93573600Y-71478400D02*
X93573600Y-70417740D01*
X76892779Y-45636821D02*
X78117801Y-44411799D01*
X76892779Y-61031781D02*
X76892779Y-45636821D01*
X83020999Y-62516801D02*
X78377799Y-62516801D01*
X78117801Y-44411799D02*
X78917800Y-43611800D01*
X78377799Y-62516801D02*
X76892779Y-61031781D01*
X93057599Y-72553401D02*
X83020999Y-62516801D01*
X95498599Y-72553401D02*
X93057599Y-72553401D01*
X96573600Y-71478400D02*
X95498599Y-72553401D01*
X76442770Y-43546830D02*
X78117801Y-41871799D01*
X76442770Y-63121772D02*
X76442770Y-43546830D01*
X78377799Y-65056801D02*
X76442770Y-63121772D01*
X84924589Y-65056801D02*
X78377799Y-65056801D01*
X78117801Y-41871799D02*
X78917800Y-41071800D01*
X92871198Y-73003410D02*
X84924589Y-65056801D01*
X98048590Y-73003410D02*
X92871198Y-73003410D01*
X99573600Y-71478400D02*
X98048590Y-73003410D01*
D16*
X103124000Y-46583600D02*
X101142800Y-44602400D01*
X96552801Y-27901599D02*
X95971799Y-28482601D01*
X99230917Y-27901599D02*
X96552801Y-27901599D01*
X101142800Y-29813482D02*
X99230917Y-27901599D01*
X95971799Y-28482601D02*
X95221800Y-29232600D01*
X101142800Y-44602400D02*
X101142800Y-29813482D01*
X101992630Y-49123600D02*
X99593400Y-46724370D01*
X103124000Y-49123600D02*
X101992630Y-49123600D01*
X99593400Y-30604200D02*
X98221800Y-29232600D01*
X99593400Y-46724370D02*
X99593400Y-30604200D01*
D17*
X98221800Y-32982600D02*
X98221800Y-32232600D01*
D16*
X101992630Y-51663600D02*
X98221800Y-47892770D01*
X98221800Y-47892770D02*
X98221800Y-32982600D01*
X103124000Y-51663600D02*
X101992630Y-51663600D01*
X95221800Y-46301400D02*
X95221800Y-32232600D01*
X103124000Y-54203600D02*
X95221800Y-46301400D01*
D15*
X78117801Y-35191801D02*
X78917800Y-35991800D01*
X77792799Y-32911799D02*
X77792799Y-34866799D01*
X78377799Y-32326799D02*
X77792799Y-32911799D01*
X89759603Y-42628601D02*
X79457801Y-32326799D01*
X79457801Y-32326799D02*
X78377799Y-32326799D01*
X90964001Y-42628601D02*
X89759603Y-42628601D01*
X91549001Y-43213601D02*
X90964001Y-42628601D01*
X77792799Y-34866799D02*
X78117801Y-35191801D01*
X91549001Y-45458599D02*
X91549001Y-43213601D01*
X90424000Y-46583600D02*
X91549001Y-45458599D01*
X79717799Y-34251799D02*
X78917800Y-33451800D01*
X89298999Y-43832999D02*
X79717799Y-34251799D01*
X89298999Y-47998599D02*
X89298999Y-43832999D01*
X90424000Y-49123600D02*
X89298999Y-47998599D01*
D18*
G36*
X108833305Y-22693033D02*
G01*
X109169887Y-22794653D01*
X109480319Y-22959712D01*
X109752777Y-23181923D01*
X109976888Y-23452827D01*
X110144110Y-23762096D01*
X110248078Y-24097960D01*
X110288399Y-24481591D01*
X110288398Y-76494262D01*
X110250566Y-76880107D01*
X110148946Y-77216687D01*
X109983884Y-77527121D01*
X109761672Y-77799580D01*
X109490771Y-78023688D01*
X109181498Y-78190912D01*
X108845637Y-78294878D01*
X108462017Y-78335198D01*
X47559356Y-78335200D01*
X47173491Y-78297366D01*
X46836911Y-78195746D01*
X46526477Y-78030684D01*
X46254018Y-77808472D01*
X46029910Y-77537571D01*
X45862686Y-77228298D01*
X45758720Y-76892437D01*
X45718400Y-76508817D01*
X45718400Y-75678041D01*
X45953567Y-75678041D01*
X45953567Y-76112355D01*
X46038298Y-76538324D01*
X46204502Y-76939577D01*
X46445794Y-77300696D01*
X46752901Y-77607803D01*
X47114020Y-77849095D01*
X47515273Y-78015299D01*
X47941242Y-78100030D01*
X48375556Y-78100030D01*
X48801525Y-78015299D01*
X49202778Y-77849095D01*
X49563897Y-77607803D01*
X49871004Y-77300696D01*
X50112296Y-76939577D01*
X50278500Y-76538324D01*
X50363231Y-76112355D01*
X50363231Y-75678041D01*
X105643567Y-75678041D01*
X105643567Y-76112355D01*
X105728298Y-76538324D01*
X105894502Y-76939577D01*
X106135794Y-77300696D01*
X106442901Y-77607803D01*
X106804020Y-77849095D01*
X107205273Y-78015299D01*
X107631242Y-78100030D01*
X108065556Y-78100030D01*
X108491525Y-78015299D01*
X108892778Y-77849095D01*
X109253897Y-77607803D01*
X109561004Y-77300696D01*
X109802296Y-76939577D01*
X109968500Y-76538324D01*
X110053231Y-76112355D01*
X110053231Y-75678041D01*
X109968500Y-75252072D01*
X109802296Y-74850819D01*
X109561004Y-74489700D01*
X109253897Y-74182593D01*
X108892778Y-73941301D01*
X108491525Y-73775097D01*
X108065556Y-73690366D01*
X107631242Y-73690366D01*
X107205273Y-73775097D01*
X106804020Y-73941301D01*
X106442901Y-74182593D01*
X106135794Y-74489700D01*
X105894502Y-74850819D01*
X105728298Y-75252072D01*
X105643567Y-75678041D01*
X50363231Y-75678041D01*
X50278500Y-75252072D01*
X50112296Y-74850819D01*
X49871004Y-74489700D01*
X49563897Y-74182593D01*
X49202778Y-73941301D01*
X48801525Y-73775097D01*
X48375556Y-73690366D01*
X47941242Y-73690366D01*
X47515273Y-73775097D01*
X47114020Y-73941301D01*
X46752901Y-74182593D01*
X46445794Y-74489700D01*
X46204502Y-74850819D01*
X46038298Y-75252072D01*
X45953567Y-75678041D01*
X45718400Y-75678041D01*
X45718400Y-66820839D01*
X62285896Y-66820839D01*
X62326554Y-66954887D01*
X62446763Y-67209220D01*
X62614281Y-67435214D01*
X62822669Y-67624185D01*
X63063919Y-67768870D01*
X63328760Y-67863709D01*
X63550800Y-67742424D01*
X63550800Y-66598800D01*
X63804800Y-66598800D01*
X63804800Y-67742424D01*
X64026840Y-67863709D01*
X64291681Y-67768870D01*
X64532931Y-67624185D01*
X64741319Y-67435214D01*
X64908837Y-67209220D01*
X65029046Y-66954887D01*
X65069704Y-66820839D01*
X64947715Y-66598800D01*
X63804800Y-66598800D01*
X63550800Y-66598800D01*
X62407885Y-66598800D01*
X62285896Y-66820839D01*
X45718400Y-66820839D01*
X45718400Y-64994012D01*
X49890600Y-64994012D01*
X49890600Y-65217588D01*
X49934217Y-65436867D01*
X50019776Y-65643424D01*
X50143988Y-65829320D01*
X50302080Y-65987412D01*
X50487976Y-66111624D01*
X50694533Y-66197183D01*
X50913812Y-66240800D01*
X51137388Y-66240800D01*
X51356667Y-66197183D01*
X51563224Y-66111624D01*
X51749120Y-65987412D01*
X51907212Y-65829320D01*
X52031424Y-65643424D01*
X52116983Y-65436867D01*
X52160600Y-65217588D01*
X52160600Y-64994012D01*
X52116983Y-64774733D01*
X52031424Y-64568176D01*
X51907212Y-64382280D01*
X51749120Y-64224188D01*
X51563224Y-64099976D01*
X51356667Y-64014417D01*
X51137388Y-63970800D01*
X50913812Y-63970800D01*
X50694533Y-64014417D01*
X50487976Y-64099976D01*
X50302080Y-64224188D01*
X50143988Y-64382280D01*
X50019776Y-64568176D01*
X49934217Y-64774733D01*
X49890600Y-64994012D01*
X45718400Y-64994012D01*
X45718400Y-61969389D01*
X50580600Y-61969389D01*
X50580600Y-62242211D01*
X50633825Y-62509789D01*
X50738229Y-62761843D01*
X50889801Y-62988686D01*
X51082714Y-63181599D01*
X51309557Y-63333171D01*
X51561611Y-63437575D01*
X51829189Y-63490800D01*
X52102011Y-63490800D01*
X52369589Y-63437575D01*
X52621643Y-63333171D01*
X52848486Y-63181599D01*
X53041399Y-62988686D01*
X53192971Y-62761843D01*
X53297375Y-62509789D01*
X53350600Y-62242211D01*
X53350600Y-61969389D01*
X53297375Y-61701811D01*
X53192971Y-61449757D01*
X53041399Y-61222914D01*
X52848486Y-61030001D01*
X52621643Y-60878429D01*
X52369589Y-60774025D01*
X52102011Y-60720800D01*
X51829189Y-60720800D01*
X51561611Y-60774025D01*
X51309557Y-60878429D01*
X51082714Y-61030001D01*
X50889801Y-61222914D01*
X50738229Y-61449757D01*
X50633825Y-61701811D01*
X50580600Y-61969389D01*
X45718400Y-61969389D01*
X45718400Y-58969389D01*
X50580600Y-58969389D01*
X50580600Y-59242211D01*
X50633825Y-59509789D01*
X50738229Y-59761843D01*
X50889801Y-59988686D01*
X51082714Y-60181599D01*
X51309557Y-60333171D01*
X51561611Y-60437575D01*
X51829189Y-60490800D01*
X52102011Y-60490800D01*
X52369589Y-60437575D01*
X52621643Y-60333171D01*
X52848486Y-60181599D01*
X53041399Y-59988686D01*
X53192971Y-59761843D01*
X53297375Y-59509789D01*
X53350600Y-59242211D01*
X53350600Y-58969389D01*
X53321767Y-58824435D01*
X53581584Y-58564617D01*
X53577528Y-58605800D01*
X53577528Y-59605800D01*
X53594592Y-59779054D01*
X53645128Y-59945650D01*
X53727195Y-60099186D01*
X53837638Y-60233762D01*
X53972214Y-60344205D01*
X54125750Y-60426272D01*
X54292346Y-60476808D01*
X54465600Y-60493872D01*
X55465600Y-60493872D01*
X55506783Y-60489816D01*
X55246965Y-60749633D01*
X55102011Y-60720800D01*
X54829189Y-60720800D01*
X54561611Y-60774025D01*
X54309557Y-60878429D01*
X54082714Y-61030001D01*
X53889801Y-61222914D01*
X53738229Y-61449757D01*
X53633825Y-61701811D01*
X53580600Y-61969389D01*
X53580600Y-62242211D01*
X53633825Y-62509789D01*
X53738229Y-62761843D01*
X53889801Y-62988686D01*
X54082714Y-63181599D01*
X54309557Y-63333171D01*
X54561611Y-63437575D01*
X54829189Y-63490800D01*
X55102011Y-63490800D01*
X55369589Y-63437575D01*
X55621643Y-63333171D01*
X55848486Y-63181599D01*
X56041399Y-62988686D01*
X56192971Y-62761843D01*
X56297375Y-62509789D01*
X56350600Y-62242211D01*
X56350600Y-61969389D01*
X56321767Y-61824435D01*
X58534402Y-59611800D01*
X62459757Y-59611800D01*
X62563163Y-59766559D01*
X62763041Y-59966437D01*
X62995559Y-60121800D01*
X62763041Y-60277163D01*
X62563163Y-60477041D01*
X62406120Y-60712073D01*
X62297947Y-60973226D01*
X62242800Y-61250465D01*
X62242800Y-61533135D01*
X62297947Y-61810374D01*
X62406120Y-62071527D01*
X62563163Y-62306559D01*
X62763041Y-62506437D01*
X62995559Y-62661800D01*
X62763041Y-62817163D01*
X62563163Y-63017041D01*
X62406120Y-63252073D01*
X62297947Y-63513226D01*
X62242800Y-63790465D01*
X62242800Y-64073135D01*
X62297947Y-64350374D01*
X62406120Y-64611527D01*
X62563163Y-64846559D01*
X62763041Y-65046437D01*
X62998073Y-65203480D01*
X63008665Y-65207867D01*
X62822669Y-65319415D01*
X62614281Y-65508386D01*
X62446763Y-65734380D01*
X62326554Y-65988713D01*
X62285896Y-66122761D01*
X62407885Y-66344800D01*
X63550800Y-66344800D01*
X63550800Y-66324800D01*
X63804800Y-66324800D01*
X63804800Y-66344800D01*
X64947715Y-66344800D01*
X65069704Y-66122761D01*
X65029046Y-65988713D01*
X64908837Y-65734380D01*
X64741319Y-65508386D01*
X64532931Y-65319415D01*
X64346935Y-65207867D01*
X64357527Y-65203480D01*
X64592559Y-65046437D01*
X64792437Y-64846559D01*
X64949480Y-64611527D01*
X65057653Y-64350374D01*
X65112800Y-64073135D01*
X65112800Y-63790465D01*
X65057653Y-63513226D01*
X64949480Y-63252073D01*
X64792437Y-63017041D01*
X64592559Y-62817163D01*
X64360041Y-62661800D01*
X64592559Y-62506437D01*
X64792437Y-62306559D01*
X64949480Y-62071527D01*
X65057653Y-61810374D01*
X65112800Y-61533135D01*
X65112800Y-61361601D01*
X78165636Y-74414438D01*
X78189430Y-74443431D01*
X78218423Y-74467225D01*
X78218427Y-74467229D01*
X78305153Y-74538403D01*
X78305155Y-74538404D01*
X78437184Y-74608976D01*
X78580445Y-74652433D01*
X78692098Y-74663430D01*
X78692106Y-74663430D01*
X78729429Y-74667106D01*
X78766752Y-74663430D01*
X99338651Y-74663428D01*
X99375983Y-74667105D01*
X99413316Y-74663428D01*
X99524969Y-74652431D01*
X99568425Y-74639249D01*
X99668229Y-74608975D01*
X99800259Y-74538403D01*
X99886985Y-74467228D01*
X99886986Y-74467227D01*
X99915984Y-74443429D01*
X99939782Y-74414431D01*
X101518105Y-72836109D01*
X101567776Y-72956024D01*
X101691988Y-73141920D01*
X101850080Y-73300012D01*
X102035976Y-73424224D01*
X102242533Y-73509783D01*
X102461812Y-73553400D01*
X102685388Y-73553400D01*
X102904667Y-73509783D01*
X103111224Y-73424224D01*
X103297120Y-73300012D01*
X103455212Y-73141920D01*
X103579424Y-72956024D01*
X103664983Y-72749467D01*
X103708600Y-72530188D01*
X103708600Y-72306612D01*
X103664983Y-72087333D01*
X103579424Y-71880776D01*
X103455212Y-71694880D01*
X103297120Y-71536788D01*
X103111224Y-71412576D01*
X102904667Y-71327017D01*
X102685388Y-71283400D01*
X102461812Y-71283400D01*
X102242533Y-71327017D01*
X102035976Y-71412576D01*
X101858611Y-71531088D01*
X101858611Y-68449742D01*
X101862288Y-68412409D01*
X101847614Y-68263423D01*
X101804157Y-68120162D01*
X101733585Y-67988133D01*
X101662410Y-67901406D01*
X101638612Y-67872408D01*
X101609614Y-67848610D01*
X100653405Y-66892401D01*
X100629602Y-66863398D01*
X100513877Y-66768425D01*
X100381848Y-66697853D01*
X100238587Y-66654396D01*
X100126934Y-66643399D01*
X100126923Y-66643399D01*
X100089601Y-66639723D01*
X100052279Y-66643399D01*
X97685923Y-66643399D01*
X97648600Y-66639723D01*
X97611277Y-66643399D01*
X97611268Y-66643399D01*
X97499615Y-66654396D01*
X97356354Y-66697853D01*
X97333600Y-66710015D01*
X97333600Y-63608801D01*
X101685928Y-59256474D01*
X101685928Y-60083600D01*
X101698188Y-60208082D01*
X101734498Y-60327780D01*
X101793463Y-60438094D01*
X101872815Y-60534785D01*
X101969506Y-60614137D01*
X102079820Y-60673102D01*
X102199518Y-60709412D01*
X102324000Y-60721672D01*
X103924000Y-60721672D01*
X104048482Y-60709412D01*
X104168180Y-60673102D01*
X104278494Y-60614137D01*
X104375185Y-60534785D01*
X104454537Y-60438094D01*
X104513502Y-60327780D01*
X104549812Y-60208082D01*
X104562072Y-60083600D01*
X104562072Y-60043600D01*
X105723364Y-60043600D01*
X105853433Y-60113123D01*
X106017684Y-60162948D01*
X106188500Y-60179772D01*
X106663500Y-60179772D01*
X106834316Y-60162948D01*
X106998567Y-60113123D01*
X107149942Y-60032212D01*
X107282623Y-59923323D01*
X107391512Y-59790642D01*
X107472423Y-59639267D01*
X107522248Y-59475016D01*
X107539072Y-59304200D01*
X107539072Y-58704200D01*
X107522248Y-58533384D01*
X107472423Y-58369133D01*
X107391512Y-58217758D01*
X107329093Y-58141700D01*
X107391512Y-58065642D01*
X107472423Y-57914267D01*
X107522248Y-57750016D01*
X107539072Y-57579200D01*
X107539072Y-56979200D01*
X107522248Y-56808384D01*
X107472423Y-56644133D01*
X107391512Y-56492758D01*
X107282623Y-56360077D01*
X107149942Y-56251188D01*
X106998567Y-56170277D01*
X106834316Y-56120452D01*
X106663500Y-56103628D01*
X106305326Y-56103628D01*
X106182647Y-56038054D01*
X106039386Y-55994597D01*
X105927733Y-55983600D01*
X105927722Y-55983600D01*
X105890400Y-55979924D01*
X105853078Y-55983600D01*
X104342043Y-55983600D01*
X104238637Y-55828841D01*
X104038759Y-55628963D01*
X103806241Y-55473600D01*
X104038759Y-55318237D01*
X104238637Y-55118359D01*
X104395680Y-54883327D01*
X104503853Y-54622174D01*
X104559000Y-54344935D01*
X104559000Y-54062265D01*
X104503853Y-53785026D01*
X104395680Y-53523873D01*
X104238637Y-53288841D01*
X104038759Y-53088963D01*
X103806241Y-52933600D01*
X104038759Y-52778237D01*
X104238637Y-52578359D01*
X104395680Y-52343327D01*
X104503853Y-52082174D01*
X104559000Y-51804935D01*
X104559000Y-51522265D01*
X104503853Y-51245026D01*
X104395680Y-50983873D01*
X104238637Y-50748841D01*
X104038759Y-50548963D01*
X103806241Y-50393600D01*
X104038759Y-50238237D01*
X104238637Y-50038359D01*
X104395680Y-49803327D01*
X104503853Y-49542174D01*
X104559000Y-49264935D01*
X104559000Y-48982265D01*
X104503853Y-48705026D01*
X104395680Y-48443873D01*
X104238637Y-48208841D01*
X104038759Y-48008963D01*
X103806241Y-47853600D01*
X104038759Y-47698237D01*
X104238637Y-47498359D01*
X104395680Y-47263327D01*
X104503853Y-47002174D01*
X104559000Y-46724935D01*
X104559000Y-46442265D01*
X104503853Y-46165026D01*
X104395680Y-45903873D01*
X104238637Y-45668841D01*
X104038759Y-45468963D01*
X103806241Y-45313600D01*
X104038759Y-45158237D01*
X104238637Y-44958359D01*
X104395680Y-44723327D01*
X104503853Y-44462174D01*
X104559000Y-44184935D01*
X104559000Y-43902265D01*
X104503853Y-43625026D01*
X104395680Y-43363873D01*
X104238637Y-43128841D01*
X104038759Y-42928963D01*
X103803727Y-42771920D01*
X103793135Y-42767533D01*
X103979131Y-42655985D01*
X104187519Y-42467014D01*
X104355037Y-42241020D01*
X104475246Y-41986687D01*
X104515904Y-41852639D01*
X104393915Y-41630600D01*
X103251000Y-41630600D01*
X103251000Y-41650600D01*
X102997000Y-41650600D01*
X102997000Y-41630600D01*
X102977000Y-41630600D01*
X102977000Y-41376600D01*
X102997000Y-41376600D01*
X102997000Y-40232976D01*
X103251000Y-40232976D01*
X103251000Y-41376600D01*
X104393915Y-41376600D01*
X104515904Y-41154561D01*
X104475246Y-41020513D01*
X104355037Y-40766180D01*
X104187519Y-40540186D01*
X103979131Y-40351215D01*
X103737881Y-40206530D01*
X103473040Y-40111691D01*
X103251000Y-40232976D01*
X102997000Y-40232976D01*
X102774960Y-40111691D01*
X102510119Y-40206530D01*
X102268869Y-40351215D01*
X102158800Y-40451028D01*
X102158800Y-29863384D01*
X102163715Y-29813482D01*
X102144098Y-29614311D01*
X102086002Y-29422794D01*
X102037183Y-29331460D01*
X101991660Y-29246292D01*
X101937044Y-29179742D01*
X101945320Y-29174212D01*
X102103412Y-29016120D01*
X102227624Y-28830224D01*
X102313183Y-28623667D01*
X102356800Y-28404388D01*
X102356800Y-28180812D01*
X102313183Y-27961533D01*
X102227624Y-27754976D01*
X102103412Y-27569080D01*
X101945320Y-27410988D01*
X101759424Y-27286776D01*
X101552867Y-27201217D01*
X101333588Y-27157600D01*
X101110012Y-27157600D01*
X100890733Y-27201217D01*
X100684176Y-27286776D01*
X100498280Y-27410988D01*
X100340188Y-27569080D01*
X100338205Y-27572047D01*
X99984629Y-27218471D01*
X99952813Y-27179703D01*
X99798107Y-27052739D01*
X99621604Y-26958397D01*
X99430088Y-26900301D01*
X99280819Y-26885599D01*
X99230917Y-26880684D01*
X99181015Y-26885599D01*
X96602703Y-26885599D01*
X96552801Y-26880684D01*
X96353630Y-26900301D01*
X96162113Y-26958397D01*
X96100633Y-26991259D01*
X95985611Y-27052739D01*
X95830905Y-27179703D01*
X95799088Y-27218472D01*
X95288670Y-27728890D01*
X95288664Y-27728895D01*
X95169959Y-27847600D01*
X95085389Y-27847600D01*
X94817811Y-27900825D01*
X94565757Y-28005229D01*
X94338914Y-28156801D01*
X94146001Y-28349714D01*
X93994429Y-28576557D01*
X93890025Y-28828611D01*
X93836800Y-29096189D01*
X93836800Y-29369011D01*
X93890025Y-29636589D01*
X93994429Y-29888643D01*
X94146001Y-30115486D01*
X94338914Y-30308399D01*
X94565757Y-30459971D01*
X94817811Y-30564375D01*
X95085389Y-30617600D01*
X95358211Y-30617600D01*
X95625789Y-30564375D01*
X95877843Y-30459971D01*
X96104686Y-30308399D01*
X96297599Y-30115486D01*
X96449171Y-29888643D01*
X96553575Y-29636589D01*
X96606800Y-29369011D01*
X96606800Y-29284441D01*
X96725505Y-29165736D01*
X96725510Y-29165730D01*
X96847167Y-29044073D01*
X96836800Y-29096189D01*
X96836800Y-29369011D01*
X96890025Y-29636589D01*
X96994429Y-29888643D01*
X97146001Y-30115486D01*
X97338914Y-30308399D01*
X97565757Y-30459971D01*
X97817811Y-30564375D01*
X98085389Y-30617600D01*
X98169960Y-30617600D01*
X98396887Y-30844528D01*
X97721800Y-30844528D01*
X97548546Y-30861592D01*
X97381950Y-30912128D01*
X97228414Y-30994195D01*
X97093838Y-31104638D01*
X96983395Y-31239214D01*
X96901328Y-31392750D01*
X96850792Y-31559346D01*
X96833728Y-31732600D01*
X96833728Y-32732600D01*
X96850792Y-32905854D01*
X96901328Y-33072450D01*
X96983395Y-33225986D01*
X97093838Y-33360562D01*
X97205801Y-33452447D01*
X97205800Y-46848560D01*
X96237800Y-45880560D01*
X96237800Y-33175285D01*
X96297599Y-33115486D01*
X96449171Y-32888643D01*
X96553575Y-32636589D01*
X96606800Y-32369011D01*
X96606800Y-32096189D01*
X96553575Y-31828611D01*
X96449171Y-31576557D01*
X96297599Y-31349714D01*
X96104686Y-31156801D01*
X95877843Y-31005229D01*
X95625789Y-30900825D01*
X95358211Y-30847600D01*
X95085389Y-30847600D01*
X94817811Y-30900825D01*
X94565757Y-31005229D01*
X94338914Y-31156801D01*
X94146001Y-31349714D01*
X93994429Y-31576557D01*
X93890025Y-31828611D01*
X93836800Y-32096189D01*
X93836800Y-32369011D01*
X93890025Y-32636589D01*
X93994429Y-32888643D01*
X94146001Y-33115486D01*
X94205801Y-33175286D01*
X94205800Y-46251498D01*
X94200885Y-46301400D01*
X94205800Y-46351301D01*
X94220502Y-46500570D01*
X94278598Y-46692086D01*
X94372940Y-46868590D01*
X94499904Y-47023296D01*
X94538672Y-47055112D01*
X101689000Y-54205441D01*
X101689000Y-54344935D01*
X101744147Y-54622174D01*
X101852320Y-54883327D01*
X102009363Y-55118359D01*
X102209241Y-55318237D01*
X102441759Y-55473600D01*
X102209241Y-55628963D01*
X102009363Y-55828841D01*
X101852320Y-56063873D01*
X101744147Y-56325026D01*
X101689000Y-56602265D01*
X101689000Y-56884935D01*
X101725312Y-57067486D01*
X96062603Y-62730196D01*
X96033599Y-62753999D01*
X95988423Y-62809047D01*
X95938626Y-62869724D01*
X95900487Y-62941077D01*
X95868054Y-63001754D01*
X95824597Y-63145015D01*
X95813600Y-63256668D01*
X95813600Y-63256678D01*
X95809924Y-63294000D01*
X95813600Y-63331323D01*
X95813601Y-67320490D01*
X95690714Y-67402601D01*
X95497801Y-67595514D01*
X95346229Y-67822357D01*
X95241825Y-68074411D01*
X95188600Y-68341989D01*
X95188600Y-68614811D01*
X95241825Y-68882389D01*
X95346229Y-69134443D01*
X95497801Y-69361286D01*
X95690714Y-69554199D01*
X95917557Y-69705771D01*
X96169611Y-69810175D01*
X96437189Y-69863400D01*
X96710011Y-69863400D01*
X96977589Y-69810175D01*
X97229643Y-69705771D01*
X97456486Y-69554199D01*
X97649399Y-69361286D01*
X97800971Y-69134443D01*
X97905375Y-68882389D01*
X97958600Y-68614811D01*
X97958600Y-68341989D01*
X97929767Y-68197034D01*
X97963402Y-68163399D01*
X98224124Y-68163399D01*
X98188600Y-68341989D01*
X98188600Y-68614811D01*
X98241825Y-68882389D01*
X98346229Y-69134443D01*
X98497801Y-69361286D01*
X98690714Y-69554199D01*
X98917557Y-69705771D01*
X99169611Y-69810175D01*
X99437189Y-69863400D01*
X99710011Y-69863400D01*
X99854965Y-69834567D01*
X99888601Y-69868203D01*
X99888601Y-70128924D01*
X99710011Y-70093400D01*
X99437189Y-70093400D01*
X99169611Y-70146625D01*
X98917557Y-70251029D01*
X98690714Y-70402601D01*
X98497801Y-70595514D01*
X98346229Y-70822357D01*
X98241825Y-71074411D01*
X98188600Y-71341989D01*
X98188600Y-71614811D01*
X98217433Y-71759765D01*
X97733789Y-72243410D01*
X97728161Y-72243410D01*
X97800971Y-72134443D01*
X97905375Y-71882389D01*
X97958600Y-71614811D01*
X97958600Y-71341989D01*
X97905375Y-71074411D01*
X97800971Y-70822357D01*
X97649399Y-70595514D01*
X97456486Y-70402601D01*
X97229643Y-70251029D01*
X96977589Y-70146625D01*
X96710011Y-70093400D01*
X96437189Y-70093400D01*
X96169611Y-70146625D01*
X95917557Y-70251029D01*
X95690714Y-70402601D01*
X95497801Y-70595514D01*
X95346229Y-70822357D01*
X95241825Y-71074411D01*
X95188600Y-71341989D01*
X95188600Y-71614811D01*
X95217433Y-71759765D01*
X95183798Y-71793401D01*
X94923076Y-71793401D01*
X94958600Y-71614811D01*
X94958600Y-71341989D01*
X94905375Y-71074411D01*
X94800971Y-70822357D01*
X94649399Y-70595514D01*
X94456486Y-70402601D01*
X94327283Y-70316270D01*
X94322603Y-70268754D01*
X94279146Y-70125493D01*
X94208574Y-69993464D01*
X94137399Y-69906737D01*
X94113601Y-69877739D01*
X94097057Y-69864162D01*
X94246854Y-69849408D01*
X94413450Y-69798872D01*
X94566986Y-69716805D01*
X94701562Y-69606362D01*
X94812005Y-69471786D01*
X94894072Y-69318250D01*
X94944608Y-69151654D01*
X94961672Y-68978400D01*
X94961672Y-67978400D01*
X94944608Y-67805146D01*
X94894072Y-67638550D01*
X94812005Y-67485014D01*
X94701562Y-67350438D01*
X94566986Y-67239995D01*
X94413450Y-67157928D01*
X94246854Y-67107392D01*
X94073600Y-67090328D01*
X93073600Y-67090328D01*
X92900346Y-67107392D01*
X92733750Y-67157928D01*
X92580214Y-67239995D01*
X92445638Y-67350438D01*
X92335195Y-67485014D01*
X92253128Y-67638550D01*
X92202592Y-67805146D01*
X92187638Y-67956976D01*
X83696465Y-59465804D01*
X83672662Y-59436800D01*
X83556937Y-59341827D01*
X83424908Y-59271255D01*
X83281647Y-59227798D01*
X83169994Y-59216801D01*
X83169983Y-59216801D01*
X83132661Y-59213125D01*
X83095339Y-59216801D01*
X80308309Y-59216801D01*
X80352800Y-58993135D01*
X80352800Y-58710465D01*
X80308309Y-58486799D01*
X88552398Y-58486799D01*
X89025312Y-58959714D01*
X88989000Y-59142265D01*
X88989000Y-59424935D01*
X89044147Y-59702174D01*
X89152320Y-59963327D01*
X89309363Y-60198359D01*
X89509241Y-60398237D01*
X89744273Y-60555280D01*
X90005426Y-60663453D01*
X90282665Y-60718600D01*
X90565335Y-60718600D01*
X90842574Y-60663453D01*
X91103727Y-60555280D01*
X91338759Y-60398237D01*
X91538637Y-60198359D01*
X91695680Y-59963327D01*
X91803853Y-59702174D01*
X91859000Y-59424935D01*
X91859000Y-59142265D01*
X91803853Y-58865026D01*
X91695680Y-58603873D01*
X91538637Y-58368841D01*
X91338759Y-58168963D01*
X91106241Y-58013600D01*
X91338759Y-57858237D01*
X91538637Y-57658359D01*
X91695680Y-57423327D01*
X91803853Y-57162174D01*
X91859000Y-56884935D01*
X91859000Y-56602265D01*
X91803853Y-56325026D01*
X91695680Y-56063873D01*
X91538637Y-55828841D01*
X91338759Y-55628963D01*
X91106241Y-55473600D01*
X91338759Y-55318237D01*
X91538637Y-55118359D01*
X91695680Y-54883327D01*
X91803853Y-54622174D01*
X91859000Y-54344935D01*
X91859000Y-54062265D01*
X91803853Y-53785026D01*
X91695680Y-53523873D01*
X91538637Y-53288841D01*
X91338759Y-53088963D01*
X91106241Y-52933600D01*
X91338759Y-52778237D01*
X91538637Y-52578359D01*
X91695680Y-52343327D01*
X91803853Y-52082174D01*
X91859000Y-51804935D01*
X91859000Y-51522265D01*
X91803853Y-51245026D01*
X91695680Y-50983873D01*
X91538637Y-50748841D01*
X91538600Y-50748804D01*
X92510014Y-49777390D01*
X92539012Y-49753592D01*
X92565343Y-49721508D01*
X92633985Y-49637868D01*
X92704557Y-49505838D01*
X92738929Y-49392526D01*
X92748014Y-49362577D01*
X92759011Y-49250924D01*
X92759011Y-49250915D01*
X92762687Y-49213592D01*
X92759011Y-49176269D01*
X92759011Y-41984563D01*
X92762687Y-41947240D01*
X92759011Y-41909917D01*
X92759011Y-41909908D01*
X92748014Y-41798255D01*
X92704557Y-41654994D01*
X92665970Y-41582804D01*
X92633985Y-41522964D01*
X92572071Y-41447523D01*
X92539012Y-41407240D01*
X92510009Y-41383438D01*
X92119174Y-40992603D01*
X92095371Y-40963599D01*
X91979646Y-40868626D01*
X91847617Y-40798054D01*
X91704356Y-40754597D01*
X91645519Y-40748802D01*
X91538637Y-40588841D01*
X91338759Y-40388963D01*
X91103727Y-40231920D01*
X90842574Y-40123747D01*
X90565335Y-40068600D01*
X90282665Y-40068600D01*
X90005426Y-40123747D01*
X89744273Y-40231920D01*
X89509241Y-40388963D01*
X89309363Y-40588841D01*
X89152320Y-40823873D01*
X89116399Y-40910595D01*
X80032400Y-31826596D01*
X80032437Y-31826559D01*
X80189480Y-31591527D01*
X80297653Y-31330374D01*
X80352800Y-31053135D01*
X80352800Y-30770465D01*
X80297653Y-30493226D01*
X80189480Y-30232073D01*
X80032437Y-29997041D01*
X79832559Y-29797163D01*
X79597527Y-29640120D01*
X79336374Y-29531947D01*
X79059135Y-29476800D01*
X78776465Y-29476800D01*
X78499226Y-29531947D01*
X78238073Y-29640120D01*
X78003041Y-29797163D01*
X77803163Y-29997041D01*
X77646120Y-30232073D01*
X77537947Y-30493226D01*
X77482800Y-30770465D01*
X77482800Y-31053135D01*
X77537947Y-31330374D01*
X77646120Y-31591527D01*
X77803163Y-31826559D01*
X77803200Y-31826596D01*
X77281801Y-32347996D01*
X77252798Y-32371798D01*
X77217007Y-32415410D01*
X77157825Y-32487523D01*
X77131357Y-32537041D01*
X77087253Y-32619553D01*
X77043796Y-32762814D01*
X77032799Y-32874467D01*
X77032799Y-32874477D01*
X77029123Y-32911799D01*
X77032799Y-32949122D01*
X77032800Y-34829467D01*
X77029123Y-34866799D01*
X77032800Y-34904132D01*
X77043767Y-35015475D01*
X77043797Y-35015784D01*
X77087253Y-35159045D01*
X77157825Y-35291075D01*
X77229000Y-35377801D01*
X77252799Y-35406800D01*
X77281797Y-35430598D01*
X77519112Y-35667913D01*
X77482800Y-35850465D01*
X77482800Y-36133135D01*
X77537947Y-36410374D01*
X77646120Y-36671527D01*
X77803163Y-36906559D01*
X78003041Y-37106437D01*
X78235559Y-37261800D01*
X78003041Y-37417163D01*
X77803163Y-37617041D01*
X77646120Y-37852073D01*
X77537947Y-38113226D01*
X77482800Y-38390465D01*
X77482800Y-38673135D01*
X77537947Y-38950374D01*
X77646120Y-39211527D01*
X77803163Y-39446559D01*
X77803200Y-39446596D01*
X75481759Y-41768038D01*
X75452761Y-41791836D01*
X75428963Y-41820834D01*
X75428962Y-41820835D01*
X75357787Y-41907561D01*
X75287215Y-42039591D01*
X75270036Y-42096226D01*
X75249464Y-42164046D01*
X75243759Y-42182852D01*
X75229085Y-42331837D01*
X75232762Y-42369170D01*
X75232761Y-65694441D01*
X75229085Y-65731763D01*
X75232761Y-65769085D01*
X75232761Y-65769095D01*
X75243758Y-65880748D01*
X75287215Y-66024009D01*
X75357787Y-66156039D01*
X75397632Y-66204589D01*
X75452760Y-66271764D01*
X75481764Y-66295567D01*
X82329627Y-73143431D01*
X79044233Y-73143431D01*
X65076488Y-59175687D01*
X65112800Y-58993135D01*
X65112800Y-58710465D01*
X65057653Y-58433226D01*
X64949480Y-58172073D01*
X64792437Y-57937041D01*
X64592559Y-57737163D01*
X64360041Y-57581800D01*
X64592559Y-57426437D01*
X64792437Y-57226559D01*
X64949480Y-56991527D01*
X65057653Y-56730374D01*
X65112800Y-56453135D01*
X65112800Y-56170465D01*
X65057653Y-55893226D01*
X64949480Y-55632073D01*
X64792437Y-55397041D01*
X64592559Y-55197163D01*
X64360041Y-55041800D01*
X64592559Y-54886437D01*
X64792437Y-54686559D01*
X64949480Y-54451527D01*
X65057653Y-54190374D01*
X65112800Y-53913135D01*
X65112800Y-53630465D01*
X65057653Y-53353226D01*
X64949480Y-53092073D01*
X64792437Y-52857041D01*
X64592559Y-52657163D01*
X64360041Y-52501800D01*
X64592559Y-52346437D01*
X64792437Y-52146559D01*
X64949480Y-51911527D01*
X65057653Y-51650374D01*
X65112800Y-51373135D01*
X65112800Y-51090465D01*
X65057653Y-50813226D01*
X64949480Y-50552073D01*
X64792437Y-50317041D01*
X64592559Y-50117163D01*
X64360041Y-49961800D01*
X64592559Y-49806437D01*
X64792437Y-49606559D01*
X64949480Y-49371527D01*
X65057653Y-49110374D01*
X65112800Y-48833135D01*
X65112800Y-48550465D01*
X65057653Y-48273226D01*
X64949480Y-48012073D01*
X64792437Y-47777041D01*
X64592559Y-47577163D01*
X64360041Y-47421800D01*
X64592559Y-47266437D01*
X64792437Y-47066559D01*
X64949480Y-46831527D01*
X65057653Y-46570374D01*
X65112800Y-46293135D01*
X65112800Y-46010465D01*
X65057653Y-45733226D01*
X64949480Y-45472073D01*
X64792437Y-45237041D01*
X64592559Y-45037163D01*
X64360041Y-44881800D01*
X64592559Y-44726437D01*
X64792437Y-44526559D01*
X64949480Y-44291527D01*
X65057653Y-44030374D01*
X65112800Y-43753135D01*
X65112800Y-43470465D01*
X65057653Y-43193226D01*
X64949480Y-42932073D01*
X64792437Y-42697041D01*
X64592559Y-42497163D01*
X64360041Y-42341800D01*
X64592559Y-42186437D01*
X64792437Y-41986559D01*
X64949480Y-41751527D01*
X65057653Y-41490374D01*
X65112800Y-41213135D01*
X65112800Y-40930465D01*
X65057653Y-40653226D01*
X64949480Y-40392073D01*
X64792437Y-40157041D01*
X64592559Y-39957163D01*
X64360041Y-39801800D01*
X64592559Y-39646437D01*
X64792437Y-39446559D01*
X64949480Y-39211527D01*
X65057653Y-38950374D01*
X65112800Y-38673135D01*
X65112800Y-38390465D01*
X65057653Y-38113226D01*
X64949480Y-37852073D01*
X64792437Y-37617041D01*
X64592559Y-37417163D01*
X64360041Y-37261800D01*
X64592559Y-37106437D01*
X64792437Y-36906559D01*
X64949480Y-36671527D01*
X65057653Y-36410374D01*
X65112800Y-36133135D01*
X65112800Y-35850465D01*
X65057653Y-35573226D01*
X64949480Y-35312073D01*
X64792437Y-35077041D01*
X64592559Y-34877163D01*
X64360041Y-34721800D01*
X64592559Y-34566437D01*
X64792437Y-34366559D01*
X64949480Y-34131527D01*
X65057653Y-33870374D01*
X65112800Y-33593135D01*
X65112800Y-33310465D01*
X65057653Y-33033226D01*
X64949480Y-32772073D01*
X64792437Y-32537041D01*
X64592559Y-32337163D01*
X64360041Y-32181800D01*
X64592559Y-32026437D01*
X64792437Y-31826559D01*
X64949480Y-31591527D01*
X65057653Y-31330374D01*
X65112800Y-31053135D01*
X65112800Y-30770465D01*
X65057653Y-30493226D01*
X64949480Y-30232073D01*
X64792437Y-29997041D01*
X64592559Y-29797163D01*
X64357527Y-29640120D01*
X64096374Y-29531947D01*
X63819135Y-29476800D01*
X63536465Y-29476800D01*
X63259226Y-29531947D01*
X62998073Y-29640120D01*
X62763041Y-29797163D01*
X62563163Y-29997041D01*
X62406120Y-30232073D01*
X62297947Y-30493226D01*
X62242800Y-30770465D01*
X62242800Y-31053135D01*
X62297947Y-31330374D01*
X62406120Y-31591527D01*
X62563163Y-31826559D01*
X62763041Y-32026437D01*
X62995559Y-32181800D01*
X62763041Y-32337163D01*
X62563163Y-32537041D01*
X62406120Y-32772073D01*
X62297947Y-33033226D01*
X62242800Y-33310465D01*
X62242800Y-33593135D01*
X62297947Y-33870374D01*
X62406120Y-34131527D01*
X62563163Y-34366559D01*
X62763041Y-34566437D01*
X62995559Y-34721800D01*
X62763041Y-34877163D01*
X62563163Y-35077041D01*
X62406120Y-35312073D01*
X62297947Y-35573226D01*
X62242800Y-35850465D01*
X62242800Y-36133135D01*
X62297947Y-36410374D01*
X62406120Y-36671527D01*
X62563163Y-36906559D01*
X62763041Y-37106437D01*
X62995559Y-37261800D01*
X62763041Y-37417163D01*
X62563163Y-37617041D01*
X62456281Y-37777002D01*
X62397444Y-37782797D01*
X62254183Y-37826254D01*
X62213500Y-37848000D01*
X61124323Y-37848000D01*
X61087000Y-37844324D01*
X61049677Y-37848000D01*
X61049667Y-37848000D01*
X60938014Y-37858997D01*
X60794753Y-37902454D01*
X60662723Y-37973026D01*
X60579083Y-38041668D01*
X60546999Y-38067999D01*
X60523201Y-38096997D01*
X59610802Y-39009396D01*
X59581799Y-39033199D01*
X59526671Y-39100374D01*
X59486826Y-39148924D01*
X59460703Y-39197797D01*
X59416254Y-39280954D01*
X59372797Y-39424215D01*
X59361800Y-39535868D01*
X59361800Y-39535878D01*
X59358124Y-39573200D01*
X59361800Y-39610522D01*
X59361801Y-54650797D01*
X58105199Y-55907400D01*
X54441322Y-55907400D01*
X54403999Y-55903724D01*
X54366676Y-55907400D01*
X54366667Y-55907400D01*
X54255014Y-55918397D01*
X54111753Y-55961854D01*
X53979724Y-56032426D01*
X53863999Y-56127399D01*
X53840201Y-56156397D01*
X52246965Y-57749633D01*
X52102011Y-57720800D01*
X51829189Y-57720800D01*
X51561611Y-57774025D01*
X51309557Y-57878429D01*
X51082714Y-58030001D01*
X50889801Y-58222914D01*
X50738229Y-58449757D01*
X50633825Y-58701811D01*
X50580600Y-58969389D01*
X45718400Y-58969389D01*
X45718400Y-55994012D01*
X49890600Y-55994012D01*
X49890600Y-56217588D01*
X49934217Y-56436867D01*
X50019776Y-56643424D01*
X50143988Y-56829320D01*
X50302080Y-56987412D01*
X50487976Y-57111624D01*
X50694533Y-57197183D01*
X50913812Y-57240800D01*
X51137388Y-57240800D01*
X51356667Y-57197183D01*
X51563224Y-57111624D01*
X51749120Y-56987412D01*
X51907212Y-56829320D01*
X52031424Y-56643424D01*
X52116983Y-56436867D01*
X52160600Y-56217588D01*
X52160600Y-55994012D01*
X52116983Y-55774733D01*
X52031424Y-55568176D01*
X51907212Y-55382280D01*
X51749120Y-55224188D01*
X51563224Y-55099976D01*
X51356667Y-55014417D01*
X51137388Y-54970800D01*
X50913812Y-54970800D01*
X50694533Y-55014417D01*
X50487976Y-55099976D01*
X50302080Y-55224188D01*
X50143988Y-55382280D01*
X50019776Y-55568176D01*
X49934217Y-55774733D01*
X49890600Y-55994012D01*
X45718400Y-55994012D01*
X45718400Y-49116212D01*
X50093800Y-49116212D01*
X50093800Y-49339788D01*
X50137417Y-49559067D01*
X50222976Y-49765624D01*
X50347188Y-49951520D01*
X50505280Y-50109612D01*
X50691176Y-50233824D01*
X50897733Y-50319383D01*
X51117012Y-50363000D01*
X51340588Y-50363000D01*
X51559867Y-50319383D01*
X51766424Y-50233824D01*
X51952320Y-50109612D01*
X52110412Y-49951520D01*
X52234624Y-49765624D01*
X52320183Y-49559067D01*
X52363800Y-49339788D01*
X52363800Y-49116212D01*
X52320183Y-48896933D01*
X52234624Y-48690376D01*
X52110412Y-48504480D01*
X51952320Y-48346388D01*
X51766424Y-48222176D01*
X51559867Y-48136617D01*
X51340588Y-48093000D01*
X51117012Y-48093000D01*
X50897733Y-48136617D01*
X50691176Y-48222176D01*
X50505280Y-48346388D01*
X50347188Y-48504480D01*
X50222976Y-48690376D01*
X50137417Y-48896933D01*
X50093800Y-49116212D01*
X45718400Y-49116212D01*
X45718400Y-47184993D01*
X51391412Y-47184993D01*
X51456937Y-47423860D01*
X51703916Y-47539760D01*
X51968760Y-47605250D01*
X52241292Y-47617812D01*
X52511038Y-47576965D01*
X52767632Y-47484277D01*
X52880663Y-47423860D01*
X52946188Y-47184993D01*
X52168800Y-46407605D01*
X51391412Y-47184993D01*
X45718400Y-47184993D01*
X45718400Y-46300492D01*
X50778988Y-46300492D01*
X50819835Y-46570238D01*
X50912523Y-46826832D01*
X50972940Y-46939863D01*
X51211807Y-47005388D01*
X51989195Y-46228000D01*
X52348405Y-46228000D01*
X53125793Y-47005388D01*
X53364660Y-46939863D01*
X53480560Y-46692884D01*
X53546050Y-46428040D01*
X53558612Y-46155508D01*
X53517765Y-45885762D01*
X53460778Y-45728000D01*
X53780728Y-45728000D01*
X53780728Y-46728000D01*
X53797792Y-46901254D01*
X53848328Y-47067850D01*
X53930395Y-47221386D01*
X54040838Y-47355962D01*
X54175414Y-47466405D01*
X54328950Y-47548472D01*
X54495546Y-47599008D01*
X54668800Y-47616072D01*
X55668800Y-47616072D01*
X55842054Y-47599008D01*
X56008650Y-47548472D01*
X56162186Y-47466405D01*
X56296762Y-47355962D01*
X56407205Y-47221386D01*
X56489272Y-47067850D01*
X56539808Y-46901254D01*
X56556872Y-46728000D01*
X56556872Y-45728000D01*
X56539808Y-45554746D01*
X56489272Y-45388150D01*
X56407205Y-45234614D01*
X56296762Y-45100038D01*
X56162186Y-44989595D01*
X56008650Y-44907528D01*
X55842054Y-44856992D01*
X55668800Y-44839928D01*
X54668800Y-44839928D01*
X54495546Y-44856992D01*
X54328950Y-44907528D01*
X54175414Y-44989595D01*
X54040838Y-45100038D01*
X53930395Y-45234614D01*
X53848328Y-45388150D01*
X53797792Y-45554746D01*
X53780728Y-45728000D01*
X53460778Y-45728000D01*
X53425077Y-45629168D01*
X53364660Y-45516137D01*
X53125793Y-45450612D01*
X52348405Y-46228000D01*
X51989195Y-46228000D01*
X51211807Y-45450612D01*
X50972940Y-45516137D01*
X50857040Y-45763116D01*
X50791550Y-46027960D01*
X50778988Y-46300492D01*
X45718400Y-46300492D01*
X45718400Y-45271007D01*
X51391412Y-45271007D01*
X52168800Y-46048395D01*
X52946188Y-45271007D01*
X52880663Y-45032140D01*
X52633684Y-44916240D01*
X52368840Y-44850750D01*
X52096308Y-44838188D01*
X51826562Y-44879035D01*
X51569968Y-44971723D01*
X51456937Y-45032140D01*
X51391412Y-45271007D01*
X45718400Y-45271007D01*
X45718400Y-43116212D01*
X50093800Y-43116212D01*
X50093800Y-43339788D01*
X50137417Y-43559067D01*
X50222976Y-43765624D01*
X50347188Y-43951520D01*
X50505280Y-44109612D01*
X50691176Y-44233824D01*
X50897733Y-44319383D01*
X51117012Y-44363000D01*
X51340588Y-44363000D01*
X51559867Y-44319383D01*
X51766424Y-44233824D01*
X51952320Y-44109612D01*
X52110412Y-43951520D01*
X52234624Y-43765624D01*
X52320183Y-43559067D01*
X52363800Y-43339788D01*
X52363800Y-43116212D01*
X52320183Y-42896933D01*
X52234624Y-42690376D01*
X52110412Y-42504480D01*
X51952320Y-42346388D01*
X51766424Y-42222176D01*
X51559867Y-42136617D01*
X51340588Y-42093000D01*
X51117012Y-42093000D01*
X50897733Y-42136617D01*
X50691176Y-42222176D01*
X50505280Y-42346388D01*
X50347188Y-42504480D01*
X50222976Y-42690376D01*
X50137417Y-42896933D01*
X50093800Y-43116212D01*
X45718400Y-43116212D01*
X45718400Y-35902800D01*
X49565128Y-35902800D01*
X49577388Y-36027282D01*
X49613698Y-36146980D01*
X49672663Y-36257294D01*
X49752015Y-36353985D01*
X49848706Y-36433337D01*
X49959020Y-36492302D01*
X50078718Y-36528612D01*
X50203200Y-36540872D01*
X50717450Y-36537800D01*
X50876200Y-36379050D01*
X50876200Y-35229800D01*
X51130200Y-35229800D01*
X51130200Y-36379050D01*
X51288950Y-36537800D01*
X51803200Y-36540872D01*
X51927682Y-36528612D01*
X52047380Y-36492302D01*
X52157694Y-36433337D01*
X52254385Y-36353985D01*
X52333737Y-36257294D01*
X52392702Y-36146980D01*
X52429012Y-36027282D01*
X52441272Y-35902800D01*
X52438200Y-35388550D01*
X52279450Y-35229800D01*
X51130200Y-35229800D01*
X50876200Y-35229800D01*
X49726950Y-35229800D01*
X49568200Y-35388550D01*
X49565128Y-35902800D01*
X45718400Y-35902800D01*
X45718400Y-34302800D01*
X49565128Y-34302800D01*
X49568200Y-34817050D01*
X49726950Y-34975800D01*
X50876200Y-34975800D01*
X50876200Y-33826550D01*
X51130200Y-33826550D01*
X51130200Y-34975800D01*
X52279450Y-34975800D01*
X52293785Y-34961465D01*
X53368200Y-34961465D01*
X53368200Y-35244135D01*
X53423347Y-35521374D01*
X53531520Y-35782527D01*
X53688563Y-36017559D01*
X53888441Y-36217437D01*
X54123473Y-36374480D01*
X54384626Y-36482653D01*
X54661865Y-36537800D01*
X54944535Y-36537800D01*
X55221774Y-36482653D01*
X55482927Y-36374480D01*
X55717959Y-36217437D01*
X55917837Y-36017559D01*
X56074880Y-35782527D01*
X56183053Y-35521374D01*
X56238200Y-35244135D01*
X56238200Y-34961465D01*
X56183053Y-34684226D01*
X56074880Y-34423073D01*
X55917837Y-34188041D01*
X55717959Y-33988163D01*
X55482927Y-33831120D01*
X55221774Y-33722947D01*
X54944535Y-33667800D01*
X54661865Y-33667800D01*
X54384626Y-33722947D01*
X54123473Y-33831120D01*
X53888441Y-33988163D01*
X53688563Y-34188041D01*
X53531520Y-34423073D01*
X53423347Y-34684226D01*
X53368200Y-34961465D01*
X52293785Y-34961465D01*
X52438200Y-34817050D01*
X52441272Y-34302800D01*
X52429012Y-34178318D01*
X52392702Y-34058620D01*
X52333737Y-33948306D01*
X52254385Y-33851615D01*
X52157694Y-33772263D01*
X52047380Y-33713298D01*
X51927682Y-33676988D01*
X51803200Y-33664728D01*
X51288950Y-33667800D01*
X51130200Y-33826550D01*
X50876200Y-33826550D01*
X50717450Y-33667800D01*
X50203200Y-33664728D01*
X50078718Y-33676988D01*
X49959020Y-33713298D01*
X49848706Y-33772263D01*
X49752015Y-33851615D01*
X49672663Y-33948306D01*
X49613698Y-34058620D01*
X49577388Y-34178318D01*
X49565128Y-34302800D01*
X45718400Y-34302800D01*
X45718400Y-28180812D01*
X91086800Y-28180812D01*
X91086800Y-28404388D01*
X91130417Y-28623667D01*
X91215976Y-28830224D01*
X91340188Y-29016120D01*
X91498280Y-29174212D01*
X91684176Y-29298424D01*
X91890733Y-29383983D01*
X92110012Y-29427600D01*
X92333588Y-29427600D01*
X92552867Y-29383983D01*
X92759424Y-29298424D01*
X92945320Y-29174212D01*
X93103412Y-29016120D01*
X93227624Y-28830224D01*
X93313183Y-28623667D01*
X93356800Y-28404388D01*
X93356800Y-28180812D01*
X93313183Y-27961533D01*
X93227624Y-27754976D01*
X93103412Y-27569080D01*
X92945320Y-27410988D01*
X92759424Y-27286776D01*
X92552867Y-27201217D01*
X92333588Y-27157600D01*
X92110012Y-27157600D01*
X91890733Y-27201217D01*
X91684176Y-27286776D01*
X91498280Y-27410988D01*
X91340188Y-27569080D01*
X91215976Y-27754976D01*
X91130417Y-27961533D01*
X91086800Y-28180812D01*
X45718400Y-28180812D01*
X45718400Y-24878043D01*
X45953567Y-24878043D01*
X45953567Y-25312357D01*
X46038298Y-25738326D01*
X46204502Y-26139579D01*
X46445794Y-26500698D01*
X46752901Y-26807805D01*
X47114020Y-27049097D01*
X47515273Y-27215301D01*
X47941242Y-27300032D01*
X48375556Y-27300032D01*
X48801525Y-27215301D01*
X49202778Y-27049097D01*
X49563897Y-26807805D01*
X49871004Y-26500698D01*
X50112296Y-26139579D01*
X50278500Y-25738326D01*
X50363231Y-25312357D01*
X50363231Y-24878043D01*
X50363231Y-24878042D01*
X105643566Y-24878042D01*
X105643566Y-25312356D01*
X105728297Y-25738325D01*
X105894501Y-26139578D01*
X106135793Y-26500697D01*
X106442900Y-26807804D01*
X106804019Y-27049096D01*
X107205272Y-27215300D01*
X107631241Y-27300031D01*
X108065555Y-27300031D01*
X108491524Y-27215300D01*
X108892777Y-27049096D01*
X109253896Y-26807804D01*
X109561003Y-26500697D01*
X109802295Y-26139578D01*
X109968499Y-25738325D01*
X110053230Y-25312356D01*
X110053230Y-24878042D01*
X109968499Y-24452073D01*
X109802295Y-24050820D01*
X109561003Y-23689701D01*
X109253896Y-23382594D01*
X108892777Y-23141302D01*
X108491524Y-22975098D01*
X108065555Y-22890367D01*
X107631241Y-22890367D01*
X107205272Y-22975098D01*
X106804019Y-23141302D01*
X106442900Y-23382594D01*
X106135793Y-23689701D01*
X105894501Y-24050820D01*
X105728297Y-24452073D01*
X105643566Y-24878042D01*
X50363231Y-24878042D01*
X50278500Y-24452074D01*
X50112296Y-24050821D01*
X49871004Y-23689702D01*
X49563897Y-23382595D01*
X49202778Y-23141303D01*
X48801525Y-22975099D01*
X48375556Y-22890368D01*
X47941242Y-22890368D01*
X47515273Y-22975099D01*
X47114020Y-23141303D01*
X46752901Y-23382595D01*
X46445794Y-23689702D01*
X46204502Y-24050821D01*
X46038298Y-24452074D01*
X45953567Y-24878043D01*
X45718400Y-24878043D01*
X45718400Y-24496147D01*
X45756233Y-24110293D01*
X45857853Y-23773711D01*
X46022912Y-23463279D01*
X46245123Y-23190821D01*
X46516027Y-22966710D01*
X46825296Y-22799488D01*
X47161160Y-22695520D01*
X47544782Y-22655200D01*
X108447451Y-22655200D01*
X108833305Y-22693033D01*
G37*
X108833305Y-22693033D02*
X109169887Y-22794653D01*
X109480319Y-22959712D01*
X109752777Y-23181923D01*
X109976888Y-23452827D01*
X110144110Y-23762096D01*
X110248078Y-24097960D01*
X110288399Y-24481591D01*
X110288398Y-76494262D01*
X110250566Y-76880107D01*
X110148946Y-77216687D01*
X109983884Y-77527121D01*
X109761672Y-77799580D01*
X109490771Y-78023688D01*
X109181498Y-78190912D01*
X108845637Y-78294878D01*
X108462017Y-78335198D01*
X47559356Y-78335200D01*
X47173491Y-78297366D01*
X46836911Y-78195746D01*
X46526477Y-78030684D01*
X46254018Y-77808472D01*
X46029910Y-77537571D01*
X45862686Y-77228298D01*
X45758720Y-76892437D01*
X45718400Y-76508817D01*
X45718400Y-75678041D01*
X45953567Y-75678041D01*
X45953567Y-76112355D01*
X46038298Y-76538324D01*
X46204502Y-76939577D01*
X46445794Y-77300696D01*
X46752901Y-77607803D01*
X47114020Y-77849095D01*
X47515273Y-78015299D01*
X47941242Y-78100030D01*
X48375556Y-78100030D01*
X48801525Y-78015299D01*
X49202778Y-77849095D01*
X49563897Y-77607803D01*
X49871004Y-77300696D01*
X50112296Y-76939577D01*
X50278500Y-76538324D01*
X50363231Y-76112355D01*
X50363231Y-75678041D01*
X105643567Y-75678041D01*
X105643567Y-76112355D01*
X105728298Y-76538324D01*
X105894502Y-76939577D01*
X106135794Y-77300696D01*
X106442901Y-77607803D01*
X106804020Y-77849095D01*
X107205273Y-78015299D01*
X107631242Y-78100030D01*
X108065556Y-78100030D01*
X108491525Y-78015299D01*
X108892778Y-77849095D01*
X109253897Y-77607803D01*
X109561004Y-77300696D01*
X109802296Y-76939577D01*
X109968500Y-76538324D01*
X110053231Y-76112355D01*
X110053231Y-75678041D01*
X109968500Y-75252072D01*
X109802296Y-74850819D01*
X109561004Y-74489700D01*
X109253897Y-74182593D01*
X108892778Y-73941301D01*
X108491525Y-73775097D01*
X108065556Y-73690366D01*
X107631242Y-73690366D01*
X107205273Y-73775097D01*
X106804020Y-73941301D01*
X106442901Y-74182593D01*
X106135794Y-74489700D01*
X105894502Y-74850819D01*
X105728298Y-75252072D01*
X105643567Y-75678041D01*
X50363231Y-75678041D01*
X50278500Y-75252072D01*
X50112296Y-74850819D01*
X49871004Y-74489700D01*
X49563897Y-74182593D01*
X49202778Y-73941301D01*
X48801525Y-73775097D01*
X48375556Y-73690366D01*
X47941242Y-73690366D01*
X47515273Y-73775097D01*
X47114020Y-73941301D01*
X46752901Y-74182593D01*
X46445794Y-74489700D01*
X46204502Y-74850819D01*
X46038298Y-75252072D01*
X45953567Y-75678041D01*
X45718400Y-75678041D01*
X45718400Y-66820839D01*
X62285896Y-66820839D01*
X62326554Y-66954887D01*
X62446763Y-67209220D01*
X62614281Y-67435214D01*
X62822669Y-67624185D01*
X63063919Y-67768870D01*
X63328760Y-67863709D01*
X63550800Y-67742424D01*
X63550800Y-66598800D01*
X63804800Y-66598800D01*
X63804800Y-67742424D01*
X64026840Y-67863709D01*
X64291681Y-67768870D01*
X64532931Y-67624185D01*
X64741319Y-67435214D01*
X64908837Y-67209220D01*
X65029046Y-66954887D01*
X65069704Y-66820839D01*
X64947715Y-66598800D01*
X63804800Y-66598800D01*
X63550800Y-66598800D01*
X62407885Y-66598800D01*
X62285896Y-66820839D01*
X45718400Y-66820839D01*
X45718400Y-64994012D01*
X49890600Y-64994012D01*
X49890600Y-65217588D01*
X49934217Y-65436867D01*
X50019776Y-65643424D01*
X50143988Y-65829320D01*
X50302080Y-65987412D01*
X50487976Y-66111624D01*
X50694533Y-66197183D01*
X50913812Y-66240800D01*
X51137388Y-66240800D01*
X51356667Y-66197183D01*
X51563224Y-66111624D01*
X51749120Y-65987412D01*
X51907212Y-65829320D01*
X52031424Y-65643424D01*
X52116983Y-65436867D01*
X52160600Y-65217588D01*
X52160600Y-64994012D01*
X52116983Y-64774733D01*
X52031424Y-64568176D01*
X51907212Y-64382280D01*
X51749120Y-64224188D01*
X51563224Y-64099976D01*
X51356667Y-64014417D01*
X51137388Y-63970800D01*
X50913812Y-63970800D01*
X50694533Y-64014417D01*
X50487976Y-64099976D01*
X50302080Y-64224188D01*
X50143988Y-64382280D01*
X50019776Y-64568176D01*
X49934217Y-64774733D01*
X49890600Y-64994012D01*
X45718400Y-64994012D01*
X45718400Y-61969389D01*
X50580600Y-61969389D01*
X50580600Y-62242211D01*
X50633825Y-62509789D01*
X50738229Y-62761843D01*
X50889801Y-62988686D01*
X51082714Y-63181599D01*
X51309557Y-63333171D01*
X51561611Y-63437575D01*
X51829189Y-63490800D01*
X52102011Y-63490800D01*
X52369589Y-63437575D01*
X52621643Y-63333171D01*
X52848486Y-63181599D01*
X53041399Y-62988686D01*
X53192971Y-62761843D01*
X53297375Y-62509789D01*
X53350600Y-62242211D01*
X53350600Y-61969389D01*
X53297375Y-61701811D01*
X53192971Y-61449757D01*
X53041399Y-61222914D01*
X52848486Y-61030001D01*
X52621643Y-60878429D01*
X52369589Y-60774025D01*
X52102011Y-60720800D01*
X51829189Y-60720800D01*
X51561611Y-60774025D01*
X51309557Y-60878429D01*
X51082714Y-61030001D01*
X50889801Y-61222914D01*
X50738229Y-61449757D01*
X50633825Y-61701811D01*
X50580600Y-61969389D01*
X45718400Y-61969389D01*
X45718400Y-58969389D01*
X50580600Y-58969389D01*
X50580600Y-59242211D01*
X50633825Y-59509789D01*
X50738229Y-59761843D01*
X50889801Y-59988686D01*
X51082714Y-60181599D01*
X51309557Y-60333171D01*
X51561611Y-60437575D01*
X51829189Y-60490800D01*
X52102011Y-60490800D01*
X52369589Y-60437575D01*
X52621643Y-60333171D01*
X52848486Y-60181599D01*
X53041399Y-59988686D01*
X53192971Y-59761843D01*
X53297375Y-59509789D01*
X53350600Y-59242211D01*
X53350600Y-58969389D01*
X53321767Y-58824435D01*
X53581584Y-58564617D01*
X53577528Y-58605800D01*
X53577528Y-59605800D01*
X53594592Y-59779054D01*
X53645128Y-59945650D01*
X53727195Y-60099186D01*
X53837638Y-60233762D01*
X53972214Y-60344205D01*
X54125750Y-60426272D01*
X54292346Y-60476808D01*
X54465600Y-60493872D01*
X55465600Y-60493872D01*
X55506783Y-60489816D01*
X55246965Y-60749633D01*
X55102011Y-60720800D01*
X54829189Y-60720800D01*
X54561611Y-60774025D01*
X54309557Y-60878429D01*
X54082714Y-61030001D01*
X53889801Y-61222914D01*
X53738229Y-61449757D01*
X53633825Y-61701811D01*
X53580600Y-61969389D01*
X53580600Y-62242211D01*
X53633825Y-62509789D01*
X53738229Y-62761843D01*
X53889801Y-62988686D01*
X54082714Y-63181599D01*
X54309557Y-63333171D01*
X54561611Y-63437575D01*
X54829189Y-63490800D01*
X55102011Y-63490800D01*
X55369589Y-63437575D01*
X55621643Y-63333171D01*
X55848486Y-63181599D01*
X56041399Y-62988686D01*
X56192971Y-62761843D01*
X56297375Y-62509789D01*
X56350600Y-62242211D01*
X56350600Y-61969389D01*
X56321767Y-61824435D01*
X58534402Y-59611800D01*
X62459757Y-59611800D01*
X62563163Y-59766559D01*
X62763041Y-59966437D01*
X62995559Y-60121800D01*
X62763041Y-60277163D01*
X62563163Y-60477041D01*
X62406120Y-60712073D01*
X62297947Y-60973226D01*
X62242800Y-61250465D01*
X62242800Y-61533135D01*
X62297947Y-61810374D01*
X62406120Y-62071527D01*
X62563163Y-62306559D01*
X62763041Y-62506437D01*
X62995559Y-62661800D01*
X62763041Y-62817163D01*
X62563163Y-63017041D01*
X62406120Y-63252073D01*
X62297947Y-63513226D01*
X62242800Y-63790465D01*
X62242800Y-64073135D01*
X62297947Y-64350374D01*
X62406120Y-64611527D01*
X62563163Y-64846559D01*
X62763041Y-65046437D01*
X62998073Y-65203480D01*
X63008665Y-65207867D01*
X62822669Y-65319415D01*
X62614281Y-65508386D01*
X62446763Y-65734380D01*
X62326554Y-65988713D01*
X62285896Y-66122761D01*
X62407885Y-66344800D01*
X63550800Y-66344800D01*
X63550800Y-66324800D01*
X63804800Y-66324800D01*
X63804800Y-66344800D01*
X64947715Y-66344800D01*
X65069704Y-66122761D01*
X65029046Y-65988713D01*
X64908837Y-65734380D01*
X64741319Y-65508386D01*
X64532931Y-65319415D01*
X64346935Y-65207867D01*
X64357527Y-65203480D01*
X64592559Y-65046437D01*
X64792437Y-64846559D01*
X64949480Y-64611527D01*
X65057653Y-64350374D01*
X65112800Y-64073135D01*
X65112800Y-63790465D01*
X65057653Y-63513226D01*
X64949480Y-63252073D01*
X64792437Y-63017041D01*
X64592559Y-62817163D01*
X64360041Y-62661800D01*
X64592559Y-62506437D01*
X64792437Y-62306559D01*
X64949480Y-62071527D01*
X65057653Y-61810374D01*
X65112800Y-61533135D01*
X65112800Y-61361601D01*
X78165636Y-74414438D01*
X78189430Y-74443431D01*
X78218423Y-74467225D01*
X78218427Y-74467229D01*
X78305153Y-74538403D01*
X78305155Y-74538404D01*
X78437184Y-74608976D01*
X78580445Y-74652433D01*
X78692098Y-74663430D01*
X78692106Y-74663430D01*
X78729429Y-74667106D01*
X78766752Y-74663430D01*
X99338651Y-74663428D01*
X99375983Y-74667105D01*
X99413316Y-74663428D01*
X99524969Y-74652431D01*
X99568425Y-74639249D01*
X99668229Y-74608975D01*
X99800259Y-74538403D01*
X99886985Y-74467228D01*
X99886986Y-74467227D01*
X99915984Y-74443429D01*
X99939782Y-74414431D01*
X101518105Y-72836109D01*
X101567776Y-72956024D01*
X101691988Y-73141920D01*
X101850080Y-73300012D01*
X102035976Y-73424224D01*
X102242533Y-73509783D01*
X102461812Y-73553400D01*
X102685388Y-73553400D01*
X102904667Y-73509783D01*
X103111224Y-73424224D01*
X103297120Y-73300012D01*
X103455212Y-73141920D01*
X103579424Y-72956024D01*
X103664983Y-72749467D01*
X103708600Y-72530188D01*
X103708600Y-72306612D01*
X103664983Y-72087333D01*
X103579424Y-71880776D01*
X103455212Y-71694880D01*
X103297120Y-71536788D01*
X103111224Y-71412576D01*
X102904667Y-71327017D01*
X102685388Y-71283400D01*
X102461812Y-71283400D01*
X102242533Y-71327017D01*
X102035976Y-71412576D01*
X101858611Y-71531088D01*
X101858611Y-68449742D01*
X101862288Y-68412409D01*
X101847614Y-68263423D01*
X101804157Y-68120162D01*
X101733585Y-67988133D01*
X101662410Y-67901406D01*
X101638612Y-67872408D01*
X101609614Y-67848610D01*
X100653405Y-66892401D01*
X100629602Y-66863398D01*
X100513877Y-66768425D01*
X100381848Y-66697853D01*
X100238587Y-66654396D01*
X100126934Y-66643399D01*
X100126923Y-66643399D01*
X100089601Y-66639723D01*
X100052279Y-66643399D01*
X97685923Y-66643399D01*
X97648600Y-66639723D01*
X97611277Y-66643399D01*
X97611268Y-66643399D01*
X97499615Y-66654396D01*
X97356354Y-66697853D01*
X97333600Y-66710015D01*
X97333600Y-63608801D01*
X101685928Y-59256474D01*
X101685928Y-60083600D01*
X101698188Y-60208082D01*
X101734498Y-60327780D01*
X101793463Y-60438094D01*
X101872815Y-60534785D01*
X101969506Y-60614137D01*
X102079820Y-60673102D01*
X102199518Y-60709412D01*
X102324000Y-60721672D01*
X103924000Y-60721672D01*
X104048482Y-60709412D01*
X104168180Y-60673102D01*
X104278494Y-60614137D01*
X104375185Y-60534785D01*
X104454537Y-60438094D01*
X104513502Y-60327780D01*
X104549812Y-60208082D01*
X104562072Y-60083600D01*
X104562072Y-60043600D01*
X105723364Y-60043600D01*
X105853433Y-60113123D01*
X106017684Y-60162948D01*
X106188500Y-60179772D01*
X106663500Y-60179772D01*
X106834316Y-60162948D01*
X106998567Y-60113123D01*
X107149942Y-60032212D01*
X107282623Y-59923323D01*
X107391512Y-59790642D01*
X107472423Y-59639267D01*
X107522248Y-59475016D01*
X107539072Y-59304200D01*
X107539072Y-58704200D01*
X107522248Y-58533384D01*
X107472423Y-58369133D01*
X107391512Y-58217758D01*
X107329093Y-58141700D01*
X107391512Y-58065642D01*
X107472423Y-57914267D01*
X107522248Y-57750016D01*
X107539072Y-57579200D01*
X107539072Y-56979200D01*
X107522248Y-56808384D01*
X107472423Y-56644133D01*
X107391512Y-56492758D01*
X107282623Y-56360077D01*
X107149942Y-56251188D01*
X106998567Y-56170277D01*
X106834316Y-56120452D01*
X106663500Y-56103628D01*
X106305326Y-56103628D01*
X106182647Y-56038054D01*
X106039386Y-55994597D01*
X105927733Y-55983600D01*
X105927722Y-55983600D01*
X105890400Y-55979924D01*
X105853078Y-55983600D01*
X104342043Y-55983600D01*
X104238637Y-55828841D01*
X104038759Y-55628963D01*
X103806241Y-55473600D01*
X104038759Y-55318237D01*
X104238637Y-55118359D01*
X104395680Y-54883327D01*
X104503853Y-54622174D01*
X104559000Y-54344935D01*
X104559000Y-54062265D01*
X104503853Y-53785026D01*
X104395680Y-53523873D01*
X104238637Y-53288841D01*
X104038759Y-53088963D01*
X103806241Y-52933600D01*
X104038759Y-52778237D01*
X104238637Y-52578359D01*
X104395680Y-52343327D01*
X104503853Y-52082174D01*
X104559000Y-51804935D01*
X104559000Y-51522265D01*
X104503853Y-51245026D01*
X104395680Y-50983873D01*
X104238637Y-50748841D01*
X104038759Y-50548963D01*
X103806241Y-50393600D01*
X104038759Y-50238237D01*
X104238637Y-50038359D01*
X104395680Y-49803327D01*
X104503853Y-49542174D01*
X104559000Y-49264935D01*
X104559000Y-48982265D01*
X104503853Y-48705026D01*
X104395680Y-48443873D01*
X104238637Y-48208841D01*
X104038759Y-48008963D01*
X103806241Y-47853600D01*
X104038759Y-47698237D01*
X104238637Y-47498359D01*
X104395680Y-47263327D01*
X104503853Y-47002174D01*
X104559000Y-46724935D01*
X104559000Y-46442265D01*
X104503853Y-46165026D01*
X104395680Y-45903873D01*
X104238637Y-45668841D01*
X104038759Y-45468963D01*
X103806241Y-45313600D01*
X104038759Y-45158237D01*
X104238637Y-44958359D01*
X104395680Y-44723327D01*
X104503853Y-44462174D01*
X104559000Y-44184935D01*
X104559000Y-43902265D01*
X104503853Y-43625026D01*
X104395680Y-43363873D01*
X104238637Y-43128841D01*
X104038759Y-42928963D01*
X103803727Y-42771920D01*
X103793135Y-42767533D01*
X103979131Y-42655985D01*
X104187519Y-42467014D01*
X104355037Y-42241020D01*
X104475246Y-41986687D01*
X104515904Y-41852639D01*
X104393915Y-41630600D01*
X103251000Y-41630600D01*
X103251000Y-41650600D01*
X102997000Y-41650600D01*
X102997000Y-41630600D01*
X102977000Y-41630600D01*
X102977000Y-41376600D01*
X102997000Y-41376600D01*
X102997000Y-40232976D01*
X103251000Y-40232976D01*
X103251000Y-41376600D01*
X104393915Y-41376600D01*
X104515904Y-41154561D01*
X104475246Y-41020513D01*
X104355037Y-40766180D01*
X104187519Y-40540186D01*
X103979131Y-40351215D01*
X103737881Y-40206530D01*
X103473040Y-40111691D01*
X103251000Y-40232976D01*
X102997000Y-40232976D01*
X102774960Y-40111691D01*
X102510119Y-40206530D01*
X102268869Y-40351215D01*
X102158800Y-40451028D01*
X102158800Y-29863384D01*
X102163715Y-29813482D01*
X102144098Y-29614311D01*
X102086002Y-29422794D01*
X102037183Y-29331460D01*
X101991660Y-29246292D01*
X101937044Y-29179742D01*
X101945320Y-29174212D01*
X102103412Y-29016120D01*
X102227624Y-28830224D01*
X102313183Y-28623667D01*
X102356800Y-28404388D01*
X102356800Y-28180812D01*
X102313183Y-27961533D01*
X102227624Y-27754976D01*
X102103412Y-27569080D01*
X101945320Y-27410988D01*
X101759424Y-27286776D01*
X101552867Y-27201217D01*
X101333588Y-27157600D01*
X101110012Y-27157600D01*
X100890733Y-27201217D01*
X100684176Y-27286776D01*
X100498280Y-27410988D01*
X100340188Y-27569080D01*
X100338205Y-27572047D01*
X99984629Y-27218471D01*
X99952813Y-27179703D01*
X99798107Y-27052739D01*
X99621604Y-26958397D01*
X99430088Y-26900301D01*
X99280819Y-26885599D01*
X99230917Y-26880684D01*
X99181015Y-26885599D01*
X96602703Y-26885599D01*
X96552801Y-26880684D01*
X96353630Y-26900301D01*
X96162113Y-26958397D01*
X96100633Y-26991259D01*
X95985611Y-27052739D01*
X95830905Y-27179703D01*
X95799088Y-27218472D01*
X95288670Y-27728890D01*
X95288664Y-27728895D01*
X95169959Y-27847600D01*
X95085389Y-27847600D01*
X94817811Y-27900825D01*
X94565757Y-28005229D01*
X94338914Y-28156801D01*
X94146001Y-28349714D01*
X93994429Y-28576557D01*
X93890025Y-28828611D01*
X93836800Y-29096189D01*
X93836800Y-29369011D01*
X93890025Y-29636589D01*
X93994429Y-29888643D01*
X94146001Y-30115486D01*
X94338914Y-30308399D01*
X94565757Y-30459971D01*
X94817811Y-30564375D01*
X95085389Y-30617600D01*
X95358211Y-30617600D01*
X95625789Y-30564375D01*
X95877843Y-30459971D01*
X96104686Y-30308399D01*
X96297599Y-30115486D01*
X96449171Y-29888643D01*
X96553575Y-29636589D01*
X96606800Y-29369011D01*
X96606800Y-29284441D01*
X96725505Y-29165736D01*
X96725510Y-29165730D01*
X96847167Y-29044073D01*
X96836800Y-29096189D01*
X96836800Y-29369011D01*
X96890025Y-29636589D01*
X96994429Y-29888643D01*
X97146001Y-30115486D01*
X97338914Y-30308399D01*
X97565757Y-30459971D01*
X97817811Y-30564375D01*
X98085389Y-30617600D01*
X98169960Y-30617600D01*
X98396887Y-30844528D01*
X97721800Y-30844528D01*
X97548546Y-30861592D01*
X97381950Y-30912128D01*
X97228414Y-30994195D01*
X97093838Y-31104638D01*
X96983395Y-31239214D01*
X96901328Y-31392750D01*
X96850792Y-31559346D01*
X96833728Y-31732600D01*
X96833728Y-32732600D01*
X96850792Y-32905854D01*
X96901328Y-33072450D01*
X96983395Y-33225986D01*
X97093838Y-33360562D01*
X97205801Y-33452447D01*
X97205800Y-46848560D01*
X96237800Y-45880560D01*
X96237800Y-33175285D01*
X96297599Y-33115486D01*
X96449171Y-32888643D01*
X96553575Y-32636589D01*
X96606800Y-32369011D01*
X96606800Y-32096189D01*
X96553575Y-31828611D01*
X96449171Y-31576557D01*
X96297599Y-31349714D01*
X96104686Y-31156801D01*
X95877843Y-31005229D01*
X95625789Y-30900825D01*
X95358211Y-30847600D01*
X95085389Y-30847600D01*
X94817811Y-30900825D01*
X94565757Y-31005229D01*
X94338914Y-31156801D01*
X94146001Y-31349714D01*
X93994429Y-31576557D01*
X93890025Y-31828611D01*
X93836800Y-32096189D01*
X93836800Y-32369011D01*
X93890025Y-32636589D01*
X93994429Y-32888643D01*
X94146001Y-33115486D01*
X94205801Y-33175286D01*
X94205800Y-46251498D01*
X94200885Y-46301400D01*
X94205800Y-46351301D01*
X94220502Y-46500570D01*
X94278598Y-46692086D01*
X94372940Y-46868590D01*
X94499904Y-47023296D01*
X94538672Y-47055112D01*
X101689000Y-54205441D01*
X101689000Y-54344935D01*
X101744147Y-54622174D01*
X101852320Y-54883327D01*
X102009363Y-55118359D01*
X102209241Y-55318237D01*
X102441759Y-55473600D01*
X102209241Y-55628963D01*
X102009363Y-55828841D01*
X101852320Y-56063873D01*
X101744147Y-56325026D01*
X101689000Y-56602265D01*
X101689000Y-56884935D01*
X101725312Y-57067486D01*
X96062603Y-62730196D01*
X96033599Y-62753999D01*
X95988423Y-62809047D01*
X95938626Y-62869724D01*
X95900487Y-62941077D01*
X95868054Y-63001754D01*
X95824597Y-63145015D01*
X95813600Y-63256668D01*
X95813600Y-63256678D01*
X95809924Y-63294000D01*
X95813600Y-63331323D01*
X95813601Y-67320490D01*
X95690714Y-67402601D01*
X95497801Y-67595514D01*
X95346229Y-67822357D01*
X95241825Y-68074411D01*
X95188600Y-68341989D01*
X95188600Y-68614811D01*
X95241825Y-68882389D01*
X95346229Y-69134443D01*
X95497801Y-69361286D01*
X95690714Y-69554199D01*
X95917557Y-69705771D01*
X96169611Y-69810175D01*
X96437189Y-69863400D01*
X96710011Y-69863400D01*
X96977589Y-69810175D01*
X97229643Y-69705771D01*
X97456486Y-69554199D01*
X97649399Y-69361286D01*
X97800971Y-69134443D01*
X97905375Y-68882389D01*
X97958600Y-68614811D01*
X97958600Y-68341989D01*
X97929767Y-68197034D01*
X97963402Y-68163399D01*
X98224124Y-68163399D01*
X98188600Y-68341989D01*
X98188600Y-68614811D01*
X98241825Y-68882389D01*
X98346229Y-69134443D01*
X98497801Y-69361286D01*
X98690714Y-69554199D01*
X98917557Y-69705771D01*
X99169611Y-69810175D01*
X99437189Y-69863400D01*
X99710011Y-69863400D01*
X99854965Y-69834567D01*
X99888601Y-69868203D01*
X99888601Y-70128924D01*
X99710011Y-70093400D01*
X99437189Y-70093400D01*
X99169611Y-70146625D01*
X98917557Y-70251029D01*
X98690714Y-70402601D01*
X98497801Y-70595514D01*
X98346229Y-70822357D01*
X98241825Y-71074411D01*
X98188600Y-71341989D01*
X98188600Y-71614811D01*
X98217433Y-71759765D01*
X97733789Y-72243410D01*
X97728161Y-72243410D01*
X97800971Y-72134443D01*
X97905375Y-71882389D01*
X97958600Y-71614811D01*
X97958600Y-71341989D01*
X97905375Y-71074411D01*
X97800971Y-70822357D01*
X97649399Y-70595514D01*
X97456486Y-70402601D01*
X97229643Y-70251029D01*
X96977589Y-70146625D01*
X96710011Y-70093400D01*
X96437189Y-70093400D01*
X96169611Y-70146625D01*
X95917557Y-70251029D01*
X95690714Y-70402601D01*
X95497801Y-70595514D01*
X95346229Y-70822357D01*
X95241825Y-71074411D01*
X95188600Y-71341989D01*
X95188600Y-71614811D01*
X95217433Y-71759765D01*
X95183798Y-71793401D01*
X94923076Y-71793401D01*
X94958600Y-71614811D01*
X94958600Y-71341989D01*
X94905375Y-71074411D01*
X94800971Y-70822357D01*
X94649399Y-70595514D01*
X94456486Y-70402601D01*
X94327283Y-70316270D01*
X94322603Y-70268754D01*
X94279146Y-70125493D01*
X94208574Y-69993464D01*
X94137399Y-69906737D01*
X94113601Y-69877739D01*
X94097057Y-69864162D01*
X94246854Y-69849408D01*
X94413450Y-69798872D01*
X94566986Y-69716805D01*
X94701562Y-69606362D01*
X94812005Y-69471786D01*
X94894072Y-69318250D01*
X94944608Y-69151654D01*
X94961672Y-68978400D01*
X94961672Y-67978400D01*
X94944608Y-67805146D01*
X94894072Y-67638550D01*
X94812005Y-67485014D01*
X94701562Y-67350438D01*
X94566986Y-67239995D01*
X94413450Y-67157928D01*
X94246854Y-67107392D01*
X94073600Y-67090328D01*
X93073600Y-67090328D01*
X92900346Y-67107392D01*
X92733750Y-67157928D01*
X92580214Y-67239995D01*
X92445638Y-67350438D01*
X92335195Y-67485014D01*
X92253128Y-67638550D01*
X92202592Y-67805146D01*
X92187638Y-67956976D01*
X83696465Y-59465804D01*
X83672662Y-59436800D01*
X83556937Y-59341827D01*
X83424908Y-59271255D01*
X83281647Y-59227798D01*
X83169994Y-59216801D01*
X83169983Y-59216801D01*
X83132661Y-59213125D01*
X83095339Y-59216801D01*
X80308309Y-59216801D01*
X80352800Y-58993135D01*
X80352800Y-58710465D01*
X80308309Y-58486799D01*
X88552398Y-58486799D01*
X89025312Y-58959714D01*
X88989000Y-59142265D01*
X88989000Y-59424935D01*
X89044147Y-59702174D01*
X89152320Y-59963327D01*
X89309363Y-60198359D01*
X89509241Y-60398237D01*
X89744273Y-60555280D01*
X90005426Y-60663453D01*
X90282665Y-60718600D01*
X90565335Y-60718600D01*
X90842574Y-60663453D01*
X91103727Y-60555280D01*
X91338759Y-60398237D01*
X91538637Y-60198359D01*
X91695680Y-59963327D01*
X91803853Y-59702174D01*
X91859000Y-59424935D01*
X91859000Y-59142265D01*
X91803853Y-58865026D01*
X91695680Y-58603873D01*
X91538637Y-58368841D01*
X91338759Y-58168963D01*
X91106241Y-58013600D01*
X91338759Y-57858237D01*
X91538637Y-57658359D01*
X91695680Y-57423327D01*
X91803853Y-57162174D01*
X91859000Y-56884935D01*
X91859000Y-56602265D01*
X91803853Y-56325026D01*
X91695680Y-56063873D01*
X91538637Y-55828841D01*
X91338759Y-55628963D01*
X91106241Y-55473600D01*
X91338759Y-55318237D01*
X91538637Y-55118359D01*
X91695680Y-54883327D01*
X91803853Y-54622174D01*
X91859000Y-54344935D01*
X91859000Y-54062265D01*
X91803853Y-53785026D01*
X91695680Y-53523873D01*
X91538637Y-53288841D01*
X91338759Y-53088963D01*
X91106241Y-52933600D01*
X91338759Y-52778237D01*
X91538637Y-52578359D01*
X91695680Y-52343327D01*
X91803853Y-52082174D01*
X91859000Y-51804935D01*
X91859000Y-51522265D01*
X91803853Y-51245026D01*
X91695680Y-50983873D01*
X91538637Y-50748841D01*
X91538600Y-50748804D01*
X92510014Y-49777390D01*
X92539012Y-49753592D01*
X92565343Y-49721508D01*
X92633985Y-49637868D01*
X92704557Y-49505838D01*
X92738929Y-49392526D01*
X92748014Y-49362577D01*
X92759011Y-49250924D01*
X92759011Y-49250915D01*
X92762687Y-49213592D01*
X92759011Y-49176269D01*
X92759011Y-41984563D01*
X92762687Y-41947240D01*
X92759011Y-41909917D01*
X92759011Y-41909908D01*
X92748014Y-41798255D01*
X92704557Y-41654994D01*
X92665970Y-41582804D01*
X92633985Y-41522964D01*
X92572071Y-41447523D01*
X92539012Y-41407240D01*
X92510009Y-41383438D01*
X92119174Y-40992603D01*
X92095371Y-40963599D01*
X91979646Y-40868626D01*
X91847617Y-40798054D01*
X91704356Y-40754597D01*
X91645519Y-40748802D01*
X91538637Y-40588841D01*
X91338759Y-40388963D01*
X91103727Y-40231920D01*
X90842574Y-40123747D01*
X90565335Y-40068600D01*
X90282665Y-40068600D01*
X90005426Y-40123747D01*
X89744273Y-40231920D01*
X89509241Y-40388963D01*
X89309363Y-40588841D01*
X89152320Y-40823873D01*
X89116399Y-40910595D01*
X80032400Y-31826596D01*
X80032437Y-31826559D01*
X80189480Y-31591527D01*
X80297653Y-31330374D01*
X80352800Y-31053135D01*
X80352800Y-30770465D01*
X80297653Y-30493226D01*
X80189480Y-30232073D01*
X80032437Y-29997041D01*
X79832559Y-29797163D01*
X79597527Y-29640120D01*
X79336374Y-29531947D01*
X79059135Y-29476800D01*
X78776465Y-29476800D01*
X78499226Y-29531947D01*
X78238073Y-29640120D01*
X78003041Y-29797163D01*
X77803163Y-29997041D01*
X77646120Y-30232073D01*
X77537947Y-30493226D01*
X77482800Y-30770465D01*
X77482800Y-31053135D01*
X77537947Y-31330374D01*
X77646120Y-31591527D01*
X77803163Y-31826559D01*
X77803200Y-31826596D01*
X77281801Y-32347996D01*
X77252798Y-32371798D01*
X77217007Y-32415410D01*
X77157825Y-32487523D01*
X77131357Y-32537041D01*
X77087253Y-32619553D01*
X77043796Y-32762814D01*
X77032799Y-32874467D01*
X77032799Y-32874477D01*
X77029123Y-32911799D01*
X77032799Y-32949122D01*
X77032800Y-34829467D01*
X77029123Y-34866799D01*
X77032800Y-34904132D01*
X77043767Y-35015475D01*
X77043797Y-35015784D01*
X77087253Y-35159045D01*
X77157825Y-35291075D01*
X77229000Y-35377801D01*
X77252799Y-35406800D01*
X77281797Y-35430598D01*
X77519112Y-35667913D01*
X77482800Y-35850465D01*
X77482800Y-36133135D01*
X77537947Y-36410374D01*
X77646120Y-36671527D01*
X77803163Y-36906559D01*
X78003041Y-37106437D01*
X78235559Y-37261800D01*
X78003041Y-37417163D01*
X77803163Y-37617041D01*
X77646120Y-37852073D01*
X77537947Y-38113226D01*
X77482800Y-38390465D01*
X77482800Y-38673135D01*
X77537947Y-38950374D01*
X77646120Y-39211527D01*
X77803163Y-39446559D01*
X77803200Y-39446596D01*
X75481759Y-41768038D01*
X75452761Y-41791836D01*
X75428963Y-41820834D01*
X75428962Y-41820835D01*
X75357787Y-41907561D01*
X75287215Y-42039591D01*
X75270036Y-42096226D01*
X75249464Y-42164046D01*
X75243759Y-42182852D01*
X75229085Y-42331837D01*
X75232762Y-42369170D01*
X75232761Y-65694441D01*
X75229085Y-65731763D01*
X75232761Y-65769085D01*
X75232761Y-65769095D01*
X75243758Y-65880748D01*
X75287215Y-66024009D01*
X75357787Y-66156039D01*
X75397632Y-66204589D01*
X75452760Y-66271764D01*
X75481764Y-66295567D01*
X82329627Y-73143431D01*
X79044233Y-73143431D01*
X65076488Y-59175687D01*
X65112800Y-58993135D01*
X65112800Y-58710465D01*
X65057653Y-58433226D01*
X64949480Y-58172073D01*
X64792437Y-57937041D01*
X64592559Y-57737163D01*
X64360041Y-57581800D01*
X64592559Y-57426437D01*
X64792437Y-57226559D01*
X64949480Y-56991527D01*
X65057653Y-56730374D01*
X65112800Y-56453135D01*
X65112800Y-56170465D01*
X65057653Y-55893226D01*
X64949480Y-55632073D01*
X64792437Y-55397041D01*
X64592559Y-55197163D01*
X64360041Y-55041800D01*
X64592559Y-54886437D01*
X64792437Y-54686559D01*
X64949480Y-54451527D01*
X65057653Y-54190374D01*
X65112800Y-53913135D01*
X65112800Y-53630465D01*
X65057653Y-53353226D01*
X64949480Y-53092073D01*
X64792437Y-52857041D01*
X64592559Y-52657163D01*
X64360041Y-52501800D01*
X64592559Y-52346437D01*
X64792437Y-52146559D01*
X64949480Y-51911527D01*
X65057653Y-51650374D01*
X65112800Y-51373135D01*
X65112800Y-51090465D01*
X65057653Y-50813226D01*
X64949480Y-50552073D01*
X64792437Y-50317041D01*
X64592559Y-50117163D01*
X64360041Y-49961800D01*
X64592559Y-49806437D01*
X64792437Y-49606559D01*
X64949480Y-49371527D01*
X65057653Y-49110374D01*
X65112800Y-48833135D01*
X65112800Y-48550465D01*
X65057653Y-48273226D01*
X64949480Y-48012073D01*
X64792437Y-47777041D01*
X64592559Y-47577163D01*
X64360041Y-47421800D01*
X64592559Y-47266437D01*
X64792437Y-47066559D01*
X64949480Y-46831527D01*
X65057653Y-46570374D01*
X65112800Y-46293135D01*
X65112800Y-46010465D01*
X65057653Y-45733226D01*
X64949480Y-45472073D01*
X64792437Y-45237041D01*
X64592559Y-45037163D01*
X64360041Y-44881800D01*
X64592559Y-44726437D01*
X64792437Y-44526559D01*
X64949480Y-44291527D01*
X65057653Y-44030374D01*
X65112800Y-43753135D01*
X65112800Y-43470465D01*
X65057653Y-43193226D01*
X64949480Y-42932073D01*
X64792437Y-42697041D01*
X64592559Y-42497163D01*
X64360041Y-42341800D01*
X64592559Y-42186437D01*
X64792437Y-41986559D01*
X64949480Y-41751527D01*
X65057653Y-41490374D01*
X65112800Y-41213135D01*
X65112800Y-40930465D01*
X65057653Y-40653226D01*
X64949480Y-40392073D01*
X64792437Y-40157041D01*
X64592559Y-39957163D01*
X64360041Y-39801800D01*
X64592559Y-39646437D01*
X64792437Y-39446559D01*
X64949480Y-39211527D01*
X65057653Y-38950374D01*
X65112800Y-38673135D01*
X65112800Y-38390465D01*
X65057653Y-38113226D01*
X64949480Y-37852073D01*
X64792437Y-37617041D01*
X64592559Y-37417163D01*
X64360041Y-37261800D01*
X64592559Y-37106437D01*
X64792437Y-36906559D01*
X64949480Y-36671527D01*
X65057653Y-36410374D01*
X65112800Y-36133135D01*
X65112800Y-35850465D01*
X65057653Y-35573226D01*
X64949480Y-35312073D01*
X64792437Y-35077041D01*
X64592559Y-34877163D01*
X64360041Y-34721800D01*
X64592559Y-34566437D01*
X64792437Y-34366559D01*
X64949480Y-34131527D01*
X65057653Y-33870374D01*
X65112800Y-33593135D01*
X65112800Y-33310465D01*
X65057653Y-33033226D01*
X64949480Y-32772073D01*
X64792437Y-32537041D01*
X64592559Y-32337163D01*
X64360041Y-32181800D01*
X64592559Y-32026437D01*
X64792437Y-31826559D01*
X64949480Y-31591527D01*
X65057653Y-31330374D01*
X65112800Y-31053135D01*
X65112800Y-30770465D01*
X65057653Y-30493226D01*
X64949480Y-30232073D01*
X64792437Y-29997041D01*
X64592559Y-29797163D01*
X64357527Y-29640120D01*
X64096374Y-29531947D01*
X63819135Y-29476800D01*
X63536465Y-29476800D01*
X63259226Y-29531947D01*
X62998073Y-29640120D01*
X62763041Y-29797163D01*
X62563163Y-29997041D01*
X62406120Y-30232073D01*
X62297947Y-30493226D01*
X62242800Y-30770465D01*
X62242800Y-31053135D01*
X62297947Y-31330374D01*
X62406120Y-31591527D01*
X62563163Y-31826559D01*
X62763041Y-32026437D01*
X62995559Y-32181800D01*
X62763041Y-32337163D01*
X62563163Y-32537041D01*
X62406120Y-32772073D01*
X62297947Y-33033226D01*
X62242800Y-33310465D01*
X62242800Y-33593135D01*
X62297947Y-33870374D01*
X62406120Y-34131527D01*
X62563163Y-34366559D01*
X62763041Y-34566437D01*
X62995559Y-34721800D01*
X62763041Y-34877163D01*
X62563163Y-35077041D01*
X62406120Y-35312073D01*
X62297947Y-35573226D01*
X62242800Y-35850465D01*
X62242800Y-36133135D01*
X62297947Y-36410374D01*
X62406120Y-36671527D01*
X62563163Y-36906559D01*
X62763041Y-37106437D01*
X62995559Y-37261800D01*
X62763041Y-37417163D01*
X62563163Y-37617041D01*
X62456281Y-37777002D01*
X62397444Y-37782797D01*
X62254183Y-37826254D01*
X62213500Y-37848000D01*
X61124323Y-37848000D01*
X61087000Y-37844324D01*
X61049677Y-37848000D01*
X61049667Y-37848000D01*
X60938014Y-37858997D01*
X60794753Y-37902454D01*
X60662723Y-37973026D01*
X60579083Y-38041668D01*
X60546999Y-38067999D01*
X60523201Y-38096997D01*
X59610802Y-39009396D01*
X59581799Y-39033199D01*
X59526671Y-39100374D01*
X59486826Y-39148924D01*
X59460703Y-39197797D01*
X59416254Y-39280954D01*
X59372797Y-39424215D01*
X59361800Y-39535868D01*
X59361800Y-39535878D01*
X59358124Y-39573200D01*
X59361800Y-39610522D01*
X59361801Y-54650797D01*
X58105199Y-55907400D01*
X54441322Y-55907400D01*
X54403999Y-55903724D01*
X54366676Y-55907400D01*
X54366667Y-55907400D01*
X54255014Y-55918397D01*
X54111753Y-55961854D01*
X53979724Y-56032426D01*
X53863999Y-56127399D01*
X53840201Y-56156397D01*
X52246965Y-57749633D01*
X52102011Y-57720800D01*
X51829189Y-57720800D01*
X51561611Y-57774025D01*
X51309557Y-57878429D01*
X51082714Y-58030001D01*
X50889801Y-58222914D01*
X50738229Y-58449757D01*
X50633825Y-58701811D01*
X50580600Y-58969389D01*
X45718400Y-58969389D01*
X45718400Y-55994012D01*
X49890600Y-55994012D01*
X49890600Y-56217588D01*
X49934217Y-56436867D01*
X50019776Y-56643424D01*
X50143988Y-56829320D01*
X50302080Y-56987412D01*
X50487976Y-57111624D01*
X50694533Y-57197183D01*
X50913812Y-57240800D01*
X51137388Y-57240800D01*
X51356667Y-57197183D01*
X51563224Y-57111624D01*
X51749120Y-56987412D01*
X51907212Y-56829320D01*
X52031424Y-56643424D01*
X52116983Y-56436867D01*
X52160600Y-56217588D01*
X52160600Y-55994012D01*
X52116983Y-55774733D01*
X52031424Y-55568176D01*
X51907212Y-55382280D01*
X51749120Y-55224188D01*
X51563224Y-55099976D01*
X51356667Y-55014417D01*
X51137388Y-54970800D01*
X50913812Y-54970800D01*
X50694533Y-55014417D01*
X50487976Y-55099976D01*
X50302080Y-55224188D01*
X50143988Y-55382280D01*
X50019776Y-55568176D01*
X49934217Y-55774733D01*
X49890600Y-55994012D01*
X45718400Y-55994012D01*
X45718400Y-49116212D01*
X50093800Y-49116212D01*
X50093800Y-49339788D01*
X50137417Y-49559067D01*
X50222976Y-49765624D01*
X50347188Y-49951520D01*
X50505280Y-50109612D01*
X50691176Y-50233824D01*
X50897733Y-50319383D01*
X51117012Y-50363000D01*
X51340588Y-50363000D01*
X51559867Y-50319383D01*
X51766424Y-50233824D01*
X51952320Y-50109612D01*
X52110412Y-49951520D01*
X52234624Y-49765624D01*
X52320183Y-49559067D01*
X52363800Y-49339788D01*
X52363800Y-49116212D01*
X52320183Y-48896933D01*
X52234624Y-48690376D01*
X52110412Y-48504480D01*
X51952320Y-48346388D01*
X51766424Y-48222176D01*
X51559867Y-48136617D01*
X51340588Y-48093000D01*
X51117012Y-48093000D01*
X50897733Y-48136617D01*
X50691176Y-48222176D01*
X50505280Y-48346388D01*
X50347188Y-48504480D01*
X50222976Y-48690376D01*
X50137417Y-48896933D01*
X50093800Y-49116212D01*
X45718400Y-49116212D01*
X45718400Y-47184993D01*
X51391412Y-47184993D01*
X51456937Y-47423860D01*
X51703916Y-47539760D01*
X51968760Y-47605250D01*
X52241292Y-47617812D01*
X52511038Y-47576965D01*
X52767632Y-47484277D01*
X52880663Y-47423860D01*
X52946188Y-47184993D01*
X52168800Y-46407605D01*
X51391412Y-47184993D01*
X45718400Y-47184993D01*
X45718400Y-46300492D01*
X50778988Y-46300492D01*
X50819835Y-46570238D01*
X50912523Y-46826832D01*
X50972940Y-46939863D01*
X51211807Y-47005388D01*
X51989195Y-46228000D01*
X52348405Y-46228000D01*
X53125793Y-47005388D01*
X53364660Y-46939863D01*
X53480560Y-46692884D01*
X53546050Y-46428040D01*
X53558612Y-46155508D01*
X53517765Y-45885762D01*
X53460778Y-45728000D01*
X53780728Y-45728000D01*
X53780728Y-46728000D01*
X53797792Y-46901254D01*
X53848328Y-47067850D01*
X53930395Y-47221386D01*
X54040838Y-47355962D01*
X54175414Y-47466405D01*
X54328950Y-47548472D01*
X54495546Y-47599008D01*
X54668800Y-47616072D01*
X55668800Y-47616072D01*
X55842054Y-47599008D01*
X56008650Y-47548472D01*
X56162186Y-47466405D01*
X56296762Y-47355962D01*
X56407205Y-47221386D01*
X56489272Y-47067850D01*
X56539808Y-46901254D01*
X56556872Y-46728000D01*
X56556872Y-45728000D01*
X56539808Y-45554746D01*
X56489272Y-45388150D01*
X56407205Y-45234614D01*
X56296762Y-45100038D01*
X56162186Y-44989595D01*
X56008650Y-44907528D01*
X55842054Y-44856992D01*
X55668800Y-44839928D01*
X54668800Y-44839928D01*
X54495546Y-44856992D01*
X54328950Y-44907528D01*
X54175414Y-44989595D01*
X54040838Y-45100038D01*
X53930395Y-45234614D01*
X53848328Y-45388150D01*
X53797792Y-45554746D01*
X53780728Y-45728000D01*
X53460778Y-45728000D01*
X53425077Y-45629168D01*
X53364660Y-45516137D01*
X53125793Y-45450612D01*
X52348405Y-46228000D01*
X51989195Y-46228000D01*
X51211807Y-45450612D01*
X50972940Y-45516137D01*
X50857040Y-45763116D01*
X50791550Y-46027960D01*
X50778988Y-46300492D01*
X45718400Y-46300492D01*
X45718400Y-45271007D01*
X51391412Y-45271007D01*
X52168800Y-46048395D01*
X52946188Y-45271007D01*
X52880663Y-45032140D01*
X52633684Y-44916240D01*
X52368840Y-44850750D01*
X52096308Y-44838188D01*
X51826562Y-44879035D01*
X51569968Y-44971723D01*
X51456937Y-45032140D01*
X51391412Y-45271007D01*
X45718400Y-45271007D01*
X45718400Y-43116212D01*
X50093800Y-43116212D01*
X50093800Y-43339788D01*
X50137417Y-43559067D01*
X50222976Y-43765624D01*
X50347188Y-43951520D01*
X50505280Y-44109612D01*
X50691176Y-44233824D01*
X50897733Y-44319383D01*
X51117012Y-44363000D01*
X51340588Y-44363000D01*
X51559867Y-44319383D01*
X51766424Y-44233824D01*
X51952320Y-44109612D01*
X52110412Y-43951520D01*
X52234624Y-43765624D01*
X52320183Y-43559067D01*
X52363800Y-43339788D01*
X52363800Y-43116212D01*
X52320183Y-42896933D01*
X52234624Y-42690376D01*
X52110412Y-42504480D01*
X51952320Y-42346388D01*
X51766424Y-42222176D01*
X51559867Y-42136617D01*
X51340588Y-42093000D01*
X51117012Y-42093000D01*
X50897733Y-42136617D01*
X50691176Y-42222176D01*
X50505280Y-42346388D01*
X50347188Y-42504480D01*
X50222976Y-42690376D01*
X50137417Y-42896933D01*
X50093800Y-43116212D01*
X45718400Y-43116212D01*
X45718400Y-35902800D01*
X49565128Y-35902800D01*
X49577388Y-36027282D01*
X49613698Y-36146980D01*
X49672663Y-36257294D01*
X49752015Y-36353985D01*
X49848706Y-36433337D01*
X49959020Y-36492302D01*
X50078718Y-36528612D01*
X50203200Y-36540872D01*
X50717450Y-36537800D01*
X50876200Y-36379050D01*
X50876200Y-35229800D01*
X51130200Y-35229800D01*
X51130200Y-36379050D01*
X51288950Y-36537800D01*
X51803200Y-36540872D01*
X51927682Y-36528612D01*
X52047380Y-36492302D01*
X52157694Y-36433337D01*
X52254385Y-36353985D01*
X52333737Y-36257294D01*
X52392702Y-36146980D01*
X52429012Y-36027282D01*
X52441272Y-35902800D01*
X52438200Y-35388550D01*
X52279450Y-35229800D01*
X51130200Y-35229800D01*
X50876200Y-35229800D01*
X49726950Y-35229800D01*
X49568200Y-35388550D01*
X49565128Y-35902800D01*
X45718400Y-35902800D01*
X45718400Y-34302800D01*
X49565128Y-34302800D01*
X49568200Y-34817050D01*
X49726950Y-34975800D01*
X50876200Y-34975800D01*
X50876200Y-33826550D01*
X51130200Y-33826550D01*
X51130200Y-34975800D01*
X52279450Y-34975800D01*
X52293785Y-34961465D01*
X53368200Y-34961465D01*
X53368200Y-35244135D01*
X53423347Y-35521374D01*
X53531520Y-35782527D01*
X53688563Y-36017559D01*
X53888441Y-36217437D01*
X54123473Y-36374480D01*
X54384626Y-36482653D01*
X54661865Y-36537800D01*
X54944535Y-36537800D01*
X55221774Y-36482653D01*
X55482927Y-36374480D01*
X55717959Y-36217437D01*
X55917837Y-36017559D01*
X56074880Y-35782527D01*
X56183053Y-35521374D01*
X56238200Y-35244135D01*
X56238200Y-34961465D01*
X56183053Y-34684226D01*
X56074880Y-34423073D01*
X55917837Y-34188041D01*
X55717959Y-33988163D01*
X55482927Y-33831120D01*
X55221774Y-33722947D01*
X54944535Y-33667800D01*
X54661865Y-33667800D01*
X54384626Y-33722947D01*
X54123473Y-33831120D01*
X53888441Y-33988163D01*
X53688563Y-34188041D01*
X53531520Y-34423073D01*
X53423347Y-34684226D01*
X53368200Y-34961465D01*
X52293785Y-34961465D01*
X52438200Y-34817050D01*
X52441272Y-34302800D01*
X52429012Y-34178318D01*
X52392702Y-34058620D01*
X52333737Y-33948306D01*
X52254385Y-33851615D01*
X52157694Y-33772263D01*
X52047380Y-33713298D01*
X51927682Y-33676988D01*
X51803200Y-33664728D01*
X51288950Y-33667800D01*
X51130200Y-33826550D01*
X50876200Y-33826550D01*
X50717450Y-33667800D01*
X50203200Y-33664728D01*
X50078718Y-33676988D01*
X49959020Y-33713298D01*
X49848706Y-33772263D01*
X49752015Y-33851615D01*
X49672663Y-33948306D01*
X49613698Y-34058620D01*
X49577388Y-34178318D01*
X49565128Y-34302800D01*
X45718400Y-34302800D01*
X45718400Y-28180812D01*
X91086800Y-28180812D01*
X91086800Y-28404388D01*
X91130417Y-28623667D01*
X91215976Y-28830224D01*
X91340188Y-29016120D01*
X91498280Y-29174212D01*
X91684176Y-29298424D01*
X91890733Y-29383983D01*
X92110012Y-29427600D01*
X92333588Y-29427600D01*
X92552867Y-29383983D01*
X92759424Y-29298424D01*
X92945320Y-29174212D01*
X93103412Y-29016120D01*
X93227624Y-28830224D01*
X93313183Y-28623667D01*
X93356800Y-28404388D01*
X93356800Y-28180812D01*
X93313183Y-27961533D01*
X93227624Y-27754976D01*
X93103412Y-27569080D01*
X92945320Y-27410988D01*
X92759424Y-27286776D01*
X92552867Y-27201217D01*
X92333588Y-27157600D01*
X92110012Y-27157600D01*
X91890733Y-27201217D01*
X91684176Y-27286776D01*
X91498280Y-27410988D01*
X91340188Y-27569080D01*
X91215976Y-27754976D01*
X91130417Y-27961533D01*
X91086800Y-28180812D01*
X45718400Y-28180812D01*
X45718400Y-24878043D01*
X45953567Y-24878043D01*
X45953567Y-25312357D01*
X46038298Y-25738326D01*
X46204502Y-26139579D01*
X46445794Y-26500698D01*
X46752901Y-26807805D01*
X47114020Y-27049097D01*
X47515273Y-27215301D01*
X47941242Y-27300032D01*
X48375556Y-27300032D01*
X48801525Y-27215301D01*
X49202778Y-27049097D01*
X49563897Y-26807805D01*
X49871004Y-26500698D01*
X50112296Y-26139579D01*
X50278500Y-25738326D01*
X50363231Y-25312357D01*
X50363231Y-24878043D01*
X50363231Y-24878042D01*
X105643566Y-24878042D01*
X105643566Y-25312356D01*
X105728297Y-25738325D01*
X105894501Y-26139578D01*
X106135793Y-26500697D01*
X106442900Y-26807804D01*
X106804019Y-27049096D01*
X107205272Y-27215300D01*
X107631241Y-27300031D01*
X108065555Y-27300031D01*
X108491524Y-27215300D01*
X108892777Y-27049096D01*
X109253896Y-26807804D01*
X109561003Y-26500697D01*
X109802295Y-26139578D01*
X109968499Y-25738325D01*
X110053230Y-25312356D01*
X110053230Y-24878042D01*
X109968499Y-24452073D01*
X109802295Y-24050820D01*
X109561003Y-23689701D01*
X109253896Y-23382594D01*
X108892777Y-23141302D01*
X108491524Y-22975098D01*
X108065555Y-22890367D01*
X107631241Y-22890367D01*
X107205272Y-22975098D01*
X106804019Y-23141302D01*
X106442900Y-23382594D01*
X106135793Y-23689701D01*
X105894501Y-24050820D01*
X105728297Y-24452073D01*
X105643566Y-24878042D01*
X50363231Y-24878042D01*
X50278500Y-24452074D01*
X50112296Y-24050821D01*
X49871004Y-23689702D01*
X49563897Y-23382595D01*
X49202778Y-23141303D01*
X48801525Y-22975099D01*
X48375556Y-22890368D01*
X47941242Y-22890368D01*
X47515273Y-22975099D01*
X47114020Y-23141303D01*
X46752901Y-23382595D01*
X46445794Y-23689702D01*
X46204502Y-24050821D01*
X46038298Y-24452074D01*
X45953567Y-24878043D01*
X45718400Y-24878043D01*
X45718400Y-24496147D01*
X45756233Y-24110293D01*
X45857853Y-23773711D01*
X46022912Y-23463279D01*
X46245123Y-23190821D01*
X46516027Y-22966710D01*
X46825296Y-22799488D01*
X47161160Y-22695520D01*
X47544782Y-22655200D01*
X108447451Y-22655200D01*
X108833305Y-22693033D01*
M02*
