G04 #@! TF.GenerationSoftware,KiCad,Pcbnew,(5.1.5)-3*
G04 #@! TF.CreationDate,2021-04-07T09:54:02-05:00*
G04 #@! TF.ProjectId,turner_pcb,7475726e-6572-45f7-9063-622e6b696361,rev?*
G04 #@! TF.SameCoordinates,Original*
G04 #@! TF.FileFunction,Copper,L2,Bot*
G04 #@! TF.FilePolarity,Positive*
%FSLAX46Y46*%
G04 Gerber Fmt 4.6, Leading zero omitted, Abs format (unit mm)*
G04 Created by KiCad (PCBNEW (5.1.5)-3) date 2021-04-07 09:54:02*
%MOMM*%
%LPD*%
G04 APERTURE LIST*
%ADD10C,1.524000*%
%ADD11R,1.524000X1.524000*%
%ADD12R,1.600000X1.600000*%
%ADD13O,1.600000X1.600000*%
%ADD14C,1.600000*%
%ADD15C,0.100000*%
%ADD16C,1.500000*%
%ADD17C,0.250000*%
%ADD18C,0.254000*%
G04 APERTURE END LIST*
D10*
X76657200Y-55524400D03*
X75387200Y-53873400D03*
X77927200Y-53873400D03*
D11*
X80467200Y-71653400D03*
D10*
X80467200Y-69113400D03*
X80467200Y-66573400D03*
X80467200Y-64033400D03*
X80467200Y-61493400D03*
X80467200Y-58953400D03*
X80467200Y-56413400D03*
X80467200Y-53873400D03*
X67767200Y-53873400D03*
X67767200Y-56413400D03*
X67767200Y-58953400D03*
X67767200Y-61493400D03*
X67767200Y-64033400D03*
X67767200Y-66573400D03*
X67767200Y-69113400D03*
X67767200Y-71653400D03*
D12*
X104241600Y-69062600D03*
D13*
X89001600Y-36042600D03*
X104241600Y-66522600D03*
X89001600Y-38582600D03*
X104241600Y-63982600D03*
X89001600Y-41122600D03*
X104241600Y-61442600D03*
X89001600Y-43662600D03*
X104241600Y-58902600D03*
X89001600Y-46202600D03*
X104241600Y-56362600D03*
X89001600Y-48742600D03*
X104241600Y-53822600D03*
X89001600Y-51282600D03*
X104241600Y-51282600D03*
X89001600Y-53822600D03*
X104241600Y-48742600D03*
X89001600Y-56362600D03*
X104241600Y-46202600D03*
X89001600Y-58902600D03*
X104241600Y-43662600D03*
X89001600Y-61442600D03*
X104241600Y-41122600D03*
X89001600Y-63982600D03*
X104241600Y-38582600D03*
X89001600Y-66522600D03*
X104241600Y-36042600D03*
X89001600Y-69062600D03*
X104241600Y-33502600D03*
X89001600Y-33502600D03*
D12*
X52171600Y-31978600D03*
D14*
X57171600Y-31978600D03*
G04 #@! TA.AperFunction,ComponentPad*
D15*
G36*
X77334104Y-32855404D02*
G01*
X77358373Y-32859004D01*
X77382171Y-32864965D01*
X77405271Y-32873230D01*
X77427449Y-32883720D01*
X77448493Y-32896333D01*
X77468198Y-32910947D01*
X77486377Y-32927423D01*
X77502853Y-32945602D01*
X77517467Y-32965307D01*
X77530080Y-32986351D01*
X77540570Y-33008529D01*
X77548835Y-33031629D01*
X77554796Y-33055427D01*
X77558396Y-33079696D01*
X77559600Y-33104200D01*
X77559600Y-34104200D01*
X77558396Y-34128704D01*
X77554796Y-34152973D01*
X77548835Y-34176771D01*
X77540570Y-34199871D01*
X77530080Y-34222049D01*
X77517467Y-34243093D01*
X77502853Y-34262798D01*
X77486377Y-34280977D01*
X77468198Y-34297453D01*
X77448493Y-34312067D01*
X77427449Y-34324680D01*
X77405271Y-34335170D01*
X77382171Y-34343435D01*
X77358373Y-34349396D01*
X77334104Y-34352996D01*
X77309600Y-34354200D01*
X76309600Y-34354200D01*
X76285096Y-34352996D01*
X76260827Y-34349396D01*
X76237029Y-34343435D01*
X76213929Y-34335170D01*
X76191751Y-34324680D01*
X76170707Y-34312067D01*
X76151002Y-34297453D01*
X76132823Y-34280977D01*
X76116347Y-34262798D01*
X76101733Y-34243093D01*
X76089120Y-34222049D01*
X76078630Y-34199871D01*
X76070365Y-34176771D01*
X76064404Y-34152973D01*
X76060804Y-34128704D01*
X76059600Y-34104200D01*
X76059600Y-33104200D01*
X76060804Y-33079696D01*
X76064404Y-33055427D01*
X76070365Y-33031629D01*
X76078630Y-33008529D01*
X76089120Y-32986351D01*
X76101733Y-32965307D01*
X76116347Y-32945602D01*
X76132823Y-32927423D01*
X76151002Y-32910947D01*
X76170707Y-32896333D01*
X76191751Y-32883720D01*
X76213929Y-32873230D01*
X76237029Y-32864965D01*
X76260827Y-32859004D01*
X76285096Y-32855404D01*
X76309600Y-32854200D01*
X77309600Y-32854200D01*
X77334104Y-32855404D01*
G37*
G04 #@! TD.AperFunction*
D16*
X73809600Y-33604200D03*
X70809600Y-33604200D03*
X76809600Y-30604200D03*
X73809600Y-30604200D03*
X70809600Y-30604200D03*
G04 #@! TA.AperFunction,ComponentPad*
D15*
G36*
X56226704Y-42151804D02*
G01*
X56250973Y-42155404D01*
X56274771Y-42161365D01*
X56297871Y-42169630D01*
X56320049Y-42180120D01*
X56341093Y-42192733D01*
X56360798Y-42207347D01*
X56378977Y-42223823D01*
X56395453Y-42242002D01*
X56410067Y-42261707D01*
X56422680Y-42282751D01*
X56433170Y-42304929D01*
X56441435Y-42328029D01*
X56447396Y-42351827D01*
X56450996Y-42376096D01*
X56452200Y-42400600D01*
X56452200Y-43400600D01*
X56450996Y-43425104D01*
X56447396Y-43449373D01*
X56441435Y-43473171D01*
X56433170Y-43496271D01*
X56422680Y-43518449D01*
X56410067Y-43539493D01*
X56395453Y-43559198D01*
X56378977Y-43577377D01*
X56360798Y-43593853D01*
X56341093Y-43608467D01*
X56320049Y-43621080D01*
X56297871Y-43631570D01*
X56274771Y-43639835D01*
X56250973Y-43645796D01*
X56226704Y-43649396D01*
X56202200Y-43650600D01*
X55202200Y-43650600D01*
X55177696Y-43649396D01*
X55153427Y-43645796D01*
X55129629Y-43639835D01*
X55106529Y-43631570D01*
X55084351Y-43621080D01*
X55063307Y-43608467D01*
X55043602Y-43593853D01*
X55025423Y-43577377D01*
X55008947Y-43559198D01*
X54994333Y-43539493D01*
X54981720Y-43518449D01*
X54971230Y-43496271D01*
X54962965Y-43473171D01*
X54957004Y-43449373D01*
X54953404Y-43425104D01*
X54952200Y-43400600D01*
X54952200Y-42400600D01*
X54953404Y-42376096D01*
X54957004Y-42351827D01*
X54962965Y-42328029D01*
X54971230Y-42304929D01*
X54981720Y-42282751D01*
X54994333Y-42261707D01*
X55008947Y-42242002D01*
X55025423Y-42223823D01*
X55043602Y-42207347D01*
X55063307Y-42192733D01*
X55084351Y-42180120D01*
X55106529Y-42169630D01*
X55129629Y-42161365D01*
X55153427Y-42155404D01*
X55177696Y-42151804D01*
X55202200Y-42150600D01*
X56202200Y-42150600D01*
X56226704Y-42151804D01*
G37*
G04 #@! TD.AperFunction*
D16*
X52702200Y-42900600D03*
G04 #@! TA.AperFunction,ComponentPad*
D15*
G36*
X56226704Y-52337204D02*
G01*
X56250973Y-52340804D01*
X56274771Y-52346765D01*
X56297871Y-52355030D01*
X56320049Y-52365520D01*
X56341093Y-52378133D01*
X56360798Y-52392747D01*
X56378977Y-52409223D01*
X56395453Y-52427402D01*
X56410067Y-52447107D01*
X56422680Y-52468151D01*
X56433170Y-52490329D01*
X56441435Y-52513429D01*
X56447396Y-52537227D01*
X56450996Y-52561496D01*
X56452200Y-52586000D01*
X56452200Y-53586000D01*
X56450996Y-53610504D01*
X56447396Y-53634773D01*
X56441435Y-53658571D01*
X56433170Y-53681671D01*
X56422680Y-53703849D01*
X56410067Y-53724893D01*
X56395453Y-53744598D01*
X56378977Y-53762777D01*
X56360798Y-53779253D01*
X56341093Y-53793867D01*
X56320049Y-53806480D01*
X56297871Y-53816970D01*
X56274771Y-53825235D01*
X56250973Y-53831196D01*
X56226704Y-53834796D01*
X56202200Y-53836000D01*
X55202200Y-53836000D01*
X55177696Y-53834796D01*
X55153427Y-53831196D01*
X55129629Y-53825235D01*
X55106529Y-53816970D01*
X55084351Y-53806480D01*
X55063307Y-53793867D01*
X55043602Y-53779253D01*
X55025423Y-53762777D01*
X55008947Y-53744598D01*
X54994333Y-53724893D01*
X54981720Y-53703849D01*
X54971230Y-53681671D01*
X54962965Y-53658571D01*
X54957004Y-53634773D01*
X54953404Y-53610504D01*
X54952200Y-53586000D01*
X54952200Y-52586000D01*
X54953404Y-52561496D01*
X54957004Y-52537227D01*
X54962965Y-52513429D01*
X54971230Y-52490329D01*
X54981720Y-52468151D01*
X54994333Y-52447107D01*
X55008947Y-52427402D01*
X55025423Y-52409223D01*
X55043602Y-52392747D01*
X55063307Y-52378133D01*
X55084351Y-52365520D01*
X55106529Y-52355030D01*
X55129629Y-52346765D01*
X55153427Y-52340804D01*
X55177696Y-52337204D01*
X55202200Y-52336000D01*
X56202200Y-52336000D01*
X56226704Y-52337204D01*
G37*
G04 #@! TD.AperFunction*
D16*
X55702200Y-56086000D03*
X52702200Y-53086000D03*
X52702200Y-56086000D03*
X52702200Y-69344800D03*
X52702200Y-66344800D03*
X55702200Y-69344800D03*
G04 #@! TA.AperFunction,ComponentPad*
D15*
G36*
X56226704Y-65596004D02*
G01*
X56250973Y-65599604D01*
X56274771Y-65605565D01*
X56297871Y-65613830D01*
X56320049Y-65624320D01*
X56341093Y-65636933D01*
X56360798Y-65651547D01*
X56378977Y-65668023D01*
X56395453Y-65686202D01*
X56410067Y-65705907D01*
X56422680Y-65726951D01*
X56433170Y-65749129D01*
X56441435Y-65772229D01*
X56447396Y-65796027D01*
X56450996Y-65820296D01*
X56452200Y-65844800D01*
X56452200Y-66844800D01*
X56450996Y-66869304D01*
X56447396Y-66893573D01*
X56441435Y-66917371D01*
X56433170Y-66940471D01*
X56422680Y-66962649D01*
X56410067Y-66983693D01*
X56395453Y-67003398D01*
X56378977Y-67021577D01*
X56360798Y-67038053D01*
X56341093Y-67052667D01*
X56320049Y-67065280D01*
X56297871Y-67075770D01*
X56274771Y-67084035D01*
X56250973Y-67089996D01*
X56226704Y-67093596D01*
X56202200Y-67094800D01*
X55202200Y-67094800D01*
X55177696Y-67093596D01*
X55153427Y-67089996D01*
X55129629Y-67084035D01*
X55106529Y-67075770D01*
X55084351Y-67065280D01*
X55063307Y-67052667D01*
X55043602Y-67038053D01*
X55025423Y-67021577D01*
X55008947Y-67003398D01*
X54994333Y-66983693D01*
X54981720Y-66962649D01*
X54971230Y-66940471D01*
X54962965Y-66917371D01*
X54957004Y-66893573D01*
X54953404Y-66869304D01*
X54952200Y-66844800D01*
X54952200Y-65844800D01*
X54953404Y-65820296D01*
X54957004Y-65796027D01*
X54962965Y-65772229D01*
X54971230Y-65749129D01*
X54981720Y-65726951D01*
X54994333Y-65705907D01*
X55008947Y-65686202D01*
X55025423Y-65668023D01*
X55043602Y-65651547D01*
X55063307Y-65636933D01*
X55084351Y-65624320D01*
X55106529Y-65613830D01*
X55129629Y-65605565D01*
X55153427Y-65599604D01*
X55177696Y-65596004D01*
X55202200Y-65594800D01*
X56202200Y-65594800D01*
X56226704Y-65596004D01*
G37*
G04 #@! TD.AperFunction*
D17*
X86512400Y-58953400D02*
X80467200Y-58953400D01*
X89001600Y-61442600D02*
X86512400Y-58953400D01*
X80467200Y-56413400D02*
X80467200Y-58953400D01*
X79705201Y-59715399D02*
X71348601Y-59715399D01*
X80467200Y-58953400D02*
X79705201Y-59715399D01*
X71348601Y-59715399D02*
X69773800Y-61290200D01*
X69773800Y-67106800D02*
X67767200Y-69113400D01*
X69773800Y-61290200D02*
X69773800Y-67106800D01*
X55702200Y-56086000D02*
X57248800Y-57632600D01*
X69265802Y-57632600D02*
X71348601Y-59715399D01*
X57248800Y-57632600D02*
X69265802Y-57632600D01*
X52702200Y-32509200D02*
X52171600Y-31978600D01*
X52702200Y-42900600D02*
X52702200Y-32509200D01*
X89001600Y-71475600D02*
X89001600Y-69062600D01*
X87736799Y-72740401D02*
X89001600Y-71475600D01*
X58160801Y-72740401D02*
X87736799Y-72740401D01*
X50927000Y-42900600D02*
X50647600Y-43180000D01*
X52702200Y-42900600D02*
X50927000Y-42900600D01*
X56642000Y-71221600D02*
X58160801Y-72740401D01*
X52044600Y-71221600D02*
X56642000Y-71221600D01*
X50647600Y-69824600D02*
X52044600Y-71221600D01*
X66689570Y-53873400D02*
X66664170Y-53898800D01*
X67767200Y-53873400D02*
X66689570Y-53873400D01*
X66664170Y-53898800D02*
X59944000Y-53898800D01*
X59944000Y-53898800D02*
X59156600Y-54686200D01*
X50647600Y-43180000D02*
X50723800Y-54686200D01*
X59156600Y-54686200D02*
X50723800Y-54686200D01*
X50723800Y-54686200D02*
X50647600Y-69824600D01*
X89001600Y-41122600D02*
X91821000Y-41122600D01*
X91821000Y-41122600D02*
X92887800Y-42189400D01*
X92887800Y-42189400D02*
X92887800Y-45999400D01*
X91269601Y-47617599D02*
X55633401Y-47617599D01*
X92887800Y-45999400D02*
X91269601Y-47617599D01*
X52702200Y-50548800D02*
X52702200Y-53086000D01*
X55633401Y-47617599D02*
X52702200Y-50548800D01*
X87870230Y-43662600D02*
X87844830Y-43637200D01*
X89001600Y-43662600D02*
X87870230Y-43662600D01*
X87844830Y-43637200D02*
X74549000Y-43637200D01*
X73809600Y-42897800D02*
X73809600Y-33604200D01*
X74549000Y-43637200D02*
X73809600Y-42897800D01*
D18*
G36*
X108833305Y-22693033D02*
G01*
X109169887Y-22794653D01*
X109480319Y-22959712D01*
X109752777Y-23181923D01*
X109976888Y-23452827D01*
X110144110Y-23762096D01*
X110248078Y-24097960D01*
X110288399Y-24481591D01*
X110288398Y-76494262D01*
X110250566Y-76880107D01*
X110148946Y-77216687D01*
X109983884Y-77527121D01*
X109761672Y-77799580D01*
X109490771Y-78023688D01*
X109181498Y-78190912D01*
X108845637Y-78294878D01*
X108462017Y-78335198D01*
X47559356Y-78335200D01*
X47173491Y-78297366D01*
X46836911Y-78195746D01*
X46526477Y-78030684D01*
X46254018Y-77808472D01*
X46029910Y-77537571D01*
X45862686Y-77228298D01*
X45758720Y-76892437D01*
X45718400Y-76508817D01*
X45718400Y-75678041D01*
X45953567Y-75678041D01*
X45953567Y-76112355D01*
X46038298Y-76538324D01*
X46204502Y-76939577D01*
X46445794Y-77300696D01*
X46752901Y-77607803D01*
X47114020Y-77849095D01*
X47515273Y-78015299D01*
X47941242Y-78100030D01*
X48375556Y-78100030D01*
X48801525Y-78015299D01*
X49202778Y-77849095D01*
X49563897Y-77607803D01*
X49871004Y-77300696D01*
X50112296Y-76939577D01*
X50278500Y-76538324D01*
X50363231Y-76112355D01*
X50363231Y-75678041D01*
X105643567Y-75678041D01*
X105643567Y-76112355D01*
X105728298Y-76538324D01*
X105894502Y-76939577D01*
X106135794Y-77300696D01*
X106442901Y-77607803D01*
X106804020Y-77849095D01*
X107205273Y-78015299D01*
X107631242Y-78100030D01*
X108065556Y-78100030D01*
X108491525Y-78015299D01*
X108892778Y-77849095D01*
X109253897Y-77607803D01*
X109561004Y-77300696D01*
X109802296Y-76939577D01*
X109968500Y-76538324D01*
X110053231Y-76112355D01*
X110053231Y-75678041D01*
X109968500Y-75252072D01*
X109802296Y-74850819D01*
X109561004Y-74489700D01*
X109253897Y-74182593D01*
X108892778Y-73941301D01*
X108491525Y-73775097D01*
X108065556Y-73690366D01*
X107631242Y-73690366D01*
X107205273Y-73775097D01*
X106804020Y-73941301D01*
X106442901Y-74182593D01*
X106135794Y-74489700D01*
X105894502Y-74850819D01*
X105728298Y-75252072D01*
X105643567Y-75678041D01*
X50363231Y-75678041D01*
X50278500Y-75252072D01*
X50112296Y-74850819D01*
X49871004Y-74489700D01*
X49563897Y-74182593D01*
X49202778Y-73941301D01*
X48801525Y-73775097D01*
X48375556Y-73690366D01*
X47941242Y-73690366D01*
X47515273Y-73775097D01*
X47114020Y-73941301D01*
X46752901Y-74182593D01*
X46445794Y-74489700D01*
X46204502Y-74850819D01*
X46038298Y-75252072D01*
X45953567Y-75678041D01*
X45718400Y-75678041D01*
X45718400Y-43180000D01*
X49883924Y-43180000D01*
X49887848Y-43219838D01*
X49963553Y-54651377D01*
X49960123Y-54686200D01*
X49963612Y-54721629D01*
X49887788Y-69785367D01*
X49883924Y-69824600D01*
X49891060Y-69897049D01*
X49897857Y-69969814D01*
X49898409Y-69971668D01*
X49898598Y-69973585D01*
X49919747Y-70043306D01*
X49940592Y-70113291D01*
X49941493Y-70114998D01*
X49942054Y-70116846D01*
X49976476Y-70181244D01*
X50010499Y-70245674D01*
X50011714Y-70247170D01*
X50012626Y-70248876D01*
X50058906Y-70305267D01*
X50104888Y-70361876D01*
X50135244Y-70387045D01*
X51142210Y-71394011D01*
X51038680Y-71463188D01*
X50880588Y-71621280D01*
X50756376Y-71807176D01*
X50670817Y-72013733D01*
X50627200Y-72233012D01*
X50627200Y-72456588D01*
X50670817Y-72675867D01*
X50756376Y-72882424D01*
X50880588Y-73068320D01*
X51038680Y-73226412D01*
X51224576Y-73350624D01*
X51431133Y-73436183D01*
X51650412Y-73479800D01*
X51873988Y-73479800D01*
X52093267Y-73436183D01*
X52299824Y-73350624D01*
X52485720Y-73226412D01*
X52643812Y-73068320D01*
X52768024Y-72882424D01*
X52853583Y-72675867D01*
X52897200Y-72456588D01*
X52897200Y-72233012D01*
X52853583Y-72013733D01*
X52840273Y-71981600D01*
X56327199Y-71981600D01*
X57597002Y-73251404D01*
X57620800Y-73280402D01*
X57649798Y-73304200D01*
X57736524Y-73375375D01*
X57850287Y-73436183D01*
X57868554Y-73445947D01*
X58011815Y-73489404D01*
X58123468Y-73500401D01*
X58123478Y-73500401D01*
X58160801Y-73504077D01*
X58198124Y-73500401D01*
X87699477Y-73500401D01*
X87736799Y-73504077D01*
X87774121Y-73500401D01*
X87774132Y-73500401D01*
X87885785Y-73489404D01*
X88029046Y-73445947D01*
X88161075Y-73375375D01*
X88276800Y-73280402D01*
X88300603Y-73251398D01*
X89512604Y-72039398D01*
X89541601Y-72015601D01*
X89636574Y-71899876D01*
X89707146Y-71767847D01*
X89750603Y-71624586D01*
X89761600Y-71512933D01*
X89761600Y-71512925D01*
X89765276Y-71475600D01*
X89761600Y-71438275D01*
X89761600Y-70280643D01*
X89916359Y-70177237D01*
X90116237Y-69977359D01*
X90273280Y-69742327D01*
X90381453Y-69481174D01*
X90436600Y-69203935D01*
X90436600Y-68921265D01*
X90381453Y-68644026D01*
X90273280Y-68382873D01*
X90192917Y-68262600D01*
X102803528Y-68262600D01*
X102803528Y-69862600D01*
X102815788Y-69987082D01*
X102852098Y-70106780D01*
X102911063Y-70217094D01*
X102990415Y-70313785D01*
X103087106Y-70393137D01*
X103197420Y-70452102D01*
X103317118Y-70488412D01*
X103441600Y-70500672D01*
X105041600Y-70500672D01*
X105166082Y-70488412D01*
X105285780Y-70452102D01*
X105396094Y-70393137D01*
X105492785Y-70313785D01*
X105572137Y-70217094D01*
X105631102Y-70106780D01*
X105667412Y-69987082D01*
X105679672Y-69862600D01*
X105679672Y-68262600D01*
X105667412Y-68138118D01*
X105631102Y-68018420D01*
X105572137Y-67908106D01*
X105492785Y-67811415D01*
X105396094Y-67732063D01*
X105285780Y-67673098D01*
X105166082Y-67636788D01*
X105157639Y-67635957D01*
X105356237Y-67437359D01*
X105513280Y-67202327D01*
X105621453Y-66941174D01*
X105676600Y-66663935D01*
X105676600Y-66381265D01*
X105621453Y-66104026D01*
X105513280Y-65842873D01*
X105356237Y-65607841D01*
X105156359Y-65407963D01*
X104923841Y-65252600D01*
X105156359Y-65097237D01*
X105356237Y-64897359D01*
X105513280Y-64662327D01*
X105621453Y-64401174D01*
X105676600Y-64123935D01*
X105676600Y-63841265D01*
X105621453Y-63564026D01*
X105513280Y-63302873D01*
X105356237Y-63067841D01*
X105156359Y-62867963D01*
X104921327Y-62710920D01*
X104910735Y-62706533D01*
X105096731Y-62594985D01*
X105305119Y-62406014D01*
X105472637Y-62180020D01*
X105592846Y-61925687D01*
X105633504Y-61791639D01*
X105511515Y-61569600D01*
X104368600Y-61569600D01*
X104368600Y-61589600D01*
X104114600Y-61589600D01*
X104114600Y-61569600D01*
X102971685Y-61569600D01*
X102849696Y-61791639D01*
X102890354Y-61925687D01*
X103010563Y-62180020D01*
X103178081Y-62406014D01*
X103386469Y-62594985D01*
X103572465Y-62706533D01*
X103561873Y-62710920D01*
X103326841Y-62867963D01*
X103126963Y-63067841D01*
X102969920Y-63302873D01*
X102861747Y-63564026D01*
X102806600Y-63841265D01*
X102806600Y-64123935D01*
X102861747Y-64401174D01*
X102969920Y-64662327D01*
X103126963Y-64897359D01*
X103326841Y-65097237D01*
X103559359Y-65252600D01*
X103326841Y-65407963D01*
X103126963Y-65607841D01*
X102969920Y-65842873D01*
X102861747Y-66104026D01*
X102806600Y-66381265D01*
X102806600Y-66663935D01*
X102861747Y-66941174D01*
X102969920Y-67202327D01*
X103126963Y-67437359D01*
X103325561Y-67635957D01*
X103317118Y-67636788D01*
X103197420Y-67673098D01*
X103087106Y-67732063D01*
X102990415Y-67811415D01*
X102911063Y-67908106D01*
X102852098Y-68018420D01*
X102815788Y-68138118D01*
X102803528Y-68262600D01*
X90192917Y-68262600D01*
X90116237Y-68147841D01*
X89916359Y-67947963D01*
X89683841Y-67792600D01*
X89916359Y-67637237D01*
X90116237Y-67437359D01*
X90273280Y-67202327D01*
X90381453Y-66941174D01*
X90436600Y-66663935D01*
X90436600Y-66381265D01*
X90381453Y-66104026D01*
X90273280Y-65842873D01*
X90116237Y-65607841D01*
X89916359Y-65407963D01*
X89683841Y-65252600D01*
X89916359Y-65097237D01*
X90116237Y-64897359D01*
X90273280Y-64662327D01*
X90381453Y-64401174D01*
X90436600Y-64123935D01*
X90436600Y-63841265D01*
X90381453Y-63564026D01*
X90273280Y-63302873D01*
X90116237Y-63067841D01*
X89916359Y-62867963D01*
X89683841Y-62712600D01*
X89916359Y-62557237D01*
X90116237Y-62357359D01*
X90273280Y-62122327D01*
X90381453Y-61861174D01*
X90436600Y-61583935D01*
X90436600Y-61301265D01*
X90381453Y-61024026D01*
X90273280Y-60762873D01*
X90116237Y-60527841D01*
X89916359Y-60327963D01*
X89683841Y-60172600D01*
X89916359Y-60017237D01*
X90116237Y-59817359D01*
X90273280Y-59582327D01*
X90381453Y-59321174D01*
X90436600Y-59043935D01*
X90436600Y-58761265D01*
X90381453Y-58484026D01*
X90273280Y-58222873D01*
X90116237Y-57987841D01*
X89916359Y-57787963D01*
X89683841Y-57632600D01*
X89916359Y-57477237D01*
X90116237Y-57277359D01*
X90273280Y-57042327D01*
X90381453Y-56781174D01*
X90436600Y-56503935D01*
X90436600Y-56221265D01*
X90381453Y-55944026D01*
X90273280Y-55682873D01*
X90116237Y-55447841D01*
X89916359Y-55247963D01*
X89683841Y-55092600D01*
X89916359Y-54937237D01*
X90116237Y-54737359D01*
X90273280Y-54502327D01*
X90381453Y-54241174D01*
X90436600Y-53963935D01*
X90436600Y-53681265D01*
X90381453Y-53404026D01*
X90273280Y-53142873D01*
X90116237Y-52907841D01*
X89916359Y-52707963D01*
X89683841Y-52552600D01*
X89916359Y-52397237D01*
X90116237Y-52197359D01*
X90273280Y-51962327D01*
X90381453Y-51701174D01*
X90436600Y-51423935D01*
X90436600Y-51141265D01*
X90381453Y-50864026D01*
X90273280Y-50602873D01*
X90116237Y-50367841D01*
X89916359Y-50167963D01*
X89683841Y-50012600D01*
X89916359Y-49857237D01*
X90116237Y-49657359D01*
X90273280Y-49422327D01*
X90381453Y-49161174D01*
X90436600Y-48883935D01*
X90436600Y-48601265D01*
X90392109Y-48377599D01*
X91232279Y-48377599D01*
X91269601Y-48381275D01*
X91306923Y-48377599D01*
X91306934Y-48377599D01*
X91418587Y-48366602D01*
X91561848Y-48323145D01*
X91693877Y-48252573D01*
X91809602Y-48157600D01*
X91833405Y-48128596D01*
X93398803Y-46563199D01*
X93427801Y-46539401D01*
X93510835Y-46438224D01*
X93522774Y-46423677D01*
X93593346Y-46291647D01*
X93611540Y-46231667D01*
X93636803Y-46148386D01*
X93647800Y-46036733D01*
X93647800Y-46036723D01*
X93651476Y-45999400D01*
X93647800Y-45962077D01*
X93647800Y-42226722D01*
X93651476Y-42189399D01*
X93647800Y-42152076D01*
X93647800Y-42152067D01*
X93636803Y-42040414D01*
X93593346Y-41897153D01*
X93579689Y-41871603D01*
X93522774Y-41765123D01*
X93451599Y-41678397D01*
X93427801Y-41649399D01*
X93398804Y-41625602D01*
X92384804Y-40611602D01*
X92361001Y-40582599D01*
X92245276Y-40487626D01*
X92113247Y-40417054D01*
X91969986Y-40373597D01*
X91858333Y-40362600D01*
X91858322Y-40362600D01*
X91821000Y-40358924D01*
X91783678Y-40362600D01*
X90219643Y-40362600D01*
X90116237Y-40207841D01*
X89916359Y-40007963D01*
X89683841Y-39852600D01*
X89916359Y-39697237D01*
X90116237Y-39497359D01*
X90273280Y-39262327D01*
X90381453Y-39001174D01*
X90436600Y-38723935D01*
X90436600Y-38441265D01*
X90381453Y-38164026D01*
X90273280Y-37902873D01*
X90116237Y-37667841D01*
X89916359Y-37467963D01*
X89683841Y-37312600D01*
X89916359Y-37157237D01*
X90116237Y-36957359D01*
X90273280Y-36722327D01*
X90381453Y-36461174D01*
X90436600Y-36183935D01*
X90436600Y-35901265D01*
X90381453Y-35624026D01*
X90273280Y-35362873D01*
X90116237Y-35127841D01*
X89916359Y-34927963D01*
X89683841Y-34772600D01*
X89916359Y-34617237D01*
X90116237Y-34417359D01*
X90273280Y-34182327D01*
X90381453Y-33921174D01*
X90436600Y-33643935D01*
X90436600Y-33361265D01*
X102806600Y-33361265D01*
X102806600Y-33643935D01*
X102861747Y-33921174D01*
X102969920Y-34182327D01*
X103126963Y-34417359D01*
X103326841Y-34617237D01*
X103559359Y-34772600D01*
X103326841Y-34927963D01*
X103126963Y-35127841D01*
X102969920Y-35362873D01*
X102861747Y-35624026D01*
X102806600Y-35901265D01*
X102806600Y-36183935D01*
X102861747Y-36461174D01*
X102969920Y-36722327D01*
X103126963Y-36957359D01*
X103326841Y-37157237D01*
X103559359Y-37312600D01*
X103326841Y-37467963D01*
X103126963Y-37667841D01*
X102969920Y-37902873D01*
X102861747Y-38164026D01*
X102806600Y-38441265D01*
X102806600Y-38723935D01*
X102861747Y-39001174D01*
X102969920Y-39262327D01*
X103126963Y-39497359D01*
X103326841Y-39697237D01*
X103559359Y-39852600D01*
X103326841Y-40007963D01*
X103126963Y-40207841D01*
X102969920Y-40442873D01*
X102861747Y-40704026D01*
X102806600Y-40981265D01*
X102806600Y-41263935D01*
X102861747Y-41541174D01*
X102969920Y-41802327D01*
X103126963Y-42037359D01*
X103326841Y-42237237D01*
X103559359Y-42392600D01*
X103326841Y-42547963D01*
X103126963Y-42747841D01*
X102969920Y-42982873D01*
X102861747Y-43244026D01*
X102806600Y-43521265D01*
X102806600Y-43803935D01*
X102861747Y-44081174D01*
X102969920Y-44342327D01*
X103126963Y-44577359D01*
X103326841Y-44777237D01*
X103559359Y-44932600D01*
X103326841Y-45087963D01*
X103126963Y-45287841D01*
X102969920Y-45522873D01*
X102861747Y-45784026D01*
X102806600Y-46061265D01*
X102806600Y-46343935D01*
X102861747Y-46621174D01*
X102969920Y-46882327D01*
X103126963Y-47117359D01*
X103326841Y-47317237D01*
X103559359Y-47472600D01*
X103326841Y-47627963D01*
X103126963Y-47827841D01*
X102969920Y-48062873D01*
X102861747Y-48324026D01*
X102806600Y-48601265D01*
X102806600Y-48883935D01*
X102861747Y-49161174D01*
X102969920Y-49422327D01*
X103126963Y-49657359D01*
X103326841Y-49857237D01*
X103559359Y-50012600D01*
X103326841Y-50167963D01*
X103126963Y-50367841D01*
X102969920Y-50602873D01*
X102861747Y-50864026D01*
X102806600Y-51141265D01*
X102806600Y-51423935D01*
X102861747Y-51701174D01*
X102969920Y-51962327D01*
X103126963Y-52197359D01*
X103326841Y-52397237D01*
X103559359Y-52552600D01*
X103326841Y-52707963D01*
X103126963Y-52907841D01*
X102969920Y-53142873D01*
X102861747Y-53404026D01*
X102806600Y-53681265D01*
X102806600Y-53963935D01*
X102861747Y-54241174D01*
X102969920Y-54502327D01*
X103126963Y-54737359D01*
X103326841Y-54937237D01*
X103559359Y-55092600D01*
X103326841Y-55247963D01*
X103126963Y-55447841D01*
X102969920Y-55682873D01*
X102861747Y-55944026D01*
X102806600Y-56221265D01*
X102806600Y-56503935D01*
X102861747Y-56781174D01*
X102969920Y-57042327D01*
X103126963Y-57277359D01*
X103326841Y-57477237D01*
X103559359Y-57632600D01*
X103326841Y-57787963D01*
X103126963Y-57987841D01*
X102969920Y-58222873D01*
X102861747Y-58484026D01*
X102806600Y-58761265D01*
X102806600Y-59043935D01*
X102861747Y-59321174D01*
X102969920Y-59582327D01*
X103126963Y-59817359D01*
X103326841Y-60017237D01*
X103561873Y-60174280D01*
X103572465Y-60178667D01*
X103386469Y-60290215D01*
X103178081Y-60479186D01*
X103010563Y-60705180D01*
X102890354Y-60959513D01*
X102849696Y-61093561D01*
X102971685Y-61315600D01*
X104114600Y-61315600D01*
X104114600Y-61295600D01*
X104368600Y-61295600D01*
X104368600Y-61315600D01*
X105511515Y-61315600D01*
X105633504Y-61093561D01*
X105592846Y-60959513D01*
X105472637Y-60705180D01*
X105305119Y-60479186D01*
X105096731Y-60290215D01*
X104910735Y-60178667D01*
X104921327Y-60174280D01*
X105156359Y-60017237D01*
X105356237Y-59817359D01*
X105513280Y-59582327D01*
X105621453Y-59321174D01*
X105676600Y-59043935D01*
X105676600Y-58761265D01*
X105621453Y-58484026D01*
X105513280Y-58222873D01*
X105356237Y-57987841D01*
X105156359Y-57787963D01*
X104923841Y-57632600D01*
X105156359Y-57477237D01*
X105356237Y-57277359D01*
X105513280Y-57042327D01*
X105621453Y-56781174D01*
X105676600Y-56503935D01*
X105676600Y-56221265D01*
X105621453Y-55944026D01*
X105513280Y-55682873D01*
X105356237Y-55447841D01*
X105156359Y-55247963D01*
X104923841Y-55092600D01*
X105156359Y-54937237D01*
X105356237Y-54737359D01*
X105513280Y-54502327D01*
X105621453Y-54241174D01*
X105676600Y-53963935D01*
X105676600Y-53681265D01*
X105621453Y-53404026D01*
X105513280Y-53142873D01*
X105356237Y-52907841D01*
X105156359Y-52707963D01*
X104923841Y-52552600D01*
X105156359Y-52397237D01*
X105356237Y-52197359D01*
X105513280Y-51962327D01*
X105621453Y-51701174D01*
X105676600Y-51423935D01*
X105676600Y-51141265D01*
X105621453Y-50864026D01*
X105513280Y-50602873D01*
X105356237Y-50367841D01*
X105156359Y-50167963D01*
X104923841Y-50012600D01*
X105156359Y-49857237D01*
X105356237Y-49657359D01*
X105513280Y-49422327D01*
X105621453Y-49161174D01*
X105676600Y-48883935D01*
X105676600Y-48601265D01*
X105621453Y-48324026D01*
X105513280Y-48062873D01*
X105356237Y-47827841D01*
X105156359Y-47627963D01*
X104923841Y-47472600D01*
X105156359Y-47317237D01*
X105356237Y-47117359D01*
X105513280Y-46882327D01*
X105621453Y-46621174D01*
X105676600Y-46343935D01*
X105676600Y-46061265D01*
X105621453Y-45784026D01*
X105513280Y-45522873D01*
X105356237Y-45287841D01*
X105156359Y-45087963D01*
X104923841Y-44932600D01*
X105156359Y-44777237D01*
X105356237Y-44577359D01*
X105513280Y-44342327D01*
X105621453Y-44081174D01*
X105676600Y-43803935D01*
X105676600Y-43521265D01*
X105621453Y-43244026D01*
X105513280Y-42982873D01*
X105356237Y-42747841D01*
X105156359Y-42547963D01*
X104923841Y-42392600D01*
X105156359Y-42237237D01*
X105356237Y-42037359D01*
X105513280Y-41802327D01*
X105621453Y-41541174D01*
X105676600Y-41263935D01*
X105676600Y-40981265D01*
X105621453Y-40704026D01*
X105513280Y-40442873D01*
X105356237Y-40207841D01*
X105156359Y-40007963D01*
X104923841Y-39852600D01*
X105156359Y-39697237D01*
X105356237Y-39497359D01*
X105513280Y-39262327D01*
X105621453Y-39001174D01*
X105676600Y-38723935D01*
X105676600Y-38441265D01*
X105621453Y-38164026D01*
X105513280Y-37902873D01*
X105356237Y-37667841D01*
X105156359Y-37467963D01*
X104923841Y-37312600D01*
X105156359Y-37157237D01*
X105356237Y-36957359D01*
X105513280Y-36722327D01*
X105621453Y-36461174D01*
X105676600Y-36183935D01*
X105676600Y-35901265D01*
X105621453Y-35624026D01*
X105513280Y-35362873D01*
X105356237Y-35127841D01*
X105156359Y-34927963D01*
X104923841Y-34772600D01*
X105156359Y-34617237D01*
X105356237Y-34417359D01*
X105513280Y-34182327D01*
X105621453Y-33921174D01*
X105676600Y-33643935D01*
X105676600Y-33361265D01*
X105621453Y-33084026D01*
X105513280Y-32822873D01*
X105356237Y-32587841D01*
X105156359Y-32387963D01*
X104921327Y-32230920D01*
X104660174Y-32122747D01*
X104382935Y-32067600D01*
X104100265Y-32067600D01*
X103823026Y-32122747D01*
X103561873Y-32230920D01*
X103326841Y-32387963D01*
X103126963Y-32587841D01*
X102969920Y-32822873D01*
X102861747Y-33084026D01*
X102806600Y-33361265D01*
X90436600Y-33361265D01*
X90381453Y-33084026D01*
X90273280Y-32822873D01*
X90116237Y-32587841D01*
X89916359Y-32387963D01*
X89681327Y-32230920D01*
X89420174Y-32122747D01*
X89142935Y-32067600D01*
X88860265Y-32067600D01*
X88583026Y-32122747D01*
X88321873Y-32230920D01*
X88086841Y-32387963D01*
X87886963Y-32587841D01*
X87729920Y-32822873D01*
X87621747Y-33084026D01*
X87566600Y-33361265D01*
X87566600Y-33643935D01*
X87621747Y-33921174D01*
X87729920Y-34182327D01*
X87886963Y-34417359D01*
X88086841Y-34617237D01*
X88319359Y-34772600D01*
X88086841Y-34927963D01*
X87886963Y-35127841D01*
X87729920Y-35362873D01*
X87621747Y-35624026D01*
X87566600Y-35901265D01*
X87566600Y-36183935D01*
X87621747Y-36461174D01*
X87729920Y-36722327D01*
X87886963Y-36957359D01*
X88086841Y-37157237D01*
X88319359Y-37312600D01*
X88086841Y-37467963D01*
X87886963Y-37667841D01*
X87729920Y-37902873D01*
X87621747Y-38164026D01*
X87566600Y-38441265D01*
X87566600Y-38723935D01*
X87621747Y-39001174D01*
X87729920Y-39262327D01*
X87886963Y-39497359D01*
X88086841Y-39697237D01*
X88319359Y-39852600D01*
X88086841Y-40007963D01*
X87886963Y-40207841D01*
X87729920Y-40442873D01*
X87621747Y-40704026D01*
X87566600Y-40981265D01*
X87566600Y-41263935D01*
X87621747Y-41541174D01*
X87729920Y-41802327D01*
X87886963Y-42037359D01*
X88086841Y-42237237D01*
X88319359Y-42392600D01*
X88086841Y-42547963D01*
X87886963Y-42747841D01*
X87800528Y-42877200D01*
X74863802Y-42877200D01*
X74569600Y-42582999D01*
X74569600Y-34762109D01*
X74692486Y-34679999D01*
X74885399Y-34487086D01*
X74974190Y-34354200D01*
X75421528Y-34354200D01*
X75433788Y-34478682D01*
X75470098Y-34598380D01*
X75529063Y-34708694D01*
X75608415Y-34805385D01*
X75705106Y-34884737D01*
X75815420Y-34943702D01*
X75935118Y-34980012D01*
X76059600Y-34992272D01*
X76523850Y-34989200D01*
X76682600Y-34830450D01*
X76682600Y-33731200D01*
X76936600Y-33731200D01*
X76936600Y-34830450D01*
X77095350Y-34989200D01*
X77559600Y-34992272D01*
X77684082Y-34980012D01*
X77803780Y-34943702D01*
X77914094Y-34884737D01*
X78010785Y-34805385D01*
X78090137Y-34708694D01*
X78149102Y-34598380D01*
X78185412Y-34478682D01*
X78197672Y-34354200D01*
X78194600Y-33889950D01*
X78035850Y-33731200D01*
X76936600Y-33731200D01*
X76682600Y-33731200D01*
X75583350Y-33731200D01*
X75424600Y-33889950D01*
X75421528Y-34354200D01*
X74974190Y-34354200D01*
X75036971Y-34260243D01*
X75141375Y-34008189D01*
X75194600Y-33740611D01*
X75194600Y-33467789D01*
X75141375Y-33200211D01*
X75036971Y-32948157D01*
X74974191Y-32854200D01*
X75421528Y-32854200D01*
X75424600Y-33318450D01*
X75583350Y-33477200D01*
X76682600Y-33477200D01*
X76682600Y-32377950D01*
X76936600Y-32377950D01*
X76936600Y-33477200D01*
X78035850Y-33477200D01*
X78194600Y-33318450D01*
X78197672Y-32854200D01*
X78185412Y-32729718D01*
X78149102Y-32610020D01*
X78090137Y-32499706D01*
X78010785Y-32403015D01*
X77914094Y-32323663D01*
X77803780Y-32264698D01*
X77684082Y-32228388D01*
X77559600Y-32216128D01*
X77095350Y-32219200D01*
X76936600Y-32377950D01*
X76682600Y-32377950D01*
X76523850Y-32219200D01*
X76059600Y-32216128D01*
X75935118Y-32228388D01*
X75815420Y-32264698D01*
X75705106Y-32323663D01*
X75608415Y-32403015D01*
X75529063Y-32499706D01*
X75470098Y-32610020D01*
X75433788Y-32729718D01*
X75421528Y-32854200D01*
X74974191Y-32854200D01*
X74885399Y-32721314D01*
X74692486Y-32528401D01*
X74465643Y-32376829D01*
X74213589Y-32272425D01*
X73946011Y-32219200D01*
X73673189Y-32219200D01*
X73405611Y-32272425D01*
X73153557Y-32376829D01*
X72926714Y-32528401D01*
X72733801Y-32721314D01*
X72582229Y-32948157D01*
X72477825Y-33200211D01*
X72424600Y-33467789D01*
X72424600Y-33740611D01*
X72477825Y-34008189D01*
X72582229Y-34260243D01*
X72733801Y-34487086D01*
X72926714Y-34679999D01*
X73049601Y-34762110D01*
X73049600Y-42860478D01*
X73045924Y-42897800D01*
X73049600Y-42935122D01*
X73049600Y-42935132D01*
X73060597Y-43046785D01*
X73075890Y-43097199D01*
X73104054Y-43190046D01*
X73174626Y-43322076D01*
X73193401Y-43344953D01*
X73269599Y-43437801D01*
X73298602Y-43461603D01*
X73985201Y-44148202D01*
X74008999Y-44177201D01*
X74037997Y-44200999D01*
X74124724Y-44272174D01*
X74256753Y-44342746D01*
X74400014Y-44386203D01*
X74549000Y-44400877D01*
X74586333Y-44397200D01*
X87673763Y-44397200D01*
X87721244Y-44411603D01*
X87780081Y-44417398D01*
X87886963Y-44577359D01*
X88086841Y-44777237D01*
X88319359Y-44932600D01*
X88086841Y-45087963D01*
X87886963Y-45287841D01*
X87729920Y-45522873D01*
X87621747Y-45784026D01*
X87566600Y-46061265D01*
X87566600Y-46343935D01*
X87621747Y-46621174D01*
X87719677Y-46857599D01*
X55670723Y-46857599D01*
X55633400Y-46853923D01*
X55596077Y-46857599D01*
X55596068Y-46857599D01*
X55484415Y-46868596D01*
X55341154Y-46912053D01*
X55209125Y-46982625D01*
X55093400Y-47077598D01*
X55069602Y-47106596D01*
X52711867Y-49464332D01*
X52643812Y-49362480D01*
X52485720Y-49204388D01*
X52299824Y-49080176D01*
X52093267Y-48994617D01*
X51873988Y-48951000D01*
X51650412Y-48951000D01*
X51446104Y-48991639D01*
X51432864Y-46992327D01*
X51650412Y-47035600D01*
X51873988Y-47035600D01*
X52093267Y-46991983D01*
X52299824Y-46906424D01*
X52485720Y-46782212D01*
X52643812Y-46624120D01*
X52768024Y-46438224D01*
X52853583Y-46231667D01*
X52897200Y-46012388D01*
X52897200Y-45788812D01*
X52853583Y-45569533D01*
X52768024Y-45362976D01*
X52643812Y-45177080D01*
X52485720Y-45018988D01*
X52299824Y-44894776D01*
X52093267Y-44809217D01*
X51873988Y-44765600D01*
X51650412Y-44765600D01*
X51431133Y-44809217D01*
X51418441Y-44814474D01*
X51410799Y-43660600D01*
X51544291Y-43660600D01*
X51626401Y-43783486D01*
X51819314Y-43976399D01*
X52046157Y-44127971D01*
X52298211Y-44232375D01*
X52565789Y-44285600D01*
X52838611Y-44285600D01*
X53106189Y-44232375D01*
X53358243Y-44127971D01*
X53585086Y-43976399D01*
X53777999Y-43783486D01*
X53866790Y-43650600D01*
X54314128Y-43650600D01*
X54326388Y-43775082D01*
X54362698Y-43894780D01*
X54421663Y-44005094D01*
X54501015Y-44101785D01*
X54597706Y-44181137D01*
X54708020Y-44240102D01*
X54827718Y-44276412D01*
X54952200Y-44288672D01*
X55416450Y-44285600D01*
X55575200Y-44126850D01*
X55575200Y-43027600D01*
X55829200Y-43027600D01*
X55829200Y-44126850D01*
X55987950Y-44285600D01*
X56452200Y-44288672D01*
X56576682Y-44276412D01*
X56696380Y-44240102D01*
X56806694Y-44181137D01*
X56903385Y-44101785D01*
X56982737Y-44005094D01*
X57041702Y-43894780D01*
X57078012Y-43775082D01*
X57090272Y-43650600D01*
X57087200Y-43186350D01*
X56928450Y-43027600D01*
X55829200Y-43027600D01*
X55575200Y-43027600D01*
X54475950Y-43027600D01*
X54317200Y-43186350D01*
X54314128Y-43650600D01*
X53866790Y-43650600D01*
X53929571Y-43556643D01*
X54033975Y-43304589D01*
X54087200Y-43037011D01*
X54087200Y-42764189D01*
X54033975Y-42496611D01*
X53929571Y-42244557D01*
X53866791Y-42150600D01*
X54314128Y-42150600D01*
X54317200Y-42614850D01*
X54475950Y-42773600D01*
X55575200Y-42773600D01*
X55575200Y-41674350D01*
X55829200Y-41674350D01*
X55829200Y-42773600D01*
X56928450Y-42773600D01*
X57087200Y-42614850D01*
X57090272Y-42150600D01*
X57078012Y-42026118D01*
X57041702Y-41906420D01*
X56982737Y-41796106D01*
X56903385Y-41699415D01*
X56806694Y-41620063D01*
X56696380Y-41561098D01*
X56576682Y-41524788D01*
X56452200Y-41512528D01*
X55987950Y-41515600D01*
X55829200Y-41674350D01*
X55575200Y-41674350D01*
X55416450Y-41515600D01*
X54952200Y-41512528D01*
X54827718Y-41524788D01*
X54708020Y-41561098D01*
X54597706Y-41620063D01*
X54501015Y-41699415D01*
X54421663Y-41796106D01*
X54362698Y-41906420D01*
X54326388Y-42026118D01*
X54314128Y-42150600D01*
X53866791Y-42150600D01*
X53777999Y-42017714D01*
X53585086Y-41824801D01*
X53462200Y-41742691D01*
X53462200Y-33467789D01*
X69424600Y-33467789D01*
X69424600Y-33740611D01*
X69477825Y-34008189D01*
X69582229Y-34260243D01*
X69733801Y-34487086D01*
X69926714Y-34679999D01*
X70153557Y-34831571D01*
X70405611Y-34935975D01*
X70673189Y-34989200D01*
X70946011Y-34989200D01*
X71213589Y-34935975D01*
X71465643Y-34831571D01*
X71692486Y-34679999D01*
X71885399Y-34487086D01*
X72036971Y-34260243D01*
X72141375Y-34008189D01*
X72194600Y-33740611D01*
X72194600Y-33467789D01*
X72141375Y-33200211D01*
X72036971Y-32948157D01*
X71885399Y-32721314D01*
X71692486Y-32528401D01*
X71465643Y-32376829D01*
X71213589Y-32272425D01*
X70946011Y-32219200D01*
X70673189Y-32219200D01*
X70405611Y-32272425D01*
X70153557Y-32376829D01*
X69926714Y-32528401D01*
X69733801Y-32721314D01*
X69582229Y-32948157D01*
X69477825Y-33200211D01*
X69424600Y-33467789D01*
X53462200Y-33467789D01*
X53462200Y-33181758D01*
X53502137Y-33133094D01*
X53561102Y-33022780D01*
X53576717Y-32971302D01*
X56358503Y-32971302D01*
X56430086Y-33215271D01*
X56685596Y-33336171D01*
X56959784Y-33404900D01*
X57242112Y-33418817D01*
X57521730Y-33377387D01*
X57787892Y-33282203D01*
X57913114Y-33215271D01*
X57984697Y-32971302D01*
X57171600Y-32158205D01*
X56358503Y-32971302D01*
X53576717Y-32971302D01*
X53597412Y-32903082D01*
X53609672Y-32778600D01*
X53609672Y-32049112D01*
X55731383Y-32049112D01*
X55772813Y-32328730D01*
X55867997Y-32594892D01*
X55934929Y-32720114D01*
X56178898Y-32791697D01*
X56991995Y-31978600D01*
X57351205Y-31978600D01*
X58164302Y-32791697D01*
X58408271Y-32720114D01*
X58529171Y-32464604D01*
X58597900Y-32190416D01*
X58611817Y-31908088D01*
X58570387Y-31628470D01*
X58475203Y-31362308D01*
X58408271Y-31237086D01*
X58164302Y-31165503D01*
X57351205Y-31978600D01*
X56991995Y-31978600D01*
X56178898Y-31165503D01*
X55934929Y-31237086D01*
X55814029Y-31492596D01*
X55745300Y-31766784D01*
X55731383Y-32049112D01*
X53609672Y-32049112D01*
X53609672Y-31178600D01*
X53597412Y-31054118D01*
X53576718Y-30985898D01*
X56358503Y-30985898D01*
X57171600Y-31798995D01*
X57984697Y-30985898D01*
X57913114Y-30741929D01*
X57657604Y-30621029D01*
X57383416Y-30552300D01*
X57101088Y-30538383D01*
X56821470Y-30579813D01*
X56555308Y-30674997D01*
X56430086Y-30741929D01*
X56358503Y-30985898D01*
X53576718Y-30985898D01*
X53561102Y-30934420D01*
X53502137Y-30824106D01*
X53422785Y-30727415D01*
X53326094Y-30648063D01*
X53215780Y-30589098D01*
X53096082Y-30552788D01*
X52971600Y-30540528D01*
X51371600Y-30540528D01*
X51247118Y-30552788D01*
X51127420Y-30589098D01*
X51017106Y-30648063D01*
X50920415Y-30727415D01*
X50841063Y-30824106D01*
X50782098Y-30934420D01*
X50745788Y-31054118D01*
X50733528Y-31178600D01*
X50733528Y-32778600D01*
X50745788Y-32903082D01*
X50782098Y-33022780D01*
X50841063Y-33133094D01*
X50920415Y-33229785D01*
X51017106Y-33309137D01*
X51127420Y-33368102D01*
X51247118Y-33404412D01*
X51371600Y-33416672D01*
X51942201Y-33416672D01*
X51942200Y-38779168D01*
X51873988Y-38765600D01*
X51650412Y-38765600D01*
X51431133Y-38809217D01*
X51224576Y-38894776D01*
X51038680Y-39018988D01*
X50880588Y-39177080D01*
X50756376Y-39362976D01*
X50670817Y-39569533D01*
X50627200Y-39788812D01*
X50627200Y-40012388D01*
X50670817Y-40231667D01*
X50756376Y-40438224D01*
X50880588Y-40624120D01*
X51038680Y-40782212D01*
X51224576Y-40906424D01*
X51431133Y-40991983D01*
X51650412Y-41035600D01*
X51873988Y-41035600D01*
X51942200Y-41022032D01*
X51942200Y-41742691D01*
X51819314Y-41824801D01*
X51626401Y-42017714D01*
X51544291Y-42140600D01*
X50964322Y-42140600D01*
X50926999Y-42136924D01*
X50889676Y-42140600D01*
X50889667Y-42140600D01*
X50778014Y-42151597D01*
X50634753Y-42195054D01*
X50502724Y-42265626D01*
X50386999Y-42360599D01*
X50363196Y-42389603D01*
X50134817Y-42617982D01*
X50104035Y-42643587D01*
X50058535Y-42699784D01*
X50012626Y-42755724D01*
X50011426Y-42757969D01*
X50009831Y-42759939D01*
X49976206Y-42823860D01*
X49942054Y-42887754D01*
X49941316Y-42890187D01*
X49940135Y-42892432D01*
X49919589Y-42961815D01*
X49898598Y-43031015D01*
X49898349Y-43033538D01*
X49897627Y-43035978D01*
X49891006Y-43108099D01*
X49883924Y-43180000D01*
X45718400Y-43180000D01*
X45718400Y-29552412D01*
X66674600Y-29552412D01*
X66674600Y-29775988D01*
X66718217Y-29995267D01*
X66803776Y-30201824D01*
X66927988Y-30387720D01*
X67086080Y-30545812D01*
X67271976Y-30670024D01*
X67478533Y-30755583D01*
X67697812Y-30799200D01*
X67921388Y-30799200D01*
X68140667Y-30755583D01*
X68347224Y-30670024D01*
X68533120Y-30545812D01*
X68611143Y-30467789D01*
X69424600Y-30467789D01*
X69424600Y-30740611D01*
X69477825Y-31008189D01*
X69582229Y-31260243D01*
X69733801Y-31487086D01*
X69926714Y-31679999D01*
X70153557Y-31831571D01*
X70405611Y-31935975D01*
X70673189Y-31989200D01*
X70946011Y-31989200D01*
X71213589Y-31935975D01*
X71465643Y-31831571D01*
X71692486Y-31679999D01*
X71885399Y-31487086D01*
X72036971Y-31260243D01*
X72141375Y-31008189D01*
X72194600Y-30740611D01*
X72194600Y-30467789D01*
X72424600Y-30467789D01*
X72424600Y-30740611D01*
X72477825Y-31008189D01*
X72582229Y-31260243D01*
X72733801Y-31487086D01*
X72926714Y-31679999D01*
X73153557Y-31831571D01*
X73405611Y-31935975D01*
X73673189Y-31989200D01*
X73946011Y-31989200D01*
X74213589Y-31935975D01*
X74465643Y-31831571D01*
X74692486Y-31679999D01*
X74885399Y-31487086D01*
X75036971Y-31260243D01*
X75141375Y-31008189D01*
X75194600Y-30740611D01*
X75194600Y-30467789D01*
X75424600Y-30467789D01*
X75424600Y-30740611D01*
X75477825Y-31008189D01*
X75582229Y-31260243D01*
X75733801Y-31487086D01*
X75926714Y-31679999D01*
X76153557Y-31831571D01*
X76405611Y-31935975D01*
X76673189Y-31989200D01*
X76946011Y-31989200D01*
X77213589Y-31935975D01*
X77465643Y-31831571D01*
X77692486Y-31679999D01*
X77885399Y-31487086D01*
X78036971Y-31260243D01*
X78141375Y-31008189D01*
X78194600Y-30740611D01*
X78194600Y-30467789D01*
X78141375Y-30200211D01*
X78036971Y-29948157D01*
X77885399Y-29721314D01*
X77716497Y-29552412D01*
X78674600Y-29552412D01*
X78674600Y-29775988D01*
X78718217Y-29995267D01*
X78803776Y-30201824D01*
X78927988Y-30387720D01*
X79086080Y-30545812D01*
X79271976Y-30670024D01*
X79478533Y-30755583D01*
X79697812Y-30799200D01*
X79921388Y-30799200D01*
X80140667Y-30755583D01*
X80347224Y-30670024D01*
X80533120Y-30545812D01*
X80691212Y-30387720D01*
X80815424Y-30201824D01*
X80900983Y-29995267D01*
X80944600Y-29775988D01*
X80944600Y-29552412D01*
X80900983Y-29333133D01*
X80815424Y-29126576D01*
X80691212Y-28940680D01*
X80533120Y-28782588D01*
X80347224Y-28658376D01*
X80140667Y-28572817D01*
X79921388Y-28529200D01*
X79697812Y-28529200D01*
X79478533Y-28572817D01*
X79271976Y-28658376D01*
X79086080Y-28782588D01*
X78927988Y-28940680D01*
X78803776Y-29126576D01*
X78718217Y-29333133D01*
X78674600Y-29552412D01*
X77716497Y-29552412D01*
X77692486Y-29528401D01*
X77465643Y-29376829D01*
X77213589Y-29272425D01*
X76946011Y-29219200D01*
X76673189Y-29219200D01*
X76405611Y-29272425D01*
X76153557Y-29376829D01*
X75926714Y-29528401D01*
X75733801Y-29721314D01*
X75582229Y-29948157D01*
X75477825Y-30200211D01*
X75424600Y-30467789D01*
X75194600Y-30467789D01*
X75141375Y-30200211D01*
X75036971Y-29948157D01*
X74885399Y-29721314D01*
X74692486Y-29528401D01*
X74465643Y-29376829D01*
X74213589Y-29272425D01*
X73946011Y-29219200D01*
X73673189Y-29219200D01*
X73405611Y-29272425D01*
X73153557Y-29376829D01*
X72926714Y-29528401D01*
X72733801Y-29721314D01*
X72582229Y-29948157D01*
X72477825Y-30200211D01*
X72424600Y-30467789D01*
X72194600Y-30467789D01*
X72141375Y-30200211D01*
X72036971Y-29948157D01*
X71885399Y-29721314D01*
X71692486Y-29528401D01*
X71465643Y-29376829D01*
X71213589Y-29272425D01*
X70946011Y-29219200D01*
X70673189Y-29219200D01*
X70405611Y-29272425D01*
X70153557Y-29376829D01*
X69926714Y-29528401D01*
X69733801Y-29721314D01*
X69582229Y-29948157D01*
X69477825Y-30200211D01*
X69424600Y-30467789D01*
X68611143Y-30467789D01*
X68691212Y-30387720D01*
X68815424Y-30201824D01*
X68900983Y-29995267D01*
X68944600Y-29775988D01*
X68944600Y-29552412D01*
X68900983Y-29333133D01*
X68815424Y-29126576D01*
X68691212Y-28940680D01*
X68533120Y-28782588D01*
X68347224Y-28658376D01*
X68140667Y-28572817D01*
X67921388Y-28529200D01*
X67697812Y-28529200D01*
X67478533Y-28572817D01*
X67271976Y-28658376D01*
X67086080Y-28782588D01*
X66927988Y-28940680D01*
X66803776Y-29126576D01*
X66718217Y-29333133D01*
X66674600Y-29552412D01*
X45718400Y-29552412D01*
X45718400Y-24878043D01*
X45953567Y-24878043D01*
X45953567Y-25312357D01*
X46038298Y-25738326D01*
X46204502Y-26139579D01*
X46445794Y-26500698D01*
X46752901Y-26807805D01*
X47114020Y-27049097D01*
X47515273Y-27215301D01*
X47941242Y-27300032D01*
X48375556Y-27300032D01*
X48801525Y-27215301D01*
X49202778Y-27049097D01*
X49563897Y-26807805D01*
X49871004Y-26500698D01*
X50112296Y-26139579D01*
X50278500Y-25738326D01*
X50363231Y-25312357D01*
X50363231Y-24878043D01*
X50363231Y-24878042D01*
X105643566Y-24878042D01*
X105643566Y-25312356D01*
X105728297Y-25738325D01*
X105894501Y-26139578D01*
X106135793Y-26500697D01*
X106442900Y-26807804D01*
X106804019Y-27049096D01*
X107205272Y-27215300D01*
X107631241Y-27300031D01*
X108065555Y-27300031D01*
X108491524Y-27215300D01*
X108892777Y-27049096D01*
X109253896Y-26807804D01*
X109561003Y-26500697D01*
X109802295Y-26139578D01*
X109968499Y-25738325D01*
X110053230Y-25312356D01*
X110053230Y-24878042D01*
X109968499Y-24452073D01*
X109802295Y-24050820D01*
X109561003Y-23689701D01*
X109253896Y-23382594D01*
X108892777Y-23141302D01*
X108491524Y-22975098D01*
X108065555Y-22890367D01*
X107631241Y-22890367D01*
X107205272Y-22975098D01*
X106804019Y-23141302D01*
X106442900Y-23382594D01*
X106135793Y-23689701D01*
X105894501Y-24050820D01*
X105728297Y-24452073D01*
X105643566Y-24878042D01*
X50363231Y-24878042D01*
X50278500Y-24452074D01*
X50112296Y-24050821D01*
X49871004Y-23689702D01*
X49563897Y-23382595D01*
X49202778Y-23141303D01*
X48801525Y-22975099D01*
X48375556Y-22890368D01*
X47941242Y-22890368D01*
X47515273Y-22975099D01*
X47114020Y-23141303D01*
X46752901Y-23382595D01*
X46445794Y-23689702D01*
X46204502Y-24050821D01*
X46038298Y-24452074D01*
X45953567Y-24878043D01*
X45718400Y-24878043D01*
X45718400Y-24496147D01*
X45756233Y-24110293D01*
X45857853Y-23773711D01*
X46022912Y-23463279D01*
X46245123Y-23190821D01*
X46516027Y-22966710D01*
X46825296Y-22799488D01*
X47161160Y-22695520D01*
X47544782Y-22655200D01*
X108447451Y-22655200D01*
X108833305Y-22693033D01*
G37*
X108833305Y-22693033D02*
X109169887Y-22794653D01*
X109480319Y-22959712D01*
X109752777Y-23181923D01*
X109976888Y-23452827D01*
X110144110Y-23762096D01*
X110248078Y-24097960D01*
X110288399Y-24481591D01*
X110288398Y-76494262D01*
X110250566Y-76880107D01*
X110148946Y-77216687D01*
X109983884Y-77527121D01*
X109761672Y-77799580D01*
X109490771Y-78023688D01*
X109181498Y-78190912D01*
X108845637Y-78294878D01*
X108462017Y-78335198D01*
X47559356Y-78335200D01*
X47173491Y-78297366D01*
X46836911Y-78195746D01*
X46526477Y-78030684D01*
X46254018Y-77808472D01*
X46029910Y-77537571D01*
X45862686Y-77228298D01*
X45758720Y-76892437D01*
X45718400Y-76508817D01*
X45718400Y-75678041D01*
X45953567Y-75678041D01*
X45953567Y-76112355D01*
X46038298Y-76538324D01*
X46204502Y-76939577D01*
X46445794Y-77300696D01*
X46752901Y-77607803D01*
X47114020Y-77849095D01*
X47515273Y-78015299D01*
X47941242Y-78100030D01*
X48375556Y-78100030D01*
X48801525Y-78015299D01*
X49202778Y-77849095D01*
X49563897Y-77607803D01*
X49871004Y-77300696D01*
X50112296Y-76939577D01*
X50278500Y-76538324D01*
X50363231Y-76112355D01*
X50363231Y-75678041D01*
X105643567Y-75678041D01*
X105643567Y-76112355D01*
X105728298Y-76538324D01*
X105894502Y-76939577D01*
X106135794Y-77300696D01*
X106442901Y-77607803D01*
X106804020Y-77849095D01*
X107205273Y-78015299D01*
X107631242Y-78100030D01*
X108065556Y-78100030D01*
X108491525Y-78015299D01*
X108892778Y-77849095D01*
X109253897Y-77607803D01*
X109561004Y-77300696D01*
X109802296Y-76939577D01*
X109968500Y-76538324D01*
X110053231Y-76112355D01*
X110053231Y-75678041D01*
X109968500Y-75252072D01*
X109802296Y-74850819D01*
X109561004Y-74489700D01*
X109253897Y-74182593D01*
X108892778Y-73941301D01*
X108491525Y-73775097D01*
X108065556Y-73690366D01*
X107631242Y-73690366D01*
X107205273Y-73775097D01*
X106804020Y-73941301D01*
X106442901Y-74182593D01*
X106135794Y-74489700D01*
X105894502Y-74850819D01*
X105728298Y-75252072D01*
X105643567Y-75678041D01*
X50363231Y-75678041D01*
X50278500Y-75252072D01*
X50112296Y-74850819D01*
X49871004Y-74489700D01*
X49563897Y-74182593D01*
X49202778Y-73941301D01*
X48801525Y-73775097D01*
X48375556Y-73690366D01*
X47941242Y-73690366D01*
X47515273Y-73775097D01*
X47114020Y-73941301D01*
X46752901Y-74182593D01*
X46445794Y-74489700D01*
X46204502Y-74850819D01*
X46038298Y-75252072D01*
X45953567Y-75678041D01*
X45718400Y-75678041D01*
X45718400Y-43180000D01*
X49883924Y-43180000D01*
X49887848Y-43219838D01*
X49963553Y-54651377D01*
X49960123Y-54686200D01*
X49963612Y-54721629D01*
X49887788Y-69785367D01*
X49883924Y-69824600D01*
X49891060Y-69897049D01*
X49897857Y-69969814D01*
X49898409Y-69971668D01*
X49898598Y-69973585D01*
X49919747Y-70043306D01*
X49940592Y-70113291D01*
X49941493Y-70114998D01*
X49942054Y-70116846D01*
X49976476Y-70181244D01*
X50010499Y-70245674D01*
X50011714Y-70247170D01*
X50012626Y-70248876D01*
X50058906Y-70305267D01*
X50104888Y-70361876D01*
X50135244Y-70387045D01*
X51142210Y-71394011D01*
X51038680Y-71463188D01*
X50880588Y-71621280D01*
X50756376Y-71807176D01*
X50670817Y-72013733D01*
X50627200Y-72233012D01*
X50627200Y-72456588D01*
X50670817Y-72675867D01*
X50756376Y-72882424D01*
X50880588Y-73068320D01*
X51038680Y-73226412D01*
X51224576Y-73350624D01*
X51431133Y-73436183D01*
X51650412Y-73479800D01*
X51873988Y-73479800D01*
X52093267Y-73436183D01*
X52299824Y-73350624D01*
X52485720Y-73226412D01*
X52643812Y-73068320D01*
X52768024Y-72882424D01*
X52853583Y-72675867D01*
X52897200Y-72456588D01*
X52897200Y-72233012D01*
X52853583Y-72013733D01*
X52840273Y-71981600D01*
X56327199Y-71981600D01*
X57597002Y-73251404D01*
X57620800Y-73280402D01*
X57649798Y-73304200D01*
X57736524Y-73375375D01*
X57850287Y-73436183D01*
X57868554Y-73445947D01*
X58011815Y-73489404D01*
X58123468Y-73500401D01*
X58123478Y-73500401D01*
X58160801Y-73504077D01*
X58198124Y-73500401D01*
X87699477Y-73500401D01*
X87736799Y-73504077D01*
X87774121Y-73500401D01*
X87774132Y-73500401D01*
X87885785Y-73489404D01*
X88029046Y-73445947D01*
X88161075Y-73375375D01*
X88276800Y-73280402D01*
X88300603Y-73251398D01*
X89512604Y-72039398D01*
X89541601Y-72015601D01*
X89636574Y-71899876D01*
X89707146Y-71767847D01*
X89750603Y-71624586D01*
X89761600Y-71512933D01*
X89761600Y-71512925D01*
X89765276Y-71475600D01*
X89761600Y-71438275D01*
X89761600Y-70280643D01*
X89916359Y-70177237D01*
X90116237Y-69977359D01*
X90273280Y-69742327D01*
X90381453Y-69481174D01*
X90436600Y-69203935D01*
X90436600Y-68921265D01*
X90381453Y-68644026D01*
X90273280Y-68382873D01*
X90192917Y-68262600D01*
X102803528Y-68262600D01*
X102803528Y-69862600D01*
X102815788Y-69987082D01*
X102852098Y-70106780D01*
X102911063Y-70217094D01*
X102990415Y-70313785D01*
X103087106Y-70393137D01*
X103197420Y-70452102D01*
X103317118Y-70488412D01*
X103441600Y-70500672D01*
X105041600Y-70500672D01*
X105166082Y-70488412D01*
X105285780Y-70452102D01*
X105396094Y-70393137D01*
X105492785Y-70313785D01*
X105572137Y-70217094D01*
X105631102Y-70106780D01*
X105667412Y-69987082D01*
X105679672Y-69862600D01*
X105679672Y-68262600D01*
X105667412Y-68138118D01*
X105631102Y-68018420D01*
X105572137Y-67908106D01*
X105492785Y-67811415D01*
X105396094Y-67732063D01*
X105285780Y-67673098D01*
X105166082Y-67636788D01*
X105157639Y-67635957D01*
X105356237Y-67437359D01*
X105513280Y-67202327D01*
X105621453Y-66941174D01*
X105676600Y-66663935D01*
X105676600Y-66381265D01*
X105621453Y-66104026D01*
X105513280Y-65842873D01*
X105356237Y-65607841D01*
X105156359Y-65407963D01*
X104923841Y-65252600D01*
X105156359Y-65097237D01*
X105356237Y-64897359D01*
X105513280Y-64662327D01*
X105621453Y-64401174D01*
X105676600Y-64123935D01*
X105676600Y-63841265D01*
X105621453Y-63564026D01*
X105513280Y-63302873D01*
X105356237Y-63067841D01*
X105156359Y-62867963D01*
X104921327Y-62710920D01*
X104910735Y-62706533D01*
X105096731Y-62594985D01*
X105305119Y-62406014D01*
X105472637Y-62180020D01*
X105592846Y-61925687D01*
X105633504Y-61791639D01*
X105511515Y-61569600D01*
X104368600Y-61569600D01*
X104368600Y-61589600D01*
X104114600Y-61589600D01*
X104114600Y-61569600D01*
X102971685Y-61569600D01*
X102849696Y-61791639D01*
X102890354Y-61925687D01*
X103010563Y-62180020D01*
X103178081Y-62406014D01*
X103386469Y-62594985D01*
X103572465Y-62706533D01*
X103561873Y-62710920D01*
X103326841Y-62867963D01*
X103126963Y-63067841D01*
X102969920Y-63302873D01*
X102861747Y-63564026D01*
X102806600Y-63841265D01*
X102806600Y-64123935D01*
X102861747Y-64401174D01*
X102969920Y-64662327D01*
X103126963Y-64897359D01*
X103326841Y-65097237D01*
X103559359Y-65252600D01*
X103326841Y-65407963D01*
X103126963Y-65607841D01*
X102969920Y-65842873D01*
X102861747Y-66104026D01*
X102806600Y-66381265D01*
X102806600Y-66663935D01*
X102861747Y-66941174D01*
X102969920Y-67202327D01*
X103126963Y-67437359D01*
X103325561Y-67635957D01*
X103317118Y-67636788D01*
X103197420Y-67673098D01*
X103087106Y-67732063D01*
X102990415Y-67811415D01*
X102911063Y-67908106D01*
X102852098Y-68018420D01*
X102815788Y-68138118D01*
X102803528Y-68262600D01*
X90192917Y-68262600D01*
X90116237Y-68147841D01*
X89916359Y-67947963D01*
X89683841Y-67792600D01*
X89916359Y-67637237D01*
X90116237Y-67437359D01*
X90273280Y-67202327D01*
X90381453Y-66941174D01*
X90436600Y-66663935D01*
X90436600Y-66381265D01*
X90381453Y-66104026D01*
X90273280Y-65842873D01*
X90116237Y-65607841D01*
X89916359Y-65407963D01*
X89683841Y-65252600D01*
X89916359Y-65097237D01*
X90116237Y-64897359D01*
X90273280Y-64662327D01*
X90381453Y-64401174D01*
X90436600Y-64123935D01*
X90436600Y-63841265D01*
X90381453Y-63564026D01*
X90273280Y-63302873D01*
X90116237Y-63067841D01*
X89916359Y-62867963D01*
X89683841Y-62712600D01*
X89916359Y-62557237D01*
X90116237Y-62357359D01*
X90273280Y-62122327D01*
X90381453Y-61861174D01*
X90436600Y-61583935D01*
X90436600Y-61301265D01*
X90381453Y-61024026D01*
X90273280Y-60762873D01*
X90116237Y-60527841D01*
X89916359Y-60327963D01*
X89683841Y-60172600D01*
X89916359Y-60017237D01*
X90116237Y-59817359D01*
X90273280Y-59582327D01*
X90381453Y-59321174D01*
X90436600Y-59043935D01*
X90436600Y-58761265D01*
X90381453Y-58484026D01*
X90273280Y-58222873D01*
X90116237Y-57987841D01*
X89916359Y-57787963D01*
X89683841Y-57632600D01*
X89916359Y-57477237D01*
X90116237Y-57277359D01*
X90273280Y-57042327D01*
X90381453Y-56781174D01*
X90436600Y-56503935D01*
X90436600Y-56221265D01*
X90381453Y-55944026D01*
X90273280Y-55682873D01*
X90116237Y-55447841D01*
X89916359Y-55247963D01*
X89683841Y-55092600D01*
X89916359Y-54937237D01*
X90116237Y-54737359D01*
X90273280Y-54502327D01*
X90381453Y-54241174D01*
X90436600Y-53963935D01*
X90436600Y-53681265D01*
X90381453Y-53404026D01*
X90273280Y-53142873D01*
X90116237Y-52907841D01*
X89916359Y-52707963D01*
X89683841Y-52552600D01*
X89916359Y-52397237D01*
X90116237Y-52197359D01*
X90273280Y-51962327D01*
X90381453Y-51701174D01*
X90436600Y-51423935D01*
X90436600Y-51141265D01*
X90381453Y-50864026D01*
X90273280Y-50602873D01*
X90116237Y-50367841D01*
X89916359Y-50167963D01*
X89683841Y-50012600D01*
X89916359Y-49857237D01*
X90116237Y-49657359D01*
X90273280Y-49422327D01*
X90381453Y-49161174D01*
X90436600Y-48883935D01*
X90436600Y-48601265D01*
X90392109Y-48377599D01*
X91232279Y-48377599D01*
X91269601Y-48381275D01*
X91306923Y-48377599D01*
X91306934Y-48377599D01*
X91418587Y-48366602D01*
X91561848Y-48323145D01*
X91693877Y-48252573D01*
X91809602Y-48157600D01*
X91833405Y-48128596D01*
X93398803Y-46563199D01*
X93427801Y-46539401D01*
X93510835Y-46438224D01*
X93522774Y-46423677D01*
X93593346Y-46291647D01*
X93611540Y-46231667D01*
X93636803Y-46148386D01*
X93647800Y-46036733D01*
X93647800Y-46036723D01*
X93651476Y-45999400D01*
X93647800Y-45962077D01*
X93647800Y-42226722D01*
X93651476Y-42189399D01*
X93647800Y-42152076D01*
X93647800Y-42152067D01*
X93636803Y-42040414D01*
X93593346Y-41897153D01*
X93579689Y-41871603D01*
X93522774Y-41765123D01*
X93451599Y-41678397D01*
X93427801Y-41649399D01*
X93398804Y-41625602D01*
X92384804Y-40611602D01*
X92361001Y-40582599D01*
X92245276Y-40487626D01*
X92113247Y-40417054D01*
X91969986Y-40373597D01*
X91858333Y-40362600D01*
X91858322Y-40362600D01*
X91821000Y-40358924D01*
X91783678Y-40362600D01*
X90219643Y-40362600D01*
X90116237Y-40207841D01*
X89916359Y-40007963D01*
X89683841Y-39852600D01*
X89916359Y-39697237D01*
X90116237Y-39497359D01*
X90273280Y-39262327D01*
X90381453Y-39001174D01*
X90436600Y-38723935D01*
X90436600Y-38441265D01*
X90381453Y-38164026D01*
X90273280Y-37902873D01*
X90116237Y-37667841D01*
X89916359Y-37467963D01*
X89683841Y-37312600D01*
X89916359Y-37157237D01*
X90116237Y-36957359D01*
X90273280Y-36722327D01*
X90381453Y-36461174D01*
X90436600Y-36183935D01*
X90436600Y-35901265D01*
X90381453Y-35624026D01*
X90273280Y-35362873D01*
X90116237Y-35127841D01*
X89916359Y-34927963D01*
X89683841Y-34772600D01*
X89916359Y-34617237D01*
X90116237Y-34417359D01*
X90273280Y-34182327D01*
X90381453Y-33921174D01*
X90436600Y-33643935D01*
X90436600Y-33361265D01*
X102806600Y-33361265D01*
X102806600Y-33643935D01*
X102861747Y-33921174D01*
X102969920Y-34182327D01*
X103126963Y-34417359D01*
X103326841Y-34617237D01*
X103559359Y-34772600D01*
X103326841Y-34927963D01*
X103126963Y-35127841D01*
X102969920Y-35362873D01*
X102861747Y-35624026D01*
X102806600Y-35901265D01*
X102806600Y-36183935D01*
X102861747Y-36461174D01*
X102969920Y-36722327D01*
X103126963Y-36957359D01*
X103326841Y-37157237D01*
X103559359Y-37312600D01*
X103326841Y-37467963D01*
X103126963Y-37667841D01*
X102969920Y-37902873D01*
X102861747Y-38164026D01*
X102806600Y-38441265D01*
X102806600Y-38723935D01*
X102861747Y-39001174D01*
X102969920Y-39262327D01*
X103126963Y-39497359D01*
X103326841Y-39697237D01*
X103559359Y-39852600D01*
X103326841Y-40007963D01*
X103126963Y-40207841D01*
X102969920Y-40442873D01*
X102861747Y-40704026D01*
X102806600Y-40981265D01*
X102806600Y-41263935D01*
X102861747Y-41541174D01*
X102969920Y-41802327D01*
X103126963Y-42037359D01*
X103326841Y-42237237D01*
X103559359Y-42392600D01*
X103326841Y-42547963D01*
X103126963Y-42747841D01*
X102969920Y-42982873D01*
X102861747Y-43244026D01*
X102806600Y-43521265D01*
X102806600Y-43803935D01*
X102861747Y-44081174D01*
X102969920Y-44342327D01*
X103126963Y-44577359D01*
X103326841Y-44777237D01*
X103559359Y-44932600D01*
X103326841Y-45087963D01*
X103126963Y-45287841D01*
X102969920Y-45522873D01*
X102861747Y-45784026D01*
X102806600Y-46061265D01*
X102806600Y-46343935D01*
X102861747Y-46621174D01*
X102969920Y-46882327D01*
X103126963Y-47117359D01*
X103326841Y-47317237D01*
X103559359Y-47472600D01*
X103326841Y-47627963D01*
X103126963Y-47827841D01*
X102969920Y-48062873D01*
X102861747Y-48324026D01*
X102806600Y-48601265D01*
X102806600Y-48883935D01*
X102861747Y-49161174D01*
X102969920Y-49422327D01*
X103126963Y-49657359D01*
X103326841Y-49857237D01*
X103559359Y-50012600D01*
X103326841Y-50167963D01*
X103126963Y-50367841D01*
X102969920Y-50602873D01*
X102861747Y-50864026D01*
X102806600Y-51141265D01*
X102806600Y-51423935D01*
X102861747Y-51701174D01*
X102969920Y-51962327D01*
X103126963Y-52197359D01*
X103326841Y-52397237D01*
X103559359Y-52552600D01*
X103326841Y-52707963D01*
X103126963Y-52907841D01*
X102969920Y-53142873D01*
X102861747Y-53404026D01*
X102806600Y-53681265D01*
X102806600Y-53963935D01*
X102861747Y-54241174D01*
X102969920Y-54502327D01*
X103126963Y-54737359D01*
X103326841Y-54937237D01*
X103559359Y-55092600D01*
X103326841Y-55247963D01*
X103126963Y-55447841D01*
X102969920Y-55682873D01*
X102861747Y-55944026D01*
X102806600Y-56221265D01*
X102806600Y-56503935D01*
X102861747Y-56781174D01*
X102969920Y-57042327D01*
X103126963Y-57277359D01*
X103326841Y-57477237D01*
X103559359Y-57632600D01*
X103326841Y-57787963D01*
X103126963Y-57987841D01*
X102969920Y-58222873D01*
X102861747Y-58484026D01*
X102806600Y-58761265D01*
X102806600Y-59043935D01*
X102861747Y-59321174D01*
X102969920Y-59582327D01*
X103126963Y-59817359D01*
X103326841Y-60017237D01*
X103561873Y-60174280D01*
X103572465Y-60178667D01*
X103386469Y-60290215D01*
X103178081Y-60479186D01*
X103010563Y-60705180D01*
X102890354Y-60959513D01*
X102849696Y-61093561D01*
X102971685Y-61315600D01*
X104114600Y-61315600D01*
X104114600Y-61295600D01*
X104368600Y-61295600D01*
X104368600Y-61315600D01*
X105511515Y-61315600D01*
X105633504Y-61093561D01*
X105592846Y-60959513D01*
X105472637Y-60705180D01*
X105305119Y-60479186D01*
X105096731Y-60290215D01*
X104910735Y-60178667D01*
X104921327Y-60174280D01*
X105156359Y-60017237D01*
X105356237Y-59817359D01*
X105513280Y-59582327D01*
X105621453Y-59321174D01*
X105676600Y-59043935D01*
X105676600Y-58761265D01*
X105621453Y-58484026D01*
X105513280Y-58222873D01*
X105356237Y-57987841D01*
X105156359Y-57787963D01*
X104923841Y-57632600D01*
X105156359Y-57477237D01*
X105356237Y-57277359D01*
X105513280Y-57042327D01*
X105621453Y-56781174D01*
X105676600Y-56503935D01*
X105676600Y-56221265D01*
X105621453Y-55944026D01*
X105513280Y-55682873D01*
X105356237Y-55447841D01*
X105156359Y-55247963D01*
X104923841Y-55092600D01*
X105156359Y-54937237D01*
X105356237Y-54737359D01*
X105513280Y-54502327D01*
X105621453Y-54241174D01*
X105676600Y-53963935D01*
X105676600Y-53681265D01*
X105621453Y-53404026D01*
X105513280Y-53142873D01*
X105356237Y-52907841D01*
X105156359Y-52707963D01*
X104923841Y-52552600D01*
X105156359Y-52397237D01*
X105356237Y-52197359D01*
X105513280Y-51962327D01*
X105621453Y-51701174D01*
X105676600Y-51423935D01*
X105676600Y-51141265D01*
X105621453Y-50864026D01*
X105513280Y-50602873D01*
X105356237Y-50367841D01*
X105156359Y-50167963D01*
X104923841Y-50012600D01*
X105156359Y-49857237D01*
X105356237Y-49657359D01*
X105513280Y-49422327D01*
X105621453Y-49161174D01*
X105676600Y-48883935D01*
X105676600Y-48601265D01*
X105621453Y-48324026D01*
X105513280Y-48062873D01*
X105356237Y-47827841D01*
X105156359Y-47627963D01*
X104923841Y-47472600D01*
X105156359Y-47317237D01*
X105356237Y-47117359D01*
X105513280Y-46882327D01*
X105621453Y-46621174D01*
X105676600Y-46343935D01*
X105676600Y-46061265D01*
X105621453Y-45784026D01*
X105513280Y-45522873D01*
X105356237Y-45287841D01*
X105156359Y-45087963D01*
X104923841Y-44932600D01*
X105156359Y-44777237D01*
X105356237Y-44577359D01*
X105513280Y-44342327D01*
X105621453Y-44081174D01*
X105676600Y-43803935D01*
X105676600Y-43521265D01*
X105621453Y-43244026D01*
X105513280Y-42982873D01*
X105356237Y-42747841D01*
X105156359Y-42547963D01*
X104923841Y-42392600D01*
X105156359Y-42237237D01*
X105356237Y-42037359D01*
X105513280Y-41802327D01*
X105621453Y-41541174D01*
X105676600Y-41263935D01*
X105676600Y-40981265D01*
X105621453Y-40704026D01*
X105513280Y-40442873D01*
X105356237Y-40207841D01*
X105156359Y-40007963D01*
X104923841Y-39852600D01*
X105156359Y-39697237D01*
X105356237Y-39497359D01*
X105513280Y-39262327D01*
X105621453Y-39001174D01*
X105676600Y-38723935D01*
X105676600Y-38441265D01*
X105621453Y-38164026D01*
X105513280Y-37902873D01*
X105356237Y-37667841D01*
X105156359Y-37467963D01*
X104923841Y-37312600D01*
X105156359Y-37157237D01*
X105356237Y-36957359D01*
X105513280Y-36722327D01*
X105621453Y-36461174D01*
X105676600Y-36183935D01*
X105676600Y-35901265D01*
X105621453Y-35624026D01*
X105513280Y-35362873D01*
X105356237Y-35127841D01*
X105156359Y-34927963D01*
X104923841Y-34772600D01*
X105156359Y-34617237D01*
X105356237Y-34417359D01*
X105513280Y-34182327D01*
X105621453Y-33921174D01*
X105676600Y-33643935D01*
X105676600Y-33361265D01*
X105621453Y-33084026D01*
X105513280Y-32822873D01*
X105356237Y-32587841D01*
X105156359Y-32387963D01*
X104921327Y-32230920D01*
X104660174Y-32122747D01*
X104382935Y-32067600D01*
X104100265Y-32067600D01*
X103823026Y-32122747D01*
X103561873Y-32230920D01*
X103326841Y-32387963D01*
X103126963Y-32587841D01*
X102969920Y-32822873D01*
X102861747Y-33084026D01*
X102806600Y-33361265D01*
X90436600Y-33361265D01*
X90381453Y-33084026D01*
X90273280Y-32822873D01*
X90116237Y-32587841D01*
X89916359Y-32387963D01*
X89681327Y-32230920D01*
X89420174Y-32122747D01*
X89142935Y-32067600D01*
X88860265Y-32067600D01*
X88583026Y-32122747D01*
X88321873Y-32230920D01*
X88086841Y-32387963D01*
X87886963Y-32587841D01*
X87729920Y-32822873D01*
X87621747Y-33084026D01*
X87566600Y-33361265D01*
X87566600Y-33643935D01*
X87621747Y-33921174D01*
X87729920Y-34182327D01*
X87886963Y-34417359D01*
X88086841Y-34617237D01*
X88319359Y-34772600D01*
X88086841Y-34927963D01*
X87886963Y-35127841D01*
X87729920Y-35362873D01*
X87621747Y-35624026D01*
X87566600Y-35901265D01*
X87566600Y-36183935D01*
X87621747Y-36461174D01*
X87729920Y-36722327D01*
X87886963Y-36957359D01*
X88086841Y-37157237D01*
X88319359Y-37312600D01*
X88086841Y-37467963D01*
X87886963Y-37667841D01*
X87729920Y-37902873D01*
X87621747Y-38164026D01*
X87566600Y-38441265D01*
X87566600Y-38723935D01*
X87621747Y-39001174D01*
X87729920Y-39262327D01*
X87886963Y-39497359D01*
X88086841Y-39697237D01*
X88319359Y-39852600D01*
X88086841Y-40007963D01*
X87886963Y-40207841D01*
X87729920Y-40442873D01*
X87621747Y-40704026D01*
X87566600Y-40981265D01*
X87566600Y-41263935D01*
X87621747Y-41541174D01*
X87729920Y-41802327D01*
X87886963Y-42037359D01*
X88086841Y-42237237D01*
X88319359Y-42392600D01*
X88086841Y-42547963D01*
X87886963Y-42747841D01*
X87800528Y-42877200D01*
X74863802Y-42877200D01*
X74569600Y-42582999D01*
X74569600Y-34762109D01*
X74692486Y-34679999D01*
X74885399Y-34487086D01*
X74974190Y-34354200D01*
X75421528Y-34354200D01*
X75433788Y-34478682D01*
X75470098Y-34598380D01*
X75529063Y-34708694D01*
X75608415Y-34805385D01*
X75705106Y-34884737D01*
X75815420Y-34943702D01*
X75935118Y-34980012D01*
X76059600Y-34992272D01*
X76523850Y-34989200D01*
X76682600Y-34830450D01*
X76682600Y-33731200D01*
X76936600Y-33731200D01*
X76936600Y-34830450D01*
X77095350Y-34989200D01*
X77559600Y-34992272D01*
X77684082Y-34980012D01*
X77803780Y-34943702D01*
X77914094Y-34884737D01*
X78010785Y-34805385D01*
X78090137Y-34708694D01*
X78149102Y-34598380D01*
X78185412Y-34478682D01*
X78197672Y-34354200D01*
X78194600Y-33889950D01*
X78035850Y-33731200D01*
X76936600Y-33731200D01*
X76682600Y-33731200D01*
X75583350Y-33731200D01*
X75424600Y-33889950D01*
X75421528Y-34354200D01*
X74974190Y-34354200D01*
X75036971Y-34260243D01*
X75141375Y-34008189D01*
X75194600Y-33740611D01*
X75194600Y-33467789D01*
X75141375Y-33200211D01*
X75036971Y-32948157D01*
X74974191Y-32854200D01*
X75421528Y-32854200D01*
X75424600Y-33318450D01*
X75583350Y-33477200D01*
X76682600Y-33477200D01*
X76682600Y-32377950D01*
X76936600Y-32377950D01*
X76936600Y-33477200D01*
X78035850Y-33477200D01*
X78194600Y-33318450D01*
X78197672Y-32854200D01*
X78185412Y-32729718D01*
X78149102Y-32610020D01*
X78090137Y-32499706D01*
X78010785Y-32403015D01*
X77914094Y-32323663D01*
X77803780Y-32264698D01*
X77684082Y-32228388D01*
X77559600Y-32216128D01*
X77095350Y-32219200D01*
X76936600Y-32377950D01*
X76682600Y-32377950D01*
X76523850Y-32219200D01*
X76059600Y-32216128D01*
X75935118Y-32228388D01*
X75815420Y-32264698D01*
X75705106Y-32323663D01*
X75608415Y-32403015D01*
X75529063Y-32499706D01*
X75470098Y-32610020D01*
X75433788Y-32729718D01*
X75421528Y-32854200D01*
X74974191Y-32854200D01*
X74885399Y-32721314D01*
X74692486Y-32528401D01*
X74465643Y-32376829D01*
X74213589Y-32272425D01*
X73946011Y-32219200D01*
X73673189Y-32219200D01*
X73405611Y-32272425D01*
X73153557Y-32376829D01*
X72926714Y-32528401D01*
X72733801Y-32721314D01*
X72582229Y-32948157D01*
X72477825Y-33200211D01*
X72424600Y-33467789D01*
X72424600Y-33740611D01*
X72477825Y-34008189D01*
X72582229Y-34260243D01*
X72733801Y-34487086D01*
X72926714Y-34679999D01*
X73049601Y-34762110D01*
X73049600Y-42860478D01*
X73045924Y-42897800D01*
X73049600Y-42935122D01*
X73049600Y-42935132D01*
X73060597Y-43046785D01*
X73075890Y-43097199D01*
X73104054Y-43190046D01*
X73174626Y-43322076D01*
X73193401Y-43344953D01*
X73269599Y-43437801D01*
X73298602Y-43461603D01*
X73985201Y-44148202D01*
X74008999Y-44177201D01*
X74037997Y-44200999D01*
X74124724Y-44272174D01*
X74256753Y-44342746D01*
X74400014Y-44386203D01*
X74549000Y-44400877D01*
X74586333Y-44397200D01*
X87673763Y-44397200D01*
X87721244Y-44411603D01*
X87780081Y-44417398D01*
X87886963Y-44577359D01*
X88086841Y-44777237D01*
X88319359Y-44932600D01*
X88086841Y-45087963D01*
X87886963Y-45287841D01*
X87729920Y-45522873D01*
X87621747Y-45784026D01*
X87566600Y-46061265D01*
X87566600Y-46343935D01*
X87621747Y-46621174D01*
X87719677Y-46857599D01*
X55670723Y-46857599D01*
X55633400Y-46853923D01*
X55596077Y-46857599D01*
X55596068Y-46857599D01*
X55484415Y-46868596D01*
X55341154Y-46912053D01*
X55209125Y-46982625D01*
X55093400Y-47077598D01*
X55069602Y-47106596D01*
X52711867Y-49464332D01*
X52643812Y-49362480D01*
X52485720Y-49204388D01*
X52299824Y-49080176D01*
X52093267Y-48994617D01*
X51873988Y-48951000D01*
X51650412Y-48951000D01*
X51446104Y-48991639D01*
X51432864Y-46992327D01*
X51650412Y-47035600D01*
X51873988Y-47035600D01*
X52093267Y-46991983D01*
X52299824Y-46906424D01*
X52485720Y-46782212D01*
X52643812Y-46624120D01*
X52768024Y-46438224D01*
X52853583Y-46231667D01*
X52897200Y-46012388D01*
X52897200Y-45788812D01*
X52853583Y-45569533D01*
X52768024Y-45362976D01*
X52643812Y-45177080D01*
X52485720Y-45018988D01*
X52299824Y-44894776D01*
X52093267Y-44809217D01*
X51873988Y-44765600D01*
X51650412Y-44765600D01*
X51431133Y-44809217D01*
X51418441Y-44814474D01*
X51410799Y-43660600D01*
X51544291Y-43660600D01*
X51626401Y-43783486D01*
X51819314Y-43976399D01*
X52046157Y-44127971D01*
X52298211Y-44232375D01*
X52565789Y-44285600D01*
X52838611Y-44285600D01*
X53106189Y-44232375D01*
X53358243Y-44127971D01*
X53585086Y-43976399D01*
X53777999Y-43783486D01*
X53866790Y-43650600D01*
X54314128Y-43650600D01*
X54326388Y-43775082D01*
X54362698Y-43894780D01*
X54421663Y-44005094D01*
X54501015Y-44101785D01*
X54597706Y-44181137D01*
X54708020Y-44240102D01*
X54827718Y-44276412D01*
X54952200Y-44288672D01*
X55416450Y-44285600D01*
X55575200Y-44126850D01*
X55575200Y-43027600D01*
X55829200Y-43027600D01*
X55829200Y-44126850D01*
X55987950Y-44285600D01*
X56452200Y-44288672D01*
X56576682Y-44276412D01*
X56696380Y-44240102D01*
X56806694Y-44181137D01*
X56903385Y-44101785D01*
X56982737Y-44005094D01*
X57041702Y-43894780D01*
X57078012Y-43775082D01*
X57090272Y-43650600D01*
X57087200Y-43186350D01*
X56928450Y-43027600D01*
X55829200Y-43027600D01*
X55575200Y-43027600D01*
X54475950Y-43027600D01*
X54317200Y-43186350D01*
X54314128Y-43650600D01*
X53866790Y-43650600D01*
X53929571Y-43556643D01*
X54033975Y-43304589D01*
X54087200Y-43037011D01*
X54087200Y-42764189D01*
X54033975Y-42496611D01*
X53929571Y-42244557D01*
X53866791Y-42150600D01*
X54314128Y-42150600D01*
X54317200Y-42614850D01*
X54475950Y-42773600D01*
X55575200Y-42773600D01*
X55575200Y-41674350D01*
X55829200Y-41674350D01*
X55829200Y-42773600D01*
X56928450Y-42773600D01*
X57087200Y-42614850D01*
X57090272Y-42150600D01*
X57078012Y-42026118D01*
X57041702Y-41906420D01*
X56982737Y-41796106D01*
X56903385Y-41699415D01*
X56806694Y-41620063D01*
X56696380Y-41561098D01*
X56576682Y-41524788D01*
X56452200Y-41512528D01*
X55987950Y-41515600D01*
X55829200Y-41674350D01*
X55575200Y-41674350D01*
X55416450Y-41515600D01*
X54952200Y-41512528D01*
X54827718Y-41524788D01*
X54708020Y-41561098D01*
X54597706Y-41620063D01*
X54501015Y-41699415D01*
X54421663Y-41796106D01*
X54362698Y-41906420D01*
X54326388Y-42026118D01*
X54314128Y-42150600D01*
X53866791Y-42150600D01*
X53777999Y-42017714D01*
X53585086Y-41824801D01*
X53462200Y-41742691D01*
X53462200Y-33467789D01*
X69424600Y-33467789D01*
X69424600Y-33740611D01*
X69477825Y-34008189D01*
X69582229Y-34260243D01*
X69733801Y-34487086D01*
X69926714Y-34679999D01*
X70153557Y-34831571D01*
X70405611Y-34935975D01*
X70673189Y-34989200D01*
X70946011Y-34989200D01*
X71213589Y-34935975D01*
X71465643Y-34831571D01*
X71692486Y-34679999D01*
X71885399Y-34487086D01*
X72036971Y-34260243D01*
X72141375Y-34008189D01*
X72194600Y-33740611D01*
X72194600Y-33467789D01*
X72141375Y-33200211D01*
X72036971Y-32948157D01*
X71885399Y-32721314D01*
X71692486Y-32528401D01*
X71465643Y-32376829D01*
X71213589Y-32272425D01*
X70946011Y-32219200D01*
X70673189Y-32219200D01*
X70405611Y-32272425D01*
X70153557Y-32376829D01*
X69926714Y-32528401D01*
X69733801Y-32721314D01*
X69582229Y-32948157D01*
X69477825Y-33200211D01*
X69424600Y-33467789D01*
X53462200Y-33467789D01*
X53462200Y-33181758D01*
X53502137Y-33133094D01*
X53561102Y-33022780D01*
X53576717Y-32971302D01*
X56358503Y-32971302D01*
X56430086Y-33215271D01*
X56685596Y-33336171D01*
X56959784Y-33404900D01*
X57242112Y-33418817D01*
X57521730Y-33377387D01*
X57787892Y-33282203D01*
X57913114Y-33215271D01*
X57984697Y-32971302D01*
X57171600Y-32158205D01*
X56358503Y-32971302D01*
X53576717Y-32971302D01*
X53597412Y-32903082D01*
X53609672Y-32778600D01*
X53609672Y-32049112D01*
X55731383Y-32049112D01*
X55772813Y-32328730D01*
X55867997Y-32594892D01*
X55934929Y-32720114D01*
X56178898Y-32791697D01*
X56991995Y-31978600D01*
X57351205Y-31978600D01*
X58164302Y-32791697D01*
X58408271Y-32720114D01*
X58529171Y-32464604D01*
X58597900Y-32190416D01*
X58611817Y-31908088D01*
X58570387Y-31628470D01*
X58475203Y-31362308D01*
X58408271Y-31237086D01*
X58164302Y-31165503D01*
X57351205Y-31978600D01*
X56991995Y-31978600D01*
X56178898Y-31165503D01*
X55934929Y-31237086D01*
X55814029Y-31492596D01*
X55745300Y-31766784D01*
X55731383Y-32049112D01*
X53609672Y-32049112D01*
X53609672Y-31178600D01*
X53597412Y-31054118D01*
X53576718Y-30985898D01*
X56358503Y-30985898D01*
X57171600Y-31798995D01*
X57984697Y-30985898D01*
X57913114Y-30741929D01*
X57657604Y-30621029D01*
X57383416Y-30552300D01*
X57101088Y-30538383D01*
X56821470Y-30579813D01*
X56555308Y-30674997D01*
X56430086Y-30741929D01*
X56358503Y-30985898D01*
X53576718Y-30985898D01*
X53561102Y-30934420D01*
X53502137Y-30824106D01*
X53422785Y-30727415D01*
X53326094Y-30648063D01*
X53215780Y-30589098D01*
X53096082Y-30552788D01*
X52971600Y-30540528D01*
X51371600Y-30540528D01*
X51247118Y-30552788D01*
X51127420Y-30589098D01*
X51017106Y-30648063D01*
X50920415Y-30727415D01*
X50841063Y-30824106D01*
X50782098Y-30934420D01*
X50745788Y-31054118D01*
X50733528Y-31178600D01*
X50733528Y-32778600D01*
X50745788Y-32903082D01*
X50782098Y-33022780D01*
X50841063Y-33133094D01*
X50920415Y-33229785D01*
X51017106Y-33309137D01*
X51127420Y-33368102D01*
X51247118Y-33404412D01*
X51371600Y-33416672D01*
X51942201Y-33416672D01*
X51942200Y-38779168D01*
X51873988Y-38765600D01*
X51650412Y-38765600D01*
X51431133Y-38809217D01*
X51224576Y-38894776D01*
X51038680Y-39018988D01*
X50880588Y-39177080D01*
X50756376Y-39362976D01*
X50670817Y-39569533D01*
X50627200Y-39788812D01*
X50627200Y-40012388D01*
X50670817Y-40231667D01*
X50756376Y-40438224D01*
X50880588Y-40624120D01*
X51038680Y-40782212D01*
X51224576Y-40906424D01*
X51431133Y-40991983D01*
X51650412Y-41035600D01*
X51873988Y-41035600D01*
X51942200Y-41022032D01*
X51942200Y-41742691D01*
X51819314Y-41824801D01*
X51626401Y-42017714D01*
X51544291Y-42140600D01*
X50964322Y-42140600D01*
X50926999Y-42136924D01*
X50889676Y-42140600D01*
X50889667Y-42140600D01*
X50778014Y-42151597D01*
X50634753Y-42195054D01*
X50502724Y-42265626D01*
X50386999Y-42360599D01*
X50363196Y-42389603D01*
X50134817Y-42617982D01*
X50104035Y-42643587D01*
X50058535Y-42699784D01*
X50012626Y-42755724D01*
X50011426Y-42757969D01*
X50009831Y-42759939D01*
X49976206Y-42823860D01*
X49942054Y-42887754D01*
X49941316Y-42890187D01*
X49940135Y-42892432D01*
X49919589Y-42961815D01*
X49898598Y-43031015D01*
X49898349Y-43033538D01*
X49897627Y-43035978D01*
X49891006Y-43108099D01*
X49883924Y-43180000D01*
X45718400Y-43180000D01*
X45718400Y-29552412D01*
X66674600Y-29552412D01*
X66674600Y-29775988D01*
X66718217Y-29995267D01*
X66803776Y-30201824D01*
X66927988Y-30387720D01*
X67086080Y-30545812D01*
X67271976Y-30670024D01*
X67478533Y-30755583D01*
X67697812Y-30799200D01*
X67921388Y-30799200D01*
X68140667Y-30755583D01*
X68347224Y-30670024D01*
X68533120Y-30545812D01*
X68611143Y-30467789D01*
X69424600Y-30467789D01*
X69424600Y-30740611D01*
X69477825Y-31008189D01*
X69582229Y-31260243D01*
X69733801Y-31487086D01*
X69926714Y-31679999D01*
X70153557Y-31831571D01*
X70405611Y-31935975D01*
X70673189Y-31989200D01*
X70946011Y-31989200D01*
X71213589Y-31935975D01*
X71465643Y-31831571D01*
X71692486Y-31679999D01*
X71885399Y-31487086D01*
X72036971Y-31260243D01*
X72141375Y-31008189D01*
X72194600Y-30740611D01*
X72194600Y-30467789D01*
X72424600Y-30467789D01*
X72424600Y-30740611D01*
X72477825Y-31008189D01*
X72582229Y-31260243D01*
X72733801Y-31487086D01*
X72926714Y-31679999D01*
X73153557Y-31831571D01*
X73405611Y-31935975D01*
X73673189Y-31989200D01*
X73946011Y-31989200D01*
X74213589Y-31935975D01*
X74465643Y-31831571D01*
X74692486Y-31679999D01*
X74885399Y-31487086D01*
X75036971Y-31260243D01*
X75141375Y-31008189D01*
X75194600Y-30740611D01*
X75194600Y-30467789D01*
X75424600Y-30467789D01*
X75424600Y-30740611D01*
X75477825Y-31008189D01*
X75582229Y-31260243D01*
X75733801Y-31487086D01*
X75926714Y-31679999D01*
X76153557Y-31831571D01*
X76405611Y-31935975D01*
X76673189Y-31989200D01*
X76946011Y-31989200D01*
X77213589Y-31935975D01*
X77465643Y-31831571D01*
X77692486Y-31679999D01*
X77885399Y-31487086D01*
X78036971Y-31260243D01*
X78141375Y-31008189D01*
X78194600Y-30740611D01*
X78194600Y-30467789D01*
X78141375Y-30200211D01*
X78036971Y-29948157D01*
X77885399Y-29721314D01*
X77716497Y-29552412D01*
X78674600Y-29552412D01*
X78674600Y-29775988D01*
X78718217Y-29995267D01*
X78803776Y-30201824D01*
X78927988Y-30387720D01*
X79086080Y-30545812D01*
X79271976Y-30670024D01*
X79478533Y-30755583D01*
X79697812Y-30799200D01*
X79921388Y-30799200D01*
X80140667Y-30755583D01*
X80347224Y-30670024D01*
X80533120Y-30545812D01*
X80691212Y-30387720D01*
X80815424Y-30201824D01*
X80900983Y-29995267D01*
X80944600Y-29775988D01*
X80944600Y-29552412D01*
X80900983Y-29333133D01*
X80815424Y-29126576D01*
X80691212Y-28940680D01*
X80533120Y-28782588D01*
X80347224Y-28658376D01*
X80140667Y-28572817D01*
X79921388Y-28529200D01*
X79697812Y-28529200D01*
X79478533Y-28572817D01*
X79271976Y-28658376D01*
X79086080Y-28782588D01*
X78927988Y-28940680D01*
X78803776Y-29126576D01*
X78718217Y-29333133D01*
X78674600Y-29552412D01*
X77716497Y-29552412D01*
X77692486Y-29528401D01*
X77465643Y-29376829D01*
X77213589Y-29272425D01*
X76946011Y-29219200D01*
X76673189Y-29219200D01*
X76405611Y-29272425D01*
X76153557Y-29376829D01*
X75926714Y-29528401D01*
X75733801Y-29721314D01*
X75582229Y-29948157D01*
X75477825Y-30200211D01*
X75424600Y-30467789D01*
X75194600Y-30467789D01*
X75141375Y-30200211D01*
X75036971Y-29948157D01*
X74885399Y-29721314D01*
X74692486Y-29528401D01*
X74465643Y-29376829D01*
X74213589Y-29272425D01*
X73946011Y-29219200D01*
X73673189Y-29219200D01*
X73405611Y-29272425D01*
X73153557Y-29376829D01*
X72926714Y-29528401D01*
X72733801Y-29721314D01*
X72582229Y-29948157D01*
X72477825Y-30200211D01*
X72424600Y-30467789D01*
X72194600Y-30467789D01*
X72141375Y-30200211D01*
X72036971Y-29948157D01*
X71885399Y-29721314D01*
X71692486Y-29528401D01*
X71465643Y-29376829D01*
X71213589Y-29272425D01*
X70946011Y-29219200D01*
X70673189Y-29219200D01*
X70405611Y-29272425D01*
X70153557Y-29376829D01*
X69926714Y-29528401D01*
X69733801Y-29721314D01*
X69582229Y-29948157D01*
X69477825Y-30200211D01*
X69424600Y-30467789D01*
X68611143Y-30467789D01*
X68691212Y-30387720D01*
X68815424Y-30201824D01*
X68900983Y-29995267D01*
X68944600Y-29775988D01*
X68944600Y-29552412D01*
X68900983Y-29333133D01*
X68815424Y-29126576D01*
X68691212Y-28940680D01*
X68533120Y-28782588D01*
X68347224Y-28658376D01*
X68140667Y-28572817D01*
X67921388Y-28529200D01*
X67697812Y-28529200D01*
X67478533Y-28572817D01*
X67271976Y-28658376D01*
X67086080Y-28782588D01*
X66927988Y-28940680D01*
X66803776Y-29126576D01*
X66718217Y-29333133D01*
X66674600Y-29552412D01*
X45718400Y-29552412D01*
X45718400Y-24878043D01*
X45953567Y-24878043D01*
X45953567Y-25312357D01*
X46038298Y-25738326D01*
X46204502Y-26139579D01*
X46445794Y-26500698D01*
X46752901Y-26807805D01*
X47114020Y-27049097D01*
X47515273Y-27215301D01*
X47941242Y-27300032D01*
X48375556Y-27300032D01*
X48801525Y-27215301D01*
X49202778Y-27049097D01*
X49563897Y-26807805D01*
X49871004Y-26500698D01*
X50112296Y-26139579D01*
X50278500Y-25738326D01*
X50363231Y-25312357D01*
X50363231Y-24878043D01*
X50363231Y-24878042D01*
X105643566Y-24878042D01*
X105643566Y-25312356D01*
X105728297Y-25738325D01*
X105894501Y-26139578D01*
X106135793Y-26500697D01*
X106442900Y-26807804D01*
X106804019Y-27049096D01*
X107205272Y-27215300D01*
X107631241Y-27300031D01*
X108065555Y-27300031D01*
X108491524Y-27215300D01*
X108892777Y-27049096D01*
X109253896Y-26807804D01*
X109561003Y-26500697D01*
X109802295Y-26139578D01*
X109968499Y-25738325D01*
X110053230Y-25312356D01*
X110053230Y-24878042D01*
X109968499Y-24452073D01*
X109802295Y-24050820D01*
X109561003Y-23689701D01*
X109253896Y-23382594D01*
X108892777Y-23141302D01*
X108491524Y-22975098D01*
X108065555Y-22890367D01*
X107631241Y-22890367D01*
X107205272Y-22975098D01*
X106804019Y-23141302D01*
X106442900Y-23382594D01*
X106135793Y-23689701D01*
X105894501Y-24050820D01*
X105728297Y-24452073D01*
X105643566Y-24878042D01*
X50363231Y-24878042D01*
X50278500Y-24452074D01*
X50112296Y-24050821D01*
X49871004Y-23689702D01*
X49563897Y-23382595D01*
X49202778Y-23141303D01*
X48801525Y-22975099D01*
X48375556Y-22890368D01*
X47941242Y-22890368D01*
X47515273Y-22975099D01*
X47114020Y-23141303D01*
X46752901Y-23382595D01*
X46445794Y-23689702D01*
X46204502Y-24050821D01*
X46038298Y-24452074D01*
X45953567Y-24878043D01*
X45718400Y-24878043D01*
X45718400Y-24496147D01*
X45756233Y-24110293D01*
X45857853Y-23773711D01*
X46022912Y-23463279D01*
X46245123Y-23190821D01*
X46516027Y-22966710D01*
X46825296Y-22799488D01*
X47161160Y-22695520D01*
X47544782Y-22655200D01*
X108447451Y-22655200D01*
X108833305Y-22693033D01*
G36*
X54370425Y-55682011D02*
G01*
X54317200Y-55949589D01*
X54317200Y-56222411D01*
X54370425Y-56489989D01*
X54474829Y-56742043D01*
X54626401Y-56968886D01*
X54819314Y-57161799D01*
X55046157Y-57313371D01*
X55298211Y-57417775D01*
X55565789Y-57471000D01*
X55838611Y-57471000D01*
X55983565Y-57442167D01*
X56685000Y-58143602D01*
X56708799Y-58172601D01*
X56824524Y-58267574D01*
X56956553Y-58338146D01*
X57099814Y-58381603D01*
X57211467Y-58392600D01*
X57211475Y-58392600D01*
X57248800Y-58396276D01*
X57286125Y-58392600D01*
X66487389Y-58392600D01*
X66423886Y-58545910D01*
X66370200Y-58815808D01*
X66370200Y-59090992D01*
X66423886Y-59360890D01*
X66529195Y-59615127D01*
X66682080Y-59843935D01*
X66876665Y-60038520D01*
X67105473Y-60191405D01*
X67182715Y-60223400D01*
X67105473Y-60255395D01*
X66876665Y-60408280D01*
X66682080Y-60602865D01*
X66529195Y-60831673D01*
X66423886Y-61085910D01*
X66370200Y-61355808D01*
X66370200Y-61630992D01*
X66423886Y-61900890D01*
X66529195Y-62155127D01*
X66682080Y-62383935D01*
X66876665Y-62578520D01*
X67105473Y-62731405D01*
X67182715Y-62763400D01*
X67105473Y-62795395D01*
X66876665Y-62948280D01*
X66682080Y-63142865D01*
X66529195Y-63371673D01*
X66423886Y-63625910D01*
X66370200Y-63895808D01*
X66370200Y-64170992D01*
X66423886Y-64440890D01*
X66529195Y-64695127D01*
X66682080Y-64923935D01*
X66876665Y-65118520D01*
X67105473Y-65271405D01*
X67182715Y-65303400D01*
X67105473Y-65335395D01*
X66876665Y-65488280D01*
X66682080Y-65682865D01*
X66529195Y-65911673D01*
X66423886Y-66165910D01*
X66370200Y-66435808D01*
X66370200Y-66710992D01*
X66423886Y-66980890D01*
X66529195Y-67235127D01*
X66682080Y-67463935D01*
X66876665Y-67658520D01*
X67105473Y-67811405D01*
X67182715Y-67843400D01*
X67105473Y-67875395D01*
X66876665Y-68028280D01*
X66682080Y-68222865D01*
X66529195Y-68451673D01*
X66423886Y-68705910D01*
X66370200Y-68975808D01*
X66370200Y-69250992D01*
X66423886Y-69520890D01*
X66529195Y-69775127D01*
X66682080Y-70003935D01*
X66876665Y-70198520D01*
X67105473Y-70351405D01*
X67177143Y-70381092D01*
X67164177Y-70385764D01*
X67048220Y-70447744D01*
X66981240Y-70687835D01*
X67767200Y-71473795D01*
X68553160Y-70687835D01*
X68486180Y-70447744D01*
X68350440Y-70383915D01*
X68428927Y-70351405D01*
X68657735Y-70198520D01*
X68852320Y-70003935D01*
X69005205Y-69775127D01*
X69110514Y-69520890D01*
X69164200Y-69250992D01*
X69164200Y-68975808D01*
X69133572Y-68821830D01*
X70284803Y-67670599D01*
X70313801Y-67646801D01*
X70365993Y-67583205D01*
X70408774Y-67531077D01*
X70479346Y-67399047D01*
X70522803Y-67255786D01*
X70533800Y-67144133D01*
X70533800Y-67144123D01*
X70537476Y-67106800D01*
X70533800Y-67069477D01*
X70533800Y-66645417D01*
X79065290Y-66645417D01*
X79106278Y-66917533D01*
X79199564Y-67176423D01*
X79261544Y-67292380D01*
X79501635Y-67359360D01*
X80287595Y-66573400D01*
X80646805Y-66573400D01*
X81432765Y-67359360D01*
X81672856Y-67292380D01*
X81789956Y-67043352D01*
X81856223Y-66776265D01*
X81869110Y-66501383D01*
X81828122Y-66229267D01*
X81734836Y-65970377D01*
X81672856Y-65854420D01*
X81432765Y-65787440D01*
X80646805Y-66573400D01*
X80287595Y-66573400D01*
X79501635Y-65787440D01*
X79261544Y-65854420D01*
X79144444Y-66103448D01*
X79078177Y-66370535D01*
X79065290Y-66645417D01*
X70533800Y-66645417D01*
X70533800Y-64998965D01*
X79681240Y-64998965D01*
X79748220Y-65239056D01*
X79878844Y-65300479D01*
X79864177Y-65305764D01*
X79748220Y-65367744D01*
X79681240Y-65607835D01*
X80467200Y-66393795D01*
X81253160Y-65607835D01*
X81186180Y-65367744D01*
X81055556Y-65306321D01*
X81070223Y-65301036D01*
X81186180Y-65239056D01*
X81253160Y-64998965D01*
X80467200Y-64213005D01*
X79681240Y-64998965D01*
X70533800Y-64998965D01*
X70533800Y-64105417D01*
X79065290Y-64105417D01*
X79106278Y-64377533D01*
X79199564Y-64636423D01*
X79261544Y-64752380D01*
X79501635Y-64819360D01*
X80287595Y-64033400D01*
X80646805Y-64033400D01*
X81432765Y-64819360D01*
X81672856Y-64752380D01*
X81789956Y-64503352D01*
X81856223Y-64236265D01*
X81869110Y-63961383D01*
X81828122Y-63689267D01*
X81734836Y-63430377D01*
X81672856Y-63314420D01*
X81432765Y-63247440D01*
X80646805Y-64033400D01*
X80287595Y-64033400D01*
X79501635Y-63247440D01*
X79261544Y-63314420D01*
X79144444Y-63563448D01*
X79078177Y-63830535D01*
X79065290Y-64105417D01*
X70533800Y-64105417D01*
X70533800Y-62458965D01*
X79681240Y-62458965D01*
X79748220Y-62699056D01*
X79878844Y-62760479D01*
X79864177Y-62765764D01*
X79748220Y-62827744D01*
X79681240Y-63067835D01*
X80467200Y-63853795D01*
X81253160Y-63067835D01*
X81186180Y-62827744D01*
X81055556Y-62766321D01*
X81070223Y-62761036D01*
X81186180Y-62699056D01*
X81253160Y-62458965D01*
X80467200Y-61673005D01*
X79681240Y-62458965D01*
X70533800Y-62458965D01*
X70533800Y-61605001D01*
X70573384Y-61565417D01*
X79065290Y-61565417D01*
X79106278Y-61837533D01*
X79199564Y-62096423D01*
X79261544Y-62212380D01*
X79501635Y-62279360D01*
X80287595Y-61493400D01*
X80646805Y-61493400D01*
X81432765Y-62279360D01*
X81672856Y-62212380D01*
X81789956Y-61963352D01*
X81856223Y-61696265D01*
X81869110Y-61421383D01*
X81828122Y-61149267D01*
X81734836Y-60890377D01*
X81672856Y-60774420D01*
X81432765Y-60707440D01*
X80646805Y-61493400D01*
X80287595Y-61493400D01*
X79501635Y-60707440D01*
X79261544Y-60774420D01*
X79144444Y-61023448D01*
X79078177Y-61290535D01*
X79065290Y-61565417D01*
X70573384Y-61565417D01*
X71663403Y-60475399D01*
X79667879Y-60475399D01*
X79695120Y-60478082D01*
X79681240Y-60527835D01*
X80467200Y-61313795D01*
X81253160Y-60527835D01*
X81186180Y-60287744D01*
X81050440Y-60223915D01*
X81128927Y-60191405D01*
X81357735Y-60038520D01*
X81552320Y-59843935D01*
X81639541Y-59713400D01*
X86197599Y-59713400D01*
X87602912Y-61118714D01*
X87566600Y-61301265D01*
X87566600Y-61583935D01*
X87621747Y-61861174D01*
X87729920Y-62122327D01*
X87886963Y-62357359D01*
X88086841Y-62557237D01*
X88319359Y-62712600D01*
X88086841Y-62867963D01*
X87886963Y-63067841D01*
X87729920Y-63302873D01*
X87621747Y-63564026D01*
X87566600Y-63841265D01*
X87566600Y-64123935D01*
X87621747Y-64401174D01*
X87729920Y-64662327D01*
X87886963Y-64897359D01*
X88086841Y-65097237D01*
X88319359Y-65252600D01*
X88086841Y-65407963D01*
X87886963Y-65607841D01*
X87729920Y-65842873D01*
X87621747Y-66104026D01*
X87566600Y-66381265D01*
X87566600Y-66663935D01*
X87621747Y-66941174D01*
X87729920Y-67202327D01*
X87886963Y-67437359D01*
X88086841Y-67637237D01*
X88319359Y-67792600D01*
X88086841Y-67947963D01*
X87886963Y-68147841D01*
X87729920Y-68382873D01*
X87621747Y-68644026D01*
X87566600Y-68921265D01*
X87566600Y-69203935D01*
X87621747Y-69481174D01*
X87729920Y-69742327D01*
X87886963Y-69977359D01*
X88086841Y-70177237D01*
X88241600Y-70280644D01*
X88241600Y-71160798D01*
X87421998Y-71980401D01*
X81867272Y-71980401D01*
X81867272Y-70891400D01*
X81855012Y-70766918D01*
X81818702Y-70647220D01*
X81759737Y-70536906D01*
X81680385Y-70440215D01*
X81583694Y-70360863D01*
X81473380Y-70301898D01*
X81353682Y-70265588D01*
X81269735Y-70257320D01*
X81357735Y-70198520D01*
X81552320Y-70003935D01*
X81705205Y-69775127D01*
X81810514Y-69520890D01*
X81864200Y-69250992D01*
X81864200Y-68975808D01*
X81810514Y-68705910D01*
X81705205Y-68451673D01*
X81552320Y-68222865D01*
X81357735Y-68028280D01*
X81128927Y-67875395D01*
X81057257Y-67845708D01*
X81070223Y-67841036D01*
X81186180Y-67779056D01*
X81253160Y-67538965D01*
X80467200Y-66753005D01*
X79681240Y-67538965D01*
X79748220Y-67779056D01*
X79883960Y-67842885D01*
X79805473Y-67875395D01*
X79576665Y-68028280D01*
X79382080Y-68222865D01*
X79229195Y-68451673D01*
X79123886Y-68705910D01*
X79070200Y-68975808D01*
X79070200Y-69250992D01*
X79123886Y-69520890D01*
X79229195Y-69775127D01*
X79382080Y-70003935D01*
X79576665Y-70198520D01*
X79664665Y-70257320D01*
X79580718Y-70265588D01*
X79461020Y-70301898D01*
X79350706Y-70360863D01*
X79254015Y-70440215D01*
X79174663Y-70536906D01*
X79115698Y-70647220D01*
X79079388Y-70766918D01*
X79067128Y-70891400D01*
X79067128Y-71980401D01*
X69125424Y-71980401D01*
X69156223Y-71856265D01*
X69169110Y-71581383D01*
X69128122Y-71309267D01*
X69034836Y-71050377D01*
X68972856Y-70934420D01*
X68732765Y-70867440D01*
X67946805Y-71653400D01*
X67960948Y-71667543D01*
X67781343Y-71847148D01*
X67767200Y-71833005D01*
X67753058Y-71847148D01*
X67573453Y-71667543D01*
X67587595Y-71653400D01*
X66801635Y-70867440D01*
X66561544Y-70934420D01*
X66444444Y-71183448D01*
X66378177Y-71450535D01*
X66365290Y-71725417D01*
X66403697Y-71980401D01*
X58475603Y-71980401D01*
X57205804Y-70710603D01*
X57182001Y-70681599D01*
X57066276Y-70586626D01*
X56934247Y-70516054D01*
X56790986Y-70472597D01*
X56679333Y-70461600D01*
X56679322Y-70461600D01*
X56642000Y-70457924D01*
X56604678Y-70461600D01*
X56523724Y-70461600D01*
X56585086Y-70420599D01*
X56777999Y-70227686D01*
X56929571Y-70000843D01*
X57033975Y-69748789D01*
X57087200Y-69481211D01*
X57087200Y-69208389D01*
X57033975Y-68940811D01*
X56929571Y-68688757D01*
X56777999Y-68461914D01*
X56585086Y-68269001D01*
X56358243Y-68117429D01*
X56106189Y-68013025D01*
X55838611Y-67959800D01*
X55565789Y-67959800D01*
X55298211Y-68013025D01*
X55046157Y-68117429D01*
X54819314Y-68269001D01*
X54626401Y-68461914D01*
X54474829Y-68688757D01*
X54370425Y-68940811D01*
X54317200Y-69208389D01*
X54317200Y-69481211D01*
X54370425Y-69748789D01*
X54474829Y-70000843D01*
X54626401Y-70227686D01*
X54819314Y-70420599D01*
X54880676Y-70461600D01*
X53523724Y-70461600D01*
X53585086Y-70420599D01*
X53777999Y-70227686D01*
X53929571Y-70000843D01*
X54033975Y-69748789D01*
X54087200Y-69481211D01*
X54087200Y-69208389D01*
X54033975Y-68940811D01*
X53929571Y-68688757D01*
X53777999Y-68461914D01*
X53585086Y-68269001D01*
X53358243Y-68117429D01*
X53106189Y-68013025D01*
X52838611Y-67959800D01*
X52565789Y-67959800D01*
X52298211Y-68013025D01*
X52046157Y-68117429D01*
X51819314Y-68269001D01*
X51626401Y-68461914D01*
X51474829Y-68688757D01*
X51412570Y-68839064D01*
X51422459Y-66874411D01*
X51474829Y-67000843D01*
X51626401Y-67227686D01*
X51819314Y-67420599D01*
X52046157Y-67572171D01*
X52298211Y-67676575D01*
X52565789Y-67729800D01*
X52838611Y-67729800D01*
X53106189Y-67676575D01*
X53358243Y-67572171D01*
X53585086Y-67420599D01*
X53777999Y-67227686D01*
X53929571Y-67000843D01*
X54033975Y-66748789D01*
X54087200Y-66481211D01*
X54087200Y-66208389D01*
X54033975Y-65940811D01*
X53994207Y-65844800D01*
X54314128Y-65844800D01*
X54314128Y-66844800D01*
X54331192Y-67018054D01*
X54381728Y-67184650D01*
X54463795Y-67338186D01*
X54574238Y-67472762D01*
X54708814Y-67583205D01*
X54862350Y-67665272D01*
X55028946Y-67715808D01*
X55202200Y-67732872D01*
X56202200Y-67732872D01*
X56375454Y-67715808D01*
X56542050Y-67665272D01*
X56695586Y-67583205D01*
X56830162Y-67472762D01*
X56940605Y-67338186D01*
X57022672Y-67184650D01*
X57073208Y-67018054D01*
X57090272Y-66844800D01*
X57090272Y-65844800D01*
X57073208Y-65671546D01*
X57022672Y-65504950D01*
X56940605Y-65351414D01*
X56830162Y-65216838D01*
X56695586Y-65106395D01*
X56542050Y-65024328D01*
X56375454Y-64973792D01*
X56202200Y-64956728D01*
X55202200Y-64956728D01*
X55028946Y-64973792D01*
X54862350Y-65024328D01*
X54708814Y-65106395D01*
X54574238Y-65216838D01*
X54463795Y-65351414D01*
X54381728Y-65504950D01*
X54331192Y-65671546D01*
X54314128Y-65844800D01*
X53994207Y-65844800D01*
X53929571Y-65688757D01*
X53777999Y-65461914D01*
X53585086Y-65269001D01*
X53358243Y-65117429D01*
X53106189Y-65013025D01*
X52838611Y-64959800D01*
X52565789Y-64959800D01*
X52298211Y-65013025D01*
X52046157Y-65117429D01*
X51819314Y-65269001D01*
X51626401Y-65461914D01*
X51474829Y-65688757D01*
X51427856Y-65802159D01*
X51434729Y-64436898D01*
X51650412Y-64479800D01*
X51873988Y-64479800D01*
X52093267Y-64436183D01*
X52299824Y-64350624D01*
X52485720Y-64226412D01*
X52643812Y-64068320D01*
X52768024Y-63882424D01*
X52853583Y-63675867D01*
X52897200Y-63456588D01*
X52897200Y-63233012D01*
X52853583Y-63013733D01*
X52768024Y-62807176D01*
X52643812Y-62621280D01*
X52485720Y-62463188D01*
X52299824Y-62338976D01*
X52093267Y-62253417D01*
X51873988Y-62209800D01*
X51650412Y-62209800D01*
X51445734Y-62250513D01*
X51456144Y-60182358D01*
X51650412Y-60221000D01*
X51873988Y-60221000D01*
X52093267Y-60177383D01*
X52299824Y-60091824D01*
X52485720Y-59967612D01*
X52643812Y-59809520D01*
X52768024Y-59623624D01*
X52853583Y-59417067D01*
X52897200Y-59197788D01*
X52897200Y-58974212D01*
X52853583Y-58754933D01*
X52768024Y-58548376D01*
X52643812Y-58362480D01*
X52485720Y-58204388D01*
X52299824Y-58080176D01*
X52093267Y-57994617D01*
X51873988Y-57951000D01*
X51650412Y-57951000D01*
X51467192Y-57987444D01*
X51473478Y-56738780D01*
X51474829Y-56742043D01*
X51626401Y-56968886D01*
X51819314Y-57161799D01*
X52046157Y-57313371D01*
X52298211Y-57417775D01*
X52565789Y-57471000D01*
X52838611Y-57471000D01*
X53106189Y-57417775D01*
X53358243Y-57313371D01*
X53585086Y-57161799D01*
X53777999Y-56968886D01*
X53929571Y-56742043D01*
X54033975Y-56489989D01*
X54087200Y-56222411D01*
X54087200Y-55949589D01*
X54033975Y-55682011D01*
X53936299Y-55446200D01*
X54468101Y-55446200D01*
X54370425Y-55682011D01*
G37*
X54370425Y-55682011D02*
X54317200Y-55949589D01*
X54317200Y-56222411D01*
X54370425Y-56489989D01*
X54474829Y-56742043D01*
X54626401Y-56968886D01*
X54819314Y-57161799D01*
X55046157Y-57313371D01*
X55298211Y-57417775D01*
X55565789Y-57471000D01*
X55838611Y-57471000D01*
X55983565Y-57442167D01*
X56685000Y-58143602D01*
X56708799Y-58172601D01*
X56824524Y-58267574D01*
X56956553Y-58338146D01*
X57099814Y-58381603D01*
X57211467Y-58392600D01*
X57211475Y-58392600D01*
X57248800Y-58396276D01*
X57286125Y-58392600D01*
X66487389Y-58392600D01*
X66423886Y-58545910D01*
X66370200Y-58815808D01*
X66370200Y-59090992D01*
X66423886Y-59360890D01*
X66529195Y-59615127D01*
X66682080Y-59843935D01*
X66876665Y-60038520D01*
X67105473Y-60191405D01*
X67182715Y-60223400D01*
X67105473Y-60255395D01*
X66876665Y-60408280D01*
X66682080Y-60602865D01*
X66529195Y-60831673D01*
X66423886Y-61085910D01*
X66370200Y-61355808D01*
X66370200Y-61630992D01*
X66423886Y-61900890D01*
X66529195Y-62155127D01*
X66682080Y-62383935D01*
X66876665Y-62578520D01*
X67105473Y-62731405D01*
X67182715Y-62763400D01*
X67105473Y-62795395D01*
X66876665Y-62948280D01*
X66682080Y-63142865D01*
X66529195Y-63371673D01*
X66423886Y-63625910D01*
X66370200Y-63895808D01*
X66370200Y-64170992D01*
X66423886Y-64440890D01*
X66529195Y-64695127D01*
X66682080Y-64923935D01*
X66876665Y-65118520D01*
X67105473Y-65271405D01*
X67182715Y-65303400D01*
X67105473Y-65335395D01*
X66876665Y-65488280D01*
X66682080Y-65682865D01*
X66529195Y-65911673D01*
X66423886Y-66165910D01*
X66370200Y-66435808D01*
X66370200Y-66710992D01*
X66423886Y-66980890D01*
X66529195Y-67235127D01*
X66682080Y-67463935D01*
X66876665Y-67658520D01*
X67105473Y-67811405D01*
X67182715Y-67843400D01*
X67105473Y-67875395D01*
X66876665Y-68028280D01*
X66682080Y-68222865D01*
X66529195Y-68451673D01*
X66423886Y-68705910D01*
X66370200Y-68975808D01*
X66370200Y-69250992D01*
X66423886Y-69520890D01*
X66529195Y-69775127D01*
X66682080Y-70003935D01*
X66876665Y-70198520D01*
X67105473Y-70351405D01*
X67177143Y-70381092D01*
X67164177Y-70385764D01*
X67048220Y-70447744D01*
X66981240Y-70687835D01*
X67767200Y-71473795D01*
X68553160Y-70687835D01*
X68486180Y-70447744D01*
X68350440Y-70383915D01*
X68428927Y-70351405D01*
X68657735Y-70198520D01*
X68852320Y-70003935D01*
X69005205Y-69775127D01*
X69110514Y-69520890D01*
X69164200Y-69250992D01*
X69164200Y-68975808D01*
X69133572Y-68821830D01*
X70284803Y-67670599D01*
X70313801Y-67646801D01*
X70365993Y-67583205D01*
X70408774Y-67531077D01*
X70479346Y-67399047D01*
X70522803Y-67255786D01*
X70533800Y-67144133D01*
X70533800Y-67144123D01*
X70537476Y-67106800D01*
X70533800Y-67069477D01*
X70533800Y-66645417D01*
X79065290Y-66645417D01*
X79106278Y-66917533D01*
X79199564Y-67176423D01*
X79261544Y-67292380D01*
X79501635Y-67359360D01*
X80287595Y-66573400D01*
X80646805Y-66573400D01*
X81432765Y-67359360D01*
X81672856Y-67292380D01*
X81789956Y-67043352D01*
X81856223Y-66776265D01*
X81869110Y-66501383D01*
X81828122Y-66229267D01*
X81734836Y-65970377D01*
X81672856Y-65854420D01*
X81432765Y-65787440D01*
X80646805Y-66573400D01*
X80287595Y-66573400D01*
X79501635Y-65787440D01*
X79261544Y-65854420D01*
X79144444Y-66103448D01*
X79078177Y-66370535D01*
X79065290Y-66645417D01*
X70533800Y-66645417D01*
X70533800Y-64998965D01*
X79681240Y-64998965D01*
X79748220Y-65239056D01*
X79878844Y-65300479D01*
X79864177Y-65305764D01*
X79748220Y-65367744D01*
X79681240Y-65607835D01*
X80467200Y-66393795D01*
X81253160Y-65607835D01*
X81186180Y-65367744D01*
X81055556Y-65306321D01*
X81070223Y-65301036D01*
X81186180Y-65239056D01*
X81253160Y-64998965D01*
X80467200Y-64213005D01*
X79681240Y-64998965D01*
X70533800Y-64998965D01*
X70533800Y-64105417D01*
X79065290Y-64105417D01*
X79106278Y-64377533D01*
X79199564Y-64636423D01*
X79261544Y-64752380D01*
X79501635Y-64819360D01*
X80287595Y-64033400D01*
X80646805Y-64033400D01*
X81432765Y-64819360D01*
X81672856Y-64752380D01*
X81789956Y-64503352D01*
X81856223Y-64236265D01*
X81869110Y-63961383D01*
X81828122Y-63689267D01*
X81734836Y-63430377D01*
X81672856Y-63314420D01*
X81432765Y-63247440D01*
X80646805Y-64033400D01*
X80287595Y-64033400D01*
X79501635Y-63247440D01*
X79261544Y-63314420D01*
X79144444Y-63563448D01*
X79078177Y-63830535D01*
X79065290Y-64105417D01*
X70533800Y-64105417D01*
X70533800Y-62458965D01*
X79681240Y-62458965D01*
X79748220Y-62699056D01*
X79878844Y-62760479D01*
X79864177Y-62765764D01*
X79748220Y-62827744D01*
X79681240Y-63067835D01*
X80467200Y-63853795D01*
X81253160Y-63067835D01*
X81186180Y-62827744D01*
X81055556Y-62766321D01*
X81070223Y-62761036D01*
X81186180Y-62699056D01*
X81253160Y-62458965D01*
X80467200Y-61673005D01*
X79681240Y-62458965D01*
X70533800Y-62458965D01*
X70533800Y-61605001D01*
X70573384Y-61565417D01*
X79065290Y-61565417D01*
X79106278Y-61837533D01*
X79199564Y-62096423D01*
X79261544Y-62212380D01*
X79501635Y-62279360D01*
X80287595Y-61493400D01*
X80646805Y-61493400D01*
X81432765Y-62279360D01*
X81672856Y-62212380D01*
X81789956Y-61963352D01*
X81856223Y-61696265D01*
X81869110Y-61421383D01*
X81828122Y-61149267D01*
X81734836Y-60890377D01*
X81672856Y-60774420D01*
X81432765Y-60707440D01*
X80646805Y-61493400D01*
X80287595Y-61493400D01*
X79501635Y-60707440D01*
X79261544Y-60774420D01*
X79144444Y-61023448D01*
X79078177Y-61290535D01*
X79065290Y-61565417D01*
X70573384Y-61565417D01*
X71663403Y-60475399D01*
X79667879Y-60475399D01*
X79695120Y-60478082D01*
X79681240Y-60527835D01*
X80467200Y-61313795D01*
X81253160Y-60527835D01*
X81186180Y-60287744D01*
X81050440Y-60223915D01*
X81128927Y-60191405D01*
X81357735Y-60038520D01*
X81552320Y-59843935D01*
X81639541Y-59713400D01*
X86197599Y-59713400D01*
X87602912Y-61118714D01*
X87566600Y-61301265D01*
X87566600Y-61583935D01*
X87621747Y-61861174D01*
X87729920Y-62122327D01*
X87886963Y-62357359D01*
X88086841Y-62557237D01*
X88319359Y-62712600D01*
X88086841Y-62867963D01*
X87886963Y-63067841D01*
X87729920Y-63302873D01*
X87621747Y-63564026D01*
X87566600Y-63841265D01*
X87566600Y-64123935D01*
X87621747Y-64401174D01*
X87729920Y-64662327D01*
X87886963Y-64897359D01*
X88086841Y-65097237D01*
X88319359Y-65252600D01*
X88086841Y-65407963D01*
X87886963Y-65607841D01*
X87729920Y-65842873D01*
X87621747Y-66104026D01*
X87566600Y-66381265D01*
X87566600Y-66663935D01*
X87621747Y-66941174D01*
X87729920Y-67202327D01*
X87886963Y-67437359D01*
X88086841Y-67637237D01*
X88319359Y-67792600D01*
X88086841Y-67947963D01*
X87886963Y-68147841D01*
X87729920Y-68382873D01*
X87621747Y-68644026D01*
X87566600Y-68921265D01*
X87566600Y-69203935D01*
X87621747Y-69481174D01*
X87729920Y-69742327D01*
X87886963Y-69977359D01*
X88086841Y-70177237D01*
X88241600Y-70280644D01*
X88241600Y-71160798D01*
X87421998Y-71980401D01*
X81867272Y-71980401D01*
X81867272Y-70891400D01*
X81855012Y-70766918D01*
X81818702Y-70647220D01*
X81759737Y-70536906D01*
X81680385Y-70440215D01*
X81583694Y-70360863D01*
X81473380Y-70301898D01*
X81353682Y-70265588D01*
X81269735Y-70257320D01*
X81357735Y-70198520D01*
X81552320Y-70003935D01*
X81705205Y-69775127D01*
X81810514Y-69520890D01*
X81864200Y-69250992D01*
X81864200Y-68975808D01*
X81810514Y-68705910D01*
X81705205Y-68451673D01*
X81552320Y-68222865D01*
X81357735Y-68028280D01*
X81128927Y-67875395D01*
X81057257Y-67845708D01*
X81070223Y-67841036D01*
X81186180Y-67779056D01*
X81253160Y-67538965D01*
X80467200Y-66753005D01*
X79681240Y-67538965D01*
X79748220Y-67779056D01*
X79883960Y-67842885D01*
X79805473Y-67875395D01*
X79576665Y-68028280D01*
X79382080Y-68222865D01*
X79229195Y-68451673D01*
X79123886Y-68705910D01*
X79070200Y-68975808D01*
X79070200Y-69250992D01*
X79123886Y-69520890D01*
X79229195Y-69775127D01*
X79382080Y-70003935D01*
X79576665Y-70198520D01*
X79664665Y-70257320D01*
X79580718Y-70265588D01*
X79461020Y-70301898D01*
X79350706Y-70360863D01*
X79254015Y-70440215D01*
X79174663Y-70536906D01*
X79115698Y-70647220D01*
X79079388Y-70766918D01*
X79067128Y-70891400D01*
X79067128Y-71980401D01*
X69125424Y-71980401D01*
X69156223Y-71856265D01*
X69169110Y-71581383D01*
X69128122Y-71309267D01*
X69034836Y-71050377D01*
X68972856Y-70934420D01*
X68732765Y-70867440D01*
X67946805Y-71653400D01*
X67960948Y-71667543D01*
X67781343Y-71847148D01*
X67767200Y-71833005D01*
X67753058Y-71847148D01*
X67573453Y-71667543D01*
X67587595Y-71653400D01*
X66801635Y-70867440D01*
X66561544Y-70934420D01*
X66444444Y-71183448D01*
X66378177Y-71450535D01*
X66365290Y-71725417D01*
X66403697Y-71980401D01*
X58475603Y-71980401D01*
X57205804Y-70710603D01*
X57182001Y-70681599D01*
X57066276Y-70586626D01*
X56934247Y-70516054D01*
X56790986Y-70472597D01*
X56679333Y-70461600D01*
X56679322Y-70461600D01*
X56642000Y-70457924D01*
X56604678Y-70461600D01*
X56523724Y-70461600D01*
X56585086Y-70420599D01*
X56777999Y-70227686D01*
X56929571Y-70000843D01*
X57033975Y-69748789D01*
X57087200Y-69481211D01*
X57087200Y-69208389D01*
X57033975Y-68940811D01*
X56929571Y-68688757D01*
X56777999Y-68461914D01*
X56585086Y-68269001D01*
X56358243Y-68117429D01*
X56106189Y-68013025D01*
X55838611Y-67959800D01*
X55565789Y-67959800D01*
X55298211Y-68013025D01*
X55046157Y-68117429D01*
X54819314Y-68269001D01*
X54626401Y-68461914D01*
X54474829Y-68688757D01*
X54370425Y-68940811D01*
X54317200Y-69208389D01*
X54317200Y-69481211D01*
X54370425Y-69748789D01*
X54474829Y-70000843D01*
X54626401Y-70227686D01*
X54819314Y-70420599D01*
X54880676Y-70461600D01*
X53523724Y-70461600D01*
X53585086Y-70420599D01*
X53777999Y-70227686D01*
X53929571Y-70000843D01*
X54033975Y-69748789D01*
X54087200Y-69481211D01*
X54087200Y-69208389D01*
X54033975Y-68940811D01*
X53929571Y-68688757D01*
X53777999Y-68461914D01*
X53585086Y-68269001D01*
X53358243Y-68117429D01*
X53106189Y-68013025D01*
X52838611Y-67959800D01*
X52565789Y-67959800D01*
X52298211Y-68013025D01*
X52046157Y-68117429D01*
X51819314Y-68269001D01*
X51626401Y-68461914D01*
X51474829Y-68688757D01*
X51412570Y-68839064D01*
X51422459Y-66874411D01*
X51474829Y-67000843D01*
X51626401Y-67227686D01*
X51819314Y-67420599D01*
X52046157Y-67572171D01*
X52298211Y-67676575D01*
X52565789Y-67729800D01*
X52838611Y-67729800D01*
X53106189Y-67676575D01*
X53358243Y-67572171D01*
X53585086Y-67420599D01*
X53777999Y-67227686D01*
X53929571Y-67000843D01*
X54033975Y-66748789D01*
X54087200Y-66481211D01*
X54087200Y-66208389D01*
X54033975Y-65940811D01*
X53994207Y-65844800D01*
X54314128Y-65844800D01*
X54314128Y-66844800D01*
X54331192Y-67018054D01*
X54381728Y-67184650D01*
X54463795Y-67338186D01*
X54574238Y-67472762D01*
X54708814Y-67583205D01*
X54862350Y-67665272D01*
X55028946Y-67715808D01*
X55202200Y-67732872D01*
X56202200Y-67732872D01*
X56375454Y-67715808D01*
X56542050Y-67665272D01*
X56695586Y-67583205D01*
X56830162Y-67472762D01*
X56940605Y-67338186D01*
X57022672Y-67184650D01*
X57073208Y-67018054D01*
X57090272Y-66844800D01*
X57090272Y-65844800D01*
X57073208Y-65671546D01*
X57022672Y-65504950D01*
X56940605Y-65351414D01*
X56830162Y-65216838D01*
X56695586Y-65106395D01*
X56542050Y-65024328D01*
X56375454Y-64973792D01*
X56202200Y-64956728D01*
X55202200Y-64956728D01*
X55028946Y-64973792D01*
X54862350Y-65024328D01*
X54708814Y-65106395D01*
X54574238Y-65216838D01*
X54463795Y-65351414D01*
X54381728Y-65504950D01*
X54331192Y-65671546D01*
X54314128Y-65844800D01*
X53994207Y-65844800D01*
X53929571Y-65688757D01*
X53777999Y-65461914D01*
X53585086Y-65269001D01*
X53358243Y-65117429D01*
X53106189Y-65013025D01*
X52838611Y-64959800D01*
X52565789Y-64959800D01*
X52298211Y-65013025D01*
X52046157Y-65117429D01*
X51819314Y-65269001D01*
X51626401Y-65461914D01*
X51474829Y-65688757D01*
X51427856Y-65802159D01*
X51434729Y-64436898D01*
X51650412Y-64479800D01*
X51873988Y-64479800D01*
X52093267Y-64436183D01*
X52299824Y-64350624D01*
X52485720Y-64226412D01*
X52643812Y-64068320D01*
X52768024Y-63882424D01*
X52853583Y-63675867D01*
X52897200Y-63456588D01*
X52897200Y-63233012D01*
X52853583Y-63013733D01*
X52768024Y-62807176D01*
X52643812Y-62621280D01*
X52485720Y-62463188D01*
X52299824Y-62338976D01*
X52093267Y-62253417D01*
X51873988Y-62209800D01*
X51650412Y-62209800D01*
X51445734Y-62250513D01*
X51456144Y-60182358D01*
X51650412Y-60221000D01*
X51873988Y-60221000D01*
X52093267Y-60177383D01*
X52299824Y-60091824D01*
X52485720Y-59967612D01*
X52643812Y-59809520D01*
X52768024Y-59623624D01*
X52853583Y-59417067D01*
X52897200Y-59197788D01*
X52897200Y-58974212D01*
X52853583Y-58754933D01*
X52768024Y-58548376D01*
X52643812Y-58362480D01*
X52485720Y-58204388D01*
X52299824Y-58080176D01*
X52093267Y-57994617D01*
X51873988Y-57951000D01*
X51650412Y-57951000D01*
X51467192Y-57987444D01*
X51473478Y-56738780D01*
X51474829Y-56742043D01*
X51626401Y-56968886D01*
X51819314Y-57161799D01*
X52046157Y-57313371D01*
X52298211Y-57417775D01*
X52565789Y-57471000D01*
X52838611Y-57471000D01*
X53106189Y-57417775D01*
X53358243Y-57313371D01*
X53585086Y-57161799D01*
X53777999Y-56968886D01*
X53929571Y-56742043D01*
X54033975Y-56489989D01*
X54087200Y-56222411D01*
X54087200Y-55949589D01*
X54033975Y-55682011D01*
X53936299Y-55446200D01*
X54468101Y-55446200D01*
X54370425Y-55682011D01*
G36*
X87566600Y-48601265D02*
G01*
X87566600Y-48883935D01*
X87621747Y-49161174D01*
X87729920Y-49422327D01*
X87886963Y-49657359D01*
X88086841Y-49857237D01*
X88319359Y-50012600D01*
X88086841Y-50167963D01*
X87886963Y-50367841D01*
X87729920Y-50602873D01*
X87621747Y-50864026D01*
X87566600Y-51141265D01*
X87566600Y-51423935D01*
X87621747Y-51701174D01*
X87729920Y-51962327D01*
X87886963Y-52197359D01*
X88086841Y-52397237D01*
X88319359Y-52552600D01*
X88086841Y-52707963D01*
X87886963Y-52907841D01*
X87729920Y-53142873D01*
X87621747Y-53404026D01*
X87566600Y-53681265D01*
X87566600Y-53963935D01*
X87621747Y-54241174D01*
X87729920Y-54502327D01*
X87886963Y-54737359D01*
X88086841Y-54937237D01*
X88319359Y-55092600D01*
X88086841Y-55247963D01*
X87886963Y-55447841D01*
X87729920Y-55682873D01*
X87621747Y-55944026D01*
X87566600Y-56221265D01*
X87566600Y-56503935D01*
X87621747Y-56781174D01*
X87729920Y-57042327D01*
X87886963Y-57277359D01*
X88086841Y-57477237D01*
X88319359Y-57632600D01*
X88086841Y-57787963D01*
X87886963Y-57987841D01*
X87729920Y-58222873D01*
X87621747Y-58484026D01*
X87566600Y-58761265D01*
X87566600Y-58932799D01*
X87076204Y-58442403D01*
X87052401Y-58413399D01*
X86936676Y-58318426D01*
X86804647Y-58247854D01*
X86661386Y-58204397D01*
X86549733Y-58193400D01*
X86549722Y-58193400D01*
X86512400Y-58189724D01*
X86475078Y-58193400D01*
X81639541Y-58193400D01*
X81552320Y-58062865D01*
X81357735Y-57868280D01*
X81227200Y-57781059D01*
X81227200Y-57585741D01*
X81357735Y-57498520D01*
X81552320Y-57303935D01*
X81705205Y-57075127D01*
X81810514Y-56820890D01*
X81864200Y-56550992D01*
X81864200Y-56275808D01*
X81810514Y-56005910D01*
X81705205Y-55751673D01*
X81552320Y-55522865D01*
X81357735Y-55328280D01*
X81128927Y-55175395D01*
X81051685Y-55143400D01*
X81128927Y-55111405D01*
X81357735Y-54958520D01*
X81552320Y-54763935D01*
X81705205Y-54535127D01*
X81810514Y-54280890D01*
X81864200Y-54010992D01*
X81864200Y-53735808D01*
X81810514Y-53465910D01*
X81705205Y-53211673D01*
X81552320Y-52982865D01*
X81357735Y-52788280D01*
X81128927Y-52635395D01*
X80874690Y-52530086D01*
X80604792Y-52476400D01*
X80329608Y-52476400D01*
X80059710Y-52530086D01*
X79805473Y-52635395D01*
X79576665Y-52788280D01*
X79382080Y-52982865D01*
X79229195Y-53211673D01*
X79197200Y-53288915D01*
X79165205Y-53211673D01*
X79012320Y-52982865D01*
X78817735Y-52788280D01*
X78588927Y-52635395D01*
X78334690Y-52530086D01*
X78064792Y-52476400D01*
X77789608Y-52476400D01*
X77519710Y-52530086D01*
X77265473Y-52635395D01*
X77036665Y-52788280D01*
X76842080Y-52982865D01*
X76689195Y-53211673D01*
X76657200Y-53288915D01*
X76625205Y-53211673D01*
X76472320Y-52982865D01*
X76277735Y-52788280D01*
X76048927Y-52635395D01*
X75794690Y-52530086D01*
X75524792Y-52476400D01*
X75249608Y-52476400D01*
X74979710Y-52530086D01*
X74725473Y-52635395D01*
X74496665Y-52788280D01*
X74302080Y-52982865D01*
X74149195Y-53211673D01*
X74043886Y-53465910D01*
X73990200Y-53735808D01*
X73990200Y-54010992D01*
X74043886Y-54280890D01*
X74149195Y-54535127D01*
X74302080Y-54763935D01*
X74496665Y-54958520D01*
X74725473Y-55111405D01*
X74979710Y-55216714D01*
X75249608Y-55270400D01*
X75283355Y-55270400D01*
X75260200Y-55386808D01*
X75260200Y-55661992D01*
X75313886Y-55931890D01*
X75419195Y-56186127D01*
X75572080Y-56414935D01*
X75766665Y-56609520D01*
X75995473Y-56762405D01*
X76249710Y-56867714D01*
X76519608Y-56921400D01*
X76794792Y-56921400D01*
X77064690Y-56867714D01*
X77318927Y-56762405D01*
X77547735Y-56609520D01*
X77742320Y-56414935D01*
X77895205Y-56186127D01*
X78000514Y-55931890D01*
X78054200Y-55661992D01*
X78054200Y-55386808D01*
X78031045Y-55270400D01*
X78064792Y-55270400D01*
X78334690Y-55216714D01*
X78588927Y-55111405D01*
X78817735Y-54958520D01*
X79012320Y-54763935D01*
X79165205Y-54535127D01*
X79197200Y-54457885D01*
X79229195Y-54535127D01*
X79382080Y-54763935D01*
X79576665Y-54958520D01*
X79805473Y-55111405D01*
X79882715Y-55143400D01*
X79805473Y-55175395D01*
X79576665Y-55328280D01*
X79382080Y-55522865D01*
X79229195Y-55751673D01*
X79123886Y-56005910D01*
X79070200Y-56275808D01*
X79070200Y-56550992D01*
X79123886Y-56820890D01*
X79229195Y-57075127D01*
X79382080Y-57303935D01*
X79576665Y-57498520D01*
X79707200Y-57585741D01*
X79707201Y-57781059D01*
X79576665Y-57868280D01*
X79382080Y-58062865D01*
X79229195Y-58291673D01*
X79123886Y-58545910D01*
X79070200Y-58815808D01*
X79070200Y-58955399D01*
X71663403Y-58955399D01*
X69829606Y-57121603D01*
X69805803Y-57092599D01*
X69690078Y-56997626D01*
X69558049Y-56927054D01*
X69414788Y-56883597D01*
X69303135Y-56872600D01*
X69303124Y-56872600D01*
X69265802Y-56868924D01*
X69228480Y-56872600D01*
X69092624Y-56872600D01*
X69156223Y-56616265D01*
X69169110Y-56341383D01*
X69128122Y-56069267D01*
X69034836Y-55810377D01*
X68972856Y-55694420D01*
X68732765Y-55627440D01*
X67946805Y-56413400D01*
X67960948Y-56427543D01*
X67781343Y-56607148D01*
X67767200Y-56593005D01*
X67753058Y-56607148D01*
X67573453Y-56427543D01*
X67587595Y-56413400D01*
X66801635Y-55627440D01*
X66561544Y-55694420D01*
X66444444Y-55943448D01*
X66378177Y-56210535D01*
X66365290Y-56485417D01*
X66406278Y-56757533D01*
X66447740Y-56872600D01*
X57563602Y-56872600D01*
X57058367Y-56367365D01*
X57087200Y-56222411D01*
X57087200Y-55949589D01*
X57033975Y-55682011D01*
X56936299Y-55446200D01*
X59119278Y-55446200D01*
X59156600Y-55449876D01*
X59193922Y-55446200D01*
X59193933Y-55446200D01*
X59305586Y-55435203D01*
X59448847Y-55391746D01*
X59580876Y-55321174D01*
X59696601Y-55226201D01*
X59720403Y-55197198D01*
X60258802Y-54658800D01*
X66611831Y-54658800D01*
X66682080Y-54763935D01*
X66876665Y-54958520D01*
X67105473Y-55111405D01*
X67177143Y-55141092D01*
X67164177Y-55145764D01*
X67048220Y-55207744D01*
X66981240Y-55447835D01*
X67767200Y-56233795D01*
X68553160Y-55447835D01*
X68486180Y-55207744D01*
X68350440Y-55143915D01*
X68428927Y-55111405D01*
X68657735Y-54958520D01*
X68852320Y-54763935D01*
X69005205Y-54535127D01*
X69110514Y-54280890D01*
X69164200Y-54010992D01*
X69164200Y-53735808D01*
X69110514Y-53465910D01*
X69005205Y-53211673D01*
X68852320Y-52982865D01*
X68657735Y-52788280D01*
X68428927Y-52635395D01*
X68174690Y-52530086D01*
X67904792Y-52476400D01*
X67629608Y-52476400D01*
X67359710Y-52530086D01*
X67105473Y-52635395D01*
X66876665Y-52788280D01*
X66682080Y-52982865D01*
X66590817Y-53119449D01*
X66540584Y-53124397D01*
X66493103Y-53138800D01*
X59981325Y-53138800D01*
X59944000Y-53135124D01*
X59906675Y-53138800D01*
X59906667Y-53138800D01*
X59795014Y-53149797D01*
X59651753Y-53193254D01*
X59519724Y-53263826D01*
X59403999Y-53358799D01*
X59380201Y-53387798D01*
X58841799Y-53926200D01*
X57081388Y-53926200D01*
X57090272Y-53836000D01*
X57087200Y-53371750D01*
X56928450Y-53213000D01*
X55829200Y-53213000D01*
X55829200Y-53233000D01*
X55575200Y-53233000D01*
X55575200Y-53213000D01*
X54475950Y-53213000D01*
X54317200Y-53371750D01*
X54314128Y-53836000D01*
X54323012Y-53926200D01*
X53806521Y-53926200D01*
X53929571Y-53742043D01*
X54033975Y-53489989D01*
X54087200Y-53222411D01*
X54087200Y-52949589D01*
X54033975Y-52682011D01*
X53929571Y-52429957D01*
X53866791Y-52336000D01*
X54314128Y-52336000D01*
X54317200Y-52800250D01*
X54475950Y-52959000D01*
X55575200Y-52959000D01*
X55575200Y-51859750D01*
X55829200Y-51859750D01*
X55829200Y-52959000D01*
X56928450Y-52959000D01*
X57087200Y-52800250D01*
X57090272Y-52336000D01*
X57078012Y-52211518D01*
X57041702Y-52091820D01*
X56982737Y-51981506D01*
X56903385Y-51884815D01*
X56806694Y-51805463D01*
X56696380Y-51746498D01*
X56576682Y-51710188D01*
X56452200Y-51697928D01*
X55987950Y-51701000D01*
X55829200Y-51859750D01*
X55575200Y-51859750D01*
X55416450Y-51701000D01*
X54952200Y-51697928D01*
X54827718Y-51710188D01*
X54708020Y-51746498D01*
X54597706Y-51805463D01*
X54501015Y-51884815D01*
X54421663Y-51981506D01*
X54362698Y-52091820D01*
X54326388Y-52211518D01*
X54314128Y-52336000D01*
X53866791Y-52336000D01*
X53777999Y-52203114D01*
X53585086Y-52010201D01*
X53462200Y-51928091D01*
X53462200Y-50863601D01*
X55948203Y-48377599D01*
X87611091Y-48377599D01*
X87566600Y-48601265D01*
G37*
X87566600Y-48601265D02*
X87566600Y-48883935D01*
X87621747Y-49161174D01*
X87729920Y-49422327D01*
X87886963Y-49657359D01*
X88086841Y-49857237D01*
X88319359Y-50012600D01*
X88086841Y-50167963D01*
X87886963Y-50367841D01*
X87729920Y-50602873D01*
X87621747Y-50864026D01*
X87566600Y-51141265D01*
X87566600Y-51423935D01*
X87621747Y-51701174D01*
X87729920Y-51962327D01*
X87886963Y-52197359D01*
X88086841Y-52397237D01*
X88319359Y-52552600D01*
X88086841Y-52707963D01*
X87886963Y-52907841D01*
X87729920Y-53142873D01*
X87621747Y-53404026D01*
X87566600Y-53681265D01*
X87566600Y-53963935D01*
X87621747Y-54241174D01*
X87729920Y-54502327D01*
X87886963Y-54737359D01*
X88086841Y-54937237D01*
X88319359Y-55092600D01*
X88086841Y-55247963D01*
X87886963Y-55447841D01*
X87729920Y-55682873D01*
X87621747Y-55944026D01*
X87566600Y-56221265D01*
X87566600Y-56503935D01*
X87621747Y-56781174D01*
X87729920Y-57042327D01*
X87886963Y-57277359D01*
X88086841Y-57477237D01*
X88319359Y-57632600D01*
X88086841Y-57787963D01*
X87886963Y-57987841D01*
X87729920Y-58222873D01*
X87621747Y-58484026D01*
X87566600Y-58761265D01*
X87566600Y-58932799D01*
X87076204Y-58442403D01*
X87052401Y-58413399D01*
X86936676Y-58318426D01*
X86804647Y-58247854D01*
X86661386Y-58204397D01*
X86549733Y-58193400D01*
X86549722Y-58193400D01*
X86512400Y-58189724D01*
X86475078Y-58193400D01*
X81639541Y-58193400D01*
X81552320Y-58062865D01*
X81357735Y-57868280D01*
X81227200Y-57781059D01*
X81227200Y-57585741D01*
X81357735Y-57498520D01*
X81552320Y-57303935D01*
X81705205Y-57075127D01*
X81810514Y-56820890D01*
X81864200Y-56550992D01*
X81864200Y-56275808D01*
X81810514Y-56005910D01*
X81705205Y-55751673D01*
X81552320Y-55522865D01*
X81357735Y-55328280D01*
X81128927Y-55175395D01*
X81051685Y-55143400D01*
X81128927Y-55111405D01*
X81357735Y-54958520D01*
X81552320Y-54763935D01*
X81705205Y-54535127D01*
X81810514Y-54280890D01*
X81864200Y-54010992D01*
X81864200Y-53735808D01*
X81810514Y-53465910D01*
X81705205Y-53211673D01*
X81552320Y-52982865D01*
X81357735Y-52788280D01*
X81128927Y-52635395D01*
X80874690Y-52530086D01*
X80604792Y-52476400D01*
X80329608Y-52476400D01*
X80059710Y-52530086D01*
X79805473Y-52635395D01*
X79576665Y-52788280D01*
X79382080Y-52982865D01*
X79229195Y-53211673D01*
X79197200Y-53288915D01*
X79165205Y-53211673D01*
X79012320Y-52982865D01*
X78817735Y-52788280D01*
X78588927Y-52635395D01*
X78334690Y-52530086D01*
X78064792Y-52476400D01*
X77789608Y-52476400D01*
X77519710Y-52530086D01*
X77265473Y-52635395D01*
X77036665Y-52788280D01*
X76842080Y-52982865D01*
X76689195Y-53211673D01*
X76657200Y-53288915D01*
X76625205Y-53211673D01*
X76472320Y-52982865D01*
X76277735Y-52788280D01*
X76048927Y-52635395D01*
X75794690Y-52530086D01*
X75524792Y-52476400D01*
X75249608Y-52476400D01*
X74979710Y-52530086D01*
X74725473Y-52635395D01*
X74496665Y-52788280D01*
X74302080Y-52982865D01*
X74149195Y-53211673D01*
X74043886Y-53465910D01*
X73990200Y-53735808D01*
X73990200Y-54010992D01*
X74043886Y-54280890D01*
X74149195Y-54535127D01*
X74302080Y-54763935D01*
X74496665Y-54958520D01*
X74725473Y-55111405D01*
X74979710Y-55216714D01*
X75249608Y-55270400D01*
X75283355Y-55270400D01*
X75260200Y-55386808D01*
X75260200Y-55661992D01*
X75313886Y-55931890D01*
X75419195Y-56186127D01*
X75572080Y-56414935D01*
X75766665Y-56609520D01*
X75995473Y-56762405D01*
X76249710Y-56867714D01*
X76519608Y-56921400D01*
X76794792Y-56921400D01*
X77064690Y-56867714D01*
X77318927Y-56762405D01*
X77547735Y-56609520D01*
X77742320Y-56414935D01*
X77895205Y-56186127D01*
X78000514Y-55931890D01*
X78054200Y-55661992D01*
X78054200Y-55386808D01*
X78031045Y-55270400D01*
X78064792Y-55270400D01*
X78334690Y-55216714D01*
X78588927Y-55111405D01*
X78817735Y-54958520D01*
X79012320Y-54763935D01*
X79165205Y-54535127D01*
X79197200Y-54457885D01*
X79229195Y-54535127D01*
X79382080Y-54763935D01*
X79576665Y-54958520D01*
X79805473Y-55111405D01*
X79882715Y-55143400D01*
X79805473Y-55175395D01*
X79576665Y-55328280D01*
X79382080Y-55522865D01*
X79229195Y-55751673D01*
X79123886Y-56005910D01*
X79070200Y-56275808D01*
X79070200Y-56550992D01*
X79123886Y-56820890D01*
X79229195Y-57075127D01*
X79382080Y-57303935D01*
X79576665Y-57498520D01*
X79707200Y-57585741D01*
X79707201Y-57781059D01*
X79576665Y-57868280D01*
X79382080Y-58062865D01*
X79229195Y-58291673D01*
X79123886Y-58545910D01*
X79070200Y-58815808D01*
X79070200Y-58955399D01*
X71663403Y-58955399D01*
X69829606Y-57121603D01*
X69805803Y-57092599D01*
X69690078Y-56997626D01*
X69558049Y-56927054D01*
X69414788Y-56883597D01*
X69303135Y-56872600D01*
X69303124Y-56872600D01*
X69265802Y-56868924D01*
X69228480Y-56872600D01*
X69092624Y-56872600D01*
X69156223Y-56616265D01*
X69169110Y-56341383D01*
X69128122Y-56069267D01*
X69034836Y-55810377D01*
X68972856Y-55694420D01*
X68732765Y-55627440D01*
X67946805Y-56413400D01*
X67960948Y-56427543D01*
X67781343Y-56607148D01*
X67767200Y-56593005D01*
X67753058Y-56607148D01*
X67573453Y-56427543D01*
X67587595Y-56413400D01*
X66801635Y-55627440D01*
X66561544Y-55694420D01*
X66444444Y-55943448D01*
X66378177Y-56210535D01*
X66365290Y-56485417D01*
X66406278Y-56757533D01*
X66447740Y-56872600D01*
X57563602Y-56872600D01*
X57058367Y-56367365D01*
X57087200Y-56222411D01*
X57087200Y-55949589D01*
X57033975Y-55682011D01*
X56936299Y-55446200D01*
X59119278Y-55446200D01*
X59156600Y-55449876D01*
X59193922Y-55446200D01*
X59193933Y-55446200D01*
X59305586Y-55435203D01*
X59448847Y-55391746D01*
X59580876Y-55321174D01*
X59696601Y-55226201D01*
X59720403Y-55197198D01*
X60258802Y-54658800D01*
X66611831Y-54658800D01*
X66682080Y-54763935D01*
X66876665Y-54958520D01*
X67105473Y-55111405D01*
X67177143Y-55141092D01*
X67164177Y-55145764D01*
X67048220Y-55207744D01*
X66981240Y-55447835D01*
X67767200Y-56233795D01*
X68553160Y-55447835D01*
X68486180Y-55207744D01*
X68350440Y-55143915D01*
X68428927Y-55111405D01*
X68657735Y-54958520D01*
X68852320Y-54763935D01*
X69005205Y-54535127D01*
X69110514Y-54280890D01*
X69164200Y-54010992D01*
X69164200Y-53735808D01*
X69110514Y-53465910D01*
X69005205Y-53211673D01*
X68852320Y-52982865D01*
X68657735Y-52788280D01*
X68428927Y-52635395D01*
X68174690Y-52530086D01*
X67904792Y-52476400D01*
X67629608Y-52476400D01*
X67359710Y-52530086D01*
X67105473Y-52635395D01*
X66876665Y-52788280D01*
X66682080Y-52982865D01*
X66590817Y-53119449D01*
X66540584Y-53124397D01*
X66493103Y-53138800D01*
X59981325Y-53138800D01*
X59944000Y-53135124D01*
X59906675Y-53138800D01*
X59906667Y-53138800D01*
X59795014Y-53149797D01*
X59651753Y-53193254D01*
X59519724Y-53263826D01*
X59403999Y-53358799D01*
X59380201Y-53387798D01*
X58841799Y-53926200D01*
X57081388Y-53926200D01*
X57090272Y-53836000D01*
X57087200Y-53371750D01*
X56928450Y-53213000D01*
X55829200Y-53213000D01*
X55829200Y-53233000D01*
X55575200Y-53233000D01*
X55575200Y-53213000D01*
X54475950Y-53213000D01*
X54317200Y-53371750D01*
X54314128Y-53836000D01*
X54323012Y-53926200D01*
X53806521Y-53926200D01*
X53929571Y-53742043D01*
X54033975Y-53489989D01*
X54087200Y-53222411D01*
X54087200Y-52949589D01*
X54033975Y-52682011D01*
X53929571Y-52429957D01*
X53866791Y-52336000D01*
X54314128Y-52336000D01*
X54317200Y-52800250D01*
X54475950Y-52959000D01*
X55575200Y-52959000D01*
X55575200Y-51859750D01*
X55829200Y-51859750D01*
X55829200Y-52959000D01*
X56928450Y-52959000D01*
X57087200Y-52800250D01*
X57090272Y-52336000D01*
X57078012Y-52211518D01*
X57041702Y-52091820D01*
X56982737Y-51981506D01*
X56903385Y-51884815D01*
X56806694Y-51805463D01*
X56696380Y-51746498D01*
X56576682Y-51710188D01*
X56452200Y-51697928D01*
X55987950Y-51701000D01*
X55829200Y-51859750D01*
X55575200Y-51859750D01*
X55416450Y-51701000D01*
X54952200Y-51697928D01*
X54827718Y-51710188D01*
X54708020Y-51746498D01*
X54597706Y-51805463D01*
X54501015Y-51884815D01*
X54421663Y-51981506D01*
X54362698Y-52091820D01*
X54326388Y-52211518D01*
X54314128Y-52336000D01*
X53866791Y-52336000D01*
X53777999Y-52203114D01*
X53585086Y-52010201D01*
X53462200Y-51928091D01*
X53462200Y-50863601D01*
X55948203Y-48377599D01*
X87611091Y-48377599D01*
X87566600Y-48601265D01*
M02*
