G04 #@! TF.GenerationSoftware,KiCad,Pcbnew,(5.1.5)-3*
G04 #@! TF.CreationDate,2021-04-09T09:54:44-05:00*
G04 #@! TF.ProjectId,turner_pcb,7475726e-6572-45f7-9063-622e6b696361,rev?*
G04 #@! TF.SameCoordinates,Original*
G04 #@! TF.FileFunction,Legend,Bot*
G04 #@! TF.FilePolarity,Positive*
%FSLAX46Y46*%
G04 Gerber Fmt 4.6, Leading zero omitted, Abs format (unit mm)*
G04 Created by KiCad (PCBNEW (5.1.5)-3) date 2021-04-09 09:54:44*
%MOMM*%
%LPD*%
G04 APERTURE LIST*
%ADD10C,1.600000*%
%ADD11R,1.600000X1.600000*%
%ADD12C,1.000000*%
%ADD13C,0.150000*%
%ADD14C,1.500000*%
%ADD15O,1.600000X1.600000*%
G04 APERTURE END LIST*
%LPC*%
D10*
X54803200Y-35102800D03*
D11*
X51003200Y-35102800D03*
D12*
X51025600Y-56105800D03*
X51025600Y-65105800D03*
D13*
G36*
X55490104Y-58357004D02*
G01*
X55514373Y-58360604D01*
X55538171Y-58366565D01*
X55561271Y-58374830D01*
X55583449Y-58385320D01*
X55604493Y-58397933D01*
X55624198Y-58412547D01*
X55642377Y-58429023D01*
X55658853Y-58447202D01*
X55673467Y-58466907D01*
X55686080Y-58487951D01*
X55696570Y-58510129D01*
X55704835Y-58533229D01*
X55710796Y-58557027D01*
X55714396Y-58581296D01*
X55715600Y-58605800D01*
X55715600Y-59605800D01*
X55714396Y-59630304D01*
X55710796Y-59654573D01*
X55704835Y-59678371D01*
X55696570Y-59701471D01*
X55686080Y-59723649D01*
X55673467Y-59744693D01*
X55658853Y-59764398D01*
X55642377Y-59782577D01*
X55624198Y-59799053D01*
X55604493Y-59813667D01*
X55583449Y-59826280D01*
X55561271Y-59836770D01*
X55538171Y-59845035D01*
X55514373Y-59850996D01*
X55490104Y-59854596D01*
X55465600Y-59855800D01*
X54465600Y-59855800D01*
X54441096Y-59854596D01*
X54416827Y-59850996D01*
X54393029Y-59845035D01*
X54369929Y-59836770D01*
X54347751Y-59826280D01*
X54326707Y-59813667D01*
X54307002Y-59799053D01*
X54288823Y-59782577D01*
X54272347Y-59764398D01*
X54257733Y-59744693D01*
X54245120Y-59723649D01*
X54234630Y-59701471D01*
X54226365Y-59678371D01*
X54220404Y-59654573D01*
X54216804Y-59630304D01*
X54215600Y-59605800D01*
X54215600Y-58605800D01*
X54216804Y-58581296D01*
X54220404Y-58557027D01*
X54226365Y-58533229D01*
X54234630Y-58510129D01*
X54245120Y-58487951D01*
X54257733Y-58466907D01*
X54272347Y-58447202D01*
X54288823Y-58429023D01*
X54307002Y-58412547D01*
X54326707Y-58397933D01*
X54347751Y-58385320D01*
X54369929Y-58374830D01*
X54393029Y-58366565D01*
X54416827Y-58360604D01*
X54441096Y-58357004D01*
X54465600Y-58355800D01*
X55465600Y-58355800D01*
X55490104Y-58357004D01*
G37*
D14*
X54965600Y-62105800D03*
X51965600Y-59105800D03*
X51965600Y-62105800D03*
D15*
X90424000Y-59283600D03*
X103124000Y-41503600D03*
X90424000Y-56743600D03*
X103124000Y-44043600D03*
X90424000Y-54203600D03*
X103124000Y-46583600D03*
X90424000Y-51663600D03*
X103124000Y-49123600D03*
X90424000Y-49123600D03*
X103124000Y-51663600D03*
X90424000Y-46583600D03*
X103124000Y-54203600D03*
X90424000Y-44043600D03*
X103124000Y-56743600D03*
X90424000Y-41503600D03*
D11*
X103124000Y-59283600D03*
X78917800Y-66471800D03*
D15*
X63677800Y-33451800D03*
X78917800Y-63931800D03*
X63677800Y-35991800D03*
X78917800Y-61391800D03*
X63677800Y-38531800D03*
X78917800Y-58851800D03*
X63677800Y-41071800D03*
X78917800Y-56311800D03*
X63677800Y-43611800D03*
X78917800Y-53771800D03*
X63677800Y-46151800D03*
X78917800Y-51231800D03*
X63677800Y-48691800D03*
X78917800Y-48691800D03*
X63677800Y-51231800D03*
X78917800Y-46151800D03*
X63677800Y-53771800D03*
X78917800Y-43611800D03*
X63677800Y-56311800D03*
X78917800Y-41071800D03*
X63677800Y-58851800D03*
X78917800Y-38531800D03*
X63677800Y-61391800D03*
X78917800Y-35991800D03*
X63677800Y-63931800D03*
X78917800Y-33451800D03*
X63677800Y-66471800D03*
X78917800Y-30911800D03*
X63677800Y-30911800D03*
D12*
X90573600Y-72418400D03*
X102573600Y-72418400D03*
D13*
G36*
X94098104Y-67729604D02*
G01*
X94122373Y-67733204D01*
X94146171Y-67739165D01*
X94169271Y-67747430D01*
X94191449Y-67757920D01*
X94212493Y-67770533D01*
X94232198Y-67785147D01*
X94250377Y-67801623D01*
X94266853Y-67819802D01*
X94281467Y-67839507D01*
X94294080Y-67860551D01*
X94304570Y-67882729D01*
X94312835Y-67905829D01*
X94318796Y-67929627D01*
X94322396Y-67953896D01*
X94323600Y-67978400D01*
X94323600Y-68978400D01*
X94322396Y-69002904D01*
X94318796Y-69027173D01*
X94312835Y-69050971D01*
X94304570Y-69074071D01*
X94294080Y-69096249D01*
X94281467Y-69117293D01*
X94266853Y-69136998D01*
X94250377Y-69155177D01*
X94232198Y-69171653D01*
X94212493Y-69186267D01*
X94191449Y-69198880D01*
X94169271Y-69209370D01*
X94146171Y-69217635D01*
X94122373Y-69223596D01*
X94098104Y-69227196D01*
X94073600Y-69228400D01*
X93073600Y-69228400D01*
X93049096Y-69227196D01*
X93024827Y-69223596D01*
X93001029Y-69217635D01*
X92977929Y-69209370D01*
X92955751Y-69198880D01*
X92934707Y-69186267D01*
X92915002Y-69171653D01*
X92896823Y-69155177D01*
X92880347Y-69136998D01*
X92865733Y-69117293D01*
X92853120Y-69096249D01*
X92842630Y-69074071D01*
X92834365Y-69050971D01*
X92828404Y-69027173D01*
X92824804Y-69002904D01*
X92823600Y-68978400D01*
X92823600Y-67978400D01*
X92824804Y-67953896D01*
X92828404Y-67929627D01*
X92834365Y-67905829D01*
X92842630Y-67882729D01*
X92853120Y-67860551D01*
X92865733Y-67839507D01*
X92880347Y-67819802D01*
X92896823Y-67801623D01*
X92915002Y-67785147D01*
X92934707Y-67770533D01*
X92955751Y-67757920D01*
X92977929Y-67747430D01*
X93001029Y-67739165D01*
X93024827Y-67733204D01*
X93049096Y-67729604D01*
X93073600Y-67728400D01*
X94073600Y-67728400D01*
X94098104Y-67729604D01*
G37*
D14*
X96573600Y-68478400D03*
X99573600Y-68478400D03*
X93573600Y-71478400D03*
X96573600Y-71478400D03*
X99573600Y-71478400D03*
D12*
X51228800Y-43228000D03*
X51228800Y-49228000D03*
D13*
G36*
X55693304Y-45479204D02*
G01*
X55717573Y-45482804D01*
X55741371Y-45488765D01*
X55764471Y-45497030D01*
X55786649Y-45507520D01*
X55807693Y-45520133D01*
X55827398Y-45534747D01*
X55845577Y-45551223D01*
X55862053Y-45569402D01*
X55876667Y-45589107D01*
X55889280Y-45610151D01*
X55899770Y-45632329D01*
X55908035Y-45655429D01*
X55913996Y-45679227D01*
X55917596Y-45703496D01*
X55918800Y-45728000D01*
X55918800Y-46728000D01*
X55917596Y-46752504D01*
X55913996Y-46776773D01*
X55908035Y-46800571D01*
X55899770Y-46823671D01*
X55889280Y-46845849D01*
X55876667Y-46866893D01*
X55862053Y-46886598D01*
X55845577Y-46904777D01*
X55827398Y-46921253D01*
X55807693Y-46935867D01*
X55786649Y-46948480D01*
X55764471Y-46958970D01*
X55741371Y-46967235D01*
X55717573Y-46973196D01*
X55693304Y-46976796D01*
X55668800Y-46978000D01*
X54668800Y-46978000D01*
X54644296Y-46976796D01*
X54620027Y-46973196D01*
X54596229Y-46967235D01*
X54573129Y-46958970D01*
X54550951Y-46948480D01*
X54529907Y-46935867D01*
X54510202Y-46921253D01*
X54492023Y-46904777D01*
X54475547Y-46886598D01*
X54460933Y-46866893D01*
X54448320Y-46845849D01*
X54437830Y-46823671D01*
X54429565Y-46800571D01*
X54423604Y-46776773D01*
X54420004Y-46752504D01*
X54418800Y-46728000D01*
X54418800Y-45728000D01*
X54420004Y-45703496D01*
X54423604Y-45679227D01*
X54429565Y-45655429D01*
X54437830Y-45632329D01*
X54448320Y-45610151D01*
X54460933Y-45589107D01*
X54475547Y-45569402D01*
X54492023Y-45551223D01*
X54510202Y-45534747D01*
X54529907Y-45520133D01*
X54550951Y-45507520D01*
X54573129Y-45497030D01*
X54596229Y-45488765D01*
X54620027Y-45482804D01*
X54644296Y-45479204D01*
X54668800Y-45478000D01*
X55668800Y-45478000D01*
X55693304Y-45479204D01*
G37*
D14*
X52168800Y-46228000D03*
X95221800Y-29232600D03*
X98221800Y-29232600D03*
X95221800Y-32232600D03*
D13*
G36*
X98746304Y-31483804D02*
G01*
X98770573Y-31487404D01*
X98794371Y-31493365D01*
X98817471Y-31501630D01*
X98839649Y-31512120D01*
X98860693Y-31524733D01*
X98880398Y-31539347D01*
X98898577Y-31555823D01*
X98915053Y-31574002D01*
X98929667Y-31593707D01*
X98942280Y-31614751D01*
X98952770Y-31636929D01*
X98961035Y-31660029D01*
X98966996Y-31683827D01*
X98970596Y-31708096D01*
X98971800Y-31732600D01*
X98971800Y-32732600D01*
X98970596Y-32757104D01*
X98966996Y-32781373D01*
X98961035Y-32805171D01*
X98952770Y-32828271D01*
X98942280Y-32850449D01*
X98929667Y-32871493D01*
X98915053Y-32891198D01*
X98898577Y-32909377D01*
X98880398Y-32925853D01*
X98860693Y-32940467D01*
X98839649Y-32953080D01*
X98817471Y-32963570D01*
X98794371Y-32971835D01*
X98770573Y-32977796D01*
X98746304Y-32981396D01*
X98721800Y-32982600D01*
X97721800Y-32982600D01*
X97697296Y-32981396D01*
X97673027Y-32977796D01*
X97649229Y-32971835D01*
X97626129Y-32963570D01*
X97603951Y-32953080D01*
X97582907Y-32940467D01*
X97563202Y-32925853D01*
X97545023Y-32909377D01*
X97528547Y-32891198D01*
X97513933Y-32871493D01*
X97501320Y-32850449D01*
X97490830Y-32828271D01*
X97482565Y-32805171D01*
X97476604Y-32781373D01*
X97473004Y-32757104D01*
X97471800Y-32732600D01*
X97471800Y-31732600D01*
X97473004Y-31708096D01*
X97476604Y-31683827D01*
X97482565Y-31660029D01*
X97490830Y-31636929D01*
X97501320Y-31614751D01*
X97513933Y-31593707D01*
X97528547Y-31574002D01*
X97545023Y-31555823D01*
X97563202Y-31539347D01*
X97582907Y-31524733D01*
X97603951Y-31512120D01*
X97626129Y-31501630D01*
X97649229Y-31493365D01*
X97673027Y-31487404D01*
X97697296Y-31483804D01*
X97721800Y-31482600D01*
X98721800Y-31482600D01*
X98746304Y-31483804D01*
G37*
D12*
X92221800Y-28292600D03*
X101221800Y-28292600D03*
M02*
