G04 #@! TF.GenerationSoftware,KiCad,Pcbnew,(5.1.5)-3*
G04 #@! TF.CreationDate,2021-04-09T09:54:44-05:00*
G04 #@! TF.ProjectId,turner_pcb,7475726e-6572-45f7-9063-622e6b696361,rev?*
G04 #@! TF.SameCoordinates,Original*
G04 #@! TF.FileFunction,Copper,L2,Bot*
G04 #@! TF.FilePolarity,Positive*
%FSLAX46Y46*%
G04 Gerber Fmt 4.6, Leading zero omitted, Abs format (unit mm)*
G04 Created by KiCad (PCBNEW (5.1.5)-3) date 2021-04-09 09:54:44*
%MOMM*%
%LPD*%
G04 APERTURE LIST*
%ADD10C,1.600000*%
%ADD11R,1.600000X1.600000*%
%ADD12C,0.150000*%
%ADD13C,1.500000*%
%ADD14O,1.600000X1.600000*%
%ADD15C,0.250000*%
%ADD16C,0.254000*%
G04 APERTURE END LIST*
D10*
X54803200Y-35102800D03*
D11*
X51003200Y-35102800D03*
G04 #@! TA.AperFunction,ComponentPad*
D12*
G36*
X55490104Y-58357004D02*
G01*
X55514373Y-58360604D01*
X55538171Y-58366565D01*
X55561271Y-58374830D01*
X55583449Y-58385320D01*
X55604493Y-58397933D01*
X55624198Y-58412547D01*
X55642377Y-58429023D01*
X55658853Y-58447202D01*
X55673467Y-58466907D01*
X55686080Y-58487951D01*
X55696570Y-58510129D01*
X55704835Y-58533229D01*
X55710796Y-58557027D01*
X55714396Y-58581296D01*
X55715600Y-58605800D01*
X55715600Y-59605800D01*
X55714396Y-59630304D01*
X55710796Y-59654573D01*
X55704835Y-59678371D01*
X55696570Y-59701471D01*
X55686080Y-59723649D01*
X55673467Y-59744693D01*
X55658853Y-59764398D01*
X55642377Y-59782577D01*
X55624198Y-59799053D01*
X55604493Y-59813667D01*
X55583449Y-59826280D01*
X55561271Y-59836770D01*
X55538171Y-59845035D01*
X55514373Y-59850996D01*
X55490104Y-59854596D01*
X55465600Y-59855800D01*
X54465600Y-59855800D01*
X54441096Y-59854596D01*
X54416827Y-59850996D01*
X54393029Y-59845035D01*
X54369929Y-59836770D01*
X54347751Y-59826280D01*
X54326707Y-59813667D01*
X54307002Y-59799053D01*
X54288823Y-59782577D01*
X54272347Y-59764398D01*
X54257733Y-59744693D01*
X54245120Y-59723649D01*
X54234630Y-59701471D01*
X54226365Y-59678371D01*
X54220404Y-59654573D01*
X54216804Y-59630304D01*
X54215600Y-59605800D01*
X54215600Y-58605800D01*
X54216804Y-58581296D01*
X54220404Y-58557027D01*
X54226365Y-58533229D01*
X54234630Y-58510129D01*
X54245120Y-58487951D01*
X54257733Y-58466907D01*
X54272347Y-58447202D01*
X54288823Y-58429023D01*
X54307002Y-58412547D01*
X54326707Y-58397933D01*
X54347751Y-58385320D01*
X54369929Y-58374830D01*
X54393029Y-58366565D01*
X54416827Y-58360604D01*
X54441096Y-58357004D01*
X54465600Y-58355800D01*
X55465600Y-58355800D01*
X55490104Y-58357004D01*
G37*
G04 #@! TD.AperFunction*
D13*
X54965600Y-62105800D03*
X51965600Y-59105800D03*
X51965600Y-62105800D03*
D14*
X90424000Y-59283600D03*
X103124000Y-41503600D03*
X90424000Y-56743600D03*
X103124000Y-44043600D03*
X90424000Y-54203600D03*
X103124000Y-46583600D03*
X90424000Y-51663600D03*
X103124000Y-49123600D03*
X90424000Y-49123600D03*
X103124000Y-51663600D03*
X90424000Y-46583600D03*
X103124000Y-54203600D03*
X90424000Y-44043600D03*
X103124000Y-56743600D03*
X90424000Y-41503600D03*
D11*
X103124000Y-59283600D03*
X78917800Y-66471800D03*
D14*
X63677800Y-33451800D03*
X78917800Y-63931800D03*
X63677800Y-35991800D03*
X78917800Y-61391800D03*
X63677800Y-38531800D03*
X78917800Y-58851800D03*
X63677800Y-41071800D03*
X78917800Y-56311800D03*
X63677800Y-43611800D03*
X78917800Y-53771800D03*
X63677800Y-46151800D03*
X78917800Y-51231800D03*
X63677800Y-48691800D03*
X78917800Y-48691800D03*
X63677800Y-51231800D03*
X78917800Y-46151800D03*
X63677800Y-53771800D03*
X78917800Y-43611800D03*
X63677800Y-56311800D03*
X78917800Y-41071800D03*
X63677800Y-58851800D03*
X78917800Y-38531800D03*
X63677800Y-61391800D03*
X78917800Y-35991800D03*
X63677800Y-63931800D03*
X78917800Y-33451800D03*
X63677800Y-66471800D03*
X78917800Y-30911800D03*
X63677800Y-30911800D03*
G04 #@! TA.AperFunction,ComponentPad*
D12*
G36*
X94098104Y-67729604D02*
G01*
X94122373Y-67733204D01*
X94146171Y-67739165D01*
X94169271Y-67747430D01*
X94191449Y-67757920D01*
X94212493Y-67770533D01*
X94232198Y-67785147D01*
X94250377Y-67801623D01*
X94266853Y-67819802D01*
X94281467Y-67839507D01*
X94294080Y-67860551D01*
X94304570Y-67882729D01*
X94312835Y-67905829D01*
X94318796Y-67929627D01*
X94322396Y-67953896D01*
X94323600Y-67978400D01*
X94323600Y-68978400D01*
X94322396Y-69002904D01*
X94318796Y-69027173D01*
X94312835Y-69050971D01*
X94304570Y-69074071D01*
X94294080Y-69096249D01*
X94281467Y-69117293D01*
X94266853Y-69136998D01*
X94250377Y-69155177D01*
X94232198Y-69171653D01*
X94212493Y-69186267D01*
X94191449Y-69198880D01*
X94169271Y-69209370D01*
X94146171Y-69217635D01*
X94122373Y-69223596D01*
X94098104Y-69227196D01*
X94073600Y-69228400D01*
X93073600Y-69228400D01*
X93049096Y-69227196D01*
X93024827Y-69223596D01*
X93001029Y-69217635D01*
X92977929Y-69209370D01*
X92955751Y-69198880D01*
X92934707Y-69186267D01*
X92915002Y-69171653D01*
X92896823Y-69155177D01*
X92880347Y-69136998D01*
X92865733Y-69117293D01*
X92853120Y-69096249D01*
X92842630Y-69074071D01*
X92834365Y-69050971D01*
X92828404Y-69027173D01*
X92824804Y-69002904D01*
X92823600Y-68978400D01*
X92823600Y-67978400D01*
X92824804Y-67953896D01*
X92828404Y-67929627D01*
X92834365Y-67905829D01*
X92842630Y-67882729D01*
X92853120Y-67860551D01*
X92865733Y-67839507D01*
X92880347Y-67819802D01*
X92896823Y-67801623D01*
X92915002Y-67785147D01*
X92934707Y-67770533D01*
X92955751Y-67757920D01*
X92977929Y-67747430D01*
X93001029Y-67739165D01*
X93024827Y-67733204D01*
X93049096Y-67729604D01*
X93073600Y-67728400D01*
X94073600Y-67728400D01*
X94098104Y-67729604D01*
G37*
G04 #@! TD.AperFunction*
D13*
X96573600Y-68478400D03*
X99573600Y-68478400D03*
X93573600Y-71478400D03*
X96573600Y-71478400D03*
X99573600Y-71478400D03*
G04 #@! TA.AperFunction,ComponentPad*
D12*
G36*
X55693304Y-45479204D02*
G01*
X55717573Y-45482804D01*
X55741371Y-45488765D01*
X55764471Y-45497030D01*
X55786649Y-45507520D01*
X55807693Y-45520133D01*
X55827398Y-45534747D01*
X55845577Y-45551223D01*
X55862053Y-45569402D01*
X55876667Y-45589107D01*
X55889280Y-45610151D01*
X55899770Y-45632329D01*
X55908035Y-45655429D01*
X55913996Y-45679227D01*
X55917596Y-45703496D01*
X55918800Y-45728000D01*
X55918800Y-46728000D01*
X55917596Y-46752504D01*
X55913996Y-46776773D01*
X55908035Y-46800571D01*
X55899770Y-46823671D01*
X55889280Y-46845849D01*
X55876667Y-46866893D01*
X55862053Y-46886598D01*
X55845577Y-46904777D01*
X55827398Y-46921253D01*
X55807693Y-46935867D01*
X55786649Y-46948480D01*
X55764471Y-46958970D01*
X55741371Y-46967235D01*
X55717573Y-46973196D01*
X55693304Y-46976796D01*
X55668800Y-46978000D01*
X54668800Y-46978000D01*
X54644296Y-46976796D01*
X54620027Y-46973196D01*
X54596229Y-46967235D01*
X54573129Y-46958970D01*
X54550951Y-46948480D01*
X54529907Y-46935867D01*
X54510202Y-46921253D01*
X54492023Y-46904777D01*
X54475547Y-46886598D01*
X54460933Y-46866893D01*
X54448320Y-46845849D01*
X54437830Y-46823671D01*
X54429565Y-46800571D01*
X54423604Y-46776773D01*
X54420004Y-46752504D01*
X54418800Y-46728000D01*
X54418800Y-45728000D01*
X54420004Y-45703496D01*
X54423604Y-45679227D01*
X54429565Y-45655429D01*
X54437830Y-45632329D01*
X54448320Y-45610151D01*
X54460933Y-45589107D01*
X54475547Y-45569402D01*
X54492023Y-45551223D01*
X54510202Y-45534747D01*
X54529907Y-45520133D01*
X54550951Y-45507520D01*
X54573129Y-45497030D01*
X54596229Y-45488765D01*
X54620027Y-45482804D01*
X54644296Y-45479204D01*
X54668800Y-45478000D01*
X55668800Y-45478000D01*
X55693304Y-45479204D01*
G37*
G04 #@! TD.AperFunction*
D13*
X52168800Y-46228000D03*
X95221800Y-29232600D03*
X98221800Y-29232600D03*
X95221800Y-32232600D03*
G04 #@! TA.AperFunction,ComponentPad*
D12*
G36*
X98746304Y-31483804D02*
G01*
X98770573Y-31487404D01*
X98794371Y-31493365D01*
X98817471Y-31501630D01*
X98839649Y-31512120D01*
X98860693Y-31524733D01*
X98880398Y-31539347D01*
X98898577Y-31555823D01*
X98915053Y-31574002D01*
X98929667Y-31593707D01*
X98942280Y-31614751D01*
X98952770Y-31636929D01*
X98961035Y-31660029D01*
X98966996Y-31683827D01*
X98970596Y-31708096D01*
X98971800Y-31732600D01*
X98971800Y-32732600D01*
X98970596Y-32757104D01*
X98966996Y-32781373D01*
X98961035Y-32805171D01*
X98952770Y-32828271D01*
X98942280Y-32850449D01*
X98929667Y-32871493D01*
X98915053Y-32891198D01*
X98898577Y-32909377D01*
X98880398Y-32925853D01*
X98860693Y-32940467D01*
X98839649Y-32953080D01*
X98817471Y-32963570D01*
X98794371Y-32971835D01*
X98770573Y-32977796D01*
X98746304Y-32981396D01*
X98721800Y-32982600D01*
X97721800Y-32982600D01*
X97697296Y-32981396D01*
X97673027Y-32977796D01*
X97649229Y-32971835D01*
X97626129Y-32963570D01*
X97603951Y-32953080D01*
X97582907Y-32940467D01*
X97563202Y-32925853D01*
X97545023Y-32909377D01*
X97528547Y-32891198D01*
X97513933Y-32871493D01*
X97501320Y-32850449D01*
X97490830Y-32828271D01*
X97482565Y-32805171D01*
X97476604Y-32781373D01*
X97473004Y-32757104D01*
X97471800Y-32732600D01*
X97471800Y-31732600D01*
X97473004Y-31708096D01*
X97476604Y-31683827D01*
X97482565Y-31660029D01*
X97490830Y-31636929D01*
X97501320Y-31614751D01*
X97513933Y-31593707D01*
X97528547Y-31574002D01*
X97545023Y-31555823D01*
X97563202Y-31539347D01*
X97582907Y-31524733D01*
X97603951Y-31512120D01*
X97626129Y-31501630D01*
X97649229Y-31493365D01*
X97673027Y-31487404D01*
X97697296Y-31483804D01*
X97721800Y-31482600D01*
X98721800Y-31482600D01*
X98746304Y-31483804D01*
G37*
G04 #@! TD.AperFunction*
D15*
X84429600Y-44043600D02*
X78917800Y-38531800D01*
X90424000Y-44043600D02*
X84429600Y-44043600D01*
D16*
G36*
X108833305Y-22693033D02*
G01*
X109169887Y-22794653D01*
X109480319Y-22959712D01*
X109752777Y-23181923D01*
X109976888Y-23452827D01*
X110144110Y-23762096D01*
X110248078Y-24097960D01*
X110288399Y-24481591D01*
X110288398Y-76494262D01*
X110250566Y-76880107D01*
X110148946Y-77216687D01*
X109983884Y-77527121D01*
X109761672Y-77799580D01*
X109490771Y-78023688D01*
X109181498Y-78190912D01*
X108845637Y-78294878D01*
X108462017Y-78335198D01*
X47559356Y-78335200D01*
X47173491Y-78297366D01*
X46836911Y-78195746D01*
X46526477Y-78030684D01*
X46254018Y-77808472D01*
X46029910Y-77537571D01*
X45862686Y-77228298D01*
X45758720Y-76892437D01*
X45718400Y-76508817D01*
X45718400Y-75678041D01*
X45953567Y-75678041D01*
X45953567Y-76112355D01*
X46038298Y-76538324D01*
X46204502Y-76939577D01*
X46445794Y-77300696D01*
X46752901Y-77607803D01*
X47114020Y-77849095D01*
X47515273Y-78015299D01*
X47941242Y-78100030D01*
X48375556Y-78100030D01*
X48801525Y-78015299D01*
X49202778Y-77849095D01*
X49563897Y-77607803D01*
X49871004Y-77300696D01*
X50112296Y-76939577D01*
X50278500Y-76538324D01*
X50363231Y-76112355D01*
X50363231Y-75678041D01*
X105643567Y-75678041D01*
X105643567Y-76112355D01*
X105728298Y-76538324D01*
X105894502Y-76939577D01*
X106135794Y-77300696D01*
X106442901Y-77607803D01*
X106804020Y-77849095D01*
X107205273Y-78015299D01*
X107631242Y-78100030D01*
X108065556Y-78100030D01*
X108491525Y-78015299D01*
X108892778Y-77849095D01*
X109253897Y-77607803D01*
X109561004Y-77300696D01*
X109802296Y-76939577D01*
X109968500Y-76538324D01*
X110053231Y-76112355D01*
X110053231Y-75678041D01*
X109968500Y-75252072D01*
X109802296Y-74850819D01*
X109561004Y-74489700D01*
X109253897Y-74182593D01*
X108892778Y-73941301D01*
X108491525Y-73775097D01*
X108065556Y-73690366D01*
X107631242Y-73690366D01*
X107205273Y-73775097D01*
X106804020Y-73941301D01*
X106442901Y-74182593D01*
X106135794Y-74489700D01*
X105894502Y-74850819D01*
X105728298Y-75252072D01*
X105643567Y-75678041D01*
X50363231Y-75678041D01*
X50278500Y-75252072D01*
X50112296Y-74850819D01*
X49871004Y-74489700D01*
X49563897Y-74182593D01*
X49202778Y-73941301D01*
X48801525Y-73775097D01*
X48375556Y-73690366D01*
X47941242Y-73690366D01*
X47515273Y-73775097D01*
X47114020Y-73941301D01*
X46752901Y-74182593D01*
X46445794Y-74489700D01*
X46204502Y-74850819D01*
X46038298Y-75252072D01*
X45953567Y-75678041D01*
X45718400Y-75678041D01*
X45718400Y-72306612D01*
X89438600Y-72306612D01*
X89438600Y-72530188D01*
X89482217Y-72749467D01*
X89567776Y-72956024D01*
X89691988Y-73141920D01*
X89850080Y-73300012D01*
X90035976Y-73424224D01*
X90242533Y-73509783D01*
X90461812Y-73553400D01*
X90685388Y-73553400D01*
X90904667Y-73509783D01*
X91111224Y-73424224D01*
X91297120Y-73300012D01*
X91455212Y-73141920D01*
X91579424Y-72956024D01*
X91664983Y-72749467D01*
X91708600Y-72530188D01*
X91708600Y-72306612D01*
X91664983Y-72087333D01*
X91579424Y-71880776D01*
X91455212Y-71694880D01*
X91297120Y-71536788D01*
X91111224Y-71412576D01*
X90940813Y-71341989D01*
X92188600Y-71341989D01*
X92188600Y-71614811D01*
X92241825Y-71882389D01*
X92346229Y-72134443D01*
X92497801Y-72361286D01*
X92690714Y-72554199D01*
X92917557Y-72705771D01*
X93169611Y-72810175D01*
X93437189Y-72863400D01*
X93710011Y-72863400D01*
X93977589Y-72810175D01*
X94229643Y-72705771D01*
X94456486Y-72554199D01*
X94649399Y-72361286D01*
X94800971Y-72134443D01*
X94905375Y-71882389D01*
X94958600Y-71614811D01*
X94958600Y-71341989D01*
X95188600Y-71341989D01*
X95188600Y-71614811D01*
X95241825Y-71882389D01*
X95346229Y-72134443D01*
X95497801Y-72361286D01*
X95690714Y-72554199D01*
X95917557Y-72705771D01*
X96169611Y-72810175D01*
X96437189Y-72863400D01*
X96710011Y-72863400D01*
X96977589Y-72810175D01*
X97229643Y-72705771D01*
X97456486Y-72554199D01*
X97649399Y-72361286D01*
X97800971Y-72134443D01*
X97905375Y-71882389D01*
X97958600Y-71614811D01*
X97958600Y-71341989D01*
X98188600Y-71341989D01*
X98188600Y-71614811D01*
X98241825Y-71882389D01*
X98346229Y-72134443D01*
X98497801Y-72361286D01*
X98690714Y-72554199D01*
X98917557Y-72705771D01*
X99169611Y-72810175D01*
X99437189Y-72863400D01*
X99710011Y-72863400D01*
X99977589Y-72810175D01*
X100229643Y-72705771D01*
X100456486Y-72554199D01*
X100649399Y-72361286D01*
X100685931Y-72306612D01*
X101438600Y-72306612D01*
X101438600Y-72530188D01*
X101482217Y-72749467D01*
X101567776Y-72956024D01*
X101691988Y-73141920D01*
X101850080Y-73300012D01*
X102035976Y-73424224D01*
X102242533Y-73509783D01*
X102461812Y-73553400D01*
X102685388Y-73553400D01*
X102904667Y-73509783D01*
X103111224Y-73424224D01*
X103297120Y-73300012D01*
X103455212Y-73141920D01*
X103579424Y-72956024D01*
X103664983Y-72749467D01*
X103708600Y-72530188D01*
X103708600Y-72306612D01*
X103664983Y-72087333D01*
X103579424Y-71880776D01*
X103455212Y-71694880D01*
X103297120Y-71536788D01*
X103111224Y-71412576D01*
X102904667Y-71327017D01*
X102685388Y-71283400D01*
X102461812Y-71283400D01*
X102242533Y-71327017D01*
X102035976Y-71412576D01*
X101850080Y-71536788D01*
X101691988Y-71694880D01*
X101567776Y-71880776D01*
X101482217Y-72087333D01*
X101438600Y-72306612D01*
X100685931Y-72306612D01*
X100800971Y-72134443D01*
X100905375Y-71882389D01*
X100958600Y-71614811D01*
X100958600Y-71341989D01*
X100905375Y-71074411D01*
X100800971Y-70822357D01*
X100649399Y-70595514D01*
X100456486Y-70402601D01*
X100229643Y-70251029D01*
X99977589Y-70146625D01*
X99710011Y-70093400D01*
X99437189Y-70093400D01*
X99169611Y-70146625D01*
X98917557Y-70251029D01*
X98690714Y-70402601D01*
X98497801Y-70595514D01*
X98346229Y-70822357D01*
X98241825Y-71074411D01*
X98188600Y-71341989D01*
X97958600Y-71341989D01*
X97905375Y-71074411D01*
X97800971Y-70822357D01*
X97649399Y-70595514D01*
X97456486Y-70402601D01*
X97229643Y-70251029D01*
X96977589Y-70146625D01*
X96710011Y-70093400D01*
X96437189Y-70093400D01*
X96169611Y-70146625D01*
X95917557Y-70251029D01*
X95690714Y-70402601D01*
X95497801Y-70595514D01*
X95346229Y-70822357D01*
X95241825Y-71074411D01*
X95188600Y-71341989D01*
X94958600Y-71341989D01*
X94905375Y-71074411D01*
X94800971Y-70822357D01*
X94649399Y-70595514D01*
X94456486Y-70402601D01*
X94229643Y-70251029D01*
X93977589Y-70146625D01*
X93710011Y-70093400D01*
X93437189Y-70093400D01*
X93169611Y-70146625D01*
X92917557Y-70251029D01*
X92690714Y-70402601D01*
X92497801Y-70595514D01*
X92346229Y-70822357D01*
X92241825Y-71074411D01*
X92188600Y-71341989D01*
X90940813Y-71341989D01*
X90904667Y-71327017D01*
X90685388Y-71283400D01*
X90461812Y-71283400D01*
X90242533Y-71327017D01*
X90035976Y-71412576D01*
X89850080Y-71536788D01*
X89691988Y-71694880D01*
X89567776Y-71880776D01*
X89482217Y-72087333D01*
X89438600Y-72306612D01*
X45718400Y-72306612D01*
X45718400Y-69228400D01*
X92185528Y-69228400D01*
X92197788Y-69352882D01*
X92234098Y-69472580D01*
X92293063Y-69582894D01*
X92372415Y-69679585D01*
X92469106Y-69758937D01*
X92579420Y-69817902D01*
X92699118Y-69854212D01*
X92823600Y-69866472D01*
X93287850Y-69863400D01*
X93446600Y-69704650D01*
X93446600Y-68605400D01*
X93700600Y-68605400D01*
X93700600Y-69704650D01*
X93859350Y-69863400D01*
X94323600Y-69866472D01*
X94448082Y-69854212D01*
X94567780Y-69817902D01*
X94678094Y-69758937D01*
X94774785Y-69679585D01*
X94854137Y-69582894D01*
X94913102Y-69472580D01*
X94949412Y-69352882D01*
X94961672Y-69228400D01*
X94958600Y-68764150D01*
X94799850Y-68605400D01*
X93700600Y-68605400D01*
X93446600Y-68605400D01*
X92347350Y-68605400D01*
X92188600Y-68764150D01*
X92185528Y-69228400D01*
X45718400Y-69228400D01*
X45718400Y-64994012D01*
X49890600Y-64994012D01*
X49890600Y-65217588D01*
X49934217Y-65436867D01*
X50019776Y-65643424D01*
X50143988Y-65829320D01*
X50302080Y-65987412D01*
X50487976Y-66111624D01*
X50694533Y-66197183D01*
X50913812Y-66240800D01*
X51137388Y-66240800D01*
X51356667Y-66197183D01*
X51563224Y-66111624D01*
X51749120Y-65987412D01*
X51907212Y-65829320D01*
X52031424Y-65643424D01*
X52116983Y-65436867D01*
X52160600Y-65217588D01*
X52160600Y-64994012D01*
X52116983Y-64774733D01*
X52031424Y-64568176D01*
X51907212Y-64382280D01*
X51749120Y-64224188D01*
X51563224Y-64099976D01*
X51356667Y-64014417D01*
X51137388Y-63970800D01*
X50913812Y-63970800D01*
X50694533Y-64014417D01*
X50487976Y-64099976D01*
X50302080Y-64224188D01*
X50143988Y-64382280D01*
X50019776Y-64568176D01*
X49934217Y-64774733D01*
X49890600Y-64994012D01*
X45718400Y-64994012D01*
X45718400Y-61969389D01*
X50580600Y-61969389D01*
X50580600Y-62242211D01*
X50633825Y-62509789D01*
X50738229Y-62761843D01*
X50889801Y-62988686D01*
X51082714Y-63181599D01*
X51309557Y-63333171D01*
X51561611Y-63437575D01*
X51829189Y-63490800D01*
X52102011Y-63490800D01*
X52369589Y-63437575D01*
X52621643Y-63333171D01*
X52848486Y-63181599D01*
X53041399Y-62988686D01*
X53192971Y-62761843D01*
X53297375Y-62509789D01*
X53350600Y-62242211D01*
X53350600Y-61969389D01*
X53580600Y-61969389D01*
X53580600Y-62242211D01*
X53633825Y-62509789D01*
X53738229Y-62761843D01*
X53889801Y-62988686D01*
X54082714Y-63181599D01*
X54309557Y-63333171D01*
X54561611Y-63437575D01*
X54829189Y-63490800D01*
X55102011Y-63490800D01*
X55369589Y-63437575D01*
X55621643Y-63333171D01*
X55848486Y-63181599D01*
X56041399Y-62988686D01*
X56192971Y-62761843D01*
X56297375Y-62509789D01*
X56350600Y-62242211D01*
X56350600Y-61969389D01*
X56297375Y-61701811D01*
X56192971Y-61449757D01*
X56041399Y-61222914D01*
X55848486Y-61030001D01*
X55621643Y-60878429D01*
X55369589Y-60774025D01*
X55102011Y-60720800D01*
X54829189Y-60720800D01*
X54561611Y-60774025D01*
X54309557Y-60878429D01*
X54082714Y-61030001D01*
X53889801Y-61222914D01*
X53738229Y-61449757D01*
X53633825Y-61701811D01*
X53580600Y-61969389D01*
X53350600Y-61969389D01*
X53297375Y-61701811D01*
X53192971Y-61449757D01*
X53041399Y-61222914D01*
X52848486Y-61030001D01*
X52621643Y-60878429D01*
X52369589Y-60774025D01*
X52102011Y-60720800D01*
X51829189Y-60720800D01*
X51561611Y-60774025D01*
X51309557Y-60878429D01*
X51082714Y-61030001D01*
X50889801Y-61222914D01*
X50738229Y-61449757D01*
X50633825Y-61701811D01*
X50580600Y-61969389D01*
X45718400Y-61969389D01*
X45718400Y-58969389D01*
X50580600Y-58969389D01*
X50580600Y-59242211D01*
X50633825Y-59509789D01*
X50738229Y-59761843D01*
X50889801Y-59988686D01*
X51082714Y-60181599D01*
X51309557Y-60333171D01*
X51561611Y-60437575D01*
X51829189Y-60490800D01*
X52102011Y-60490800D01*
X52369589Y-60437575D01*
X52621643Y-60333171D01*
X52848486Y-60181599D01*
X53041399Y-59988686D01*
X53130190Y-59855800D01*
X53577528Y-59855800D01*
X53589788Y-59980282D01*
X53626098Y-60099980D01*
X53685063Y-60210294D01*
X53764415Y-60306985D01*
X53861106Y-60386337D01*
X53971420Y-60445302D01*
X54091118Y-60481612D01*
X54215600Y-60493872D01*
X54679850Y-60490800D01*
X54838600Y-60332050D01*
X54838600Y-59232800D01*
X55092600Y-59232800D01*
X55092600Y-60332050D01*
X55251350Y-60490800D01*
X55715600Y-60493872D01*
X55840082Y-60481612D01*
X55959780Y-60445302D01*
X56070094Y-60386337D01*
X56166785Y-60306985D01*
X56246137Y-60210294D01*
X56305102Y-60099980D01*
X56341412Y-59980282D01*
X56353672Y-59855800D01*
X56350600Y-59391550D01*
X56191850Y-59232800D01*
X55092600Y-59232800D01*
X54838600Y-59232800D01*
X53739350Y-59232800D01*
X53580600Y-59391550D01*
X53577528Y-59855800D01*
X53130190Y-59855800D01*
X53192971Y-59761843D01*
X53297375Y-59509789D01*
X53350600Y-59242211D01*
X53350600Y-58969389D01*
X53297375Y-58701811D01*
X53192971Y-58449757D01*
X53130191Y-58355800D01*
X53577528Y-58355800D01*
X53580600Y-58820050D01*
X53739350Y-58978800D01*
X54838600Y-58978800D01*
X54838600Y-57879550D01*
X55092600Y-57879550D01*
X55092600Y-58978800D01*
X56191850Y-58978800D01*
X56350600Y-58820050D01*
X56353672Y-58355800D01*
X56341412Y-58231318D01*
X56305102Y-58111620D01*
X56246137Y-58001306D01*
X56166785Y-57904615D01*
X56070094Y-57825263D01*
X55959780Y-57766298D01*
X55840082Y-57729988D01*
X55715600Y-57717728D01*
X55251350Y-57720800D01*
X55092600Y-57879550D01*
X54838600Y-57879550D01*
X54679850Y-57720800D01*
X54215600Y-57717728D01*
X54091118Y-57729988D01*
X53971420Y-57766298D01*
X53861106Y-57825263D01*
X53764415Y-57904615D01*
X53685063Y-58001306D01*
X53626098Y-58111620D01*
X53589788Y-58231318D01*
X53577528Y-58355800D01*
X53130191Y-58355800D01*
X53041399Y-58222914D01*
X52848486Y-58030001D01*
X52621643Y-57878429D01*
X52369589Y-57774025D01*
X52102011Y-57720800D01*
X51829189Y-57720800D01*
X51561611Y-57774025D01*
X51309557Y-57878429D01*
X51082714Y-58030001D01*
X50889801Y-58222914D01*
X50738229Y-58449757D01*
X50633825Y-58701811D01*
X50580600Y-58969389D01*
X45718400Y-58969389D01*
X45718400Y-55994012D01*
X49890600Y-55994012D01*
X49890600Y-56217588D01*
X49934217Y-56436867D01*
X50019776Y-56643424D01*
X50143988Y-56829320D01*
X50302080Y-56987412D01*
X50487976Y-57111624D01*
X50694533Y-57197183D01*
X50913812Y-57240800D01*
X51137388Y-57240800D01*
X51356667Y-57197183D01*
X51563224Y-57111624D01*
X51749120Y-56987412D01*
X51907212Y-56829320D01*
X52031424Y-56643424D01*
X52116983Y-56436867D01*
X52160600Y-56217588D01*
X52160600Y-55994012D01*
X52116983Y-55774733D01*
X52031424Y-55568176D01*
X51907212Y-55382280D01*
X51749120Y-55224188D01*
X51563224Y-55099976D01*
X51356667Y-55014417D01*
X51137388Y-54970800D01*
X50913812Y-54970800D01*
X50694533Y-55014417D01*
X50487976Y-55099976D01*
X50302080Y-55224188D01*
X50143988Y-55382280D01*
X50019776Y-55568176D01*
X49934217Y-55774733D01*
X49890600Y-55994012D01*
X45718400Y-55994012D01*
X45718400Y-49116212D01*
X50093800Y-49116212D01*
X50093800Y-49339788D01*
X50137417Y-49559067D01*
X50222976Y-49765624D01*
X50347188Y-49951520D01*
X50505280Y-50109612D01*
X50691176Y-50233824D01*
X50897733Y-50319383D01*
X51117012Y-50363000D01*
X51340588Y-50363000D01*
X51559867Y-50319383D01*
X51766424Y-50233824D01*
X51952320Y-50109612D01*
X52110412Y-49951520D01*
X52234624Y-49765624D01*
X52320183Y-49559067D01*
X52363800Y-49339788D01*
X52363800Y-49116212D01*
X52320183Y-48896933D01*
X52234624Y-48690376D01*
X52110412Y-48504480D01*
X51952320Y-48346388D01*
X51766424Y-48222176D01*
X51559867Y-48136617D01*
X51340588Y-48093000D01*
X51117012Y-48093000D01*
X50897733Y-48136617D01*
X50691176Y-48222176D01*
X50505280Y-48346388D01*
X50347188Y-48504480D01*
X50222976Y-48690376D01*
X50137417Y-48896933D01*
X50093800Y-49116212D01*
X45718400Y-49116212D01*
X45718400Y-46091589D01*
X50783800Y-46091589D01*
X50783800Y-46364411D01*
X50837025Y-46631989D01*
X50941429Y-46884043D01*
X51093001Y-47110886D01*
X51285914Y-47303799D01*
X51512757Y-47455371D01*
X51764811Y-47559775D01*
X52032389Y-47613000D01*
X52305211Y-47613000D01*
X52572789Y-47559775D01*
X52824843Y-47455371D01*
X53051686Y-47303799D01*
X53244599Y-47110886D01*
X53333390Y-46978000D01*
X53780728Y-46978000D01*
X53792988Y-47102482D01*
X53829298Y-47222180D01*
X53888263Y-47332494D01*
X53967615Y-47429185D01*
X54064306Y-47508537D01*
X54174620Y-47567502D01*
X54294318Y-47603812D01*
X54418800Y-47616072D01*
X54883050Y-47613000D01*
X55041800Y-47454250D01*
X55041800Y-46355000D01*
X55295800Y-46355000D01*
X55295800Y-47454250D01*
X55454550Y-47613000D01*
X55918800Y-47616072D01*
X56043282Y-47603812D01*
X56162980Y-47567502D01*
X56273294Y-47508537D01*
X56369985Y-47429185D01*
X56449337Y-47332494D01*
X56508302Y-47222180D01*
X56544612Y-47102482D01*
X56556872Y-46978000D01*
X56553800Y-46513750D01*
X56395050Y-46355000D01*
X55295800Y-46355000D01*
X55041800Y-46355000D01*
X53942550Y-46355000D01*
X53783800Y-46513750D01*
X53780728Y-46978000D01*
X53333390Y-46978000D01*
X53396171Y-46884043D01*
X53500575Y-46631989D01*
X53553800Y-46364411D01*
X53553800Y-46091589D01*
X53500575Y-45824011D01*
X53396171Y-45571957D01*
X53333391Y-45478000D01*
X53780728Y-45478000D01*
X53783800Y-45942250D01*
X53942550Y-46101000D01*
X55041800Y-46101000D01*
X55041800Y-45001750D01*
X55295800Y-45001750D01*
X55295800Y-46101000D01*
X56395050Y-46101000D01*
X56553800Y-45942250D01*
X56556872Y-45478000D01*
X56544612Y-45353518D01*
X56508302Y-45233820D01*
X56449337Y-45123506D01*
X56369985Y-45026815D01*
X56273294Y-44947463D01*
X56162980Y-44888498D01*
X56043282Y-44852188D01*
X55918800Y-44839928D01*
X55454550Y-44843000D01*
X55295800Y-45001750D01*
X55041800Y-45001750D01*
X54883050Y-44843000D01*
X54418800Y-44839928D01*
X54294318Y-44852188D01*
X54174620Y-44888498D01*
X54064306Y-44947463D01*
X53967615Y-45026815D01*
X53888263Y-45123506D01*
X53829298Y-45233820D01*
X53792988Y-45353518D01*
X53780728Y-45478000D01*
X53333391Y-45478000D01*
X53244599Y-45345114D01*
X53051686Y-45152201D01*
X52824843Y-45000629D01*
X52572789Y-44896225D01*
X52305211Y-44843000D01*
X52032389Y-44843000D01*
X51764811Y-44896225D01*
X51512757Y-45000629D01*
X51285914Y-45152201D01*
X51093001Y-45345114D01*
X50941429Y-45571957D01*
X50837025Y-45824011D01*
X50783800Y-46091589D01*
X45718400Y-46091589D01*
X45718400Y-43116212D01*
X50093800Y-43116212D01*
X50093800Y-43339788D01*
X50137417Y-43559067D01*
X50222976Y-43765624D01*
X50347188Y-43951520D01*
X50505280Y-44109612D01*
X50691176Y-44233824D01*
X50897733Y-44319383D01*
X51117012Y-44363000D01*
X51340588Y-44363000D01*
X51559867Y-44319383D01*
X51766424Y-44233824D01*
X51952320Y-44109612D01*
X52110412Y-43951520D01*
X52234624Y-43765624D01*
X52320183Y-43559067D01*
X52363800Y-43339788D01*
X52363800Y-43116212D01*
X52320183Y-42896933D01*
X52234624Y-42690376D01*
X52110412Y-42504480D01*
X51952320Y-42346388D01*
X51766424Y-42222176D01*
X51559867Y-42136617D01*
X51340588Y-42093000D01*
X51117012Y-42093000D01*
X50897733Y-42136617D01*
X50691176Y-42222176D01*
X50505280Y-42346388D01*
X50347188Y-42504480D01*
X50222976Y-42690376D01*
X50137417Y-42896933D01*
X50093800Y-43116212D01*
X45718400Y-43116212D01*
X45718400Y-34302800D01*
X49565128Y-34302800D01*
X49565128Y-35902800D01*
X49577388Y-36027282D01*
X49613698Y-36146980D01*
X49672663Y-36257294D01*
X49752015Y-36353985D01*
X49848706Y-36433337D01*
X49959020Y-36492302D01*
X50078718Y-36528612D01*
X50203200Y-36540872D01*
X51803200Y-36540872D01*
X51927682Y-36528612D01*
X52047380Y-36492302D01*
X52157694Y-36433337D01*
X52254385Y-36353985D01*
X52333737Y-36257294D01*
X52392702Y-36146980D01*
X52408317Y-36095502D01*
X53990103Y-36095502D01*
X54061686Y-36339471D01*
X54317196Y-36460371D01*
X54591384Y-36529100D01*
X54873712Y-36543017D01*
X55153330Y-36501587D01*
X55419492Y-36406403D01*
X55544714Y-36339471D01*
X55616297Y-36095502D01*
X54803200Y-35282405D01*
X53990103Y-36095502D01*
X52408317Y-36095502D01*
X52429012Y-36027282D01*
X52441272Y-35902800D01*
X52441272Y-35173312D01*
X53362983Y-35173312D01*
X53404413Y-35452930D01*
X53499597Y-35719092D01*
X53566529Y-35844314D01*
X53810498Y-35915897D01*
X54623595Y-35102800D01*
X54982805Y-35102800D01*
X55795902Y-35915897D01*
X56039871Y-35844314D01*
X56160771Y-35588804D01*
X56229500Y-35314616D01*
X56243417Y-35032288D01*
X56201987Y-34752670D01*
X56106803Y-34486508D01*
X56039871Y-34361286D01*
X55795902Y-34289703D01*
X54982805Y-35102800D01*
X54623595Y-35102800D01*
X53810498Y-34289703D01*
X53566529Y-34361286D01*
X53445629Y-34616796D01*
X53376900Y-34890984D01*
X53362983Y-35173312D01*
X52441272Y-35173312D01*
X52441272Y-34302800D01*
X52429012Y-34178318D01*
X52408318Y-34110098D01*
X53990103Y-34110098D01*
X54803200Y-34923195D01*
X55616297Y-34110098D01*
X55544714Y-33866129D01*
X55289204Y-33745229D01*
X55015016Y-33676500D01*
X54732688Y-33662583D01*
X54453070Y-33704013D01*
X54186908Y-33799197D01*
X54061686Y-33866129D01*
X53990103Y-34110098D01*
X52408318Y-34110098D01*
X52392702Y-34058620D01*
X52333737Y-33948306D01*
X52254385Y-33851615D01*
X52157694Y-33772263D01*
X52047380Y-33713298D01*
X51927682Y-33676988D01*
X51803200Y-33664728D01*
X50203200Y-33664728D01*
X50078718Y-33676988D01*
X49959020Y-33713298D01*
X49848706Y-33772263D01*
X49752015Y-33851615D01*
X49672663Y-33948306D01*
X49613698Y-34058620D01*
X49577388Y-34178318D01*
X49565128Y-34302800D01*
X45718400Y-34302800D01*
X45718400Y-30770465D01*
X62242800Y-30770465D01*
X62242800Y-31053135D01*
X62297947Y-31330374D01*
X62406120Y-31591527D01*
X62563163Y-31826559D01*
X62763041Y-32026437D01*
X62995559Y-32181800D01*
X62763041Y-32337163D01*
X62563163Y-32537041D01*
X62406120Y-32772073D01*
X62297947Y-33033226D01*
X62242800Y-33310465D01*
X62242800Y-33593135D01*
X62297947Y-33870374D01*
X62406120Y-34131527D01*
X62563163Y-34366559D01*
X62763041Y-34566437D01*
X62995559Y-34721800D01*
X62763041Y-34877163D01*
X62563163Y-35077041D01*
X62406120Y-35312073D01*
X62297947Y-35573226D01*
X62242800Y-35850465D01*
X62242800Y-36133135D01*
X62297947Y-36410374D01*
X62406120Y-36671527D01*
X62563163Y-36906559D01*
X62763041Y-37106437D01*
X62995559Y-37261800D01*
X62763041Y-37417163D01*
X62563163Y-37617041D01*
X62406120Y-37852073D01*
X62297947Y-38113226D01*
X62242800Y-38390465D01*
X62242800Y-38673135D01*
X62297947Y-38950374D01*
X62406120Y-39211527D01*
X62563163Y-39446559D01*
X62763041Y-39646437D01*
X62995559Y-39801800D01*
X62763041Y-39957163D01*
X62563163Y-40157041D01*
X62406120Y-40392073D01*
X62297947Y-40653226D01*
X62242800Y-40930465D01*
X62242800Y-41213135D01*
X62297947Y-41490374D01*
X62406120Y-41751527D01*
X62563163Y-41986559D01*
X62763041Y-42186437D01*
X62995559Y-42341800D01*
X62763041Y-42497163D01*
X62563163Y-42697041D01*
X62406120Y-42932073D01*
X62297947Y-43193226D01*
X62242800Y-43470465D01*
X62242800Y-43753135D01*
X62297947Y-44030374D01*
X62406120Y-44291527D01*
X62563163Y-44526559D01*
X62763041Y-44726437D01*
X62995559Y-44881800D01*
X62763041Y-45037163D01*
X62563163Y-45237041D01*
X62406120Y-45472073D01*
X62297947Y-45733226D01*
X62242800Y-46010465D01*
X62242800Y-46293135D01*
X62297947Y-46570374D01*
X62406120Y-46831527D01*
X62563163Y-47066559D01*
X62763041Y-47266437D01*
X62995559Y-47421800D01*
X62763041Y-47577163D01*
X62563163Y-47777041D01*
X62406120Y-48012073D01*
X62297947Y-48273226D01*
X62242800Y-48550465D01*
X62242800Y-48833135D01*
X62297947Y-49110374D01*
X62406120Y-49371527D01*
X62563163Y-49606559D01*
X62763041Y-49806437D01*
X62995559Y-49961800D01*
X62763041Y-50117163D01*
X62563163Y-50317041D01*
X62406120Y-50552073D01*
X62297947Y-50813226D01*
X62242800Y-51090465D01*
X62242800Y-51373135D01*
X62297947Y-51650374D01*
X62406120Y-51911527D01*
X62563163Y-52146559D01*
X62763041Y-52346437D01*
X62995559Y-52501800D01*
X62763041Y-52657163D01*
X62563163Y-52857041D01*
X62406120Y-53092073D01*
X62297947Y-53353226D01*
X62242800Y-53630465D01*
X62242800Y-53913135D01*
X62297947Y-54190374D01*
X62406120Y-54451527D01*
X62563163Y-54686559D01*
X62763041Y-54886437D01*
X62995559Y-55041800D01*
X62763041Y-55197163D01*
X62563163Y-55397041D01*
X62406120Y-55632073D01*
X62297947Y-55893226D01*
X62242800Y-56170465D01*
X62242800Y-56453135D01*
X62297947Y-56730374D01*
X62406120Y-56991527D01*
X62563163Y-57226559D01*
X62763041Y-57426437D01*
X62995559Y-57581800D01*
X62763041Y-57737163D01*
X62563163Y-57937041D01*
X62406120Y-58172073D01*
X62297947Y-58433226D01*
X62242800Y-58710465D01*
X62242800Y-58993135D01*
X62297947Y-59270374D01*
X62406120Y-59531527D01*
X62563163Y-59766559D01*
X62763041Y-59966437D01*
X62995559Y-60121800D01*
X62763041Y-60277163D01*
X62563163Y-60477041D01*
X62406120Y-60712073D01*
X62297947Y-60973226D01*
X62242800Y-61250465D01*
X62242800Y-61533135D01*
X62297947Y-61810374D01*
X62406120Y-62071527D01*
X62563163Y-62306559D01*
X62763041Y-62506437D01*
X62995559Y-62661800D01*
X62763041Y-62817163D01*
X62563163Y-63017041D01*
X62406120Y-63252073D01*
X62297947Y-63513226D01*
X62242800Y-63790465D01*
X62242800Y-64073135D01*
X62297947Y-64350374D01*
X62406120Y-64611527D01*
X62563163Y-64846559D01*
X62763041Y-65046437D01*
X62995559Y-65201800D01*
X62763041Y-65357163D01*
X62563163Y-65557041D01*
X62406120Y-65792073D01*
X62297947Y-66053226D01*
X62242800Y-66330465D01*
X62242800Y-66613135D01*
X62297947Y-66890374D01*
X62406120Y-67151527D01*
X62563163Y-67386559D01*
X62763041Y-67586437D01*
X62998073Y-67743480D01*
X63259226Y-67851653D01*
X63536465Y-67906800D01*
X63819135Y-67906800D01*
X64096374Y-67851653D01*
X64357527Y-67743480D01*
X64592559Y-67586437D01*
X64792437Y-67386559D01*
X64949480Y-67151527D01*
X65057653Y-66890374D01*
X65112800Y-66613135D01*
X65112800Y-66330465D01*
X65057653Y-66053226D01*
X64949480Y-65792073D01*
X64869117Y-65671800D01*
X77479728Y-65671800D01*
X77479728Y-67271800D01*
X77491988Y-67396282D01*
X77528298Y-67515980D01*
X77587263Y-67626294D01*
X77666615Y-67722985D01*
X77763306Y-67802337D01*
X77873620Y-67861302D01*
X77993318Y-67897612D01*
X78117800Y-67909872D01*
X79717800Y-67909872D01*
X79842282Y-67897612D01*
X79961980Y-67861302D01*
X80072294Y-67802337D01*
X80162386Y-67728400D01*
X92185528Y-67728400D01*
X92188600Y-68192650D01*
X92347350Y-68351400D01*
X93446600Y-68351400D01*
X93446600Y-67252150D01*
X93700600Y-67252150D01*
X93700600Y-68351400D01*
X94799850Y-68351400D01*
X94809261Y-68341989D01*
X95188600Y-68341989D01*
X95188600Y-68614811D01*
X95241825Y-68882389D01*
X95346229Y-69134443D01*
X95497801Y-69361286D01*
X95690714Y-69554199D01*
X95917557Y-69705771D01*
X96169611Y-69810175D01*
X96437189Y-69863400D01*
X96710011Y-69863400D01*
X96977589Y-69810175D01*
X97229643Y-69705771D01*
X97456486Y-69554199D01*
X97649399Y-69361286D01*
X97800971Y-69134443D01*
X97905375Y-68882389D01*
X97958600Y-68614811D01*
X97958600Y-68341989D01*
X98188600Y-68341989D01*
X98188600Y-68614811D01*
X98241825Y-68882389D01*
X98346229Y-69134443D01*
X98497801Y-69361286D01*
X98690714Y-69554199D01*
X98917557Y-69705771D01*
X99169611Y-69810175D01*
X99437189Y-69863400D01*
X99710011Y-69863400D01*
X99977589Y-69810175D01*
X100229643Y-69705771D01*
X100456486Y-69554199D01*
X100649399Y-69361286D01*
X100800971Y-69134443D01*
X100905375Y-68882389D01*
X100958600Y-68614811D01*
X100958600Y-68341989D01*
X100905375Y-68074411D01*
X100800971Y-67822357D01*
X100649399Y-67595514D01*
X100456486Y-67402601D01*
X100229643Y-67251029D01*
X99977589Y-67146625D01*
X99710011Y-67093400D01*
X99437189Y-67093400D01*
X99169611Y-67146625D01*
X98917557Y-67251029D01*
X98690714Y-67402601D01*
X98497801Y-67595514D01*
X98346229Y-67822357D01*
X98241825Y-68074411D01*
X98188600Y-68341989D01*
X97958600Y-68341989D01*
X97905375Y-68074411D01*
X97800971Y-67822357D01*
X97649399Y-67595514D01*
X97456486Y-67402601D01*
X97229643Y-67251029D01*
X96977589Y-67146625D01*
X96710011Y-67093400D01*
X96437189Y-67093400D01*
X96169611Y-67146625D01*
X95917557Y-67251029D01*
X95690714Y-67402601D01*
X95497801Y-67595514D01*
X95346229Y-67822357D01*
X95241825Y-68074411D01*
X95188600Y-68341989D01*
X94809261Y-68341989D01*
X94958600Y-68192650D01*
X94961672Y-67728400D01*
X94949412Y-67603918D01*
X94913102Y-67484220D01*
X94854137Y-67373906D01*
X94774785Y-67277215D01*
X94678094Y-67197863D01*
X94567780Y-67138898D01*
X94448082Y-67102588D01*
X94323600Y-67090328D01*
X93859350Y-67093400D01*
X93700600Y-67252150D01*
X93446600Y-67252150D01*
X93287850Y-67093400D01*
X92823600Y-67090328D01*
X92699118Y-67102588D01*
X92579420Y-67138898D01*
X92469106Y-67197863D01*
X92372415Y-67277215D01*
X92293063Y-67373906D01*
X92234098Y-67484220D01*
X92197788Y-67603918D01*
X92185528Y-67728400D01*
X80162386Y-67728400D01*
X80168985Y-67722985D01*
X80248337Y-67626294D01*
X80307302Y-67515980D01*
X80343612Y-67396282D01*
X80355872Y-67271800D01*
X80355872Y-65671800D01*
X80343612Y-65547318D01*
X80307302Y-65427620D01*
X80248337Y-65317306D01*
X80168985Y-65220615D01*
X80072294Y-65141263D01*
X79961980Y-65082298D01*
X79842282Y-65045988D01*
X79833839Y-65045157D01*
X80032437Y-64846559D01*
X80189480Y-64611527D01*
X80297653Y-64350374D01*
X80352800Y-64073135D01*
X80352800Y-63790465D01*
X80297653Y-63513226D01*
X80189480Y-63252073D01*
X80032437Y-63017041D01*
X79832559Y-62817163D01*
X79600041Y-62661800D01*
X79832559Y-62506437D01*
X80032437Y-62306559D01*
X80189480Y-62071527D01*
X80297653Y-61810374D01*
X80352800Y-61533135D01*
X80352800Y-61250465D01*
X80297653Y-60973226D01*
X80189480Y-60712073D01*
X80032437Y-60477041D01*
X79832559Y-60277163D01*
X79597527Y-60120120D01*
X79586935Y-60115733D01*
X79772931Y-60004185D01*
X79981319Y-59815214D01*
X80148837Y-59589220D01*
X80269046Y-59334887D01*
X80309704Y-59200839D01*
X80187715Y-58978800D01*
X79044800Y-58978800D01*
X79044800Y-58998800D01*
X78790800Y-58998800D01*
X78790800Y-58978800D01*
X77647885Y-58978800D01*
X77525896Y-59200839D01*
X77566554Y-59334887D01*
X77686763Y-59589220D01*
X77854281Y-59815214D01*
X78062669Y-60004185D01*
X78248665Y-60115733D01*
X78238073Y-60120120D01*
X78003041Y-60277163D01*
X77803163Y-60477041D01*
X77646120Y-60712073D01*
X77537947Y-60973226D01*
X77482800Y-61250465D01*
X77482800Y-61533135D01*
X77537947Y-61810374D01*
X77646120Y-62071527D01*
X77803163Y-62306559D01*
X78003041Y-62506437D01*
X78235559Y-62661800D01*
X78003041Y-62817163D01*
X77803163Y-63017041D01*
X77646120Y-63252073D01*
X77537947Y-63513226D01*
X77482800Y-63790465D01*
X77482800Y-64073135D01*
X77537947Y-64350374D01*
X77646120Y-64611527D01*
X77803163Y-64846559D01*
X78001761Y-65045157D01*
X77993318Y-65045988D01*
X77873620Y-65082298D01*
X77763306Y-65141263D01*
X77666615Y-65220615D01*
X77587263Y-65317306D01*
X77528298Y-65427620D01*
X77491988Y-65547318D01*
X77479728Y-65671800D01*
X64869117Y-65671800D01*
X64792437Y-65557041D01*
X64592559Y-65357163D01*
X64360041Y-65201800D01*
X64592559Y-65046437D01*
X64792437Y-64846559D01*
X64949480Y-64611527D01*
X65057653Y-64350374D01*
X65112800Y-64073135D01*
X65112800Y-63790465D01*
X65057653Y-63513226D01*
X64949480Y-63252073D01*
X64792437Y-63017041D01*
X64592559Y-62817163D01*
X64360041Y-62661800D01*
X64592559Y-62506437D01*
X64792437Y-62306559D01*
X64949480Y-62071527D01*
X65057653Y-61810374D01*
X65112800Y-61533135D01*
X65112800Y-61250465D01*
X65057653Y-60973226D01*
X64949480Y-60712073D01*
X64792437Y-60477041D01*
X64592559Y-60277163D01*
X64360041Y-60121800D01*
X64592559Y-59966437D01*
X64792437Y-59766559D01*
X64949480Y-59531527D01*
X65057653Y-59270374D01*
X65112800Y-58993135D01*
X65112800Y-58710465D01*
X65057653Y-58433226D01*
X64949480Y-58172073D01*
X64792437Y-57937041D01*
X64592559Y-57737163D01*
X64360041Y-57581800D01*
X64592559Y-57426437D01*
X64792437Y-57226559D01*
X64949480Y-56991527D01*
X65057653Y-56730374D01*
X65112800Y-56453135D01*
X65112800Y-56170465D01*
X65057653Y-55893226D01*
X64949480Y-55632073D01*
X64792437Y-55397041D01*
X64592559Y-55197163D01*
X64360041Y-55041800D01*
X64592559Y-54886437D01*
X64792437Y-54686559D01*
X64949480Y-54451527D01*
X65057653Y-54190374D01*
X65112800Y-53913135D01*
X65112800Y-53630465D01*
X65057653Y-53353226D01*
X64949480Y-53092073D01*
X64792437Y-52857041D01*
X64592559Y-52657163D01*
X64360041Y-52501800D01*
X64592559Y-52346437D01*
X64792437Y-52146559D01*
X64949480Y-51911527D01*
X65057653Y-51650374D01*
X65112800Y-51373135D01*
X65112800Y-51090465D01*
X65057653Y-50813226D01*
X64949480Y-50552073D01*
X64792437Y-50317041D01*
X64592559Y-50117163D01*
X64360041Y-49961800D01*
X64592559Y-49806437D01*
X64792437Y-49606559D01*
X64949480Y-49371527D01*
X65057653Y-49110374D01*
X65112800Y-48833135D01*
X65112800Y-48550465D01*
X65057653Y-48273226D01*
X64949480Y-48012073D01*
X64792437Y-47777041D01*
X64592559Y-47577163D01*
X64360041Y-47421800D01*
X64592559Y-47266437D01*
X64792437Y-47066559D01*
X64949480Y-46831527D01*
X65057653Y-46570374D01*
X65112800Y-46293135D01*
X65112800Y-46010465D01*
X65057653Y-45733226D01*
X64949480Y-45472073D01*
X64792437Y-45237041D01*
X64592559Y-45037163D01*
X64360041Y-44881800D01*
X64592559Y-44726437D01*
X64792437Y-44526559D01*
X64949480Y-44291527D01*
X65057653Y-44030374D01*
X65112800Y-43753135D01*
X65112800Y-43470465D01*
X65057653Y-43193226D01*
X64949480Y-42932073D01*
X64792437Y-42697041D01*
X64592559Y-42497163D01*
X64360041Y-42341800D01*
X64592559Y-42186437D01*
X64792437Y-41986559D01*
X64949480Y-41751527D01*
X65057653Y-41490374D01*
X65112800Y-41213135D01*
X65112800Y-40930465D01*
X65057653Y-40653226D01*
X64949480Y-40392073D01*
X64792437Y-40157041D01*
X64592559Y-39957163D01*
X64360041Y-39801800D01*
X64592559Y-39646437D01*
X64792437Y-39446559D01*
X64949480Y-39211527D01*
X65057653Y-38950374D01*
X65112800Y-38673135D01*
X65112800Y-38390465D01*
X65057653Y-38113226D01*
X64949480Y-37852073D01*
X64792437Y-37617041D01*
X64592559Y-37417163D01*
X64360041Y-37261800D01*
X64592559Y-37106437D01*
X64792437Y-36906559D01*
X64949480Y-36671527D01*
X65057653Y-36410374D01*
X65112800Y-36133135D01*
X65112800Y-35850465D01*
X65057653Y-35573226D01*
X64949480Y-35312073D01*
X64792437Y-35077041D01*
X64592559Y-34877163D01*
X64360041Y-34721800D01*
X64592559Y-34566437D01*
X64792437Y-34366559D01*
X64949480Y-34131527D01*
X65057653Y-33870374D01*
X65112800Y-33593135D01*
X65112800Y-33310465D01*
X65057653Y-33033226D01*
X64949480Y-32772073D01*
X64792437Y-32537041D01*
X64592559Y-32337163D01*
X64360041Y-32181800D01*
X64592559Y-32026437D01*
X64792437Y-31826559D01*
X64949480Y-31591527D01*
X65057653Y-31330374D01*
X65112800Y-31053135D01*
X65112800Y-30770465D01*
X77482800Y-30770465D01*
X77482800Y-31053135D01*
X77537947Y-31330374D01*
X77646120Y-31591527D01*
X77803163Y-31826559D01*
X78003041Y-32026437D01*
X78235559Y-32181800D01*
X78003041Y-32337163D01*
X77803163Y-32537041D01*
X77646120Y-32772073D01*
X77537947Y-33033226D01*
X77482800Y-33310465D01*
X77482800Y-33593135D01*
X77537947Y-33870374D01*
X77646120Y-34131527D01*
X77803163Y-34366559D01*
X78003041Y-34566437D01*
X78235559Y-34721800D01*
X78003041Y-34877163D01*
X77803163Y-35077041D01*
X77646120Y-35312073D01*
X77537947Y-35573226D01*
X77482800Y-35850465D01*
X77482800Y-36133135D01*
X77537947Y-36410374D01*
X77646120Y-36671527D01*
X77803163Y-36906559D01*
X78003041Y-37106437D01*
X78235559Y-37261800D01*
X78003041Y-37417163D01*
X77803163Y-37617041D01*
X77646120Y-37852073D01*
X77537947Y-38113226D01*
X77482800Y-38390465D01*
X77482800Y-38673135D01*
X77537947Y-38950374D01*
X77646120Y-39211527D01*
X77803163Y-39446559D01*
X78003041Y-39646437D01*
X78235559Y-39801800D01*
X78003041Y-39957163D01*
X77803163Y-40157041D01*
X77646120Y-40392073D01*
X77537947Y-40653226D01*
X77482800Y-40930465D01*
X77482800Y-41213135D01*
X77537947Y-41490374D01*
X77646120Y-41751527D01*
X77803163Y-41986559D01*
X78003041Y-42186437D01*
X78235559Y-42341800D01*
X78003041Y-42497163D01*
X77803163Y-42697041D01*
X77646120Y-42932073D01*
X77537947Y-43193226D01*
X77482800Y-43470465D01*
X77482800Y-43753135D01*
X77537947Y-44030374D01*
X77646120Y-44291527D01*
X77803163Y-44526559D01*
X78003041Y-44726437D01*
X78235559Y-44881800D01*
X78003041Y-45037163D01*
X77803163Y-45237041D01*
X77646120Y-45472073D01*
X77537947Y-45733226D01*
X77482800Y-46010465D01*
X77482800Y-46293135D01*
X77537947Y-46570374D01*
X77646120Y-46831527D01*
X77803163Y-47066559D01*
X78003041Y-47266437D01*
X78235559Y-47421800D01*
X78003041Y-47577163D01*
X77803163Y-47777041D01*
X77646120Y-48012073D01*
X77537947Y-48273226D01*
X77482800Y-48550465D01*
X77482800Y-48833135D01*
X77537947Y-49110374D01*
X77646120Y-49371527D01*
X77803163Y-49606559D01*
X78003041Y-49806437D01*
X78235559Y-49961800D01*
X78003041Y-50117163D01*
X77803163Y-50317041D01*
X77646120Y-50552073D01*
X77537947Y-50813226D01*
X77482800Y-51090465D01*
X77482800Y-51373135D01*
X77537947Y-51650374D01*
X77646120Y-51911527D01*
X77803163Y-52146559D01*
X78003041Y-52346437D01*
X78235559Y-52501800D01*
X78003041Y-52657163D01*
X77803163Y-52857041D01*
X77646120Y-53092073D01*
X77537947Y-53353226D01*
X77482800Y-53630465D01*
X77482800Y-53913135D01*
X77537947Y-54190374D01*
X77646120Y-54451527D01*
X77803163Y-54686559D01*
X78003041Y-54886437D01*
X78235559Y-55041800D01*
X78003041Y-55197163D01*
X77803163Y-55397041D01*
X77646120Y-55632073D01*
X77537947Y-55893226D01*
X77482800Y-56170465D01*
X77482800Y-56453135D01*
X77537947Y-56730374D01*
X77646120Y-56991527D01*
X77803163Y-57226559D01*
X78003041Y-57426437D01*
X78238073Y-57583480D01*
X78248665Y-57587867D01*
X78062669Y-57699415D01*
X77854281Y-57888386D01*
X77686763Y-58114380D01*
X77566554Y-58368713D01*
X77525896Y-58502761D01*
X77647885Y-58724800D01*
X78790800Y-58724800D01*
X78790800Y-58704800D01*
X79044800Y-58704800D01*
X79044800Y-58724800D01*
X80187715Y-58724800D01*
X80309704Y-58502761D01*
X80269046Y-58368713D01*
X80148837Y-58114380D01*
X79981319Y-57888386D01*
X79772931Y-57699415D01*
X79586935Y-57587867D01*
X79597527Y-57583480D01*
X79832559Y-57426437D01*
X80032437Y-57226559D01*
X80189480Y-56991527D01*
X80297653Y-56730374D01*
X80323135Y-56602265D01*
X88989000Y-56602265D01*
X88989000Y-56884935D01*
X89044147Y-57162174D01*
X89152320Y-57423327D01*
X89309363Y-57658359D01*
X89509241Y-57858237D01*
X89741759Y-58013600D01*
X89509241Y-58168963D01*
X89309363Y-58368841D01*
X89152320Y-58603873D01*
X89044147Y-58865026D01*
X88989000Y-59142265D01*
X88989000Y-59424935D01*
X89044147Y-59702174D01*
X89152320Y-59963327D01*
X89309363Y-60198359D01*
X89509241Y-60398237D01*
X89744273Y-60555280D01*
X90005426Y-60663453D01*
X90282665Y-60718600D01*
X90565335Y-60718600D01*
X90842574Y-60663453D01*
X91103727Y-60555280D01*
X91338759Y-60398237D01*
X91538637Y-60198359D01*
X91615316Y-60083600D01*
X101685928Y-60083600D01*
X101698188Y-60208082D01*
X101734498Y-60327780D01*
X101793463Y-60438094D01*
X101872815Y-60534785D01*
X101969506Y-60614137D01*
X102079820Y-60673102D01*
X102199518Y-60709412D01*
X102324000Y-60721672D01*
X102838250Y-60718600D01*
X102997000Y-60559850D01*
X102997000Y-59410600D01*
X103251000Y-59410600D01*
X103251000Y-60559850D01*
X103409750Y-60718600D01*
X103924000Y-60721672D01*
X104048482Y-60709412D01*
X104168180Y-60673102D01*
X104278494Y-60614137D01*
X104375185Y-60534785D01*
X104454537Y-60438094D01*
X104513502Y-60327780D01*
X104549812Y-60208082D01*
X104562072Y-60083600D01*
X104559000Y-59569350D01*
X104400250Y-59410600D01*
X103251000Y-59410600D01*
X102997000Y-59410600D01*
X101847750Y-59410600D01*
X101689000Y-59569350D01*
X101685928Y-60083600D01*
X91615316Y-60083600D01*
X91695680Y-59963327D01*
X91803853Y-59702174D01*
X91859000Y-59424935D01*
X91859000Y-59142265D01*
X91803853Y-58865026D01*
X91695680Y-58603873D01*
X91615317Y-58483600D01*
X101685928Y-58483600D01*
X101689000Y-58997850D01*
X101847750Y-59156600D01*
X102997000Y-59156600D01*
X102997000Y-59136600D01*
X103251000Y-59136600D01*
X103251000Y-59156600D01*
X104400250Y-59156600D01*
X104559000Y-58997850D01*
X104562072Y-58483600D01*
X104549812Y-58359118D01*
X104513502Y-58239420D01*
X104454537Y-58129106D01*
X104375185Y-58032415D01*
X104278494Y-57953063D01*
X104168180Y-57894098D01*
X104048482Y-57857788D01*
X104040039Y-57856957D01*
X104238637Y-57658359D01*
X104395680Y-57423327D01*
X104503853Y-57162174D01*
X104559000Y-56884935D01*
X104559000Y-56602265D01*
X104503853Y-56325026D01*
X104395680Y-56063873D01*
X104238637Y-55828841D01*
X104038759Y-55628963D01*
X103806241Y-55473600D01*
X104038759Y-55318237D01*
X104238637Y-55118359D01*
X104395680Y-54883327D01*
X104503853Y-54622174D01*
X104559000Y-54344935D01*
X104559000Y-54062265D01*
X104503853Y-53785026D01*
X104395680Y-53523873D01*
X104238637Y-53288841D01*
X104038759Y-53088963D01*
X103806241Y-52933600D01*
X104038759Y-52778237D01*
X104238637Y-52578359D01*
X104395680Y-52343327D01*
X104503853Y-52082174D01*
X104559000Y-51804935D01*
X104559000Y-51522265D01*
X104503853Y-51245026D01*
X104395680Y-50983873D01*
X104238637Y-50748841D01*
X104038759Y-50548963D01*
X103806241Y-50393600D01*
X104038759Y-50238237D01*
X104238637Y-50038359D01*
X104395680Y-49803327D01*
X104503853Y-49542174D01*
X104559000Y-49264935D01*
X104559000Y-48982265D01*
X104503853Y-48705026D01*
X104395680Y-48443873D01*
X104238637Y-48208841D01*
X104038759Y-48008963D01*
X103806241Y-47853600D01*
X104038759Y-47698237D01*
X104238637Y-47498359D01*
X104395680Y-47263327D01*
X104503853Y-47002174D01*
X104559000Y-46724935D01*
X104559000Y-46442265D01*
X104503853Y-46165026D01*
X104395680Y-45903873D01*
X104238637Y-45668841D01*
X104038759Y-45468963D01*
X103803727Y-45311920D01*
X103793135Y-45307533D01*
X103979131Y-45195985D01*
X104187519Y-45007014D01*
X104355037Y-44781020D01*
X104475246Y-44526687D01*
X104515904Y-44392639D01*
X104393915Y-44170600D01*
X103251000Y-44170600D01*
X103251000Y-44190600D01*
X102997000Y-44190600D01*
X102997000Y-44170600D01*
X101854085Y-44170600D01*
X101732096Y-44392639D01*
X101772754Y-44526687D01*
X101892963Y-44781020D01*
X102060481Y-45007014D01*
X102268869Y-45195985D01*
X102454865Y-45307533D01*
X102444273Y-45311920D01*
X102209241Y-45468963D01*
X102009363Y-45668841D01*
X101852320Y-45903873D01*
X101744147Y-46165026D01*
X101689000Y-46442265D01*
X101689000Y-46724935D01*
X101744147Y-47002174D01*
X101852320Y-47263327D01*
X102009363Y-47498359D01*
X102209241Y-47698237D01*
X102441759Y-47853600D01*
X102209241Y-48008963D01*
X102009363Y-48208841D01*
X101852320Y-48443873D01*
X101744147Y-48705026D01*
X101689000Y-48982265D01*
X101689000Y-49264935D01*
X101744147Y-49542174D01*
X101852320Y-49803327D01*
X102009363Y-50038359D01*
X102209241Y-50238237D01*
X102441759Y-50393600D01*
X102209241Y-50548963D01*
X102009363Y-50748841D01*
X101852320Y-50983873D01*
X101744147Y-51245026D01*
X101689000Y-51522265D01*
X101689000Y-51804935D01*
X101744147Y-52082174D01*
X101852320Y-52343327D01*
X102009363Y-52578359D01*
X102209241Y-52778237D01*
X102441759Y-52933600D01*
X102209241Y-53088963D01*
X102009363Y-53288841D01*
X101852320Y-53523873D01*
X101744147Y-53785026D01*
X101689000Y-54062265D01*
X101689000Y-54344935D01*
X101744147Y-54622174D01*
X101852320Y-54883327D01*
X102009363Y-55118359D01*
X102209241Y-55318237D01*
X102441759Y-55473600D01*
X102209241Y-55628963D01*
X102009363Y-55828841D01*
X101852320Y-56063873D01*
X101744147Y-56325026D01*
X101689000Y-56602265D01*
X101689000Y-56884935D01*
X101744147Y-57162174D01*
X101852320Y-57423327D01*
X102009363Y-57658359D01*
X102207961Y-57856957D01*
X102199518Y-57857788D01*
X102079820Y-57894098D01*
X101969506Y-57953063D01*
X101872815Y-58032415D01*
X101793463Y-58129106D01*
X101734498Y-58239420D01*
X101698188Y-58359118D01*
X101685928Y-58483600D01*
X91615317Y-58483600D01*
X91538637Y-58368841D01*
X91338759Y-58168963D01*
X91106241Y-58013600D01*
X91338759Y-57858237D01*
X91538637Y-57658359D01*
X91695680Y-57423327D01*
X91803853Y-57162174D01*
X91859000Y-56884935D01*
X91859000Y-56602265D01*
X91803853Y-56325026D01*
X91695680Y-56063873D01*
X91538637Y-55828841D01*
X91338759Y-55628963D01*
X91103727Y-55471920D01*
X91093135Y-55467533D01*
X91279131Y-55355985D01*
X91487519Y-55167014D01*
X91655037Y-54941020D01*
X91775246Y-54686687D01*
X91815904Y-54552639D01*
X91693915Y-54330600D01*
X90551000Y-54330600D01*
X90551000Y-54350600D01*
X90297000Y-54350600D01*
X90297000Y-54330600D01*
X89154085Y-54330600D01*
X89032096Y-54552639D01*
X89072754Y-54686687D01*
X89192963Y-54941020D01*
X89360481Y-55167014D01*
X89568869Y-55355985D01*
X89754865Y-55467533D01*
X89744273Y-55471920D01*
X89509241Y-55628963D01*
X89309363Y-55828841D01*
X89152320Y-56063873D01*
X89044147Y-56325026D01*
X88989000Y-56602265D01*
X80323135Y-56602265D01*
X80352800Y-56453135D01*
X80352800Y-56170465D01*
X80297653Y-55893226D01*
X80189480Y-55632073D01*
X80032437Y-55397041D01*
X79832559Y-55197163D01*
X79600041Y-55041800D01*
X79832559Y-54886437D01*
X80032437Y-54686559D01*
X80189480Y-54451527D01*
X80297653Y-54190374D01*
X80352800Y-53913135D01*
X80352800Y-53630465D01*
X80297653Y-53353226D01*
X80189480Y-53092073D01*
X80032437Y-52857041D01*
X79832559Y-52657163D01*
X79600041Y-52501800D01*
X79832559Y-52346437D01*
X80032437Y-52146559D01*
X80121919Y-52012639D01*
X89032096Y-52012639D01*
X89072754Y-52146687D01*
X89192963Y-52401020D01*
X89360481Y-52627014D01*
X89568869Y-52815985D01*
X89764982Y-52933600D01*
X89568869Y-53051215D01*
X89360481Y-53240186D01*
X89192963Y-53466180D01*
X89072754Y-53720513D01*
X89032096Y-53854561D01*
X89154085Y-54076600D01*
X90297000Y-54076600D01*
X90297000Y-51790600D01*
X90551000Y-51790600D01*
X90551000Y-54076600D01*
X91693915Y-54076600D01*
X91815904Y-53854561D01*
X91775246Y-53720513D01*
X91655037Y-53466180D01*
X91487519Y-53240186D01*
X91279131Y-53051215D01*
X91083018Y-52933600D01*
X91279131Y-52815985D01*
X91487519Y-52627014D01*
X91655037Y-52401020D01*
X91775246Y-52146687D01*
X91815904Y-52012639D01*
X91693915Y-51790600D01*
X90551000Y-51790600D01*
X90297000Y-51790600D01*
X89154085Y-51790600D01*
X89032096Y-52012639D01*
X80121919Y-52012639D01*
X80189480Y-51911527D01*
X80297653Y-51650374D01*
X80352800Y-51373135D01*
X80352800Y-51090465D01*
X80297653Y-50813226D01*
X80189480Y-50552073D01*
X80032437Y-50317041D01*
X79832559Y-50117163D01*
X79600041Y-49961800D01*
X79832559Y-49806437D01*
X80032437Y-49606559D01*
X80189480Y-49371527D01*
X80297653Y-49110374D01*
X80352800Y-48833135D01*
X80352800Y-48550465D01*
X80297653Y-48273226D01*
X80189480Y-48012073D01*
X80032437Y-47777041D01*
X79832559Y-47577163D01*
X79600041Y-47421800D01*
X79832559Y-47266437D01*
X80032437Y-47066559D01*
X80189480Y-46831527D01*
X80297653Y-46570374D01*
X80352800Y-46293135D01*
X80352800Y-46010465D01*
X80297653Y-45733226D01*
X80189480Y-45472073D01*
X80032437Y-45237041D01*
X79832559Y-45037163D01*
X79600041Y-44881800D01*
X79832559Y-44726437D01*
X80032437Y-44526559D01*
X80189480Y-44291527D01*
X80297653Y-44030374D01*
X80352800Y-43753135D01*
X80352800Y-43470465D01*
X80297653Y-43193226D01*
X80189480Y-42932073D01*
X80032437Y-42697041D01*
X79832559Y-42497163D01*
X79600041Y-42341800D01*
X79832559Y-42186437D01*
X80032437Y-41986559D01*
X80189480Y-41751527D01*
X80297653Y-41490374D01*
X80352800Y-41213135D01*
X80352800Y-41041601D01*
X83865801Y-44554603D01*
X83889599Y-44583601D01*
X84005324Y-44678574D01*
X84137353Y-44749146D01*
X84280614Y-44792603D01*
X84392267Y-44803600D01*
X84392276Y-44803600D01*
X84429599Y-44807276D01*
X84466922Y-44803600D01*
X89205957Y-44803600D01*
X89309363Y-44958359D01*
X89509241Y-45158237D01*
X89741759Y-45313600D01*
X89509241Y-45468963D01*
X89309363Y-45668841D01*
X89152320Y-45903873D01*
X89044147Y-46165026D01*
X88989000Y-46442265D01*
X88989000Y-46724935D01*
X89044147Y-47002174D01*
X89152320Y-47263327D01*
X89309363Y-47498359D01*
X89509241Y-47698237D01*
X89741759Y-47853600D01*
X89509241Y-48008963D01*
X89309363Y-48208841D01*
X89152320Y-48443873D01*
X89044147Y-48705026D01*
X88989000Y-48982265D01*
X88989000Y-49264935D01*
X89044147Y-49542174D01*
X89152320Y-49803327D01*
X89309363Y-50038359D01*
X89509241Y-50238237D01*
X89744273Y-50395280D01*
X89754865Y-50399667D01*
X89568869Y-50511215D01*
X89360481Y-50700186D01*
X89192963Y-50926180D01*
X89072754Y-51180513D01*
X89032096Y-51314561D01*
X89154085Y-51536600D01*
X90297000Y-51536600D01*
X90297000Y-51516600D01*
X90551000Y-51516600D01*
X90551000Y-51536600D01*
X91693915Y-51536600D01*
X91815904Y-51314561D01*
X91775246Y-51180513D01*
X91655037Y-50926180D01*
X91487519Y-50700186D01*
X91279131Y-50511215D01*
X91093135Y-50399667D01*
X91103727Y-50395280D01*
X91338759Y-50238237D01*
X91538637Y-50038359D01*
X91695680Y-49803327D01*
X91803853Y-49542174D01*
X91859000Y-49264935D01*
X91859000Y-48982265D01*
X91803853Y-48705026D01*
X91695680Y-48443873D01*
X91538637Y-48208841D01*
X91338759Y-48008963D01*
X91106241Y-47853600D01*
X91338759Y-47698237D01*
X91538637Y-47498359D01*
X91695680Y-47263327D01*
X91803853Y-47002174D01*
X91859000Y-46724935D01*
X91859000Y-46442265D01*
X91803853Y-46165026D01*
X91695680Y-45903873D01*
X91538637Y-45668841D01*
X91338759Y-45468963D01*
X91106241Y-45313600D01*
X91338759Y-45158237D01*
X91538637Y-44958359D01*
X91695680Y-44723327D01*
X91803853Y-44462174D01*
X91859000Y-44184935D01*
X91859000Y-43902265D01*
X91803853Y-43625026D01*
X91695680Y-43363873D01*
X91538637Y-43128841D01*
X91338759Y-42928963D01*
X91106241Y-42773600D01*
X91338759Y-42618237D01*
X91538637Y-42418359D01*
X91695680Y-42183327D01*
X91803853Y-41922174D01*
X91859000Y-41644935D01*
X91859000Y-41362265D01*
X101689000Y-41362265D01*
X101689000Y-41644935D01*
X101744147Y-41922174D01*
X101852320Y-42183327D01*
X102009363Y-42418359D01*
X102209241Y-42618237D01*
X102444273Y-42775280D01*
X102454865Y-42779667D01*
X102268869Y-42891215D01*
X102060481Y-43080186D01*
X101892963Y-43306180D01*
X101772754Y-43560513D01*
X101732096Y-43694561D01*
X101854085Y-43916600D01*
X102997000Y-43916600D01*
X102997000Y-43896600D01*
X103251000Y-43896600D01*
X103251000Y-43916600D01*
X104393915Y-43916600D01*
X104515904Y-43694561D01*
X104475246Y-43560513D01*
X104355037Y-43306180D01*
X104187519Y-43080186D01*
X103979131Y-42891215D01*
X103793135Y-42779667D01*
X103803727Y-42775280D01*
X104038759Y-42618237D01*
X104238637Y-42418359D01*
X104395680Y-42183327D01*
X104503853Y-41922174D01*
X104559000Y-41644935D01*
X104559000Y-41362265D01*
X104503853Y-41085026D01*
X104395680Y-40823873D01*
X104238637Y-40588841D01*
X104038759Y-40388963D01*
X103803727Y-40231920D01*
X103542574Y-40123747D01*
X103265335Y-40068600D01*
X102982665Y-40068600D01*
X102705426Y-40123747D01*
X102444273Y-40231920D01*
X102209241Y-40388963D01*
X102009363Y-40588841D01*
X101852320Y-40823873D01*
X101744147Y-41085026D01*
X101689000Y-41362265D01*
X91859000Y-41362265D01*
X91803853Y-41085026D01*
X91695680Y-40823873D01*
X91538637Y-40588841D01*
X91338759Y-40388963D01*
X91103727Y-40231920D01*
X90842574Y-40123747D01*
X90565335Y-40068600D01*
X90282665Y-40068600D01*
X90005426Y-40123747D01*
X89744273Y-40231920D01*
X89509241Y-40388963D01*
X89309363Y-40588841D01*
X89152320Y-40823873D01*
X89044147Y-41085026D01*
X88989000Y-41362265D01*
X88989000Y-41644935D01*
X89044147Y-41922174D01*
X89152320Y-42183327D01*
X89309363Y-42418359D01*
X89509241Y-42618237D01*
X89741759Y-42773600D01*
X89509241Y-42928963D01*
X89309363Y-43128841D01*
X89205957Y-43283600D01*
X84744402Y-43283600D01*
X80316488Y-38855687D01*
X80352800Y-38673135D01*
X80352800Y-38390465D01*
X80297653Y-38113226D01*
X80189480Y-37852073D01*
X80032437Y-37617041D01*
X79832559Y-37417163D01*
X79600041Y-37261800D01*
X79832559Y-37106437D01*
X80032437Y-36906559D01*
X80189480Y-36671527D01*
X80297653Y-36410374D01*
X80352800Y-36133135D01*
X80352800Y-35850465D01*
X80297653Y-35573226D01*
X80189480Y-35312073D01*
X80032437Y-35077041D01*
X79832559Y-34877163D01*
X79600041Y-34721800D01*
X79832559Y-34566437D01*
X80032437Y-34366559D01*
X80189480Y-34131527D01*
X80297653Y-33870374D01*
X80352800Y-33593135D01*
X80352800Y-33310465D01*
X80297653Y-33033226D01*
X80189480Y-32772073D01*
X80032437Y-32537041D01*
X79832559Y-32337163D01*
X79600041Y-32181800D01*
X79728167Y-32096189D01*
X93836800Y-32096189D01*
X93836800Y-32369011D01*
X93890025Y-32636589D01*
X93994429Y-32888643D01*
X94146001Y-33115486D01*
X94338914Y-33308399D01*
X94565757Y-33459971D01*
X94817811Y-33564375D01*
X95085389Y-33617600D01*
X95358211Y-33617600D01*
X95625789Y-33564375D01*
X95877843Y-33459971D01*
X96104686Y-33308399D01*
X96297599Y-33115486D01*
X96449171Y-32888643D01*
X96553575Y-32636589D01*
X96606800Y-32369011D01*
X96606800Y-32096189D01*
X96553575Y-31828611D01*
X96513807Y-31732600D01*
X96833728Y-31732600D01*
X96833728Y-32732600D01*
X96850792Y-32905854D01*
X96901328Y-33072450D01*
X96983395Y-33225986D01*
X97093838Y-33360562D01*
X97228414Y-33471005D01*
X97381950Y-33553072D01*
X97548546Y-33603608D01*
X97721800Y-33620672D01*
X98721800Y-33620672D01*
X98895054Y-33603608D01*
X99061650Y-33553072D01*
X99215186Y-33471005D01*
X99349762Y-33360562D01*
X99460205Y-33225986D01*
X99542272Y-33072450D01*
X99592808Y-32905854D01*
X99609872Y-32732600D01*
X99609872Y-31732600D01*
X99592808Y-31559346D01*
X99542272Y-31392750D01*
X99460205Y-31239214D01*
X99349762Y-31104638D01*
X99215186Y-30994195D01*
X99061650Y-30912128D01*
X98895054Y-30861592D01*
X98721800Y-30844528D01*
X97721800Y-30844528D01*
X97548546Y-30861592D01*
X97381950Y-30912128D01*
X97228414Y-30994195D01*
X97093838Y-31104638D01*
X96983395Y-31239214D01*
X96901328Y-31392750D01*
X96850792Y-31559346D01*
X96833728Y-31732600D01*
X96513807Y-31732600D01*
X96449171Y-31576557D01*
X96297599Y-31349714D01*
X96104686Y-31156801D01*
X95877843Y-31005229D01*
X95625789Y-30900825D01*
X95358211Y-30847600D01*
X95085389Y-30847600D01*
X94817811Y-30900825D01*
X94565757Y-31005229D01*
X94338914Y-31156801D01*
X94146001Y-31349714D01*
X93994429Y-31576557D01*
X93890025Y-31828611D01*
X93836800Y-32096189D01*
X79728167Y-32096189D01*
X79832559Y-32026437D01*
X80032437Y-31826559D01*
X80189480Y-31591527D01*
X80297653Y-31330374D01*
X80352800Y-31053135D01*
X80352800Y-30770465D01*
X80297653Y-30493226D01*
X80189480Y-30232073D01*
X80032437Y-29997041D01*
X79832559Y-29797163D01*
X79597527Y-29640120D01*
X79336374Y-29531947D01*
X79059135Y-29476800D01*
X78776465Y-29476800D01*
X78499226Y-29531947D01*
X78238073Y-29640120D01*
X78003041Y-29797163D01*
X77803163Y-29997041D01*
X77646120Y-30232073D01*
X77537947Y-30493226D01*
X77482800Y-30770465D01*
X65112800Y-30770465D01*
X65057653Y-30493226D01*
X64949480Y-30232073D01*
X64792437Y-29997041D01*
X64592559Y-29797163D01*
X64357527Y-29640120D01*
X64096374Y-29531947D01*
X63819135Y-29476800D01*
X63536465Y-29476800D01*
X63259226Y-29531947D01*
X62998073Y-29640120D01*
X62763041Y-29797163D01*
X62563163Y-29997041D01*
X62406120Y-30232073D01*
X62297947Y-30493226D01*
X62242800Y-30770465D01*
X45718400Y-30770465D01*
X45718400Y-28180812D01*
X91086800Y-28180812D01*
X91086800Y-28404388D01*
X91130417Y-28623667D01*
X91215976Y-28830224D01*
X91340188Y-29016120D01*
X91498280Y-29174212D01*
X91684176Y-29298424D01*
X91890733Y-29383983D01*
X92110012Y-29427600D01*
X92333588Y-29427600D01*
X92552867Y-29383983D01*
X92759424Y-29298424D01*
X92945320Y-29174212D01*
X93023343Y-29096189D01*
X93836800Y-29096189D01*
X93836800Y-29369011D01*
X93890025Y-29636589D01*
X93994429Y-29888643D01*
X94146001Y-30115486D01*
X94338914Y-30308399D01*
X94565757Y-30459971D01*
X94817811Y-30564375D01*
X95085389Y-30617600D01*
X95358211Y-30617600D01*
X95625789Y-30564375D01*
X95877843Y-30459971D01*
X96104686Y-30308399D01*
X96297599Y-30115486D01*
X96449171Y-29888643D01*
X96553575Y-29636589D01*
X96606800Y-29369011D01*
X96606800Y-29096189D01*
X96836800Y-29096189D01*
X96836800Y-29369011D01*
X96890025Y-29636589D01*
X96994429Y-29888643D01*
X97146001Y-30115486D01*
X97338914Y-30308399D01*
X97565757Y-30459971D01*
X97817811Y-30564375D01*
X98085389Y-30617600D01*
X98358211Y-30617600D01*
X98625789Y-30564375D01*
X98877843Y-30459971D01*
X99104686Y-30308399D01*
X99297599Y-30115486D01*
X99449171Y-29888643D01*
X99553575Y-29636589D01*
X99606800Y-29369011D01*
X99606800Y-29096189D01*
X99553575Y-28828611D01*
X99449171Y-28576557D01*
X99297599Y-28349714D01*
X99128697Y-28180812D01*
X100086800Y-28180812D01*
X100086800Y-28404388D01*
X100130417Y-28623667D01*
X100215976Y-28830224D01*
X100340188Y-29016120D01*
X100498280Y-29174212D01*
X100684176Y-29298424D01*
X100890733Y-29383983D01*
X101110012Y-29427600D01*
X101333588Y-29427600D01*
X101552867Y-29383983D01*
X101759424Y-29298424D01*
X101945320Y-29174212D01*
X102103412Y-29016120D01*
X102227624Y-28830224D01*
X102313183Y-28623667D01*
X102356800Y-28404388D01*
X102356800Y-28180812D01*
X102313183Y-27961533D01*
X102227624Y-27754976D01*
X102103412Y-27569080D01*
X101945320Y-27410988D01*
X101759424Y-27286776D01*
X101552867Y-27201217D01*
X101333588Y-27157600D01*
X101110012Y-27157600D01*
X100890733Y-27201217D01*
X100684176Y-27286776D01*
X100498280Y-27410988D01*
X100340188Y-27569080D01*
X100215976Y-27754976D01*
X100130417Y-27961533D01*
X100086800Y-28180812D01*
X99128697Y-28180812D01*
X99104686Y-28156801D01*
X98877843Y-28005229D01*
X98625789Y-27900825D01*
X98358211Y-27847600D01*
X98085389Y-27847600D01*
X97817811Y-27900825D01*
X97565757Y-28005229D01*
X97338914Y-28156801D01*
X97146001Y-28349714D01*
X96994429Y-28576557D01*
X96890025Y-28828611D01*
X96836800Y-29096189D01*
X96606800Y-29096189D01*
X96553575Y-28828611D01*
X96449171Y-28576557D01*
X96297599Y-28349714D01*
X96104686Y-28156801D01*
X95877843Y-28005229D01*
X95625789Y-27900825D01*
X95358211Y-27847600D01*
X95085389Y-27847600D01*
X94817811Y-27900825D01*
X94565757Y-28005229D01*
X94338914Y-28156801D01*
X94146001Y-28349714D01*
X93994429Y-28576557D01*
X93890025Y-28828611D01*
X93836800Y-29096189D01*
X93023343Y-29096189D01*
X93103412Y-29016120D01*
X93227624Y-28830224D01*
X93313183Y-28623667D01*
X93356800Y-28404388D01*
X93356800Y-28180812D01*
X93313183Y-27961533D01*
X93227624Y-27754976D01*
X93103412Y-27569080D01*
X92945320Y-27410988D01*
X92759424Y-27286776D01*
X92552867Y-27201217D01*
X92333588Y-27157600D01*
X92110012Y-27157600D01*
X91890733Y-27201217D01*
X91684176Y-27286776D01*
X91498280Y-27410988D01*
X91340188Y-27569080D01*
X91215976Y-27754976D01*
X91130417Y-27961533D01*
X91086800Y-28180812D01*
X45718400Y-28180812D01*
X45718400Y-24878043D01*
X45953567Y-24878043D01*
X45953567Y-25312357D01*
X46038298Y-25738326D01*
X46204502Y-26139579D01*
X46445794Y-26500698D01*
X46752901Y-26807805D01*
X47114020Y-27049097D01*
X47515273Y-27215301D01*
X47941242Y-27300032D01*
X48375556Y-27300032D01*
X48801525Y-27215301D01*
X49202778Y-27049097D01*
X49563897Y-26807805D01*
X49871004Y-26500698D01*
X50112296Y-26139579D01*
X50278500Y-25738326D01*
X50363231Y-25312357D01*
X50363231Y-24878043D01*
X50363231Y-24878042D01*
X105643566Y-24878042D01*
X105643566Y-25312356D01*
X105728297Y-25738325D01*
X105894501Y-26139578D01*
X106135793Y-26500697D01*
X106442900Y-26807804D01*
X106804019Y-27049096D01*
X107205272Y-27215300D01*
X107631241Y-27300031D01*
X108065555Y-27300031D01*
X108491524Y-27215300D01*
X108892777Y-27049096D01*
X109253896Y-26807804D01*
X109561003Y-26500697D01*
X109802295Y-26139578D01*
X109968499Y-25738325D01*
X110053230Y-25312356D01*
X110053230Y-24878042D01*
X109968499Y-24452073D01*
X109802295Y-24050820D01*
X109561003Y-23689701D01*
X109253896Y-23382594D01*
X108892777Y-23141302D01*
X108491524Y-22975098D01*
X108065555Y-22890367D01*
X107631241Y-22890367D01*
X107205272Y-22975098D01*
X106804019Y-23141302D01*
X106442900Y-23382594D01*
X106135793Y-23689701D01*
X105894501Y-24050820D01*
X105728297Y-24452073D01*
X105643566Y-24878042D01*
X50363231Y-24878042D01*
X50278500Y-24452074D01*
X50112296Y-24050821D01*
X49871004Y-23689702D01*
X49563897Y-23382595D01*
X49202778Y-23141303D01*
X48801525Y-22975099D01*
X48375556Y-22890368D01*
X47941242Y-22890368D01*
X47515273Y-22975099D01*
X47114020Y-23141303D01*
X46752901Y-23382595D01*
X46445794Y-23689702D01*
X46204502Y-24050821D01*
X46038298Y-24452074D01*
X45953567Y-24878043D01*
X45718400Y-24878043D01*
X45718400Y-24496147D01*
X45756233Y-24110293D01*
X45857853Y-23773711D01*
X46022912Y-23463279D01*
X46245123Y-23190821D01*
X46516027Y-22966710D01*
X46825296Y-22799488D01*
X47161160Y-22695520D01*
X47544782Y-22655200D01*
X108447451Y-22655200D01*
X108833305Y-22693033D01*
G37*
X108833305Y-22693033D02*
X109169887Y-22794653D01*
X109480319Y-22959712D01*
X109752777Y-23181923D01*
X109976888Y-23452827D01*
X110144110Y-23762096D01*
X110248078Y-24097960D01*
X110288399Y-24481591D01*
X110288398Y-76494262D01*
X110250566Y-76880107D01*
X110148946Y-77216687D01*
X109983884Y-77527121D01*
X109761672Y-77799580D01*
X109490771Y-78023688D01*
X109181498Y-78190912D01*
X108845637Y-78294878D01*
X108462017Y-78335198D01*
X47559356Y-78335200D01*
X47173491Y-78297366D01*
X46836911Y-78195746D01*
X46526477Y-78030684D01*
X46254018Y-77808472D01*
X46029910Y-77537571D01*
X45862686Y-77228298D01*
X45758720Y-76892437D01*
X45718400Y-76508817D01*
X45718400Y-75678041D01*
X45953567Y-75678041D01*
X45953567Y-76112355D01*
X46038298Y-76538324D01*
X46204502Y-76939577D01*
X46445794Y-77300696D01*
X46752901Y-77607803D01*
X47114020Y-77849095D01*
X47515273Y-78015299D01*
X47941242Y-78100030D01*
X48375556Y-78100030D01*
X48801525Y-78015299D01*
X49202778Y-77849095D01*
X49563897Y-77607803D01*
X49871004Y-77300696D01*
X50112296Y-76939577D01*
X50278500Y-76538324D01*
X50363231Y-76112355D01*
X50363231Y-75678041D01*
X105643567Y-75678041D01*
X105643567Y-76112355D01*
X105728298Y-76538324D01*
X105894502Y-76939577D01*
X106135794Y-77300696D01*
X106442901Y-77607803D01*
X106804020Y-77849095D01*
X107205273Y-78015299D01*
X107631242Y-78100030D01*
X108065556Y-78100030D01*
X108491525Y-78015299D01*
X108892778Y-77849095D01*
X109253897Y-77607803D01*
X109561004Y-77300696D01*
X109802296Y-76939577D01*
X109968500Y-76538324D01*
X110053231Y-76112355D01*
X110053231Y-75678041D01*
X109968500Y-75252072D01*
X109802296Y-74850819D01*
X109561004Y-74489700D01*
X109253897Y-74182593D01*
X108892778Y-73941301D01*
X108491525Y-73775097D01*
X108065556Y-73690366D01*
X107631242Y-73690366D01*
X107205273Y-73775097D01*
X106804020Y-73941301D01*
X106442901Y-74182593D01*
X106135794Y-74489700D01*
X105894502Y-74850819D01*
X105728298Y-75252072D01*
X105643567Y-75678041D01*
X50363231Y-75678041D01*
X50278500Y-75252072D01*
X50112296Y-74850819D01*
X49871004Y-74489700D01*
X49563897Y-74182593D01*
X49202778Y-73941301D01*
X48801525Y-73775097D01*
X48375556Y-73690366D01*
X47941242Y-73690366D01*
X47515273Y-73775097D01*
X47114020Y-73941301D01*
X46752901Y-74182593D01*
X46445794Y-74489700D01*
X46204502Y-74850819D01*
X46038298Y-75252072D01*
X45953567Y-75678041D01*
X45718400Y-75678041D01*
X45718400Y-72306612D01*
X89438600Y-72306612D01*
X89438600Y-72530188D01*
X89482217Y-72749467D01*
X89567776Y-72956024D01*
X89691988Y-73141920D01*
X89850080Y-73300012D01*
X90035976Y-73424224D01*
X90242533Y-73509783D01*
X90461812Y-73553400D01*
X90685388Y-73553400D01*
X90904667Y-73509783D01*
X91111224Y-73424224D01*
X91297120Y-73300012D01*
X91455212Y-73141920D01*
X91579424Y-72956024D01*
X91664983Y-72749467D01*
X91708600Y-72530188D01*
X91708600Y-72306612D01*
X91664983Y-72087333D01*
X91579424Y-71880776D01*
X91455212Y-71694880D01*
X91297120Y-71536788D01*
X91111224Y-71412576D01*
X90940813Y-71341989D01*
X92188600Y-71341989D01*
X92188600Y-71614811D01*
X92241825Y-71882389D01*
X92346229Y-72134443D01*
X92497801Y-72361286D01*
X92690714Y-72554199D01*
X92917557Y-72705771D01*
X93169611Y-72810175D01*
X93437189Y-72863400D01*
X93710011Y-72863400D01*
X93977589Y-72810175D01*
X94229643Y-72705771D01*
X94456486Y-72554199D01*
X94649399Y-72361286D01*
X94800971Y-72134443D01*
X94905375Y-71882389D01*
X94958600Y-71614811D01*
X94958600Y-71341989D01*
X95188600Y-71341989D01*
X95188600Y-71614811D01*
X95241825Y-71882389D01*
X95346229Y-72134443D01*
X95497801Y-72361286D01*
X95690714Y-72554199D01*
X95917557Y-72705771D01*
X96169611Y-72810175D01*
X96437189Y-72863400D01*
X96710011Y-72863400D01*
X96977589Y-72810175D01*
X97229643Y-72705771D01*
X97456486Y-72554199D01*
X97649399Y-72361286D01*
X97800971Y-72134443D01*
X97905375Y-71882389D01*
X97958600Y-71614811D01*
X97958600Y-71341989D01*
X98188600Y-71341989D01*
X98188600Y-71614811D01*
X98241825Y-71882389D01*
X98346229Y-72134443D01*
X98497801Y-72361286D01*
X98690714Y-72554199D01*
X98917557Y-72705771D01*
X99169611Y-72810175D01*
X99437189Y-72863400D01*
X99710011Y-72863400D01*
X99977589Y-72810175D01*
X100229643Y-72705771D01*
X100456486Y-72554199D01*
X100649399Y-72361286D01*
X100685931Y-72306612D01*
X101438600Y-72306612D01*
X101438600Y-72530188D01*
X101482217Y-72749467D01*
X101567776Y-72956024D01*
X101691988Y-73141920D01*
X101850080Y-73300012D01*
X102035976Y-73424224D01*
X102242533Y-73509783D01*
X102461812Y-73553400D01*
X102685388Y-73553400D01*
X102904667Y-73509783D01*
X103111224Y-73424224D01*
X103297120Y-73300012D01*
X103455212Y-73141920D01*
X103579424Y-72956024D01*
X103664983Y-72749467D01*
X103708600Y-72530188D01*
X103708600Y-72306612D01*
X103664983Y-72087333D01*
X103579424Y-71880776D01*
X103455212Y-71694880D01*
X103297120Y-71536788D01*
X103111224Y-71412576D01*
X102904667Y-71327017D01*
X102685388Y-71283400D01*
X102461812Y-71283400D01*
X102242533Y-71327017D01*
X102035976Y-71412576D01*
X101850080Y-71536788D01*
X101691988Y-71694880D01*
X101567776Y-71880776D01*
X101482217Y-72087333D01*
X101438600Y-72306612D01*
X100685931Y-72306612D01*
X100800971Y-72134443D01*
X100905375Y-71882389D01*
X100958600Y-71614811D01*
X100958600Y-71341989D01*
X100905375Y-71074411D01*
X100800971Y-70822357D01*
X100649399Y-70595514D01*
X100456486Y-70402601D01*
X100229643Y-70251029D01*
X99977589Y-70146625D01*
X99710011Y-70093400D01*
X99437189Y-70093400D01*
X99169611Y-70146625D01*
X98917557Y-70251029D01*
X98690714Y-70402601D01*
X98497801Y-70595514D01*
X98346229Y-70822357D01*
X98241825Y-71074411D01*
X98188600Y-71341989D01*
X97958600Y-71341989D01*
X97905375Y-71074411D01*
X97800971Y-70822357D01*
X97649399Y-70595514D01*
X97456486Y-70402601D01*
X97229643Y-70251029D01*
X96977589Y-70146625D01*
X96710011Y-70093400D01*
X96437189Y-70093400D01*
X96169611Y-70146625D01*
X95917557Y-70251029D01*
X95690714Y-70402601D01*
X95497801Y-70595514D01*
X95346229Y-70822357D01*
X95241825Y-71074411D01*
X95188600Y-71341989D01*
X94958600Y-71341989D01*
X94905375Y-71074411D01*
X94800971Y-70822357D01*
X94649399Y-70595514D01*
X94456486Y-70402601D01*
X94229643Y-70251029D01*
X93977589Y-70146625D01*
X93710011Y-70093400D01*
X93437189Y-70093400D01*
X93169611Y-70146625D01*
X92917557Y-70251029D01*
X92690714Y-70402601D01*
X92497801Y-70595514D01*
X92346229Y-70822357D01*
X92241825Y-71074411D01*
X92188600Y-71341989D01*
X90940813Y-71341989D01*
X90904667Y-71327017D01*
X90685388Y-71283400D01*
X90461812Y-71283400D01*
X90242533Y-71327017D01*
X90035976Y-71412576D01*
X89850080Y-71536788D01*
X89691988Y-71694880D01*
X89567776Y-71880776D01*
X89482217Y-72087333D01*
X89438600Y-72306612D01*
X45718400Y-72306612D01*
X45718400Y-69228400D01*
X92185528Y-69228400D01*
X92197788Y-69352882D01*
X92234098Y-69472580D01*
X92293063Y-69582894D01*
X92372415Y-69679585D01*
X92469106Y-69758937D01*
X92579420Y-69817902D01*
X92699118Y-69854212D01*
X92823600Y-69866472D01*
X93287850Y-69863400D01*
X93446600Y-69704650D01*
X93446600Y-68605400D01*
X93700600Y-68605400D01*
X93700600Y-69704650D01*
X93859350Y-69863400D01*
X94323600Y-69866472D01*
X94448082Y-69854212D01*
X94567780Y-69817902D01*
X94678094Y-69758937D01*
X94774785Y-69679585D01*
X94854137Y-69582894D01*
X94913102Y-69472580D01*
X94949412Y-69352882D01*
X94961672Y-69228400D01*
X94958600Y-68764150D01*
X94799850Y-68605400D01*
X93700600Y-68605400D01*
X93446600Y-68605400D01*
X92347350Y-68605400D01*
X92188600Y-68764150D01*
X92185528Y-69228400D01*
X45718400Y-69228400D01*
X45718400Y-64994012D01*
X49890600Y-64994012D01*
X49890600Y-65217588D01*
X49934217Y-65436867D01*
X50019776Y-65643424D01*
X50143988Y-65829320D01*
X50302080Y-65987412D01*
X50487976Y-66111624D01*
X50694533Y-66197183D01*
X50913812Y-66240800D01*
X51137388Y-66240800D01*
X51356667Y-66197183D01*
X51563224Y-66111624D01*
X51749120Y-65987412D01*
X51907212Y-65829320D01*
X52031424Y-65643424D01*
X52116983Y-65436867D01*
X52160600Y-65217588D01*
X52160600Y-64994012D01*
X52116983Y-64774733D01*
X52031424Y-64568176D01*
X51907212Y-64382280D01*
X51749120Y-64224188D01*
X51563224Y-64099976D01*
X51356667Y-64014417D01*
X51137388Y-63970800D01*
X50913812Y-63970800D01*
X50694533Y-64014417D01*
X50487976Y-64099976D01*
X50302080Y-64224188D01*
X50143988Y-64382280D01*
X50019776Y-64568176D01*
X49934217Y-64774733D01*
X49890600Y-64994012D01*
X45718400Y-64994012D01*
X45718400Y-61969389D01*
X50580600Y-61969389D01*
X50580600Y-62242211D01*
X50633825Y-62509789D01*
X50738229Y-62761843D01*
X50889801Y-62988686D01*
X51082714Y-63181599D01*
X51309557Y-63333171D01*
X51561611Y-63437575D01*
X51829189Y-63490800D01*
X52102011Y-63490800D01*
X52369589Y-63437575D01*
X52621643Y-63333171D01*
X52848486Y-63181599D01*
X53041399Y-62988686D01*
X53192971Y-62761843D01*
X53297375Y-62509789D01*
X53350600Y-62242211D01*
X53350600Y-61969389D01*
X53580600Y-61969389D01*
X53580600Y-62242211D01*
X53633825Y-62509789D01*
X53738229Y-62761843D01*
X53889801Y-62988686D01*
X54082714Y-63181599D01*
X54309557Y-63333171D01*
X54561611Y-63437575D01*
X54829189Y-63490800D01*
X55102011Y-63490800D01*
X55369589Y-63437575D01*
X55621643Y-63333171D01*
X55848486Y-63181599D01*
X56041399Y-62988686D01*
X56192971Y-62761843D01*
X56297375Y-62509789D01*
X56350600Y-62242211D01*
X56350600Y-61969389D01*
X56297375Y-61701811D01*
X56192971Y-61449757D01*
X56041399Y-61222914D01*
X55848486Y-61030001D01*
X55621643Y-60878429D01*
X55369589Y-60774025D01*
X55102011Y-60720800D01*
X54829189Y-60720800D01*
X54561611Y-60774025D01*
X54309557Y-60878429D01*
X54082714Y-61030001D01*
X53889801Y-61222914D01*
X53738229Y-61449757D01*
X53633825Y-61701811D01*
X53580600Y-61969389D01*
X53350600Y-61969389D01*
X53297375Y-61701811D01*
X53192971Y-61449757D01*
X53041399Y-61222914D01*
X52848486Y-61030001D01*
X52621643Y-60878429D01*
X52369589Y-60774025D01*
X52102011Y-60720800D01*
X51829189Y-60720800D01*
X51561611Y-60774025D01*
X51309557Y-60878429D01*
X51082714Y-61030001D01*
X50889801Y-61222914D01*
X50738229Y-61449757D01*
X50633825Y-61701811D01*
X50580600Y-61969389D01*
X45718400Y-61969389D01*
X45718400Y-58969389D01*
X50580600Y-58969389D01*
X50580600Y-59242211D01*
X50633825Y-59509789D01*
X50738229Y-59761843D01*
X50889801Y-59988686D01*
X51082714Y-60181599D01*
X51309557Y-60333171D01*
X51561611Y-60437575D01*
X51829189Y-60490800D01*
X52102011Y-60490800D01*
X52369589Y-60437575D01*
X52621643Y-60333171D01*
X52848486Y-60181599D01*
X53041399Y-59988686D01*
X53130190Y-59855800D01*
X53577528Y-59855800D01*
X53589788Y-59980282D01*
X53626098Y-60099980D01*
X53685063Y-60210294D01*
X53764415Y-60306985D01*
X53861106Y-60386337D01*
X53971420Y-60445302D01*
X54091118Y-60481612D01*
X54215600Y-60493872D01*
X54679850Y-60490800D01*
X54838600Y-60332050D01*
X54838600Y-59232800D01*
X55092600Y-59232800D01*
X55092600Y-60332050D01*
X55251350Y-60490800D01*
X55715600Y-60493872D01*
X55840082Y-60481612D01*
X55959780Y-60445302D01*
X56070094Y-60386337D01*
X56166785Y-60306985D01*
X56246137Y-60210294D01*
X56305102Y-60099980D01*
X56341412Y-59980282D01*
X56353672Y-59855800D01*
X56350600Y-59391550D01*
X56191850Y-59232800D01*
X55092600Y-59232800D01*
X54838600Y-59232800D01*
X53739350Y-59232800D01*
X53580600Y-59391550D01*
X53577528Y-59855800D01*
X53130190Y-59855800D01*
X53192971Y-59761843D01*
X53297375Y-59509789D01*
X53350600Y-59242211D01*
X53350600Y-58969389D01*
X53297375Y-58701811D01*
X53192971Y-58449757D01*
X53130191Y-58355800D01*
X53577528Y-58355800D01*
X53580600Y-58820050D01*
X53739350Y-58978800D01*
X54838600Y-58978800D01*
X54838600Y-57879550D01*
X55092600Y-57879550D01*
X55092600Y-58978800D01*
X56191850Y-58978800D01*
X56350600Y-58820050D01*
X56353672Y-58355800D01*
X56341412Y-58231318D01*
X56305102Y-58111620D01*
X56246137Y-58001306D01*
X56166785Y-57904615D01*
X56070094Y-57825263D01*
X55959780Y-57766298D01*
X55840082Y-57729988D01*
X55715600Y-57717728D01*
X55251350Y-57720800D01*
X55092600Y-57879550D01*
X54838600Y-57879550D01*
X54679850Y-57720800D01*
X54215600Y-57717728D01*
X54091118Y-57729988D01*
X53971420Y-57766298D01*
X53861106Y-57825263D01*
X53764415Y-57904615D01*
X53685063Y-58001306D01*
X53626098Y-58111620D01*
X53589788Y-58231318D01*
X53577528Y-58355800D01*
X53130191Y-58355800D01*
X53041399Y-58222914D01*
X52848486Y-58030001D01*
X52621643Y-57878429D01*
X52369589Y-57774025D01*
X52102011Y-57720800D01*
X51829189Y-57720800D01*
X51561611Y-57774025D01*
X51309557Y-57878429D01*
X51082714Y-58030001D01*
X50889801Y-58222914D01*
X50738229Y-58449757D01*
X50633825Y-58701811D01*
X50580600Y-58969389D01*
X45718400Y-58969389D01*
X45718400Y-55994012D01*
X49890600Y-55994012D01*
X49890600Y-56217588D01*
X49934217Y-56436867D01*
X50019776Y-56643424D01*
X50143988Y-56829320D01*
X50302080Y-56987412D01*
X50487976Y-57111624D01*
X50694533Y-57197183D01*
X50913812Y-57240800D01*
X51137388Y-57240800D01*
X51356667Y-57197183D01*
X51563224Y-57111624D01*
X51749120Y-56987412D01*
X51907212Y-56829320D01*
X52031424Y-56643424D01*
X52116983Y-56436867D01*
X52160600Y-56217588D01*
X52160600Y-55994012D01*
X52116983Y-55774733D01*
X52031424Y-55568176D01*
X51907212Y-55382280D01*
X51749120Y-55224188D01*
X51563224Y-55099976D01*
X51356667Y-55014417D01*
X51137388Y-54970800D01*
X50913812Y-54970800D01*
X50694533Y-55014417D01*
X50487976Y-55099976D01*
X50302080Y-55224188D01*
X50143988Y-55382280D01*
X50019776Y-55568176D01*
X49934217Y-55774733D01*
X49890600Y-55994012D01*
X45718400Y-55994012D01*
X45718400Y-49116212D01*
X50093800Y-49116212D01*
X50093800Y-49339788D01*
X50137417Y-49559067D01*
X50222976Y-49765624D01*
X50347188Y-49951520D01*
X50505280Y-50109612D01*
X50691176Y-50233824D01*
X50897733Y-50319383D01*
X51117012Y-50363000D01*
X51340588Y-50363000D01*
X51559867Y-50319383D01*
X51766424Y-50233824D01*
X51952320Y-50109612D01*
X52110412Y-49951520D01*
X52234624Y-49765624D01*
X52320183Y-49559067D01*
X52363800Y-49339788D01*
X52363800Y-49116212D01*
X52320183Y-48896933D01*
X52234624Y-48690376D01*
X52110412Y-48504480D01*
X51952320Y-48346388D01*
X51766424Y-48222176D01*
X51559867Y-48136617D01*
X51340588Y-48093000D01*
X51117012Y-48093000D01*
X50897733Y-48136617D01*
X50691176Y-48222176D01*
X50505280Y-48346388D01*
X50347188Y-48504480D01*
X50222976Y-48690376D01*
X50137417Y-48896933D01*
X50093800Y-49116212D01*
X45718400Y-49116212D01*
X45718400Y-46091589D01*
X50783800Y-46091589D01*
X50783800Y-46364411D01*
X50837025Y-46631989D01*
X50941429Y-46884043D01*
X51093001Y-47110886D01*
X51285914Y-47303799D01*
X51512757Y-47455371D01*
X51764811Y-47559775D01*
X52032389Y-47613000D01*
X52305211Y-47613000D01*
X52572789Y-47559775D01*
X52824843Y-47455371D01*
X53051686Y-47303799D01*
X53244599Y-47110886D01*
X53333390Y-46978000D01*
X53780728Y-46978000D01*
X53792988Y-47102482D01*
X53829298Y-47222180D01*
X53888263Y-47332494D01*
X53967615Y-47429185D01*
X54064306Y-47508537D01*
X54174620Y-47567502D01*
X54294318Y-47603812D01*
X54418800Y-47616072D01*
X54883050Y-47613000D01*
X55041800Y-47454250D01*
X55041800Y-46355000D01*
X55295800Y-46355000D01*
X55295800Y-47454250D01*
X55454550Y-47613000D01*
X55918800Y-47616072D01*
X56043282Y-47603812D01*
X56162980Y-47567502D01*
X56273294Y-47508537D01*
X56369985Y-47429185D01*
X56449337Y-47332494D01*
X56508302Y-47222180D01*
X56544612Y-47102482D01*
X56556872Y-46978000D01*
X56553800Y-46513750D01*
X56395050Y-46355000D01*
X55295800Y-46355000D01*
X55041800Y-46355000D01*
X53942550Y-46355000D01*
X53783800Y-46513750D01*
X53780728Y-46978000D01*
X53333390Y-46978000D01*
X53396171Y-46884043D01*
X53500575Y-46631989D01*
X53553800Y-46364411D01*
X53553800Y-46091589D01*
X53500575Y-45824011D01*
X53396171Y-45571957D01*
X53333391Y-45478000D01*
X53780728Y-45478000D01*
X53783800Y-45942250D01*
X53942550Y-46101000D01*
X55041800Y-46101000D01*
X55041800Y-45001750D01*
X55295800Y-45001750D01*
X55295800Y-46101000D01*
X56395050Y-46101000D01*
X56553800Y-45942250D01*
X56556872Y-45478000D01*
X56544612Y-45353518D01*
X56508302Y-45233820D01*
X56449337Y-45123506D01*
X56369985Y-45026815D01*
X56273294Y-44947463D01*
X56162980Y-44888498D01*
X56043282Y-44852188D01*
X55918800Y-44839928D01*
X55454550Y-44843000D01*
X55295800Y-45001750D01*
X55041800Y-45001750D01*
X54883050Y-44843000D01*
X54418800Y-44839928D01*
X54294318Y-44852188D01*
X54174620Y-44888498D01*
X54064306Y-44947463D01*
X53967615Y-45026815D01*
X53888263Y-45123506D01*
X53829298Y-45233820D01*
X53792988Y-45353518D01*
X53780728Y-45478000D01*
X53333391Y-45478000D01*
X53244599Y-45345114D01*
X53051686Y-45152201D01*
X52824843Y-45000629D01*
X52572789Y-44896225D01*
X52305211Y-44843000D01*
X52032389Y-44843000D01*
X51764811Y-44896225D01*
X51512757Y-45000629D01*
X51285914Y-45152201D01*
X51093001Y-45345114D01*
X50941429Y-45571957D01*
X50837025Y-45824011D01*
X50783800Y-46091589D01*
X45718400Y-46091589D01*
X45718400Y-43116212D01*
X50093800Y-43116212D01*
X50093800Y-43339788D01*
X50137417Y-43559067D01*
X50222976Y-43765624D01*
X50347188Y-43951520D01*
X50505280Y-44109612D01*
X50691176Y-44233824D01*
X50897733Y-44319383D01*
X51117012Y-44363000D01*
X51340588Y-44363000D01*
X51559867Y-44319383D01*
X51766424Y-44233824D01*
X51952320Y-44109612D01*
X52110412Y-43951520D01*
X52234624Y-43765624D01*
X52320183Y-43559067D01*
X52363800Y-43339788D01*
X52363800Y-43116212D01*
X52320183Y-42896933D01*
X52234624Y-42690376D01*
X52110412Y-42504480D01*
X51952320Y-42346388D01*
X51766424Y-42222176D01*
X51559867Y-42136617D01*
X51340588Y-42093000D01*
X51117012Y-42093000D01*
X50897733Y-42136617D01*
X50691176Y-42222176D01*
X50505280Y-42346388D01*
X50347188Y-42504480D01*
X50222976Y-42690376D01*
X50137417Y-42896933D01*
X50093800Y-43116212D01*
X45718400Y-43116212D01*
X45718400Y-34302800D01*
X49565128Y-34302800D01*
X49565128Y-35902800D01*
X49577388Y-36027282D01*
X49613698Y-36146980D01*
X49672663Y-36257294D01*
X49752015Y-36353985D01*
X49848706Y-36433337D01*
X49959020Y-36492302D01*
X50078718Y-36528612D01*
X50203200Y-36540872D01*
X51803200Y-36540872D01*
X51927682Y-36528612D01*
X52047380Y-36492302D01*
X52157694Y-36433337D01*
X52254385Y-36353985D01*
X52333737Y-36257294D01*
X52392702Y-36146980D01*
X52408317Y-36095502D01*
X53990103Y-36095502D01*
X54061686Y-36339471D01*
X54317196Y-36460371D01*
X54591384Y-36529100D01*
X54873712Y-36543017D01*
X55153330Y-36501587D01*
X55419492Y-36406403D01*
X55544714Y-36339471D01*
X55616297Y-36095502D01*
X54803200Y-35282405D01*
X53990103Y-36095502D01*
X52408317Y-36095502D01*
X52429012Y-36027282D01*
X52441272Y-35902800D01*
X52441272Y-35173312D01*
X53362983Y-35173312D01*
X53404413Y-35452930D01*
X53499597Y-35719092D01*
X53566529Y-35844314D01*
X53810498Y-35915897D01*
X54623595Y-35102800D01*
X54982805Y-35102800D01*
X55795902Y-35915897D01*
X56039871Y-35844314D01*
X56160771Y-35588804D01*
X56229500Y-35314616D01*
X56243417Y-35032288D01*
X56201987Y-34752670D01*
X56106803Y-34486508D01*
X56039871Y-34361286D01*
X55795902Y-34289703D01*
X54982805Y-35102800D01*
X54623595Y-35102800D01*
X53810498Y-34289703D01*
X53566529Y-34361286D01*
X53445629Y-34616796D01*
X53376900Y-34890984D01*
X53362983Y-35173312D01*
X52441272Y-35173312D01*
X52441272Y-34302800D01*
X52429012Y-34178318D01*
X52408318Y-34110098D01*
X53990103Y-34110098D01*
X54803200Y-34923195D01*
X55616297Y-34110098D01*
X55544714Y-33866129D01*
X55289204Y-33745229D01*
X55015016Y-33676500D01*
X54732688Y-33662583D01*
X54453070Y-33704013D01*
X54186908Y-33799197D01*
X54061686Y-33866129D01*
X53990103Y-34110098D01*
X52408318Y-34110098D01*
X52392702Y-34058620D01*
X52333737Y-33948306D01*
X52254385Y-33851615D01*
X52157694Y-33772263D01*
X52047380Y-33713298D01*
X51927682Y-33676988D01*
X51803200Y-33664728D01*
X50203200Y-33664728D01*
X50078718Y-33676988D01*
X49959020Y-33713298D01*
X49848706Y-33772263D01*
X49752015Y-33851615D01*
X49672663Y-33948306D01*
X49613698Y-34058620D01*
X49577388Y-34178318D01*
X49565128Y-34302800D01*
X45718400Y-34302800D01*
X45718400Y-30770465D01*
X62242800Y-30770465D01*
X62242800Y-31053135D01*
X62297947Y-31330374D01*
X62406120Y-31591527D01*
X62563163Y-31826559D01*
X62763041Y-32026437D01*
X62995559Y-32181800D01*
X62763041Y-32337163D01*
X62563163Y-32537041D01*
X62406120Y-32772073D01*
X62297947Y-33033226D01*
X62242800Y-33310465D01*
X62242800Y-33593135D01*
X62297947Y-33870374D01*
X62406120Y-34131527D01*
X62563163Y-34366559D01*
X62763041Y-34566437D01*
X62995559Y-34721800D01*
X62763041Y-34877163D01*
X62563163Y-35077041D01*
X62406120Y-35312073D01*
X62297947Y-35573226D01*
X62242800Y-35850465D01*
X62242800Y-36133135D01*
X62297947Y-36410374D01*
X62406120Y-36671527D01*
X62563163Y-36906559D01*
X62763041Y-37106437D01*
X62995559Y-37261800D01*
X62763041Y-37417163D01*
X62563163Y-37617041D01*
X62406120Y-37852073D01*
X62297947Y-38113226D01*
X62242800Y-38390465D01*
X62242800Y-38673135D01*
X62297947Y-38950374D01*
X62406120Y-39211527D01*
X62563163Y-39446559D01*
X62763041Y-39646437D01*
X62995559Y-39801800D01*
X62763041Y-39957163D01*
X62563163Y-40157041D01*
X62406120Y-40392073D01*
X62297947Y-40653226D01*
X62242800Y-40930465D01*
X62242800Y-41213135D01*
X62297947Y-41490374D01*
X62406120Y-41751527D01*
X62563163Y-41986559D01*
X62763041Y-42186437D01*
X62995559Y-42341800D01*
X62763041Y-42497163D01*
X62563163Y-42697041D01*
X62406120Y-42932073D01*
X62297947Y-43193226D01*
X62242800Y-43470465D01*
X62242800Y-43753135D01*
X62297947Y-44030374D01*
X62406120Y-44291527D01*
X62563163Y-44526559D01*
X62763041Y-44726437D01*
X62995559Y-44881800D01*
X62763041Y-45037163D01*
X62563163Y-45237041D01*
X62406120Y-45472073D01*
X62297947Y-45733226D01*
X62242800Y-46010465D01*
X62242800Y-46293135D01*
X62297947Y-46570374D01*
X62406120Y-46831527D01*
X62563163Y-47066559D01*
X62763041Y-47266437D01*
X62995559Y-47421800D01*
X62763041Y-47577163D01*
X62563163Y-47777041D01*
X62406120Y-48012073D01*
X62297947Y-48273226D01*
X62242800Y-48550465D01*
X62242800Y-48833135D01*
X62297947Y-49110374D01*
X62406120Y-49371527D01*
X62563163Y-49606559D01*
X62763041Y-49806437D01*
X62995559Y-49961800D01*
X62763041Y-50117163D01*
X62563163Y-50317041D01*
X62406120Y-50552073D01*
X62297947Y-50813226D01*
X62242800Y-51090465D01*
X62242800Y-51373135D01*
X62297947Y-51650374D01*
X62406120Y-51911527D01*
X62563163Y-52146559D01*
X62763041Y-52346437D01*
X62995559Y-52501800D01*
X62763041Y-52657163D01*
X62563163Y-52857041D01*
X62406120Y-53092073D01*
X62297947Y-53353226D01*
X62242800Y-53630465D01*
X62242800Y-53913135D01*
X62297947Y-54190374D01*
X62406120Y-54451527D01*
X62563163Y-54686559D01*
X62763041Y-54886437D01*
X62995559Y-55041800D01*
X62763041Y-55197163D01*
X62563163Y-55397041D01*
X62406120Y-55632073D01*
X62297947Y-55893226D01*
X62242800Y-56170465D01*
X62242800Y-56453135D01*
X62297947Y-56730374D01*
X62406120Y-56991527D01*
X62563163Y-57226559D01*
X62763041Y-57426437D01*
X62995559Y-57581800D01*
X62763041Y-57737163D01*
X62563163Y-57937041D01*
X62406120Y-58172073D01*
X62297947Y-58433226D01*
X62242800Y-58710465D01*
X62242800Y-58993135D01*
X62297947Y-59270374D01*
X62406120Y-59531527D01*
X62563163Y-59766559D01*
X62763041Y-59966437D01*
X62995559Y-60121800D01*
X62763041Y-60277163D01*
X62563163Y-60477041D01*
X62406120Y-60712073D01*
X62297947Y-60973226D01*
X62242800Y-61250465D01*
X62242800Y-61533135D01*
X62297947Y-61810374D01*
X62406120Y-62071527D01*
X62563163Y-62306559D01*
X62763041Y-62506437D01*
X62995559Y-62661800D01*
X62763041Y-62817163D01*
X62563163Y-63017041D01*
X62406120Y-63252073D01*
X62297947Y-63513226D01*
X62242800Y-63790465D01*
X62242800Y-64073135D01*
X62297947Y-64350374D01*
X62406120Y-64611527D01*
X62563163Y-64846559D01*
X62763041Y-65046437D01*
X62995559Y-65201800D01*
X62763041Y-65357163D01*
X62563163Y-65557041D01*
X62406120Y-65792073D01*
X62297947Y-66053226D01*
X62242800Y-66330465D01*
X62242800Y-66613135D01*
X62297947Y-66890374D01*
X62406120Y-67151527D01*
X62563163Y-67386559D01*
X62763041Y-67586437D01*
X62998073Y-67743480D01*
X63259226Y-67851653D01*
X63536465Y-67906800D01*
X63819135Y-67906800D01*
X64096374Y-67851653D01*
X64357527Y-67743480D01*
X64592559Y-67586437D01*
X64792437Y-67386559D01*
X64949480Y-67151527D01*
X65057653Y-66890374D01*
X65112800Y-66613135D01*
X65112800Y-66330465D01*
X65057653Y-66053226D01*
X64949480Y-65792073D01*
X64869117Y-65671800D01*
X77479728Y-65671800D01*
X77479728Y-67271800D01*
X77491988Y-67396282D01*
X77528298Y-67515980D01*
X77587263Y-67626294D01*
X77666615Y-67722985D01*
X77763306Y-67802337D01*
X77873620Y-67861302D01*
X77993318Y-67897612D01*
X78117800Y-67909872D01*
X79717800Y-67909872D01*
X79842282Y-67897612D01*
X79961980Y-67861302D01*
X80072294Y-67802337D01*
X80162386Y-67728400D01*
X92185528Y-67728400D01*
X92188600Y-68192650D01*
X92347350Y-68351400D01*
X93446600Y-68351400D01*
X93446600Y-67252150D01*
X93700600Y-67252150D01*
X93700600Y-68351400D01*
X94799850Y-68351400D01*
X94809261Y-68341989D01*
X95188600Y-68341989D01*
X95188600Y-68614811D01*
X95241825Y-68882389D01*
X95346229Y-69134443D01*
X95497801Y-69361286D01*
X95690714Y-69554199D01*
X95917557Y-69705771D01*
X96169611Y-69810175D01*
X96437189Y-69863400D01*
X96710011Y-69863400D01*
X96977589Y-69810175D01*
X97229643Y-69705771D01*
X97456486Y-69554199D01*
X97649399Y-69361286D01*
X97800971Y-69134443D01*
X97905375Y-68882389D01*
X97958600Y-68614811D01*
X97958600Y-68341989D01*
X98188600Y-68341989D01*
X98188600Y-68614811D01*
X98241825Y-68882389D01*
X98346229Y-69134443D01*
X98497801Y-69361286D01*
X98690714Y-69554199D01*
X98917557Y-69705771D01*
X99169611Y-69810175D01*
X99437189Y-69863400D01*
X99710011Y-69863400D01*
X99977589Y-69810175D01*
X100229643Y-69705771D01*
X100456486Y-69554199D01*
X100649399Y-69361286D01*
X100800971Y-69134443D01*
X100905375Y-68882389D01*
X100958600Y-68614811D01*
X100958600Y-68341989D01*
X100905375Y-68074411D01*
X100800971Y-67822357D01*
X100649399Y-67595514D01*
X100456486Y-67402601D01*
X100229643Y-67251029D01*
X99977589Y-67146625D01*
X99710011Y-67093400D01*
X99437189Y-67093400D01*
X99169611Y-67146625D01*
X98917557Y-67251029D01*
X98690714Y-67402601D01*
X98497801Y-67595514D01*
X98346229Y-67822357D01*
X98241825Y-68074411D01*
X98188600Y-68341989D01*
X97958600Y-68341989D01*
X97905375Y-68074411D01*
X97800971Y-67822357D01*
X97649399Y-67595514D01*
X97456486Y-67402601D01*
X97229643Y-67251029D01*
X96977589Y-67146625D01*
X96710011Y-67093400D01*
X96437189Y-67093400D01*
X96169611Y-67146625D01*
X95917557Y-67251029D01*
X95690714Y-67402601D01*
X95497801Y-67595514D01*
X95346229Y-67822357D01*
X95241825Y-68074411D01*
X95188600Y-68341989D01*
X94809261Y-68341989D01*
X94958600Y-68192650D01*
X94961672Y-67728400D01*
X94949412Y-67603918D01*
X94913102Y-67484220D01*
X94854137Y-67373906D01*
X94774785Y-67277215D01*
X94678094Y-67197863D01*
X94567780Y-67138898D01*
X94448082Y-67102588D01*
X94323600Y-67090328D01*
X93859350Y-67093400D01*
X93700600Y-67252150D01*
X93446600Y-67252150D01*
X93287850Y-67093400D01*
X92823600Y-67090328D01*
X92699118Y-67102588D01*
X92579420Y-67138898D01*
X92469106Y-67197863D01*
X92372415Y-67277215D01*
X92293063Y-67373906D01*
X92234098Y-67484220D01*
X92197788Y-67603918D01*
X92185528Y-67728400D01*
X80162386Y-67728400D01*
X80168985Y-67722985D01*
X80248337Y-67626294D01*
X80307302Y-67515980D01*
X80343612Y-67396282D01*
X80355872Y-67271800D01*
X80355872Y-65671800D01*
X80343612Y-65547318D01*
X80307302Y-65427620D01*
X80248337Y-65317306D01*
X80168985Y-65220615D01*
X80072294Y-65141263D01*
X79961980Y-65082298D01*
X79842282Y-65045988D01*
X79833839Y-65045157D01*
X80032437Y-64846559D01*
X80189480Y-64611527D01*
X80297653Y-64350374D01*
X80352800Y-64073135D01*
X80352800Y-63790465D01*
X80297653Y-63513226D01*
X80189480Y-63252073D01*
X80032437Y-63017041D01*
X79832559Y-62817163D01*
X79600041Y-62661800D01*
X79832559Y-62506437D01*
X80032437Y-62306559D01*
X80189480Y-62071527D01*
X80297653Y-61810374D01*
X80352800Y-61533135D01*
X80352800Y-61250465D01*
X80297653Y-60973226D01*
X80189480Y-60712073D01*
X80032437Y-60477041D01*
X79832559Y-60277163D01*
X79597527Y-60120120D01*
X79586935Y-60115733D01*
X79772931Y-60004185D01*
X79981319Y-59815214D01*
X80148837Y-59589220D01*
X80269046Y-59334887D01*
X80309704Y-59200839D01*
X80187715Y-58978800D01*
X79044800Y-58978800D01*
X79044800Y-58998800D01*
X78790800Y-58998800D01*
X78790800Y-58978800D01*
X77647885Y-58978800D01*
X77525896Y-59200839D01*
X77566554Y-59334887D01*
X77686763Y-59589220D01*
X77854281Y-59815214D01*
X78062669Y-60004185D01*
X78248665Y-60115733D01*
X78238073Y-60120120D01*
X78003041Y-60277163D01*
X77803163Y-60477041D01*
X77646120Y-60712073D01*
X77537947Y-60973226D01*
X77482800Y-61250465D01*
X77482800Y-61533135D01*
X77537947Y-61810374D01*
X77646120Y-62071527D01*
X77803163Y-62306559D01*
X78003041Y-62506437D01*
X78235559Y-62661800D01*
X78003041Y-62817163D01*
X77803163Y-63017041D01*
X77646120Y-63252073D01*
X77537947Y-63513226D01*
X77482800Y-63790465D01*
X77482800Y-64073135D01*
X77537947Y-64350374D01*
X77646120Y-64611527D01*
X77803163Y-64846559D01*
X78001761Y-65045157D01*
X77993318Y-65045988D01*
X77873620Y-65082298D01*
X77763306Y-65141263D01*
X77666615Y-65220615D01*
X77587263Y-65317306D01*
X77528298Y-65427620D01*
X77491988Y-65547318D01*
X77479728Y-65671800D01*
X64869117Y-65671800D01*
X64792437Y-65557041D01*
X64592559Y-65357163D01*
X64360041Y-65201800D01*
X64592559Y-65046437D01*
X64792437Y-64846559D01*
X64949480Y-64611527D01*
X65057653Y-64350374D01*
X65112800Y-64073135D01*
X65112800Y-63790465D01*
X65057653Y-63513226D01*
X64949480Y-63252073D01*
X64792437Y-63017041D01*
X64592559Y-62817163D01*
X64360041Y-62661800D01*
X64592559Y-62506437D01*
X64792437Y-62306559D01*
X64949480Y-62071527D01*
X65057653Y-61810374D01*
X65112800Y-61533135D01*
X65112800Y-61250465D01*
X65057653Y-60973226D01*
X64949480Y-60712073D01*
X64792437Y-60477041D01*
X64592559Y-60277163D01*
X64360041Y-60121800D01*
X64592559Y-59966437D01*
X64792437Y-59766559D01*
X64949480Y-59531527D01*
X65057653Y-59270374D01*
X65112800Y-58993135D01*
X65112800Y-58710465D01*
X65057653Y-58433226D01*
X64949480Y-58172073D01*
X64792437Y-57937041D01*
X64592559Y-57737163D01*
X64360041Y-57581800D01*
X64592559Y-57426437D01*
X64792437Y-57226559D01*
X64949480Y-56991527D01*
X65057653Y-56730374D01*
X65112800Y-56453135D01*
X65112800Y-56170465D01*
X65057653Y-55893226D01*
X64949480Y-55632073D01*
X64792437Y-55397041D01*
X64592559Y-55197163D01*
X64360041Y-55041800D01*
X64592559Y-54886437D01*
X64792437Y-54686559D01*
X64949480Y-54451527D01*
X65057653Y-54190374D01*
X65112800Y-53913135D01*
X65112800Y-53630465D01*
X65057653Y-53353226D01*
X64949480Y-53092073D01*
X64792437Y-52857041D01*
X64592559Y-52657163D01*
X64360041Y-52501800D01*
X64592559Y-52346437D01*
X64792437Y-52146559D01*
X64949480Y-51911527D01*
X65057653Y-51650374D01*
X65112800Y-51373135D01*
X65112800Y-51090465D01*
X65057653Y-50813226D01*
X64949480Y-50552073D01*
X64792437Y-50317041D01*
X64592559Y-50117163D01*
X64360041Y-49961800D01*
X64592559Y-49806437D01*
X64792437Y-49606559D01*
X64949480Y-49371527D01*
X65057653Y-49110374D01*
X65112800Y-48833135D01*
X65112800Y-48550465D01*
X65057653Y-48273226D01*
X64949480Y-48012073D01*
X64792437Y-47777041D01*
X64592559Y-47577163D01*
X64360041Y-47421800D01*
X64592559Y-47266437D01*
X64792437Y-47066559D01*
X64949480Y-46831527D01*
X65057653Y-46570374D01*
X65112800Y-46293135D01*
X65112800Y-46010465D01*
X65057653Y-45733226D01*
X64949480Y-45472073D01*
X64792437Y-45237041D01*
X64592559Y-45037163D01*
X64360041Y-44881800D01*
X64592559Y-44726437D01*
X64792437Y-44526559D01*
X64949480Y-44291527D01*
X65057653Y-44030374D01*
X65112800Y-43753135D01*
X65112800Y-43470465D01*
X65057653Y-43193226D01*
X64949480Y-42932073D01*
X64792437Y-42697041D01*
X64592559Y-42497163D01*
X64360041Y-42341800D01*
X64592559Y-42186437D01*
X64792437Y-41986559D01*
X64949480Y-41751527D01*
X65057653Y-41490374D01*
X65112800Y-41213135D01*
X65112800Y-40930465D01*
X65057653Y-40653226D01*
X64949480Y-40392073D01*
X64792437Y-40157041D01*
X64592559Y-39957163D01*
X64360041Y-39801800D01*
X64592559Y-39646437D01*
X64792437Y-39446559D01*
X64949480Y-39211527D01*
X65057653Y-38950374D01*
X65112800Y-38673135D01*
X65112800Y-38390465D01*
X65057653Y-38113226D01*
X64949480Y-37852073D01*
X64792437Y-37617041D01*
X64592559Y-37417163D01*
X64360041Y-37261800D01*
X64592559Y-37106437D01*
X64792437Y-36906559D01*
X64949480Y-36671527D01*
X65057653Y-36410374D01*
X65112800Y-36133135D01*
X65112800Y-35850465D01*
X65057653Y-35573226D01*
X64949480Y-35312073D01*
X64792437Y-35077041D01*
X64592559Y-34877163D01*
X64360041Y-34721800D01*
X64592559Y-34566437D01*
X64792437Y-34366559D01*
X64949480Y-34131527D01*
X65057653Y-33870374D01*
X65112800Y-33593135D01*
X65112800Y-33310465D01*
X65057653Y-33033226D01*
X64949480Y-32772073D01*
X64792437Y-32537041D01*
X64592559Y-32337163D01*
X64360041Y-32181800D01*
X64592559Y-32026437D01*
X64792437Y-31826559D01*
X64949480Y-31591527D01*
X65057653Y-31330374D01*
X65112800Y-31053135D01*
X65112800Y-30770465D01*
X77482800Y-30770465D01*
X77482800Y-31053135D01*
X77537947Y-31330374D01*
X77646120Y-31591527D01*
X77803163Y-31826559D01*
X78003041Y-32026437D01*
X78235559Y-32181800D01*
X78003041Y-32337163D01*
X77803163Y-32537041D01*
X77646120Y-32772073D01*
X77537947Y-33033226D01*
X77482800Y-33310465D01*
X77482800Y-33593135D01*
X77537947Y-33870374D01*
X77646120Y-34131527D01*
X77803163Y-34366559D01*
X78003041Y-34566437D01*
X78235559Y-34721800D01*
X78003041Y-34877163D01*
X77803163Y-35077041D01*
X77646120Y-35312073D01*
X77537947Y-35573226D01*
X77482800Y-35850465D01*
X77482800Y-36133135D01*
X77537947Y-36410374D01*
X77646120Y-36671527D01*
X77803163Y-36906559D01*
X78003041Y-37106437D01*
X78235559Y-37261800D01*
X78003041Y-37417163D01*
X77803163Y-37617041D01*
X77646120Y-37852073D01*
X77537947Y-38113226D01*
X77482800Y-38390465D01*
X77482800Y-38673135D01*
X77537947Y-38950374D01*
X77646120Y-39211527D01*
X77803163Y-39446559D01*
X78003041Y-39646437D01*
X78235559Y-39801800D01*
X78003041Y-39957163D01*
X77803163Y-40157041D01*
X77646120Y-40392073D01*
X77537947Y-40653226D01*
X77482800Y-40930465D01*
X77482800Y-41213135D01*
X77537947Y-41490374D01*
X77646120Y-41751527D01*
X77803163Y-41986559D01*
X78003041Y-42186437D01*
X78235559Y-42341800D01*
X78003041Y-42497163D01*
X77803163Y-42697041D01*
X77646120Y-42932073D01*
X77537947Y-43193226D01*
X77482800Y-43470465D01*
X77482800Y-43753135D01*
X77537947Y-44030374D01*
X77646120Y-44291527D01*
X77803163Y-44526559D01*
X78003041Y-44726437D01*
X78235559Y-44881800D01*
X78003041Y-45037163D01*
X77803163Y-45237041D01*
X77646120Y-45472073D01*
X77537947Y-45733226D01*
X77482800Y-46010465D01*
X77482800Y-46293135D01*
X77537947Y-46570374D01*
X77646120Y-46831527D01*
X77803163Y-47066559D01*
X78003041Y-47266437D01*
X78235559Y-47421800D01*
X78003041Y-47577163D01*
X77803163Y-47777041D01*
X77646120Y-48012073D01*
X77537947Y-48273226D01*
X77482800Y-48550465D01*
X77482800Y-48833135D01*
X77537947Y-49110374D01*
X77646120Y-49371527D01*
X77803163Y-49606559D01*
X78003041Y-49806437D01*
X78235559Y-49961800D01*
X78003041Y-50117163D01*
X77803163Y-50317041D01*
X77646120Y-50552073D01*
X77537947Y-50813226D01*
X77482800Y-51090465D01*
X77482800Y-51373135D01*
X77537947Y-51650374D01*
X77646120Y-51911527D01*
X77803163Y-52146559D01*
X78003041Y-52346437D01*
X78235559Y-52501800D01*
X78003041Y-52657163D01*
X77803163Y-52857041D01*
X77646120Y-53092073D01*
X77537947Y-53353226D01*
X77482800Y-53630465D01*
X77482800Y-53913135D01*
X77537947Y-54190374D01*
X77646120Y-54451527D01*
X77803163Y-54686559D01*
X78003041Y-54886437D01*
X78235559Y-55041800D01*
X78003041Y-55197163D01*
X77803163Y-55397041D01*
X77646120Y-55632073D01*
X77537947Y-55893226D01*
X77482800Y-56170465D01*
X77482800Y-56453135D01*
X77537947Y-56730374D01*
X77646120Y-56991527D01*
X77803163Y-57226559D01*
X78003041Y-57426437D01*
X78238073Y-57583480D01*
X78248665Y-57587867D01*
X78062669Y-57699415D01*
X77854281Y-57888386D01*
X77686763Y-58114380D01*
X77566554Y-58368713D01*
X77525896Y-58502761D01*
X77647885Y-58724800D01*
X78790800Y-58724800D01*
X78790800Y-58704800D01*
X79044800Y-58704800D01*
X79044800Y-58724800D01*
X80187715Y-58724800D01*
X80309704Y-58502761D01*
X80269046Y-58368713D01*
X80148837Y-58114380D01*
X79981319Y-57888386D01*
X79772931Y-57699415D01*
X79586935Y-57587867D01*
X79597527Y-57583480D01*
X79832559Y-57426437D01*
X80032437Y-57226559D01*
X80189480Y-56991527D01*
X80297653Y-56730374D01*
X80323135Y-56602265D01*
X88989000Y-56602265D01*
X88989000Y-56884935D01*
X89044147Y-57162174D01*
X89152320Y-57423327D01*
X89309363Y-57658359D01*
X89509241Y-57858237D01*
X89741759Y-58013600D01*
X89509241Y-58168963D01*
X89309363Y-58368841D01*
X89152320Y-58603873D01*
X89044147Y-58865026D01*
X88989000Y-59142265D01*
X88989000Y-59424935D01*
X89044147Y-59702174D01*
X89152320Y-59963327D01*
X89309363Y-60198359D01*
X89509241Y-60398237D01*
X89744273Y-60555280D01*
X90005426Y-60663453D01*
X90282665Y-60718600D01*
X90565335Y-60718600D01*
X90842574Y-60663453D01*
X91103727Y-60555280D01*
X91338759Y-60398237D01*
X91538637Y-60198359D01*
X91615316Y-60083600D01*
X101685928Y-60083600D01*
X101698188Y-60208082D01*
X101734498Y-60327780D01*
X101793463Y-60438094D01*
X101872815Y-60534785D01*
X101969506Y-60614137D01*
X102079820Y-60673102D01*
X102199518Y-60709412D01*
X102324000Y-60721672D01*
X102838250Y-60718600D01*
X102997000Y-60559850D01*
X102997000Y-59410600D01*
X103251000Y-59410600D01*
X103251000Y-60559850D01*
X103409750Y-60718600D01*
X103924000Y-60721672D01*
X104048482Y-60709412D01*
X104168180Y-60673102D01*
X104278494Y-60614137D01*
X104375185Y-60534785D01*
X104454537Y-60438094D01*
X104513502Y-60327780D01*
X104549812Y-60208082D01*
X104562072Y-60083600D01*
X104559000Y-59569350D01*
X104400250Y-59410600D01*
X103251000Y-59410600D01*
X102997000Y-59410600D01*
X101847750Y-59410600D01*
X101689000Y-59569350D01*
X101685928Y-60083600D01*
X91615316Y-60083600D01*
X91695680Y-59963327D01*
X91803853Y-59702174D01*
X91859000Y-59424935D01*
X91859000Y-59142265D01*
X91803853Y-58865026D01*
X91695680Y-58603873D01*
X91615317Y-58483600D01*
X101685928Y-58483600D01*
X101689000Y-58997850D01*
X101847750Y-59156600D01*
X102997000Y-59156600D01*
X102997000Y-59136600D01*
X103251000Y-59136600D01*
X103251000Y-59156600D01*
X104400250Y-59156600D01*
X104559000Y-58997850D01*
X104562072Y-58483600D01*
X104549812Y-58359118D01*
X104513502Y-58239420D01*
X104454537Y-58129106D01*
X104375185Y-58032415D01*
X104278494Y-57953063D01*
X104168180Y-57894098D01*
X104048482Y-57857788D01*
X104040039Y-57856957D01*
X104238637Y-57658359D01*
X104395680Y-57423327D01*
X104503853Y-57162174D01*
X104559000Y-56884935D01*
X104559000Y-56602265D01*
X104503853Y-56325026D01*
X104395680Y-56063873D01*
X104238637Y-55828841D01*
X104038759Y-55628963D01*
X103806241Y-55473600D01*
X104038759Y-55318237D01*
X104238637Y-55118359D01*
X104395680Y-54883327D01*
X104503853Y-54622174D01*
X104559000Y-54344935D01*
X104559000Y-54062265D01*
X104503853Y-53785026D01*
X104395680Y-53523873D01*
X104238637Y-53288841D01*
X104038759Y-53088963D01*
X103806241Y-52933600D01*
X104038759Y-52778237D01*
X104238637Y-52578359D01*
X104395680Y-52343327D01*
X104503853Y-52082174D01*
X104559000Y-51804935D01*
X104559000Y-51522265D01*
X104503853Y-51245026D01*
X104395680Y-50983873D01*
X104238637Y-50748841D01*
X104038759Y-50548963D01*
X103806241Y-50393600D01*
X104038759Y-50238237D01*
X104238637Y-50038359D01*
X104395680Y-49803327D01*
X104503853Y-49542174D01*
X104559000Y-49264935D01*
X104559000Y-48982265D01*
X104503853Y-48705026D01*
X104395680Y-48443873D01*
X104238637Y-48208841D01*
X104038759Y-48008963D01*
X103806241Y-47853600D01*
X104038759Y-47698237D01*
X104238637Y-47498359D01*
X104395680Y-47263327D01*
X104503853Y-47002174D01*
X104559000Y-46724935D01*
X104559000Y-46442265D01*
X104503853Y-46165026D01*
X104395680Y-45903873D01*
X104238637Y-45668841D01*
X104038759Y-45468963D01*
X103803727Y-45311920D01*
X103793135Y-45307533D01*
X103979131Y-45195985D01*
X104187519Y-45007014D01*
X104355037Y-44781020D01*
X104475246Y-44526687D01*
X104515904Y-44392639D01*
X104393915Y-44170600D01*
X103251000Y-44170600D01*
X103251000Y-44190600D01*
X102997000Y-44190600D01*
X102997000Y-44170600D01*
X101854085Y-44170600D01*
X101732096Y-44392639D01*
X101772754Y-44526687D01*
X101892963Y-44781020D01*
X102060481Y-45007014D01*
X102268869Y-45195985D01*
X102454865Y-45307533D01*
X102444273Y-45311920D01*
X102209241Y-45468963D01*
X102009363Y-45668841D01*
X101852320Y-45903873D01*
X101744147Y-46165026D01*
X101689000Y-46442265D01*
X101689000Y-46724935D01*
X101744147Y-47002174D01*
X101852320Y-47263327D01*
X102009363Y-47498359D01*
X102209241Y-47698237D01*
X102441759Y-47853600D01*
X102209241Y-48008963D01*
X102009363Y-48208841D01*
X101852320Y-48443873D01*
X101744147Y-48705026D01*
X101689000Y-48982265D01*
X101689000Y-49264935D01*
X101744147Y-49542174D01*
X101852320Y-49803327D01*
X102009363Y-50038359D01*
X102209241Y-50238237D01*
X102441759Y-50393600D01*
X102209241Y-50548963D01*
X102009363Y-50748841D01*
X101852320Y-50983873D01*
X101744147Y-51245026D01*
X101689000Y-51522265D01*
X101689000Y-51804935D01*
X101744147Y-52082174D01*
X101852320Y-52343327D01*
X102009363Y-52578359D01*
X102209241Y-52778237D01*
X102441759Y-52933600D01*
X102209241Y-53088963D01*
X102009363Y-53288841D01*
X101852320Y-53523873D01*
X101744147Y-53785026D01*
X101689000Y-54062265D01*
X101689000Y-54344935D01*
X101744147Y-54622174D01*
X101852320Y-54883327D01*
X102009363Y-55118359D01*
X102209241Y-55318237D01*
X102441759Y-55473600D01*
X102209241Y-55628963D01*
X102009363Y-55828841D01*
X101852320Y-56063873D01*
X101744147Y-56325026D01*
X101689000Y-56602265D01*
X101689000Y-56884935D01*
X101744147Y-57162174D01*
X101852320Y-57423327D01*
X102009363Y-57658359D01*
X102207961Y-57856957D01*
X102199518Y-57857788D01*
X102079820Y-57894098D01*
X101969506Y-57953063D01*
X101872815Y-58032415D01*
X101793463Y-58129106D01*
X101734498Y-58239420D01*
X101698188Y-58359118D01*
X101685928Y-58483600D01*
X91615317Y-58483600D01*
X91538637Y-58368841D01*
X91338759Y-58168963D01*
X91106241Y-58013600D01*
X91338759Y-57858237D01*
X91538637Y-57658359D01*
X91695680Y-57423327D01*
X91803853Y-57162174D01*
X91859000Y-56884935D01*
X91859000Y-56602265D01*
X91803853Y-56325026D01*
X91695680Y-56063873D01*
X91538637Y-55828841D01*
X91338759Y-55628963D01*
X91103727Y-55471920D01*
X91093135Y-55467533D01*
X91279131Y-55355985D01*
X91487519Y-55167014D01*
X91655037Y-54941020D01*
X91775246Y-54686687D01*
X91815904Y-54552639D01*
X91693915Y-54330600D01*
X90551000Y-54330600D01*
X90551000Y-54350600D01*
X90297000Y-54350600D01*
X90297000Y-54330600D01*
X89154085Y-54330600D01*
X89032096Y-54552639D01*
X89072754Y-54686687D01*
X89192963Y-54941020D01*
X89360481Y-55167014D01*
X89568869Y-55355985D01*
X89754865Y-55467533D01*
X89744273Y-55471920D01*
X89509241Y-55628963D01*
X89309363Y-55828841D01*
X89152320Y-56063873D01*
X89044147Y-56325026D01*
X88989000Y-56602265D01*
X80323135Y-56602265D01*
X80352800Y-56453135D01*
X80352800Y-56170465D01*
X80297653Y-55893226D01*
X80189480Y-55632073D01*
X80032437Y-55397041D01*
X79832559Y-55197163D01*
X79600041Y-55041800D01*
X79832559Y-54886437D01*
X80032437Y-54686559D01*
X80189480Y-54451527D01*
X80297653Y-54190374D01*
X80352800Y-53913135D01*
X80352800Y-53630465D01*
X80297653Y-53353226D01*
X80189480Y-53092073D01*
X80032437Y-52857041D01*
X79832559Y-52657163D01*
X79600041Y-52501800D01*
X79832559Y-52346437D01*
X80032437Y-52146559D01*
X80121919Y-52012639D01*
X89032096Y-52012639D01*
X89072754Y-52146687D01*
X89192963Y-52401020D01*
X89360481Y-52627014D01*
X89568869Y-52815985D01*
X89764982Y-52933600D01*
X89568869Y-53051215D01*
X89360481Y-53240186D01*
X89192963Y-53466180D01*
X89072754Y-53720513D01*
X89032096Y-53854561D01*
X89154085Y-54076600D01*
X90297000Y-54076600D01*
X90297000Y-51790600D01*
X90551000Y-51790600D01*
X90551000Y-54076600D01*
X91693915Y-54076600D01*
X91815904Y-53854561D01*
X91775246Y-53720513D01*
X91655037Y-53466180D01*
X91487519Y-53240186D01*
X91279131Y-53051215D01*
X91083018Y-52933600D01*
X91279131Y-52815985D01*
X91487519Y-52627014D01*
X91655037Y-52401020D01*
X91775246Y-52146687D01*
X91815904Y-52012639D01*
X91693915Y-51790600D01*
X90551000Y-51790600D01*
X90297000Y-51790600D01*
X89154085Y-51790600D01*
X89032096Y-52012639D01*
X80121919Y-52012639D01*
X80189480Y-51911527D01*
X80297653Y-51650374D01*
X80352800Y-51373135D01*
X80352800Y-51090465D01*
X80297653Y-50813226D01*
X80189480Y-50552073D01*
X80032437Y-50317041D01*
X79832559Y-50117163D01*
X79600041Y-49961800D01*
X79832559Y-49806437D01*
X80032437Y-49606559D01*
X80189480Y-49371527D01*
X80297653Y-49110374D01*
X80352800Y-48833135D01*
X80352800Y-48550465D01*
X80297653Y-48273226D01*
X80189480Y-48012073D01*
X80032437Y-47777041D01*
X79832559Y-47577163D01*
X79600041Y-47421800D01*
X79832559Y-47266437D01*
X80032437Y-47066559D01*
X80189480Y-46831527D01*
X80297653Y-46570374D01*
X80352800Y-46293135D01*
X80352800Y-46010465D01*
X80297653Y-45733226D01*
X80189480Y-45472073D01*
X80032437Y-45237041D01*
X79832559Y-45037163D01*
X79600041Y-44881800D01*
X79832559Y-44726437D01*
X80032437Y-44526559D01*
X80189480Y-44291527D01*
X80297653Y-44030374D01*
X80352800Y-43753135D01*
X80352800Y-43470465D01*
X80297653Y-43193226D01*
X80189480Y-42932073D01*
X80032437Y-42697041D01*
X79832559Y-42497163D01*
X79600041Y-42341800D01*
X79832559Y-42186437D01*
X80032437Y-41986559D01*
X80189480Y-41751527D01*
X80297653Y-41490374D01*
X80352800Y-41213135D01*
X80352800Y-41041601D01*
X83865801Y-44554603D01*
X83889599Y-44583601D01*
X84005324Y-44678574D01*
X84137353Y-44749146D01*
X84280614Y-44792603D01*
X84392267Y-44803600D01*
X84392276Y-44803600D01*
X84429599Y-44807276D01*
X84466922Y-44803600D01*
X89205957Y-44803600D01*
X89309363Y-44958359D01*
X89509241Y-45158237D01*
X89741759Y-45313600D01*
X89509241Y-45468963D01*
X89309363Y-45668841D01*
X89152320Y-45903873D01*
X89044147Y-46165026D01*
X88989000Y-46442265D01*
X88989000Y-46724935D01*
X89044147Y-47002174D01*
X89152320Y-47263327D01*
X89309363Y-47498359D01*
X89509241Y-47698237D01*
X89741759Y-47853600D01*
X89509241Y-48008963D01*
X89309363Y-48208841D01*
X89152320Y-48443873D01*
X89044147Y-48705026D01*
X88989000Y-48982265D01*
X88989000Y-49264935D01*
X89044147Y-49542174D01*
X89152320Y-49803327D01*
X89309363Y-50038359D01*
X89509241Y-50238237D01*
X89744273Y-50395280D01*
X89754865Y-50399667D01*
X89568869Y-50511215D01*
X89360481Y-50700186D01*
X89192963Y-50926180D01*
X89072754Y-51180513D01*
X89032096Y-51314561D01*
X89154085Y-51536600D01*
X90297000Y-51536600D01*
X90297000Y-51516600D01*
X90551000Y-51516600D01*
X90551000Y-51536600D01*
X91693915Y-51536600D01*
X91815904Y-51314561D01*
X91775246Y-51180513D01*
X91655037Y-50926180D01*
X91487519Y-50700186D01*
X91279131Y-50511215D01*
X91093135Y-50399667D01*
X91103727Y-50395280D01*
X91338759Y-50238237D01*
X91538637Y-50038359D01*
X91695680Y-49803327D01*
X91803853Y-49542174D01*
X91859000Y-49264935D01*
X91859000Y-48982265D01*
X91803853Y-48705026D01*
X91695680Y-48443873D01*
X91538637Y-48208841D01*
X91338759Y-48008963D01*
X91106241Y-47853600D01*
X91338759Y-47698237D01*
X91538637Y-47498359D01*
X91695680Y-47263327D01*
X91803853Y-47002174D01*
X91859000Y-46724935D01*
X91859000Y-46442265D01*
X91803853Y-46165026D01*
X91695680Y-45903873D01*
X91538637Y-45668841D01*
X91338759Y-45468963D01*
X91106241Y-45313600D01*
X91338759Y-45158237D01*
X91538637Y-44958359D01*
X91695680Y-44723327D01*
X91803853Y-44462174D01*
X91859000Y-44184935D01*
X91859000Y-43902265D01*
X91803853Y-43625026D01*
X91695680Y-43363873D01*
X91538637Y-43128841D01*
X91338759Y-42928963D01*
X91106241Y-42773600D01*
X91338759Y-42618237D01*
X91538637Y-42418359D01*
X91695680Y-42183327D01*
X91803853Y-41922174D01*
X91859000Y-41644935D01*
X91859000Y-41362265D01*
X101689000Y-41362265D01*
X101689000Y-41644935D01*
X101744147Y-41922174D01*
X101852320Y-42183327D01*
X102009363Y-42418359D01*
X102209241Y-42618237D01*
X102444273Y-42775280D01*
X102454865Y-42779667D01*
X102268869Y-42891215D01*
X102060481Y-43080186D01*
X101892963Y-43306180D01*
X101772754Y-43560513D01*
X101732096Y-43694561D01*
X101854085Y-43916600D01*
X102997000Y-43916600D01*
X102997000Y-43896600D01*
X103251000Y-43896600D01*
X103251000Y-43916600D01*
X104393915Y-43916600D01*
X104515904Y-43694561D01*
X104475246Y-43560513D01*
X104355037Y-43306180D01*
X104187519Y-43080186D01*
X103979131Y-42891215D01*
X103793135Y-42779667D01*
X103803727Y-42775280D01*
X104038759Y-42618237D01*
X104238637Y-42418359D01*
X104395680Y-42183327D01*
X104503853Y-41922174D01*
X104559000Y-41644935D01*
X104559000Y-41362265D01*
X104503853Y-41085026D01*
X104395680Y-40823873D01*
X104238637Y-40588841D01*
X104038759Y-40388963D01*
X103803727Y-40231920D01*
X103542574Y-40123747D01*
X103265335Y-40068600D01*
X102982665Y-40068600D01*
X102705426Y-40123747D01*
X102444273Y-40231920D01*
X102209241Y-40388963D01*
X102009363Y-40588841D01*
X101852320Y-40823873D01*
X101744147Y-41085026D01*
X101689000Y-41362265D01*
X91859000Y-41362265D01*
X91803853Y-41085026D01*
X91695680Y-40823873D01*
X91538637Y-40588841D01*
X91338759Y-40388963D01*
X91103727Y-40231920D01*
X90842574Y-40123747D01*
X90565335Y-40068600D01*
X90282665Y-40068600D01*
X90005426Y-40123747D01*
X89744273Y-40231920D01*
X89509241Y-40388963D01*
X89309363Y-40588841D01*
X89152320Y-40823873D01*
X89044147Y-41085026D01*
X88989000Y-41362265D01*
X88989000Y-41644935D01*
X89044147Y-41922174D01*
X89152320Y-42183327D01*
X89309363Y-42418359D01*
X89509241Y-42618237D01*
X89741759Y-42773600D01*
X89509241Y-42928963D01*
X89309363Y-43128841D01*
X89205957Y-43283600D01*
X84744402Y-43283600D01*
X80316488Y-38855687D01*
X80352800Y-38673135D01*
X80352800Y-38390465D01*
X80297653Y-38113226D01*
X80189480Y-37852073D01*
X80032437Y-37617041D01*
X79832559Y-37417163D01*
X79600041Y-37261800D01*
X79832559Y-37106437D01*
X80032437Y-36906559D01*
X80189480Y-36671527D01*
X80297653Y-36410374D01*
X80352800Y-36133135D01*
X80352800Y-35850465D01*
X80297653Y-35573226D01*
X80189480Y-35312073D01*
X80032437Y-35077041D01*
X79832559Y-34877163D01*
X79600041Y-34721800D01*
X79832559Y-34566437D01*
X80032437Y-34366559D01*
X80189480Y-34131527D01*
X80297653Y-33870374D01*
X80352800Y-33593135D01*
X80352800Y-33310465D01*
X80297653Y-33033226D01*
X80189480Y-32772073D01*
X80032437Y-32537041D01*
X79832559Y-32337163D01*
X79600041Y-32181800D01*
X79728167Y-32096189D01*
X93836800Y-32096189D01*
X93836800Y-32369011D01*
X93890025Y-32636589D01*
X93994429Y-32888643D01*
X94146001Y-33115486D01*
X94338914Y-33308399D01*
X94565757Y-33459971D01*
X94817811Y-33564375D01*
X95085389Y-33617600D01*
X95358211Y-33617600D01*
X95625789Y-33564375D01*
X95877843Y-33459971D01*
X96104686Y-33308399D01*
X96297599Y-33115486D01*
X96449171Y-32888643D01*
X96553575Y-32636589D01*
X96606800Y-32369011D01*
X96606800Y-32096189D01*
X96553575Y-31828611D01*
X96513807Y-31732600D01*
X96833728Y-31732600D01*
X96833728Y-32732600D01*
X96850792Y-32905854D01*
X96901328Y-33072450D01*
X96983395Y-33225986D01*
X97093838Y-33360562D01*
X97228414Y-33471005D01*
X97381950Y-33553072D01*
X97548546Y-33603608D01*
X97721800Y-33620672D01*
X98721800Y-33620672D01*
X98895054Y-33603608D01*
X99061650Y-33553072D01*
X99215186Y-33471005D01*
X99349762Y-33360562D01*
X99460205Y-33225986D01*
X99542272Y-33072450D01*
X99592808Y-32905854D01*
X99609872Y-32732600D01*
X99609872Y-31732600D01*
X99592808Y-31559346D01*
X99542272Y-31392750D01*
X99460205Y-31239214D01*
X99349762Y-31104638D01*
X99215186Y-30994195D01*
X99061650Y-30912128D01*
X98895054Y-30861592D01*
X98721800Y-30844528D01*
X97721800Y-30844528D01*
X97548546Y-30861592D01*
X97381950Y-30912128D01*
X97228414Y-30994195D01*
X97093838Y-31104638D01*
X96983395Y-31239214D01*
X96901328Y-31392750D01*
X96850792Y-31559346D01*
X96833728Y-31732600D01*
X96513807Y-31732600D01*
X96449171Y-31576557D01*
X96297599Y-31349714D01*
X96104686Y-31156801D01*
X95877843Y-31005229D01*
X95625789Y-30900825D01*
X95358211Y-30847600D01*
X95085389Y-30847600D01*
X94817811Y-30900825D01*
X94565757Y-31005229D01*
X94338914Y-31156801D01*
X94146001Y-31349714D01*
X93994429Y-31576557D01*
X93890025Y-31828611D01*
X93836800Y-32096189D01*
X79728167Y-32096189D01*
X79832559Y-32026437D01*
X80032437Y-31826559D01*
X80189480Y-31591527D01*
X80297653Y-31330374D01*
X80352800Y-31053135D01*
X80352800Y-30770465D01*
X80297653Y-30493226D01*
X80189480Y-30232073D01*
X80032437Y-29997041D01*
X79832559Y-29797163D01*
X79597527Y-29640120D01*
X79336374Y-29531947D01*
X79059135Y-29476800D01*
X78776465Y-29476800D01*
X78499226Y-29531947D01*
X78238073Y-29640120D01*
X78003041Y-29797163D01*
X77803163Y-29997041D01*
X77646120Y-30232073D01*
X77537947Y-30493226D01*
X77482800Y-30770465D01*
X65112800Y-30770465D01*
X65057653Y-30493226D01*
X64949480Y-30232073D01*
X64792437Y-29997041D01*
X64592559Y-29797163D01*
X64357527Y-29640120D01*
X64096374Y-29531947D01*
X63819135Y-29476800D01*
X63536465Y-29476800D01*
X63259226Y-29531947D01*
X62998073Y-29640120D01*
X62763041Y-29797163D01*
X62563163Y-29997041D01*
X62406120Y-30232073D01*
X62297947Y-30493226D01*
X62242800Y-30770465D01*
X45718400Y-30770465D01*
X45718400Y-28180812D01*
X91086800Y-28180812D01*
X91086800Y-28404388D01*
X91130417Y-28623667D01*
X91215976Y-28830224D01*
X91340188Y-29016120D01*
X91498280Y-29174212D01*
X91684176Y-29298424D01*
X91890733Y-29383983D01*
X92110012Y-29427600D01*
X92333588Y-29427600D01*
X92552867Y-29383983D01*
X92759424Y-29298424D01*
X92945320Y-29174212D01*
X93023343Y-29096189D01*
X93836800Y-29096189D01*
X93836800Y-29369011D01*
X93890025Y-29636589D01*
X93994429Y-29888643D01*
X94146001Y-30115486D01*
X94338914Y-30308399D01*
X94565757Y-30459971D01*
X94817811Y-30564375D01*
X95085389Y-30617600D01*
X95358211Y-30617600D01*
X95625789Y-30564375D01*
X95877843Y-30459971D01*
X96104686Y-30308399D01*
X96297599Y-30115486D01*
X96449171Y-29888643D01*
X96553575Y-29636589D01*
X96606800Y-29369011D01*
X96606800Y-29096189D01*
X96836800Y-29096189D01*
X96836800Y-29369011D01*
X96890025Y-29636589D01*
X96994429Y-29888643D01*
X97146001Y-30115486D01*
X97338914Y-30308399D01*
X97565757Y-30459971D01*
X97817811Y-30564375D01*
X98085389Y-30617600D01*
X98358211Y-30617600D01*
X98625789Y-30564375D01*
X98877843Y-30459971D01*
X99104686Y-30308399D01*
X99297599Y-30115486D01*
X99449171Y-29888643D01*
X99553575Y-29636589D01*
X99606800Y-29369011D01*
X99606800Y-29096189D01*
X99553575Y-28828611D01*
X99449171Y-28576557D01*
X99297599Y-28349714D01*
X99128697Y-28180812D01*
X100086800Y-28180812D01*
X100086800Y-28404388D01*
X100130417Y-28623667D01*
X100215976Y-28830224D01*
X100340188Y-29016120D01*
X100498280Y-29174212D01*
X100684176Y-29298424D01*
X100890733Y-29383983D01*
X101110012Y-29427600D01*
X101333588Y-29427600D01*
X101552867Y-29383983D01*
X101759424Y-29298424D01*
X101945320Y-29174212D01*
X102103412Y-29016120D01*
X102227624Y-28830224D01*
X102313183Y-28623667D01*
X102356800Y-28404388D01*
X102356800Y-28180812D01*
X102313183Y-27961533D01*
X102227624Y-27754976D01*
X102103412Y-27569080D01*
X101945320Y-27410988D01*
X101759424Y-27286776D01*
X101552867Y-27201217D01*
X101333588Y-27157600D01*
X101110012Y-27157600D01*
X100890733Y-27201217D01*
X100684176Y-27286776D01*
X100498280Y-27410988D01*
X100340188Y-27569080D01*
X100215976Y-27754976D01*
X100130417Y-27961533D01*
X100086800Y-28180812D01*
X99128697Y-28180812D01*
X99104686Y-28156801D01*
X98877843Y-28005229D01*
X98625789Y-27900825D01*
X98358211Y-27847600D01*
X98085389Y-27847600D01*
X97817811Y-27900825D01*
X97565757Y-28005229D01*
X97338914Y-28156801D01*
X97146001Y-28349714D01*
X96994429Y-28576557D01*
X96890025Y-28828611D01*
X96836800Y-29096189D01*
X96606800Y-29096189D01*
X96553575Y-28828611D01*
X96449171Y-28576557D01*
X96297599Y-28349714D01*
X96104686Y-28156801D01*
X95877843Y-28005229D01*
X95625789Y-27900825D01*
X95358211Y-27847600D01*
X95085389Y-27847600D01*
X94817811Y-27900825D01*
X94565757Y-28005229D01*
X94338914Y-28156801D01*
X94146001Y-28349714D01*
X93994429Y-28576557D01*
X93890025Y-28828611D01*
X93836800Y-29096189D01*
X93023343Y-29096189D01*
X93103412Y-29016120D01*
X93227624Y-28830224D01*
X93313183Y-28623667D01*
X93356800Y-28404388D01*
X93356800Y-28180812D01*
X93313183Y-27961533D01*
X93227624Y-27754976D01*
X93103412Y-27569080D01*
X92945320Y-27410988D01*
X92759424Y-27286776D01*
X92552867Y-27201217D01*
X92333588Y-27157600D01*
X92110012Y-27157600D01*
X91890733Y-27201217D01*
X91684176Y-27286776D01*
X91498280Y-27410988D01*
X91340188Y-27569080D01*
X91215976Y-27754976D01*
X91130417Y-27961533D01*
X91086800Y-28180812D01*
X45718400Y-28180812D01*
X45718400Y-24878043D01*
X45953567Y-24878043D01*
X45953567Y-25312357D01*
X46038298Y-25738326D01*
X46204502Y-26139579D01*
X46445794Y-26500698D01*
X46752901Y-26807805D01*
X47114020Y-27049097D01*
X47515273Y-27215301D01*
X47941242Y-27300032D01*
X48375556Y-27300032D01*
X48801525Y-27215301D01*
X49202778Y-27049097D01*
X49563897Y-26807805D01*
X49871004Y-26500698D01*
X50112296Y-26139579D01*
X50278500Y-25738326D01*
X50363231Y-25312357D01*
X50363231Y-24878043D01*
X50363231Y-24878042D01*
X105643566Y-24878042D01*
X105643566Y-25312356D01*
X105728297Y-25738325D01*
X105894501Y-26139578D01*
X106135793Y-26500697D01*
X106442900Y-26807804D01*
X106804019Y-27049096D01*
X107205272Y-27215300D01*
X107631241Y-27300031D01*
X108065555Y-27300031D01*
X108491524Y-27215300D01*
X108892777Y-27049096D01*
X109253896Y-26807804D01*
X109561003Y-26500697D01*
X109802295Y-26139578D01*
X109968499Y-25738325D01*
X110053230Y-25312356D01*
X110053230Y-24878042D01*
X109968499Y-24452073D01*
X109802295Y-24050820D01*
X109561003Y-23689701D01*
X109253896Y-23382594D01*
X108892777Y-23141302D01*
X108491524Y-22975098D01*
X108065555Y-22890367D01*
X107631241Y-22890367D01*
X107205272Y-22975098D01*
X106804019Y-23141302D01*
X106442900Y-23382594D01*
X106135793Y-23689701D01*
X105894501Y-24050820D01*
X105728297Y-24452073D01*
X105643566Y-24878042D01*
X50363231Y-24878042D01*
X50278500Y-24452074D01*
X50112296Y-24050821D01*
X49871004Y-23689702D01*
X49563897Y-23382595D01*
X49202778Y-23141303D01*
X48801525Y-22975099D01*
X48375556Y-22890368D01*
X47941242Y-22890368D01*
X47515273Y-22975099D01*
X47114020Y-23141303D01*
X46752901Y-23382595D01*
X46445794Y-23689702D01*
X46204502Y-24050821D01*
X46038298Y-24452074D01*
X45953567Y-24878043D01*
X45718400Y-24878043D01*
X45718400Y-24496147D01*
X45756233Y-24110293D01*
X45857853Y-23773711D01*
X46022912Y-23463279D01*
X46245123Y-23190821D01*
X46516027Y-22966710D01*
X46825296Y-22799488D01*
X47161160Y-22695520D01*
X47544782Y-22655200D01*
X108447451Y-22655200D01*
X108833305Y-22693033D01*
M02*
