%FSLAX45Y45*%
G04 Gerber Fmt 4.5, Leading zero omitted, Abs format (unit mm)*
G04 Created by KiCad (PCBNEW (5.1.5)-3) date 2021-04-09 20:04:07*
%MOMM*%
%LPD*%
G04 APERTURE LIST*
%TA.AperFunction,Profile*%
%ADD10C,0.200000*%
%TD*%
%ADD11C,0.200000*%
%ADD12C,0.300000*%
G04 APERTURE END LIST*
D10*
X4961890Y-2509520D02*
G75*
G03X4961890Y-2509520I-146050J0D01*
G01*
X4752340Y-7907020D02*
X10848340Y-7907020D01*
X11102340Y-7653020D02*
G75*
G02X10848340Y-7907020I-254000J0D01*
G01*
X10930890Y-2509520D02*
G75*
G03X10930890Y-2509520I-146050J0D01*
G01*
X11102340Y-7653020D02*
X11102340Y-2446020D01*
X10848340Y-2192020D02*
G75*
G02X11102340Y-2446020I0J-254000D01*
G01*
X4961890Y-7589520D02*
G75*
G03X4961890Y-7589520I-146050J0D01*
G01*
X10930890Y-7589520D02*
G75*
G03X10930890Y-7589520I-146050J0D01*
G01*
X4752340Y-7907020D02*
G75*
G02X4498340Y-7653020I0J254000D01*
G01*
X4498340Y-2446020D02*
X4498340Y-7653020D01*
X10848340Y-2192020D02*
X4752340Y-2192020D01*
X4498340Y-2446020D02*
G75*
G02X4752340Y-2192020I254000J0D01*
G01*
D11*
X9002400Y-4110360D02*
X9082400Y-4190360D01*
X9082400Y-4110360D02*
X9002400Y-4190360D01*
X9002400Y-4364360D02*
X9082400Y-4444360D01*
X9082400Y-4364360D02*
X9002400Y-4444360D01*
X9002400Y-4618360D02*
X9082400Y-4698360D01*
X9082400Y-4618360D02*
X9002400Y-4698360D01*
X9002400Y-4872360D02*
X9082400Y-4952360D01*
X9082400Y-4872360D02*
X9002400Y-4952360D01*
X9002400Y-5126360D02*
X9082400Y-5206360D01*
X9082400Y-5126360D02*
X9002400Y-5206360D01*
X9002400Y-5380360D02*
X9082400Y-5460360D01*
X9082400Y-5380360D02*
X9002400Y-5460360D01*
X9002400Y-5634360D02*
X9082400Y-5714360D01*
X9082400Y-5634360D02*
X9002400Y-5714360D01*
X9002400Y-5888360D02*
X9082400Y-5968360D01*
X9082400Y-5888360D02*
X9002400Y-5968360D01*
X10272400Y-4110360D02*
X10352400Y-4190360D01*
X10352400Y-4110360D02*
X10272400Y-4190360D01*
X10272400Y-4364360D02*
X10352400Y-4444360D01*
X10352400Y-4364360D02*
X10272400Y-4444360D01*
X10272400Y-4618360D02*
X10352400Y-4698360D01*
X10352400Y-4618360D02*
X10272400Y-4698360D01*
X10272400Y-4872360D02*
X10352400Y-4952360D01*
X10352400Y-4872360D02*
X10272400Y-4952360D01*
X10272400Y-5126360D02*
X10352400Y-5206360D01*
X10352400Y-5126360D02*
X10272400Y-5206360D01*
X10272400Y-5380360D02*
X10352400Y-5460360D01*
X10352400Y-5380360D02*
X10272400Y-5460360D01*
X10272400Y-5634360D02*
X10352400Y-5714360D01*
X10352400Y-5634360D02*
X10272400Y-5714360D01*
X10272400Y-5888360D02*
X10352400Y-5968360D01*
X10352400Y-5888360D02*
X10272400Y-5968360D01*
X5060320Y-3470280D02*
X5140320Y-3550280D01*
X5140320Y-3470280D02*
X5060320Y-3550280D01*
X5440320Y-3470280D02*
X5520320Y-3550280D01*
X5520320Y-3470280D02*
X5440320Y-3550280D01*
X9407360Y-6847840D02*
G75*
G03X9407360Y-6847840I-50000J0D01*
G01*
X9407360Y-7147840D02*
G75*
G03X9407360Y-7147840I-50000J0D01*
G01*
X9707360Y-6847840D02*
G75*
G03X9707360Y-6847840I-50000J0D01*
G01*
X9707360Y-7147840D02*
G75*
G03X9707360Y-7147840I-50000J0D01*
G01*
X10007360Y-6847840D02*
G75*
G03X10007360Y-6847840I-50000J0D01*
G01*
X10007360Y-7147840D02*
G75*
G03X10007360Y-7147840I-50000J0D01*
G01*
X5266880Y-4622800D02*
G75*
G03X5266880Y-4622800I-50000J0D01*
G01*
X5566880Y-4622800D02*
G75*
G03X5566880Y-4622800I-50000J0D01*
G01*
X6417780Y-3091180D02*
G75*
G03X6417780Y-3091180I-50000J0D01*
G01*
X6417780Y-3345180D02*
G75*
G03X6417780Y-3345180I-50000J0D01*
G01*
X6417780Y-3599180D02*
G75*
G03X6417780Y-3599180I-50000J0D01*
G01*
X6417780Y-3853180D02*
G75*
G03X6417780Y-3853180I-50000J0D01*
G01*
X6417780Y-4107180D02*
G75*
G03X6417780Y-4107180I-50000J0D01*
G01*
X6417780Y-4361180D02*
G75*
G03X6417780Y-4361180I-50000J0D01*
G01*
X6417780Y-4615180D02*
G75*
G03X6417780Y-4615180I-50000J0D01*
G01*
X6417780Y-4869180D02*
G75*
G03X6417780Y-4869180I-50000J0D01*
G01*
X6417780Y-5123180D02*
G75*
G03X6417780Y-5123180I-50000J0D01*
G01*
X6417780Y-5377180D02*
G75*
G03X6417780Y-5377180I-50000J0D01*
G01*
X6417780Y-5631180D02*
G75*
G03X6417780Y-5631180I-50000J0D01*
G01*
X6417780Y-5885180D02*
G75*
G03X6417780Y-5885180I-50000J0D01*
G01*
X6417780Y-6139180D02*
G75*
G03X6417780Y-6139180I-50000J0D01*
G01*
X6417780Y-6393180D02*
G75*
G03X6417780Y-6393180I-50000J0D01*
G01*
X6417780Y-6647180D02*
G75*
G03X6417780Y-6647180I-50000J0D01*
G01*
X7941780Y-3091180D02*
G75*
G03X7941780Y-3091180I-50000J0D01*
G01*
X7941780Y-3345180D02*
G75*
G03X7941780Y-3345180I-50000J0D01*
G01*
X7941780Y-3599180D02*
G75*
G03X7941780Y-3599180I-50000J0D01*
G01*
X7941780Y-3853180D02*
G75*
G03X7941780Y-3853180I-50000J0D01*
G01*
X7941780Y-4107180D02*
G75*
G03X7941780Y-4107180I-50000J0D01*
G01*
X7941780Y-4361180D02*
G75*
G03X7941780Y-4361180I-50000J0D01*
G01*
X7941780Y-4615180D02*
G75*
G03X7941780Y-4615180I-50000J0D01*
G01*
X7941780Y-4869180D02*
G75*
G03X7941780Y-4869180I-50000J0D01*
G01*
X7941780Y-5123180D02*
G75*
G03X7941780Y-5123180I-50000J0D01*
G01*
X7941780Y-5377180D02*
G75*
G03X7941780Y-5377180I-50000J0D01*
G01*
X7941780Y-5631180D02*
G75*
G03X7941780Y-5631180I-50000J0D01*
G01*
X7941780Y-5885180D02*
G75*
G03X7941780Y-5885180I-50000J0D01*
G01*
X7941780Y-6139180D02*
G75*
G03X7941780Y-6139180I-50000J0D01*
G01*
X7941780Y-6393180D02*
G75*
G03X7941780Y-6393180I-50000J0D01*
G01*
X7941780Y-6647180D02*
G75*
G03X7941780Y-6647180I-50000J0D01*
G01*
X5246560Y-5910580D02*
G75*
G03X5246560Y-5910580I-50000J0D01*
G01*
X5246560Y-6210580D02*
G75*
G03X5246560Y-6210580I-50000J0D01*
G01*
X5546560Y-5910580D02*
G75*
G03X5546560Y-5910580I-50000J0D01*
G01*
X5546560Y-6210580D02*
G75*
G03X5546560Y-6210580I-50000J0D01*
G01*
X9572180Y-2923260D02*
G75*
G03X9572180Y-2923260I-50000J0D01*
G01*
X9572180Y-3223260D02*
G75*
G03X9572180Y-3223260I-50000J0D01*
G01*
X9872180Y-2923260D02*
G75*
G03X9872180Y-2923260I-50000J0D01*
G01*
X9872180Y-3223260D02*
G75*
G03X9872180Y-3223260I-50000J0D01*
G01*
D12*
X4774768Y-8382734D02*
X4774768Y-8082734D01*
X4846197Y-8082734D01*
X4889054Y-8097020D01*
X4917626Y-8125591D01*
X4931911Y-8154163D01*
X4946197Y-8211306D01*
X4946197Y-8254163D01*
X4931911Y-8311306D01*
X4917626Y-8339877D01*
X4889054Y-8368448D01*
X4846197Y-8382734D01*
X4774768Y-8382734D01*
X5074768Y-8382734D02*
X5074768Y-8182734D01*
X5074768Y-8239877D02*
X5089054Y-8211306D01*
X5103340Y-8197020D01*
X5131911Y-8182734D01*
X5160483Y-8182734D01*
X5260483Y-8382734D02*
X5260483Y-8182734D01*
X5260483Y-8082734D02*
X5246197Y-8097020D01*
X5260483Y-8111306D01*
X5274768Y-8097020D01*
X5260483Y-8082734D01*
X5260483Y-8111306D01*
X5446197Y-8382734D02*
X5417626Y-8368448D01*
X5403340Y-8339877D01*
X5403340Y-8082734D01*
X5603340Y-8382734D02*
X5574768Y-8368448D01*
X5560483Y-8339877D01*
X5560483Y-8082734D01*
X5946197Y-8382734D02*
X5946197Y-8082734D01*
X6046197Y-8297020D01*
X6146197Y-8082734D01*
X6146197Y-8382734D01*
X6417626Y-8382734D02*
X6417626Y-8225591D01*
X6403340Y-8197020D01*
X6374768Y-8182734D01*
X6317626Y-8182734D01*
X6289054Y-8197020D01*
X6417626Y-8368448D02*
X6389054Y-8382734D01*
X6317626Y-8382734D01*
X6289054Y-8368448D01*
X6274768Y-8339877D01*
X6274768Y-8311306D01*
X6289054Y-8282734D01*
X6317626Y-8268448D01*
X6389054Y-8268448D01*
X6417626Y-8254163D01*
X6560483Y-8182734D02*
X6560483Y-8482734D01*
X6560483Y-8197020D02*
X6589054Y-8182734D01*
X6646197Y-8182734D01*
X6674768Y-8197020D01*
X6689054Y-8211306D01*
X6703340Y-8239877D01*
X6703340Y-8325591D01*
X6689054Y-8354163D01*
X6674768Y-8368448D01*
X6646197Y-8382734D01*
X6589054Y-8382734D01*
X6560483Y-8368448D01*
X6831911Y-8354163D02*
X6846197Y-8368448D01*
X6831911Y-8382734D01*
X6817626Y-8368448D01*
X6831911Y-8354163D01*
X6831911Y-8382734D01*
X6831911Y-8197020D02*
X6846197Y-8211306D01*
X6831911Y-8225591D01*
X6817626Y-8211306D01*
X6831911Y-8197020D01*
X6831911Y-8225591D01*
X4408340Y-8837020D02*
X4488340Y-8917020D01*
X4488340Y-8837020D02*
X4408340Y-8917020D01*
X4831911Y-8712734D02*
X4860483Y-8712734D01*
X4889054Y-8727020D01*
X4903340Y-8741306D01*
X4917626Y-8769877D01*
X4931911Y-8827020D01*
X4931911Y-8898449D01*
X4917626Y-8955591D01*
X4903340Y-8984163D01*
X4889054Y-8998449D01*
X4860483Y-9012734D01*
X4831911Y-9012734D01*
X4803340Y-8998449D01*
X4789054Y-8984163D01*
X4774768Y-8955591D01*
X4760483Y-8898449D01*
X4760483Y-8827020D01*
X4774768Y-8769877D01*
X4789054Y-8741306D01*
X4803340Y-8727020D01*
X4831911Y-8712734D01*
X5060483Y-8984163D02*
X5074768Y-8998449D01*
X5060483Y-9012734D01*
X5046197Y-8998449D01*
X5060483Y-8984163D01*
X5060483Y-9012734D01*
X5246197Y-8841306D02*
X5217626Y-8827020D01*
X5203340Y-8812734D01*
X5189054Y-8784163D01*
X5189054Y-8769877D01*
X5203340Y-8741306D01*
X5217626Y-8727020D01*
X5246197Y-8712734D01*
X5303340Y-8712734D01*
X5331911Y-8727020D01*
X5346197Y-8741306D01*
X5360483Y-8769877D01*
X5360483Y-8784163D01*
X5346197Y-8812734D01*
X5331911Y-8827020D01*
X5303340Y-8841306D01*
X5246197Y-8841306D01*
X5217626Y-8855591D01*
X5203340Y-8869877D01*
X5189054Y-8898449D01*
X5189054Y-8955591D01*
X5203340Y-8984163D01*
X5217626Y-8998449D01*
X5246197Y-9012734D01*
X5303340Y-9012734D01*
X5331911Y-8998449D01*
X5346197Y-8984163D01*
X5360483Y-8955591D01*
X5360483Y-8898449D01*
X5346197Y-8869877D01*
X5331911Y-8855591D01*
X5303340Y-8841306D01*
X5546197Y-8712734D02*
X5574768Y-8712734D01*
X5603340Y-8727020D01*
X5617626Y-8741306D01*
X5631911Y-8769877D01*
X5646197Y-8827020D01*
X5646197Y-8898449D01*
X5631911Y-8955591D01*
X5617626Y-8984163D01*
X5603340Y-8998449D01*
X5574768Y-9012734D01*
X5546197Y-9012734D01*
X5517626Y-8998449D01*
X5503340Y-8984163D01*
X5489054Y-8955591D01*
X5474768Y-8898449D01*
X5474768Y-8827020D01*
X5489054Y-8769877D01*
X5503340Y-8741306D01*
X5517626Y-8727020D01*
X5546197Y-8712734D01*
X5774768Y-9012734D02*
X5774768Y-8812734D01*
X5774768Y-8841306D02*
X5789054Y-8827020D01*
X5817626Y-8812734D01*
X5860483Y-8812734D01*
X5889054Y-8827020D01*
X5903340Y-8855591D01*
X5903340Y-9012734D01*
X5903340Y-8855591D02*
X5917626Y-8827020D01*
X5946197Y-8812734D01*
X5989054Y-8812734D01*
X6017626Y-8827020D01*
X6031911Y-8855591D01*
X6031911Y-9012734D01*
X6174768Y-9012734D02*
X6174768Y-8812734D01*
X6174768Y-8841306D02*
X6189054Y-8827020D01*
X6217626Y-8812734D01*
X6260483Y-8812734D01*
X6289054Y-8827020D01*
X6303340Y-8855591D01*
X6303340Y-9012734D01*
X6303340Y-8855591D02*
X6317626Y-8827020D01*
X6346197Y-8812734D01*
X6389054Y-8812734D01*
X6417626Y-8827020D01*
X6431911Y-8855591D01*
X6431911Y-9012734D01*
X7017626Y-8698449D02*
X6760483Y-9084163D01*
X7403340Y-8712734D02*
X7431911Y-8712734D01*
X7460483Y-8727020D01*
X7474768Y-8741306D01*
X7489054Y-8769877D01*
X7503340Y-8827020D01*
X7503340Y-8898449D01*
X7489054Y-8955591D01*
X7474768Y-8984163D01*
X7460483Y-8998449D01*
X7431911Y-9012734D01*
X7403340Y-9012734D01*
X7374768Y-8998449D01*
X7360483Y-8984163D01*
X7346197Y-8955591D01*
X7331911Y-8898449D01*
X7331911Y-8827020D01*
X7346197Y-8769877D01*
X7360483Y-8741306D01*
X7374768Y-8727020D01*
X7403340Y-8712734D01*
X7631911Y-8984163D02*
X7646197Y-8998449D01*
X7631911Y-9012734D01*
X7617626Y-8998449D01*
X7631911Y-8984163D01*
X7631911Y-9012734D01*
X7831911Y-8712734D02*
X7860483Y-8712734D01*
X7889054Y-8727020D01*
X7903340Y-8741306D01*
X7917626Y-8769877D01*
X7931911Y-8827020D01*
X7931911Y-8898449D01*
X7917626Y-8955591D01*
X7903340Y-8984163D01*
X7889054Y-8998449D01*
X7860483Y-9012734D01*
X7831911Y-9012734D01*
X7803340Y-8998449D01*
X7789054Y-8984163D01*
X7774768Y-8955591D01*
X7760483Y-8898449D01*
X7760483Y-8827020D01*
X7774768Y-8769877D01*
X7789054Y-8741306D01*
X7803340Y-8727020D01*
X7831911Y-8712734D01*
X8031911Y-8712734D02*
X8217626Y-8712734D01*
X8117626Y-8827020D01*
X8160483Y-8827020D01*
X8189054Y-8841306D01*
X8203340Y-8855591D01*
X8217626Y-8884163D01*
X8217626Y-8955591D01*
X8203340Y-8984163D01*
X8189054Y-8998449D01*
X8160483Y-9012734D01*
X8074768Y-9012734D01*
X8046197Y-8998449D01*
X8031911Y-8984163D01*
X8503340Y-9012734D02*
X8331911Y-9012734D01*
X8417626Y-9012734D02*
X8417626Y-8712734D01*
X8389054Y-8755591D01*
X8360483Y-8784163D01*
X8331911Y-8798449D01*
X8617626Y-8712734D02*
X8617626Y-8769877D01*
X8731911Y-8712734D02*
X8731911Y-8769877D01*
X9174768Y-9127020D02*
X9160483Y-9112734D01*
X9131911Y-9069877D01*
X9117626Y-9041306D01*
X9103340Y-8998449D01*
X9089054Y-8927020D01*
X9089054Y-8869877D01*
X9103340Y-8798449D01*
X9117626Y-8755591D01*
X9131911Y-8727020D01*
X9160483Y-8684163D01*
X9174768Y-8669877D01*
X9446197Y-9012734D02*
X9274768Y-9012734D01*
X9360483Y-9012734D02*
X9360483Y-8712734D01*
X9331911Y-8755591D01*
X9303340Y-8784163D01*
X9274768Y-8798449D01*
X9617626Y-8841306D02*
X9589054Y-8827020D01*
X9574768Y-8812734D01*
X9560483Y-8784163D01*
X9560483Y-8769877D01*
X9574768Y-8741306D01*
X9589054Y-8727020D01*
X9617626Y-8712734D01*
X9674768Y-8712734D01*
X9703340Y-8727020D01*
X9717626Y-8741306D01*
X9731911Y-8769877D01*
X9731911Y-8784163D01*
X9717626Y-8812734D01*
X9703340Y-8827020D01*
X9674768Y-8841306D01*
X9617626Y-8841306D01*
X9589054Y-8855591D01*
X9574768Y-8869877D01*
X9560483Y-8898449D01*
X9560483Y-8955591D01*
X9574768Y-8984163D01*
X9589054Y-8998449D01*
X9617626Y-9012734D01*
X9674768Y-9012734D01*
X9703340Y-8998449D01*
X9717626Y-8984163D01*
X9731911Y-8955591D01*
X9731911Y-8898449D01*
X9717626Y-8869877D01*
X9703340Y-8855591D01*
X9674768Y-8841306D01*
X10089054Y-9012734D02*
X10089054Y-8712734D01*
X10217626Y-9012734D02*
X10217626Y-8855591D01*
X10203340Y-8827020D01*
X10174768Y-8812734D01*
X10131911Y-8812734D01*
X10103340Y-8827020D01*
X10089054Y-8841306D01*
X10403340Y-9012734D02*
X10374768Y-8998449D01*
X10360483Y-8984163D01*
X10346197Y-8955591D01*
X10346197Y-8869877D01*
X10360483Y-8841306D01*
X10374768Y-8827020D01*
X10403340Y-8812734D01*
X10446197Y-8812734D01*
X10474768Y-8827020D01*
X10489054Y-8841306D01*
X10503340Y-8869877D01*
X10503340Y-8955591D01*
X10489054Y-8984163D01*
X10474768Y-8998449D01*
X10446197Y-9012734D01*
X10403340Y-9012734D01*
X10674768Y-9012734D02*
X10646197Y-8998449D01*
X10631911Y-8969877D01*
X10631911Y-8712734D01*
X10903340Y-8998449D02*
X10874768Y-9012734D01*
X10817626Y-9012734D01*
X10789054Y-8998449D01*
X10774768Y-8969877D01*
X10774768Y-8855591D01*
X10789054Y-8827020D01*
X10817626Y-8812734D01*
X10874768Y-8812734D01*
X10903340Y-8827020D01*
X10917626Y-8855591D01*
X10917626Y-8884163D01*
X10774768Y-8912734D01*
X11031911Y-8998449D02*
X11060483Y-9012734D01*
X11117626Y-9012734D01*
X11146197Y-8998449D01*
X11160483Y-8969877D01*
X11160483Y-8955591D01*
X11146197Y-8927020D01*
X11117626Y-8912734D01*
X11074768Y-8912734D01*
X11046197Y-8898449D01*
X11031911Y-8869877D01*
X11031911Y-8855591D01*
X11046197Y-8827020D01*
X11074768Y-8812734D01*
X11117626Y-8812734D01*
X11146197Y-8827020D01*
X11260483Y-9127020D02*
X11274768Y-9112734D01*
X11303340Y-9069877D01*
X11317626Y-9041306D01*
X11331911Y-8998449D01*
X11346197Y-8927020D01*
X11346197Y-8869877D01*
X11331911Y-8798449D01*
X11317626Y-8755591D01*
X11303340Y-8727020D01*
X11274768Y-8684163D01*
X11260483Y-8669877D01*
X4488340Y-9273020D02*
G75*
G03X4488340Y-9273020I-50000J0D01*
G01*
X4931911Y-9408734D02*
X4760483Y-9408734D01*
X4846197Y-9408734D02*
X4846197Y-9108734D01*
X4817626Y-9151591D01*
X4789054Y-9180163D01*
X4760483Y-9194449D01*
X5060483Y-9380163D02*
X5074768Y-9394449D01*
X5060483Y-9408734D01*
X5046197Y-9394449D01*
X5060483Y-9380163D01*
X5060483Y-9408734D01*
X5260483Y-9108734D02*
X5289054Y-9108734D01*
X5317626Y-9123020D01*
X5331911Y-9137306D01*
X5346197Y-9165877D01*
X5360483Y-9223020D01*
X5360483Y-9294449D01*
X5346197Y-9351591D01*
X5331911Y-9380163D01*
X5317626Y-9394449D01*
X5289054Y-9408734D01*
X5260483Y-9408734D01*
X5231911Y-9394449D01*
X5217626Y-9380163D01*
X5203340Y-9351591D01*
X5189054Y-9294449D01*
X5189054Y-9223020D01*
X5203340Y-9165877D01*
X5217626Y-9137306D01*
X5231911Y-9123020D01*
X5260483Y-9108734D01*
X5546197Y-9108734D02*
X5574768Y-9108734D01*
X5603340Y-9123020D01*
X5617626Y-9137306D01*
X5631911Y-9165877D01*
X5646197Y-9223020D01*
X5646197Y-9294449D01*
X5631911Y-9351591D01*
X5617626Y-9380163D01*
X5603340Y-9394449D01*
X5574768Y-9408734D01*
X5546197Y-9408734D01*
X5517626Y-9394449D01*
X5503340Y-9380163D01*
X5489054Y-9351591D01*
X5474768Y-9294449D01*
X5474768Y-9223020D01*
X5489054Y-9165877D01*
X5503340Y-9137306D01*
X5517626Y-9123020D01*
X5546197Y-9108734D01*
X5774768Y-9408734D02*
X5774768Y-9208734D01*
X5774768Y-9237306D02*
X5789054Y-9223020D01*
X5817626Y-9208734D01*
X5860483Y-9208734D01*
X5889054Y-9223020D01*
X5903340Y-9251591D01*
X5903340Y-9408734D01*
X5903340Y-9251591D02*
X5917626Y-9223020D01*
X5946197Y-9208734D01*
X5989054Y-9208734D01*
X6017626Y-9223020D01*
X6031911Y-9251591D01*
X6031911Y-9408734D01*
X6174768Y-9408734D02*
X6174768Y-9208734D01*
X6174768Y-9237306D02*
X6189054Y-9223020D01*
X6217626Y-9208734D01*
X6260483Y-9208734D01*
X6289054Y-9223020D01*
X6303340Y-9251591D01*
X6303340Y-9408734D01*
X6303340Y-9251591D02*
X6317626Y-9223020D01*
X6346197Y-9208734D01*
X6389054Y-9208734D01*
X6417626Y-9223020D01*
X6431911Y-9251591D01*
X6431911Y-9408734D01*
X7017626Y-9094449D02*
X6760483Y-9480163D01*
X7403340Y-9108734D02*
X7431911Y-9108734D01*
X7460483Y-9123020D01*
X7474768Y-9137306D01*
X7489054Y-9165877D01*
X7503340Y-9223020D01*
X7503340Y-9294449D01*
X7489054Y-9351591D01*
X7474768Y-9380163D01*
X7460483Y-9394449D01*
X7431911Y-9408734D01*
X7403340Y-9408734D01*
X7374768Y-9394449D01*
X7360483Y-9380163D01*
X7346197Y-9351591D01*
X7331911Y-9294449D01*
X7331911Y-9223020D01*
X7346197Y-9165877D01*
X7360483Y-9137306D01*
X7374768Y-9123020D01*
X7403340Y-9108734D01*
X7631911Y-9380163D02*
X7646197Y-9394449D01*
X7631911Y-9408734D01*
X7617626Y-9394449D01*
X7631911Y-9380163D01*
X7631911Y-9408734D01*
X7831911Y-9108734D02*
X7860483Y-9108734D01*
X7889054Y-9123020D01*
X7903340Y-9137306D01*
X7917626Y-9165877D01*
X7931911Y-9223020D01*
X7931911Y-9294449D01*
X7917626Y-9351591D01*
X7903340Y-9380163D01*
X7889054Y-9394449D01*
X7860483Y-9408734D01*
X7831911Y-9408734D01*
X7803340Y-9394449D01*
X7789054Y-9380163D01*
X7774768Y-9351591D01*
X7760483Y-9294449D01*
X7760483Y-9223020D01*
X7774768Y-9165877D01*
X7789054Y-9137306D01*
X7803340Y-9123020D01*
X7831911Y-9108734D01*
X8031911Y-9108734D02*
X8217626Y-9108734D01*
X8117626Y-9223020D01*
X8160483Y-9223020D01*
X8189054Y-9237306D01*
X8203340Y-9251591D01*
X8217626Y-9280163D01*
X8217626Y-9351591D01*
X8203340Y-9380163D01*
X8189054Y-9394449D01*
X8160483Y-9408734D01*
X8074768Y-9408734D01*
X8046197Y-9394449D01*
X8031911Y-9380163D01*
X8360483Y-9408734D02*
X8417626Y-9408734D01*
X8446197Y-9394449D01*
X8460483Y-9380163D01*
X8489054Y-9337306D01*
X8503340Y-9280163D01*
X8503340Y-9165877D01*
X8489054Y-9137306D01*
X8474768Y-9123020D01*
X8446197Y-9108734D01*
X8389054Y-9108734D01*
X8360483Y-9123020D01*
X8346197Y-9137306D01*
X8331911Y-9165877D01*
X8331911Y-9237306D01*
X8346197Y-9265877D01*
X8360483Y-9280163D01*
X8389054Y-9294449D01*
X8446197Y-9294449D01*
X8474768Y-9280163D01*
X8489054Y-9265877D01*
X8503340Y-9237306D01*
X8617626Y-9108734D02*
X8617626Y-9165877D01*
X8731911Y-9108734D02*
X8731911Y-9165877D01*
X9174768Y-9523020D02*
X9160483Y-9508734D01*
X9131911Y-9465877D01*
X9117626Y-9437306D01*
X9103340Y-9394449D01*
X9089054Y-9323020D01*
X9089054Y-9265877D01*
X9103340Y-9194449D01*
X9117626Y-9151591D01*
X9131911Y-9123020D01*
X9160483Y-9080163D01*
X9174768Y-9065877D01*
X9417626Y-9208734D02*
X9417626Y-9408734D01*
X9346197Y-9094449D02*
X9274768Y-9308734D01*
X9460483Y-9308734D01*
X9703340Y-9108734D02*
X9646197Y-9108734D01*
X9617626Y-9123020D01*
X9603340Y-9137306D01*
X9574768Y-9180163D01*
X9560483Y-9237306D01*
X9560483Y-9351591D01*
X9574768Y-9380163D01*
X9589054Y-9394449D01*
X9617626Y-9408734D01*
X9674768Y-9408734D01*
X9703340Y-9394449D01*
X9717626Y-9380163D01*
X9731911Y-9351591D01*
X9731911Y-9280163D01*
X9717626Y-9251591D01*
X9703340Y-9237306D01*
X9674768Y-9223020D01*
X9617626Y-9223020D01*
X9589054Y-9237306D01*
X9574768Y-9251591D01*
X9560483Y-9280163D01*
X10089054Y-9408734D02*
X10089054Y-9108734D01*
X10217626Y-9408734D02*
X10217626Y-9251591D01*
X10203340Y-9223020D01*
X10174768Y-9208734D01*
X10131911Y-9208734D01*
X10103340Y-9223020D01*
X10089054Y-9237306D01*
X10403340Y-9408734D02*
X10374768Y-9394449D01*
X10360483Y-9380163D01*
X10346197Y-9351591D01*
X10346197Y-9265877D01*
X10360483Y-9237306D01*
X10374768Y-9223020D01*
X10403340Y-9208734D01*
X10446197Y-9208734D01*
X10474768Y-9223020D01*
X10489054Y-9237306D01*
X10503340Y-9265877D01*
X10503340Y-9351591D01*
X10489054Y-9380163D01*
X10474768Y-9394449D01*
X10446197Y-9408734D01*
X10403340Y-9408734D01*
X10674768Y-9408734D02*
X10646197Y-9394449D01*
X10631911Y-9365877D01*
X10631911Y-9108734D01*
X10903340Y-9394449D02*
X10874768Y-9408734D01*
X10817626Y-9408734D01*
X10789054Y-9394449D01*
X10774768Y-9365877D01*
X10774768Y-9251591D01*
X10789054Y-9223020D01*
X10817626Y-9208734D01*
X10874768Y-9208734D01*
X10903340Y-9223020D01*
X10917626Y-9251591D01*
X10917626Y-9280163D01*
X10774768Y-9308734D01*
X11031911Y-9394449D02*
X11060483Y-9408734D01*
X11117626Y-9408734D01*
X11146197Y-9394449D01*
X11160483Y-9365877D01*
X11160483Y-9351591D01*
X11146197Y-9323020D01*
X11117626Y-9308734D01*
X11074768Y-9308734D01*
X11046197Y-9294449D01*
X11031911Y-9265877D01*
X11031911Y-9251591D01*
X11046197Y-9223020D01*
X11074768Y-9208734D01*
X11117626Y-9208734D01*
X11146197Y-9223020D01*
X11260483Y-9523020D02*
X11274768Y-9508734D01*
X11303340Y-9465877D01*
X11317626Y-9437306D01*
X11331911Y-9394449D01*
X11346197Y-9323020D01*
X11346197Y-9265877D01*
X11331911Y-9194449D01*
X11317626Y-9151591D01*
X11303340Y-9123020D01*
X11274768Y-9080163D01*
X11260483Y-9065877D01*
M02*
