M48
; DRILL file {KiCad (5.1.5)-3} date 4/9/2021 8:04:04 PM
; FORMAT={-:-/ absolute / metric / decimal}
; #@! TF.CreationDate,2021-04-09T20:04:04-05:00
; #@! TF.GenerationSoftware,Kicad,Pcbnew,(5.1.5)-3
; #@! TF.FileFunction,Plated,1,2,PTH
FMAT,2
METRIC
T1C0.800
T2C1.000
%
G90
G05
T1
X90.424Y-41.504
X90.424Y-44.044
X90.424Y-46.584
X90.424Y-49.124
X90.424Y-51.664
X90.424Y-54.204
X90.424Y-56.744
X90.424Y-59.284
X103.124Y-41.504
X103.124Y-44.044
X103.124Y-46.584
X103.124Y-49.124
X103.124Y-51.664
X103.124Y-54.204
X103.124Y-56.744
X103.124Y-59.284
X51.003Y-35.103
X54.803Y-35.103
T2
X93.574Y-68.478
X93.574Y-71.478
X96.574Y-68.478
X96.574Y-71.478
X99.574Y-68.478
X99.574Y-71.478
X52.169Y-46.228
X55.169Y-46.228
X63.678Y-30.912
X63.678Y-33.452
X63.678Y-35.992
X63.678Y-38.532
X63.678Y-41.072
X63.678Y-43.612
X63.678Y-46.152
X63.678Y-48.692
X63.678Y-51.232
X63.678Y-53.772
X63.678Y-56.312
X63.678Y-58.852
X63.678Y-61.392
X63.678Y-63.932
X63.678Y-66.472
X78.918Y-30.912
X78.918Y-33.452
X78.918Y-35.992
X78.918Y-38.532
X78.918Y-41.072
X78.918Y-43.612
X78.918Y-46.152
X78.918Y-48.692
X78.918Y-51.232
X78.918Y-53.772
X78.918Y-56.312
X78.918Y-58.852
X78.918Y-61.392
X78.918Y-63.932
X78.918Y-66.472
X51.966Y-59.106
X51.966Y-62.106
X54.966Y-59.106
X54.966Y-62.106
X95.222Y-29.233
X95.222Y-32.233
X98.222Y-29.233
X98.222Y-32.233
T0
M30
