G04 #@! TF.GenerationSoftware,KiCad,Pcbnew,(5.1.5)-3*
G04 #@! TF.CreationDate,2021-04-09T20:03:54-05:00*
G04 #@! TF.ProjectId,turner_pcb,7475726e-6572-45f7-9063-622e6b696361,rev?*
G04 #@! TF.SameCoordinates,Original*
G04 #@! TF.FileFunction,Legend,Top*
G04 #@! TF.FilePolarity,Positive*
%FSLAX46Y46*%
G04 Gerber Fmt 4.6, Leading zero omitted, Abs format (unit mm)*
G04 Created by KiCad (PCBNEW (5.1.5)-3) date 2021-04-09 20:03:54*
%MOMM*%
%LPD*%
G04 APERTURE LIST*
%ADD10C,0.127000*%
%ADD11C,0.152400*%
%ADD12C,0.300000*%
%ADD13C,0.254000*%
%ADD14C,0.150000*%
%ADD15C,0.120000*%
%ADD16C,1.600000*%
%ADD17R,1.600000X1.600000*%
%ADD18C,1.000000*%
%ADD19C,1.500000*%
%ADD20O,1.600000X1.600000*%
G04 APERTURE END LIST*
D10*
X55306685Y-77372028D02*
X55415542Y-77408314D01*
X55596971Y-77408314D01*
X55669542Y-77372028D01*
X55705828Y-77335742D01*
X55742114Y-77263171D01*
X55742114Y-77190600D01*
X55705828Y-77118028D01*
X55669542Y-77081742D01*
X55596971Y-77045457D01*
X55451828Y-77009171D01*
X55379257Y-76972885D01*
X55342971Y-76936600D01*
X55306685Y-76864028D01*
X55306685Y-76791457D01*
X55342971Y-76718885D01*
X55379257Y-76682600D01*
X55451828Y-76646314D01*
X55633257Y-76646314D01*
X55742114Y-76682600D01*
X56068685Y-77335742D02*
X56104971Y-77372028D01*
X56068685Y-77408314D01*
X56032400Y-77372028D01*
X56068685Y-77335742D01*
X56068685Y-77408314D01*
X56939542Y-76646314D02*
X57447542Y-76646314D01*
X56939542Y-77408314D01*
X57447542Y-77408314D01*
X58064400Y-76900314D02*
X58064400Y-77408314D01*
X57737828Y-76900314D02*
X57737828Y-77299457D01*
X57774114Y-77372028D01*
X57846685Y-77408314D01*
X57955542Y-77408314D01*
X58028114Y-77372028D01*
X58064400Y-77335742D01*
X58753828Y-77372028D02*
X58681257Y-77408314D01*
X58536114Y-77408314D01*
X58463542Y-77372028D01*
X58427257Y-77335742D01*
X58390971Y-77263171D01*
X58390971Y-77045457D01*
X58427257Y-76972885D01*
X58463542Y-76936600D01*
X58536114Y-76900314D01*
X58681257Y-76900314D01*
X58753828Y-76936600D01*
X59406971Y-77372028D02*
X59334400Y-77408314D01*
X59189257Y-77408314D01*
X59116685Y-77372028D01*
X59080400Y-77335742D01*
X59044114Y-77263171D01*
X59044114Y-77045457D01*
X59080400Y-76972885D01*
X59116685Y-76936600D01*
X59189257Y-76900314D01*
X59334400Y-76900314D01*
X59406971Y-76936600D01*
X60060114Y-77408314D02*
X60060114Y-77009171D01*
X60023828Y-76936600D01*
X59951257Y-76900314D01*
X59806114Y-76900314D01*
X59733542Y-76936600D01*
X60060114Y-77372028D02*
X59987542Y-77408314D01*
X59806114Y-77408314D01*
X59733542Y-77372028D01*
X59697257Y-77299457D01*
X59697257Y-77226885D01*
X59733542Y-77154314D01*
X59806114Y-77118028D01*
X59987542Y-77118028D01*
X60060114Y-77081742D01*
X60422971Y-77408314D02*
X60422971Y-76900314D01*
X60422971Y-77045457D02*
X60459257Y-76972885D01*
X60495542Y-76936600D01*
X60568114Y-76900314D01*
X60640685Y-76900314D01*
X61003542Y-77408314D02*
X60930971Y-77372028D01*
X60894685Y-77335742D01*
X60858400Y-77263171D01*
X60858400Y-77045457D01*
X60894685Y-76972885D01*
X60930971Y-76936600D01*
X61003542Y-76900314D01*
X61112400Y-76900314D01*
X61184971Y-76936600D01*
X61221257Y-76972885D01*
X61257542Y-77045457D01*
X61257542Y-77263171D01*
X61221257Y-77335742D01*
X61184971Y-77372028D01*
X61112400Y-77408314D01*
X61003542Y-77408314D01*
D11*
X55280076Y-75696838D02*
X55425219Y-75745219D01*
X55667123Y-75745219D01*
X55763885Y-75696838D01*
X55812266Y-75648457D01*
X55860647Y-75551695D01*
X55860647Y-75454933D01*
X55812266Y-75358171D01*
X55763885Y-75309790D01*
X55667123Y-75261409D01*
X55473600Y-75213028D01*
X55376838Y-75164647D01*
X55328457Y-75116266D01*
X55280076Y-75019504D01*
X55280076Y-74922742D01*
X55328457Y-74825980D01*
X55376838Y-74777600D01*
X55473600Y-74729219D01*
X55715504Y-74729219D01*
X55860647Y-74777600D01*
X56150933Y-75067885D02*
X56537980Y-75067885D01*
X56296076Y-74729219D02*
X56296076Y-75600076D01*
X56344457Y-75696838D01*
X56441219Y-75745219D01*
X56537980Y-75745219D01*
X57263695Y-75696838D02*
X57166933Y-75745219D01*
X56973409Y-75745219D01*
X56876647Y-75696838D01*
X56828266Y-75600076D01*
X56828266Y-75213028D01*
X56876647Y-75116266D01*
X56973409Y-75067885D01*
X57166933Y-75067885D01*
X57263695Y-75116266D01*
X57312076Y-75213028D01*
X57312076Y-75309790D01*
X56828266Y-75406552D01*
X57747504Y-75067885D02*
X57747504Y-76083885D01*
X57747504Y-75116266D02*
X57844266Y-75067885D01*
X58037790Y-75067885D01*
X58134552Y-75116266D01*
X58182933Y-75164647D01*
X58231314Y-75261409D01*
X58231314Y-75551695D01*
X58182933Y-75648457D01*
X58134552Y-75696838D01*
X58037790Y-75745219D01*
X57844266Y-75745219D01*
X57747504Y-75696838D01*
X58666742Y-75067885D02*
X58666742Y-76083885D01*
X58666742Y-75116266D02*
X58763504Y-75067885D01*
X58957028Y-75067885D01*
X59053790Y-75116266D01*
X59102171Y-75164647D01*
X59150552Y-75261409D01*
X59150552Y-75551695D01*
X59102171Y-75648457D01*
X59053790Y-75696838D01*
X58957028Y-75745219D01*
X58763504Y-75745219D01*
X58666742Y-75696838D01*
X59973028Y-75696838D02*
X59876266Y-75745219D01*
X59682742Y-75745219D01*
X59585980Y-75696838D01*
X59537600Y-75600076D01*
X59537600Y-75213028D01*
X59585980Y-75116266D01*
X59682742Y-75067885D01*
X59876266Y-75067885D01*
X59973028Y-75116266D01*
X60021409Y-75213028D01*
X60021409Y-75309790D01*
X59537600Y-75406552D01*
X60456838Y-75745219D02*
X60456838Y-75067885D01*
X60456838Y-75261409D02*
X60505219Y-75164647D01*
X60553600Y-75116266D01*
X60650361Y-75067885D01*
X60747123Y-75067885D01*
X61859885Y-75745219D02*
X61859885Y-74729219D01*
X62101790Y-74729219D01*
X62246933Y-74777600D01*
X62343695Y-74874361D01*
X62392076Y-74971123D01*
X62440457Y-75164647D01*
X62440457Y-75309790D01*
X62392076Y-75503314D01*
X62343695Y-75600076D01*
X62246933Y-75696838D01*
X62101790Y-75745219D01*
X61859885Y-75745219D01*
X62875885Y-75745219D02*
X62875885Y-75067885D01*
X62875885Y-75261409D02*
X62924266Y-75164647D01*
X62972647Y-75116266D01*
X63069409Y-75067885D01*
X63166171Y-75067885D01*
X63504838Y-75745219D02*
X63504838Y-75067885D01*
X63504838Y-74729219D02*
X63456457Y-74777600D01*
X63504838Y-74825980D01*
X63553219Y-74777600D01*
X63504838Y-74729219D01*
X63504838Y-74825980D01*
X63891885Y-75067885D02*
X64133790Y-75745219D01*
X64375695Y-75067885D01*
X65149790Y-75696838D02*
X65053028Y-75745219D01*
X64859504Y-75745219D01*
X64762742Y-75696838D01*
X64714361Y-75600076D01*
X64714361Y-75213028D01*
X64762742Y-75116266D01*
X64859504Y-75067885D01*
X65053028Y-75067885D01*
X65149790Y-75116266D01*
X65198171Y-75213028D01*
X65198171Y-75309790D01*
X64714361Y-75406552D01*
X65633600Y-75745219D02*
X65633600Y-75067885D01*
X65633600Y-75261409D02*
X65681980Y-75164647D01*
X65730361Y-75116266D01*
X65827123Y-75067885D01*
X65923885Y-75067885D01*
X66891504Y-74729219D02*
X67230171Y-75745219D01*
X67568838Y-74729219D01*
X68439695Y-75745219D02*
X67859123Y-75745219D01*
X68149409Y-75745219D02*
X68149409Y-74729219D01*
X68052647Y-74874361D01*
X67955885Y-74971123D01*
X67859123Y-75019504D01*
X68875123Y-75648457D02*
X68923504Y-75696838D01*
X68875123Y-75745219D01*
X68826742Y-75696838D01*
X68875123Y-75648457D01*
X68875123Y-75745219D01*
X69552457Y-74729219D02*
X69649219Y-74729219D01*
X69745980Y-74777600D01*
X69794361Y-74825980D01*
X69842742Y-74922742D01*
X69891123Y-75116266D01*
X69891123Y-75358171D01*
X69842742Y-75551695D01*
X69794361Y-75648457D01*
X69745980Y-75696838D01*
X69649219Y-75745219D01*
X69552457Y-75745219D01*
X69455695Y-75696838D01*
X69407314Y-75648457D01*
X69358933Y-75551695D01*
X69310552Y-75358171D01*
X69310552Y-75116266D01*
X69358933Y-74922742D01*
X69407314Y-74825980D01*
X69455695Y-74777600D01*
X69552457Y-74729219D01*
D10*
X52135314Y-54940200D02*
X51373314Y-54940200D01*
X51373314Y-54649914D01*
X51409600Y-54577342D01*
X51445885Y-54541057D01*
X51518457Y-54504771D01*
X51627314Y-54504771D01*
X51699885Y-54541057D01*
X51736171Y-54577342D01*
X51772457Y-54649914D01*
X51772457Y-54940200D01*
X52135314Y-54069342D02*
X52099028Y-54141914D01*
X52062742Y-54178200D01*
X51990171Y-54214485D01*
X51772457Y-54214485D01*
X51699885Y-54178200D01*
X51663600Y-54141914D01*
X51627314Y-54069342D01*
X51627314Y-53960485D01*
X51663600Y-53887914D01*
X51699885Y-53851628D01*
X51772457Y-53815342D01*
X51990171Y-53815342D01*
X52062742Y-53851628D01*
X52099028Y-53887914D01*
X52135314Y-53960485D01*
X52135314Y-54069342D01*
X51627314Y-53597628D02*
X51627314Y-53307342D01*
X51373314Y-53488771D02*
X52026457Y-53488771D01*
X52099028Y-53452485D01*
X52135314Y-53379914D01*
X52135314Y-53307342D01*
X54762400Y-54512028D02*
X54726114Y-54584600D01*
X54726114Y-54693457D01*
X54762400Y-54802314D01*
X54834971Y-54874885D01*
X54907542Y-54911171D01*
X55052685Y-54947457D01*
X55161542Y-54947457D01*
X55306685Y-54911171D01*
X55379257Y-54874885D01*
X55451828Y-54802314D01*
X55488114Y-54693457D01*
X55488114Y-54620885D01*
X55451828Y-54512028D01*
X55415542Y-54475742D01*
X55161542Y-54475742D01*
X55161542Y-54620885D01*
X55488114Y-53713742D02*
X55125257Y-53967742D01*
X55488114Y-54149171D02*
X54726114Y-54149171D01*
X54726114Y-53858885D01*
X54762400Y-53786314D01*
X54798685Y-53750028D01*
X54871257Y-53713742D01*
X54980114Y-53713742D01*
X55052685Y-53750028D01*
X55088971Y-53786314D01*
X55125257Y-53858885D01*
X55125257Y-54149171D01*
X55488114Y-53387171D02*
X54726114Y-53387171D01*
X54726114Y-53205742D01*
X54762400Y-53096885D01*
X54834971Y-53024314D01*
X54907542Y-52988028D01*
X55052685Y-52951742D01*
X55161542Y-52951742D01*
X55306685Y-52988028D01*
X55379257Y-53024314D01*
X55451828Y-53096885D01*
X55488114Y-53205742D01*
X55488114Y-53387171D01*
X54726114Y-67353542D02*
X54726114Y-67716400D01*
X55088971Y-67752685D01*
X55052685Y-67716400D01*
X55016400Y-67643828D01*
X55016400Y-67462400D01*
X55052685Y-67389828D01*
X55088971Y-67353542D01*
X55161542Y-67317257D01*
X55342971Y-67317257D01*
X55415542Y-67353542D01*
X55451828Y-67389828D01*
X55488114Y-67462400D01*
X55488114Y-67643828D01*
X55451828Y-67716400D01*
X55415542Y-67752685D01*
X54726114Y-67099542D02*
X55488114Y-66845542D01*
X54726114Y-66591542D01*
X88537142Y-32577314D02*
X88537142Y-31815314D01*
X88791142Y-32359600D01*
X89045142Y-31815314D01*
X89045142Y-32577314D01*
X89807142Y-32577314D02*
X89371714Y-32577314D01*
X89589428Y-32577314D02*
X89589428Y-31815314D01*
X89516857Y-31924171D01*
X89444285Y-31996742D01*
X89371714Y-32033028D01*
X90387714Y-32178171D02*
X90496571Y-32214457D01*
X90532857Y-32250742D01*
X90569142Y-32323314D01*
X90569142Y-32432171D01*
X90532857Y-32504742D01*
X90496571Y-32541028D01*
X90424000Y-32577314D01*
X90133714Y-32577314D01*
X90133714Y-31815314D01*
X90387714Y-31815314D01*
X90460285Y-31851600D01*
X90496571Y-31887885D01*
X90532857Y-31960457D01*
X90532857Y-32033028D01*
X90496571Y-32105600D01*
X90460285Y-32141885D01*
X90387714Y-32178171D01*
X90133714Y-32178171D01*
X88537142Y-29605514D02*
X88537142Y-28843514D01*
X88791142Y-29387800D01*
X89045142Y-28843514D01*
X89045142Y-29605514D01*
X89371714Y-28916085D02*
X89408000Y-28879800D01*
X89480571Y-28843514D01*
X89662000Y-28843514D01*
X89734571Y-28879800D01*
X89770857Y-28916085D01*
X89807142Y-28988657D01*
X89807142Y-29061228D01*
X89770857Y-29170085D01*
X89335428Y-29605514D01*
X89807142Y-29605514D01*
X90387714Y-29206371D02*
X90496571Y-29242657D01*
X90532857Y-29278942D01*
X90569142Y-29351514D01*
X90569142Y-29460371D01*
X90532857Y-29532942D01*
X90496571Y-29569228D01*
X90424000Y-29605514D01*
X90133714Y-29605514D01*
X90133714Y-28843514D01*
X90387714Y-28843514D01*
X90460285Y-28879800D01*
X90496571Y-28916085D01*
X90532857Y-28988657D01*
X90532857Y-29061228D01*
X90496571Y-29133800D01*
X90460285Y-29170085D01*
X90387714Y-29206371D01*
X90133714Y-29206371D01*
X102891771Y-29427714D02*
X102891771Y-28665714D01*
X103145771Y-29210000D01*
X103399771Y-28665714D01*
X103399771Y-29427714D01*
X103726342Y-28738285D02*
X103762628Y-28702000D01*
X103835200Y-28665714D01*
X104016628Y-28665714D01*
X104089200Y-28702000D01*
X104125485Y-28738285D01*
X104161771Y-28810857D01*
X104161771Y-28883428D01*
X104125485Y-28992285D01*
X103690057Y-29427714D01*
X104161771Y-29427714D01*
X104452057Y-29210000D02*
X104814914Y-29210000D01*
X104379485Y-29427714D02*
X104633485Y-28665714D01*
X104887485Y-29427714D01*
X102993371Y-32856714D02*
X102993371Y-32094714D01*
X103247371Y-32639000D01*
X103501371Y-32094714D01*
X103501371Y-32856714D01*
X104263371Y-32856714D02*
X103827942Y-32856714D01*
X104045657Y-32856714D02*
X104045657Y-32094714D01*
X103973085Y-32203571D01*
X103900514Y-32276142D01*
X103827942Y-32312428D01*
X104553657Y-32639000D02*
X104916514Y-32639000D01*
X104481085Y-32856714D02*
X104735085Y-32094714D01*
X104989085Y-32856714D01*
X105914371Y-43713400D02*
X105841800Y-43677114D01*
X105732942Y-43677114D01*
X105624085Y-43713400D01*
X105551514Y-43785971D01*
X105515228Y-43858542D01*
X105478942Y-44003685D01*
X105478942Y-44112542D01*
X105515228Y-44257685D01*
X105551514Y-44330257D01*
X105624085Y-44402828D01*
X105732942Y-44439114D01*
X105805514Y-44439114D01*
X105914371Y-44402828D01*
X105950657Y-44366542D01*
X105950657Y-44112542D01*
X105805514Y-44112542D01*
X106712657Y-44439114D02*
X106458657Y-44076257D01*
X106277228Y-44439114D02*
X106277228Y-43677114D01*
X106567514Y-43677114D01*
X106640085Y-43713400D01*
X106676371Y-43749685D01*
X106712657Y-43822257D01*
X106712657Y-43931114D01*
X106676371Y-44003685D01*
X106640085Y-44039971D01*
X106567514Y-44076257D01*
X106277228Y-44076257D01*
X107039228Y-44439114D02*
X107039228Y-43677114D01*
X107220657Y-43677114D01*
X107329514Y-43713400D01*
X107402085Y-43785971D01*
X107438371Y-43858542D01*
X107474657Y-44003685D01*
X107474657Y-44112542D01*
X107438371Y-44257685D01*
X107402085Y-44330257D01*
X107329514Y-44402828D01*
X107220657Y-44439114D01*
X107039228Y-44439114D01*
X105428142Y-41162514D02*
X105682142Y-41924514D01*
X105936142Y-41162514D01*
X106190142Y-41924514D02*
X106190142Y-41162514D01*
X106444142Y-41706800D01*
X106698142Y-41162514D01*
X106698142Y-41924514D01*
X107206142Y-41162514D02*
X107351285Y-41162514D01*
X107423857Y-41198800D01*
X107496428Y-41271371D01*
X107532714Y-41416514D01*
X107532714Y-41670514D01*
X107496428Y-41815657D01*
X107423857Y-41888228D01*
X107351285Y-41924514D01*
X107206142Y-41924514D01*
X107133571Y-41888228D01*
X107061000Y-41815657D01*
X107024714Y-41670514D01*
X107024714Y-41416514D01*
X107061000Y-41271371D01*
X107133571Y-41198800D01*
X107206142Y-41162514D01*
X107750428Y-41162514D02*
X108185857Y-41162514D01*
X107968142Y-41924514D02*
X107968142Y-41162514D01*
D12*
X55250542Y-41846428D02*
X55250542Y-40703571D01*
D13*
X51378152Y-41347571D02*
X52152247Y-41347571D01*
X51765200Y-41734619D02*
X51765200Y-40960523D01*
D14*
X67437000Y-25882600D02*
X67437000Y-27482800D01*
X75209400Y-25882600D02*
X67437000Y-25882600D01*
X75209400Y-27482800D02*
X75209400Y-25882600D01*
D11*
X52267152Y-38324971D02*
X53041247Y-38324971D01*
X52654200Y-38712019D02*
X52654200Y-37937923D01*
X55518352Y-38197971D02*
X56292447Y-38197971D01*
D15*
X48893502Y-32387800D02*
X48893502Y-33187800D01*
X48493502Y-32787800D02*
X49293502Y-32787800D01*
X56984200Y-34569800D02*
X56984200Y-35635800D01*
X56944200Y-34334800D02*
X56944200Y-35870800D01*
X56904200Y-34154800D02*
X56904200Y-36050800D01*
X56864200Y-34004800D02*
X56864200Y-36200800D01*
X56824200Y-33873800D02*
X56824200Y-36331800D01*
X56784200Y-33756800D02*
X56784200Y-36448800D01*
X56744200Y-33649800D02*
X56744200Y-36555800D01*
X56704200Y-33550800D02*
X56704200Y-36654800D01*
X56664200Y-33457800D02*
X56664200Y-36747800D01*
X56624200Y-33371800D02*
X56624200Y-36833800D01*
X56584200Y-33289800D02*
X56584200Y-36915800D01*
X56544200Y-33212800D02*
X56544200Y-36992800D01*
X56504200Y-33138800D02*
X56504200Y-37066800D01*
X56464200Y-33068800D02*
X56464200Y-37136800D01*
X56424200Y-33000800D02*
X56424200Y-37204800D01*
X56384200Y-32936800D02*
X56384200Y-37268800D01*
X56344200Y-32874800D02*
X56344200Y-37330800D01*
X56304200Y-32815800D02*
X56304200Y-37389800D01*
X56264200Y-32757800D02*
X56264200Y-37447800D01*
X56224200Y-32702800D02*
X56224200Y-37502800D01*
X56184200Y-32648800D02*
X56184200Y-37556800D01*
X56144200Y-32597800D02*
X56144200Y-37607800D01*
X56104200Y-32546800D02*
X56104200Y-37658800D01*
X56064200Y-32498800D02*
X56064200Y-37706800D01*
X56024200Y-32451800D02*
X56024200Y-37753800D01*
X55984200Y-32405800D02*
X55984200Y-37799800D01*
X55944200Y-32361800D02*
X55944200Y-37843800D01*
X55904200Y-32318800D02*
X55904200Y-37886800D01*
X55864200Y-32276800D02*
X55864200Y-37928800D01*
X55824200Y-36142800D02*
X55824200Y-37969800D01*
X55824200Y-32235800D02*
X55824200Y-34062800D01*
X55784200Y-36142800D02*
X55784200Y-38009800D01*
X55784200Y-32195800D02*
X55784200Y-34062800D01*
X55744200Y-36142800D02*
X55744200Y-38047800D01*
X55744200Y-32157800D02*
X55744200Y-34062800D01*
X55704200Y-36142800D02*
X55704200Y-38085800D01*
X55704200Y-32119800D02*
X55704200Y-34062800D01*
X55664200Y-36142800D02*
X55664200Y-38121800D01*
X55664200Y-32083800D02*
X55664200Y-34062800D01*
X55624200Y-36142800D02*
X55624200Y-38157800D01*
X55624200Y-32047800D02*
X55624200Y-34062800D01*
X55584200Y-36142800D02*
X55584200Y-38192800D01*
X55584200Y-32012800D02*
X55584200Y-34062800D01*
X55544200Y-36142800D02*
X55544200Y-38226800D01*
X55544200Y-31978800D02*
X55544200Y-34062800D01*
X55504200Y-36142800D02*
X55504200Y-38258800D01*
X55504200Y-31946800D02*
X55504200Y-34062800D01*
X55464200Y-36142800D02*
X55464200Y-38291800D01*
X55464200Y-31913800D02*
X55464200Y-34062800D01*
X55424200Y-36142800D02*
X55424200Y-38322800D01*
X55424200Y-31882800D02*
X55424200Y-34062800D01*
X55384200Y-36142800D02*
X55384200Y-38352800D01*
X55384200Y-31852800D02*
X55384200Y-34062800D01*
X55344200Y-36142800D02*
X55344200Y-38382800D01*
X55344200Y-31822800D02*
X55344200Y-34062800D01*
X55304200Y-36142800D02*
X55304200Y-38411800D01*
X55304200Y-31793800D02*
X55304200Y-34062800D01*
X55264200Y-36142800D02*
X55264200Y-38440800D01*
X55264200Y-31764800D02*
X55264200Y-34062800D01*
X55224200Y-36142800D02*
X55224200Y-38467800D01*
X55224200Y-31737800D02*
X55224200Y-34062800D01*
X55184200Y-36142800D02*
X55184200Y-38494800D01*
X55184200Y-31710800D02*
X55184200Y-34062800D01*
X55144200Y-36142800D02*
X55144200Y-38520800D01*
X55144200Y-31684800D02*
X55144200Y-34062800D01*
X55104200Y-36142800D02*
X55104200Y-38546800D01*
X55104200Y-31658800D02*
X55104200Y-34062800D01*
X55064200Y-36142800D02*
X55064200Y-38571800D01*
X55064200Y-31633800D02*
X55064200Y-34062800D01*
X55024200Y-36142800D02*
X55024200Y-38595800D01*
X55024200Y-31609800D02*
X55024200Y-34062800D01*
X54984200Y-36142800D02*
X54984200Y-38619800D01*
X54984200Y-31585800D02*
X54984200Y-34062800D01*
X54944200Y-36142800D02*
X54944200Y-38642800D01*
X54944200Y-31562800D02*
X54944200Y-34062800D01*
X54904200Y-36142800D02*
X54904200Y-38664800D01*
X54904200Y-31540800D02*
X54904200Y-34062800D01*
X54864200Y-36142800D02*
X54864200Y-38686800D01*
X54864200Y-31518800D02*
X54864200Y-34062800D01*
X54824200Y-36142800D02*
X54824200Y-38708800D01*
X54824200Y-31496800D02*
X54824200Y-34062800D01*
X54784200Y-36142800D02*
X54784200Y-38729800D01*
X54784200Y-31475800D02*
X54784200Y-34062800D01*
X54744200Y-36142800D02*
X54744200Y-38749800D01*
X54744200Y-31455800D02*
X54744200Y-34062800D01*
X54704200Y-36142800D02*
X54704200Y-38768800D01*
X54704200Y-31436800D02*
X54704200Y-34062800D01*
X54664200Y-36142800D02*
X54664200Y-38788800D01*
X54664200Y-31416800D02*
X54664200Y-34062800D01*
X54624200Y-36142800D02*
X54624200Y-38806800D01*
X54624200Y-31398800D02*
X54624200Y-34062800D01*
X54584200Y-36142800D02*
X54584200Y-38824800D01*
X54584200Y-31380800D02*
X54584200Y-34062800D01*
X54544200Y-36142800D02*
X54544200Y-38842800D01*
X54544200Y-31362800D02*
X54544200Y-34062800D01*
X54504200Y-36142800D02*
X54504200Y-38859800D01*
X54504200Y-31345800D02*
X54504200Y-34062800D01*
X54464200Y-36142800D02*
X54464200Y-38876800D01*
X54464200Y-31328800D02*
X54464200Y-34062800D01*
X54424200Y-36142800D02*
X54424200Y-38892800D01*
X54424200Y-31312800D02*
X54424200Y-34062800D01*
X54384200Y-36142800D02*
X54384200Y-38907800D01*
X54384200Y-31297800D02*
X54384200Y-34062800D01*
X54344200Y-36142800D02*
X54344200Y-38923800D01*
X54344200Y-31281800D02*
X54344200Y-34062800D01*
X54304200Y-36142800D02*
X54304200Y-38937800D01*
X54304200Y-31267800D02*
X54304200Y-34062800D01*
X54264200Y-36142800D02*
X54264200Y-38952800D01*
X54264200Y-31252800D02*
X54264200Y-34062800D01*
X54224200Y-36142800D02*
X54224200Y-38965800D01*
X54224200Y-31239800D02*
X54224200Y-34062800D01*
X54184200Y-36142800D02*
X54184200Y-38979800D01*
X54184200Y-31225800D02*
X54184200Y-34062800D01*
X54144200Y-36142800D02*
X54144200Y-38991800D01*
X54144200Y-31213800D02*
X54144200Y-34062800D01*
X54104200Y-36142800D02*
X54104200Y-39004800D01*
X54104200Y-31200800D02*
X54104200Y-34062800D01*
X54064200Y-36142800D02*
X54064200Y-39016800D01*
X54064200Y-31188800D02*
X54064200Y-34062800D01*
X54024200Y-36142800D02*
X54024200Y-39027800D01*
X54024200Y-31177800D02*
X54024200Y-34062800D01*
X53984200Y-36142800D02*
X53984200Y-39038800D01*
X53984200Y-31166800D02*
X53984200Y-34062800D01*
X53944200Y-36142800D02*
X53944200Y-39049800D01*
X53944200Y-31155800D02*
X53944200Y-34062800D01*
X53904200Y-36142800D02*
X53904200Y-39059800D01*
X53904200Y-31145800D02*
X53904200Y-34062800D01*
X53864200Y-36142800D02*
X53864200Y-39069800D01*
X53864200Y-31135800D02*
X53864200Y-34062800D01*
X53824200Y-36142800D02*
X53824200Y-39078800D01*
X53824200Y-31126800D02*
X53824200Y-34062800D01*
X53784200Y-36142800D02*
X53784200Y-39087800D01*
X53784200Y-31117800D02*
X53784200Y-34062800D01*
X53744200Y-31108800D02*
X53744200Y-39096800D01*
X53704200Y-31100800D02*
X53704200Y-39104800D01*
X53664200Y-31092800D02*
X53664200Y-39112800D01*
X53624200Y-31085800D02*
X53624200Y-39119800D01*
X53583200Y-31078800D02*
X53583200Y-39126800D01*
X53543200Y-31072800D02*
X53543200Y-39132800D01*
X53503200Y-31065800D02*
X53503200Y-39139800D01*
X53463200Y-31060800D02*
X53463200Y-39144800D01*
X53423200Y-31054800D02*
X53423200Y-39150800D01*
X53383200Y-31050800D02*
X53383200Y-39154800D01*
X53343200Y-31045800D02*
X53343200Y-39159800D01*
X53303200Y-31041800D02*
X53303200Y-39163800D01*
X53263200Y-31037800D02*
X53263200Y-39167800D01*
X53223200Y-31034800D02*
X53223200Y-39170800D01*
X53183200Y-31031800D02*
X53183200Y-39173800D01*
X53143200Y-31028800D02*
X53143200Y-39176800D01*
X53103200Y-31026800D02*
X53103200Y-39178800D01*
X53063200Y-31025800D02*
X53063200Y-39179800D01*
X53023200Y-31023800D02*
X53023200Y-39181800D01*
X52983200Y-31022800D02*
X52983200Y-39182800D01*
X52943200Y-31022800D02*
X52943200Y-39182800D01*
X52903200Y-31022800D02*
X52903200Y-39182800D01*
X57023200Y-35102800D02*
G75*
G03X57023200Y-35102800I-4120000J0D01*
G01*
X50265600Y-55670800D02*
X49955600Y-55670800D01*
X49955600Y-55670800D02*
X49955600Y-65540800D01*
X49955600Y-65540800D02*
X50265600Y-65540800D01*
X51785600Y-55670800D02*
X57545600Y-55670800D01*
X57545600Y-55670800D02*
X57545600Y-57090800D01*
X57545600Y-57090800D02*
X57045600Y-57090800D01*
X57045600Y-57090800D02*
X57045600Y-64120800D01*
X57045600Y-64120800D02*
X57545600Y-64120800D01*
X57545600Y-64120800D02*
X57545600Y-65540800D01*
X57545600Y-65540800D02*
X51785600Y-65540800D01*
X89024000Y-60683600D02*
X101854000Y-60683600D01*
X89024000Y-40103600D02*
X89024000Y-60683600D01*
X104524000Y-40103600D02*
X89024000Y-40103600D01*
X104524000Y-58013600D02*
X104524000Y-40103600D01*
X101854000Y-58013600D02*
X104524000Y-58013600D01*
X101854000Y-60683600D02*
X101854000Y-58013600D01*
X104524000Y-60683600D02*
X104524000Y-59283600D01*
X103124000Y-60683600D02*
X104524000Y-60683600D01*
X101854000Y-58013600D02*
X101854000Y-40103600D01*
X91694000Y-60683600D02*
X91694000Y-40103600D01*
X77647800Y-65201800D02*
X77647800Y-67741800D01*
X77647800Y-67741800D02*
X80317800Y-67741800D01*
X80317800Y-65201800D02*
X80317800Y-26971800D01*
X80317800Y-70411800D02*
X80317800Y-67741800D01*
X64947800Y-67741800D02*
X62277800Y-67741800D01*
X64947800Y-67741800D02*
X64947800Y-29641800D01*
X64947800Y-29641800D02*
X62277800Y-29641800D01*
X77647800Y-65201800D02*
X80317800Y-65201800D01*
X77647800Y-65201800D02*
X77647800Y-29641800D01*
X77647800Y-29641800D02*
X80317800Y-29641800D01*
X80317800Y-26971800D02*
X62277800Y-26971800D01*
X62277800Y-26971800D02*
X62277800Y-70411800D01*
X62277800Y-70411800D02*
X80317800Y-70411800D01*
X90138600Y-73178400D02*
X90138600Y-73488400D01*
X90138600Y-73488400D02*
X103008600Y-73488400D01*
X103008600Y-73488400D02*
X103008600Y-73178400D01*
X90138600Y-71658400D02*
X90138600Y-65898400D01*
X90138600Y-65898400D02*
X91558600Y-65898400D01*
X91558600Y-65898400D02*
X91558600Y-66398400D01*
X91558600Y-66398400D02*
X101588600Y-66398400D01*
X101588600Y-66398400D02*
X101588600Y-65898400D01*
X101588600Y-65898400D02*
X103008600Y-65898400D01*
X103008600Y-65898400D02*
X103008600Y-71658400D01*
X50468800Y-42793000D02*
X50158800Y-42793000D01*
X50158800Y-42793000D02*
X50158800Y-49663000D01*
X50158800Y-49663000D02*
X50468800Y-49663000D01*
X51988800Y-42793000D02*
X57748800Y-42793000D01*
X57748800Y-42793000D02*
X57748800Y-44213000D01*
X57748800Y-44213000D02*
X57248800Y-44213000D01*
X57248800Y-44213000D02*
X57248800Y-48243000D01*
X57248800Y-48243000D02*
X57748800Y-48243000D01*
X57748800Y-48243000D02*
X57748800Y-49663000D01*
X57748800Y-49663000D02*
X51988800Y-49663000D01*
X91786800Y-34812600D02*
X91786800Y-29052600D01*
X93206800Y-34812600D02*
X91786800Y-34812600D01*
X93206800Y-34312600D02*
X93206800Y-34812600D01*
X100236800Y-34312600D02*
X93206800Y-34312600D01*
X100236800Y-34812600D02*
X100236800Y-34312600D01*
X101656800Y-34812600D02*
X100236800Y-34812600D01*
X101656800Y-29052600D02*
X101656800Y-34812600D01*
X91786800Y-27222600D02*
X91786800Y-27532600D01*
X101656800Y-27222600D02*
X91786800Y-27222600D01*
X101656800Y-27532600D02*
X101656800Y-27222600D01*
X106936000Y-57995433D02*
X106936000Y-58287967D01*
X105916000Y-57995433D02*
X105916000Y-58287967D01*
D14*
X50974628Y-30305180D02*
X50403200Y-30305180D01*
X50688914Y-30305180D02*
X50688914Y-29305180D01*
X50593676Y-29448038D01*
X50498438Y-29543276D01*
X50403200Y-29590895D01*
X51593676Y-29305180D02*
X51688914Y-29305180D01*
X51784152Y-29352800D01*
X51831771Y-29400419D01*
X51879390Y-29495657D01*
X51927009Y-29686133D01*
X51927009Y-29924228D01*
X51879390Y-30114704D01*
X51831771Y-30209942D01*
X51784152Y-30257561D01*
X51688914Y-30305180D01*
X51593676Y-30305180D01*
X51498438Y-30257561D01*
X51450819Y-30209942D01*
X51403200Y-30114704D01*
X51355580Y-29924228D01*
X51355580Y-29686133D01*
X51403200Y-29495657D01*
X51450819Y-29400419D01*
X51498438Y-29352800D01*
X51593676Y-29305180D01*
X52546057Y-29305180D02*
X52641295Y-29305180D01*
X52736533Y-29352800D01*
X52784152Y-29400419D01*
X52831771Y-29495657D01*
X52879390Y-29686133D01*
X52879390Y-29924228D01*
X52831771Y-30114704D01*
X52784152Y-30209942D01*
X52736533Y-30257561D01*
X52641295Y-30305180D01*
X52546057Y-30305180D01*
X52450819Y-30257561D01*
X52403200Y-30209942D01*
X52355580Y-30114704D01*
X52307961Y-29924228D01*
X52307961Y-29686133D01*
X52355580Y-29495657D01*
X52403200Y-29400419D01*
X52450819Y-29352800D01*
X52546057Y-29305180D01*
X54498438Y-29638514D02*
X54498438Y-30305180D01*
X54069866Y-29638514D02*
X54069866Y-30162323D01*
X54117485Y-30257561D01*
X54212723Y-30305180D01*
X54355580Y-30305180D01*
X54450819Y-30257561D01*
X54498438Y-30209942D01*
X55307961Y-29781371D02*
X54974628Y-29781371D01*
X54974628Y-30305180D02*
X54974628Y-29305180D01*
X55450819Y-29305180D01*
D11*
X48366438Y-64247485D02*
X48414819Y-64102342D01*
X48414819Y-63860438D01*
X48366438Y-63763676D01*
X48318057Y-63715295D01*
X48221295Y-63666914D01*
X48124533Y-63666914D01*
X48027771Y-63715295D01*
X47979390Y-63763676D01*
X47931009Y-63860438D01*
X47882628Y-64053961D01*
X47834247Y-64150723D01*
X47785866Y-64199104D01*
X47689104Y-64247485D01*
X47592342Y-64247485D01*
X47495580Y-64199104D01*
X47447200Y-64150723D01*
X47398819Y-64053961D01*
X47398819Y-63812057D01*
X47447200Y-63666914D01*
X47737485Y-63231485D02*
X48753485Y-63231485D01*
X47785866Y-63231485D02*
X47737485Y-63134723D01*
X47737485Y-62941200D01*
X47785866Y-62844438D01*
X47834247Y-62796057D01*
X47931009Y-62747676D01*
X48221295Y-62747676D01*
X48318057Y-62796057D01*
X48366438Y-62844438D01*
X48414819Y-62941200D01*
X48414819Y-63134723D01*
X48366438Y-63231485D01*
X48366438Y-61925200D02*
X48414819Y-62021961D01*
X48414819Y-62215485D01*
X48366438Y-62312247D01*
X48269676Y-62360628D01*
X47882628Y-62360628D01*
X47785866Y-62312247D01*
X47737485Y-62215485D01*
X47737485Y-62021961D01*
X47785866Y-61925200D01*
X47882628Y-61876819D01*
X47979390Y-61876819D01*
X48076152Y-62360628D01*
X48366438Y-61054342D02*
X48414819Y-61151104D01*
X48414819Y-61344628D01*
X48366438Y-61441390D01*
X48269676Y-61489771D01*
X47882628Y-61489771D01*
X47785866Y-61441390D01*
X47737485Y-61344628D01*
X47737485Y-61151104D01*
X47785866Y-61054342D01*
X47882628Y-61005961D01*
X47979390Y-61005961D01*
X48076152Y-61489771D01*
X48414819Y-60135104D02*
X47398819Y-60135104D01*
X48366438Y-60135104D02*
X48414819Y-60231866D01*
X48414819Y-60425390D01*
X48366438Y-60522152D01*
X48318057Y-60570533D01*
X48221295Y-60618914D01*
X47931009Y-60618914D01*
X47834247Y-60570533D01*
X47785866Y-60522152D01*
X47737485Y-60425390D01*
X47737485Y-60231866D01*
X47785866Y-60135104D01*
X48124533Y-58925580D02*
X48124533Y-58441771D01*
X48414819Y-59022342D02*
X47398819Y-58683676D01*
X48414819Y-58345009D01*
X48414819Y-57570914D02*
X47398819Y-57570914D01*
X48366438Y-57570914D02*
X48414819Y-57667676D01*
X48414819Y-57861200D01*
X48366438Y-57957961D01*
X48318057Y-58006342D01*
X48221295Y-58054723D01*
X47931009Y-58054723D01*
X47834247Y-58006342D01*
X47785866Y-57957961D01*
X47737485Y-57861200D01*
X47737485Y-57667676D01*
X47785866Y-57570914D01*
X47737485Y-57087104D02*
X48608342Y-57087104D01*
X48705104Y-57135485D01*
X48753485Y-57232247D01*
X48753485Y-57280628D01*
X47398819Y-57087104D02*
X47447200Y-57135485D01*
X47495580Y-57087104D01*
X47447200Y-57038723D01*
X47398819Y-57087104D01*
X47495580Y-57087104D01*
X48318057Y-56603295D02*
X48366438Y-56554914D01*
X48414819Y-56603295D01*
X48366438Y-56651676D01*
X48318057Y-56603295D01*
X48414819Y-56603295D01*
D14*
X91518028Y-62783980D02*
X91518028Y-61783980D01*
X91756123Y-61783980D01*
X91898980Y-61831600D01*
X91994219Y-61926838D01*
X92041838Y-62022076D01*
X92089457Y-62212552D01*
X92089457Y-62355409D01*
X92041838Y-62545885D01*
X91994219Y-62641123D01*
X91898980Y-62736361D01*
X91756123Y-62783980D01*
X91518028Y-62783980D01*
X92518028Y-62783980D02*
X92518028Y-62117314D01*
X92518028Y-62307790D02*
X92565647Y-62212552D01*
X92613266Y-62164933D01*
X92708504Y-62117314D01*
X92803742Y-62117314D01*
X93137076Y-62783980D02*
X93137076Y-62117314D01*
X93137076Y-61783980D02*
X93089457Y-61831600D01*
X93137076Y-61879219D01*
X93184695Y-61831600D01*
X93137076Y-61783980D01*
X93137076Y-61879219D01*
X93518028Y-62117314D02*
X93756123Y-62783980D01*
X93994219Y-62117314D01*
X94756123Y-62736361D02*
X94660885Y-62783980D01*
X94470409Y-62783980D01*
X94375171Y-62736361D01*
X94327552Y-62641123D01*
X94327552Y-62260171D01*
X94375171Y-62164933D01*
X94470409Y-62117314D01*
X94660885Y-62117314D01*
X94756123Y-62164933D01*
X94803742Y-62260171D01*
X94803742Y-62355409D01*
X94327552Y-62450647D01*
X95232314Y-62783980D02*
X95232314Y-62117314D01*
X95232314Y-62307790D02*
X95279933Y-62212552D01*
X95327552Y-62164933D01*
X95422790Y-62117314D01*
X95518028Y-62117314D01*
D11*
X67790180Y-72011419D02*
X67790180Y-70995419D01*
X68177228Y-70995419D01*
X68273990Y-71043800D01*
X68322371Y-71092180D01*
X68370752Y-71188942D01*
X68370752Y-71334085D01*
X68322371Y-71430847D01*
X68273990Y-71479228D01*
X68177228Y-71527609D01*
X67790180Y-71527609D01*
X68806180Y-72011419D02*
X68806180Y-71334085D01*
X68806180Y-71527609D02*
X68854561Y-71430847D01*
X68902942Y-71382466D01*
X68999704Y-71334085D01*
X69096466Y-71334085D01*
X69580276Y-72011419D02*
X69483514Y-71963038D01*
X69435133Y-71914657D01*
X69386752Y-71817895D01*
X69386752Y-71527609D01*
X69435133Y-71430847D01*
X69483514Y-71382466D01*
X69580276Y-71334085D01*
X69725419Y-71334085D01*
X69822180Y-71382466D01*
X69870561Y-71430847D01*
X69918942Y-71527609D01*
X69918942Y-71817895D01*
X69870561Y-71914657D01*
X69822180Y-71963038D01*
X69725419Y-72011419D01*
X69580276Y-72011419D01*
X70789800Y-71963038D02*
X70693038Y-72011419D01*
X70499514Y-72011419D01*
X70402752Y-71963038D01*
X70354371Y-71914657D01*
X70305990Y-71817895D01*
X70305990Y-71527609D01*
X70354371Y-71430847D01*
X70402752Y-71382466D01*
X70499514Y-71334085D01*
X70693038Y-71334085D01*
X70789800Y-71382466D01*
X71612276Y-71963038D02*
X71515514Y-72011419D01*
X71321990Y-72011419D01*
X71225228Y-71963038D01*
X71176847Y-71866276D01*
X71176847Y-71479228D01*
X71225228Y-71382466D01*
X71321990Y-71334085D01*
X71515514Y-71334085D01*
X71612276Y-71382466D01*
X71660657Y-71479228D01*
X71660657Y-71575990D01*
X71176847Y-71672752D01*
X72047704Y-71963038D02*
X72144466Y-72011419D01*
X72337990Y-72011419D01*
X72434752Y-71963038D01*
X72483133Y-71866276D01*
X72483133Y-71817895D01*
X72434752Y-71721133D01*
X72337990Y-71672752D01*
X72192847Y-71672752D01*
X72096085Y-71624371D01*
X72047704Y-71527609D01*
X72047704Y-71479228D01*
X72096085Y-71382466D01*
X72192847Y-71334085D01*
X72337990Y-71334085D01*
X72434752Y-71382466D01*
X72870180Y-71963038D02*
X72966942Y-72011419D01*
X73160466Y-72011419D01*
X73257228Y-71963038D01*
X73305609Y-71866276D01*
X73305609Y-71817895D01*
X73257228Y-71721133D01*
X73160466Y-71672752D01*
X73015323Y-71672752D01*
X72918561Y-71624371D01*
X72870180Y-71527609D01*
X72870180Y-71479228D01*
X72918561Y-71382466D01*
X73015323Y-71334085D01*
X73160466Y-71334085D01*
X73257228Y-71382466D01*
X73886180Y-72011419D02*
X73789419Y-71963038D01*
X73741038Y-71914657D01*
X73692657Y-71817895D01*
X73692657Y-71527609D01*
X73741038Y-71430847D01*
X73789419Y-71382466D01*
X73886180Y-71334085D01*
X74031323Y-71334085D01*
X74128085Y-71382466D01*
X74176466Y-71430847D01*
X74224847Y-71527609D01*
X74224847Y-71817895D01*
X74176466Y-71914657D01*
X74128085Y-71963038D01*
X74031323Y-72011419D01*
X73886180Y-72011419D01*
X74660276Y-72011419D02*
X74660276Y-71334085D01*
X74660276Y-71527609D02*
X74708657Y-71430847D01*
X74757038Y-71382466D01*
X74853800Y-71334085D01*
X74950561Y-71334085D01*
X93457485Y-74853800D02*
X93360723Y-74805419D01*
X93215580Y-74805419D01*
X93070438Y-74853800D01*
X92973676Y-74950561D01*
X92925295Y-75047323D01*
X92876914Y-75240847D01*
X92876914Y-75385990D01*
X92925295Y-75579514D01*
X92973676Y-75676276D01*
X93070438Y-75773038D01*
X93215580Y-75821419D01*
X93312342Y-75821419D01*
X93457485Y-75773038D01*
X93505866Y-75724657D01*
X93505866Y-75385990D01*
X93312342Y-75385990D01*
X94328342Y-75773038D02*
X94231580Y-75821419D01*
X94038057Y-75821419D01*
X93941295Y-75773038D01*
X93892914Y-75676276D01*
X93892914Y-75289228D01*
X93941295Y-75192466D01*
X94038057Y-75144085D01*
X94231580Y-75144085D01*
X94328342Y-75192466D01*
X94376723Y-75289228D01*
X94376723Y-75385990D01*
X93892914Y-75482752D01*
X94812152Y-75144085D02*
X94812152Y-75821419D01*
X94812152Y-75240847D02*
X94860533Y-75192466D01*
X94957295Y-75144085D01*
X95102438Y-75144085D01*
X95199200Y-75192466D01*
X95247580Y-75289228D01*
X95247580Y-75821419D01*
X96118438Y-75773038D02*
X96021676Y-75821419D01*
X95828152Y-75821419D01*
X95731390Y-75773038D01*
X95683009Y-75676276D01*
X95683009Y-75289228D01*
X95731390Y-75192466D01*
X95828152Y-75144085D01*
X96021676Y-75144085D01*
X96118438Y-75192466D01*
X96166819Y-75289228D01*
X96166819Y-75385990D01*
X95683009Y-75482752D01*
X96602247Y-75821419D02*
X96602247Y-75144085D01*
X96602247Y-75337609D02*
X96650628Y-75240847D01*
X96699009Y-75192466D01*
X96795771Y-75144085D01*
X96892533Y-75144085D01*
X97666628Y-75821419D02*
X97666628Y-75289228D01*
X97618247Y-75192466D01*
X97521485Y-75144085D01*
X97327961Y-75144085D01*
X97231200Y-75192466D01*
X97666628Y-75773038D02*
X97569866Y-75821419D01*
X97327961Y-75821419D01*
X97231200Y-75773038D01*
X97182819Y-75676276D01*
X97182819Y-75579514D01*
X97231200Y-75482752D01*
X97327961Y-75434371D01*
X97569866Y-75434371D01*
X97666628Y-75385990D01*
X98295580Y-75821419D02*
X98198819Y-75773038D01*
X98150438Y-75676276D01*
X98150438Y-74805419D01*
X99456723Y-75821419D02*
X99456723Y-74805419D01*
X100134057Y-74805419D02*
X100327580Y-74805419D01*
X100424342Y-74853800D01*
X100521104Y-74950561D01*
X100569485Y-75144085D01*
X100569485Y-75482752D01*
X100521104Y-75676276D01*
X100424342Y-75773038D01*
X100327580Y-75821419D01*
X100134057Y-75821419D01*
X100037295Y-75773038D01*
X99940533Y-75676276D01*
X99892152Y-75482752D01*
X99892152Y-75144085D01*
X99940533Y-74950561D01*
X100037295Y-74853800D01*
X100134057Y-74805419D01*
X48516419Y-49028047D02*
X48516419Y-49608619D01*
X48516419Y-49318333D02*
X47500419Y-49318333D01*
X47645561Y-49415095D01*
X47742323Y-49511857D01*
X47790704Y-49608619D01*
X47597180Y-48641000D02*
X47548800Y-48592619D01*
X47500419Y-48495857D01*
X47500419Y-48253952D01*
X47548800Y-48157190D01*
X47597180Y-48108809D01*
X47693942Y-48060428D01*
X47790704Y-48060428D01*
X47935847Y-48108809D01*
X48516419Y-48689380D01*
X48516419Y-48060428D01*
X47500419Y-47770142D02*
X48516419Y-47431476D01*
X47500419Y-47092809D01*
X48516419Y-45980047D02*
X47500419Y-45980047D01*
X47839085Y-45496238D02*
X48516419Y-45496238D01*
X47935847Y-45496238D02*
X47887466Y-45447857D01*
X47839085Y-45351095D01*
X47839085Y-45205952D01*
X47887466Y-45109190D01*
X47984228Y-45060809D01*
X48516419Y-45060809D01*
X47839085Y-44577000D02*
X48855085Y-44577000D01*
X47887466Y-44577000D02*
X47839085Y-44480238D01*
X47839085Y-44286714D01*
X47887466Y-44189952D01*
X47935847Y-44141571D01*
X48032609Y-44093190D01*
X48322895Y-44093190D01*
X48419657Y-44141571D01*
X48468038Y-44189952D01*
X48516419Y-44286714D01*
X48516419Y-44480238D01*
X48468038Y-44577000D01*
X47839085Y-43222333D02*
X48516419Y-43222333D01*
X47839085Y-43657761D02*
X48371276Y-43657761D01*
X48468038Y-43609380D01*
X48516419Y-43512619D01*
X48516419Y-43367476D01*
X48468038Y-43270714D01*
X48419657Y-43222333D01*
X47839085Y-42883666D02*
X47839085Y-42496619D01*
X47500419Y-42738523D02*
X48371276Y-42738523D01*
X48468038Y-42690142D01*
X48516419Y-42593380D01*
X48516419Y-42496619D01*
X94038057Y-25684238D02*
X94183200Y-25732619D01*
X94425104Y-25732619D01*
X94521866Y-25684238D01*
X94570247Y-25635857D01*
X94618628Y-25539095D01*
X94618628Y-25442333D01*
X94570247Y-25345571D01*
X94521866Y-25297190D01*
X94425104Y-25248809D01*
X94231580Y-25200428D01*
X94134819Y-25152047D01*
X94086438Y-25103666D01*
X94038057Y-25006904D01*
X94038057Y-24910142D01*
X94086438Y-24813380D01*
X94134819Y-24765000D01*
X94231580Y-24716619D01*
X94473485Y-24716619D01*
X94618628Y-24765000D01*
X94908914Y-25055285D02*
X95295961Y-25055285D01*
X95054057Y-24716619D02*
X95054057Y-25587476D01*
X95102438Y-25684238D01*
X95199200Y-25732619D01*
X95295961Y-25732619D01*
X96021676Y-25684238D02*
X95924914Y-25732619D01*
X95731390Y-25732619D01*
X95634628Y-25684238D01*
X95586247Y-25587476D01*
X95586247Y-25200428D01*
X95634628Y-25103666D01*
X95731390Y-25055285D01*
X95924914Y-25055285D01*
X96021676Y-25103666D01*
X96070057Y-25200428D01*
X96070057Y-25297190D01*
X95586247Y-25393952D01*
X96505485Y-25055285D02*
X96505485Y-26071285D01*
X96505485Y-25103666D02*
X96602247Y-25055285D01*
X96795771Y-25055285D01*
X96892533Y-25103666D01*
X96940914Y-25152047D01*
X96989295Y-25248809D01*
X96989295Y-25539095D01*
X96940914Y-25635857D01*
X96892533Y-25684238D01*
X96795771Y-25732619D01*
X96602247Y-25732619D01*
X96505485Y-25684238D01*
X97424723Y-25055285D02*
X97424723Y-26071285D01*
X97424723Y-25103666D02*
X97521485Y-25055285D01*
X97715009Y-25055285D01*
X97811771Y-25103666D01*
X97860152Y-25152047D01*
X97908533Y-25248809D01*
X97908533Y-25539095D01*
X97860152Y-25635857D01*
X97811771Y-25684238D01*
X97715009Y-25732619D01*
X97521485Y-25732619D01*
X97424723Y-25684238D01*
X98731009Y-25684238D02*
X98634247Y-25732619D01*
X98440723Y-25732619D01*
X98343961Y-25684238D01*
X98295580Y-25587476D01*
X98295580Y-25200428D01*
X98343961Y-25103666D01*
X98440723Y-25055285D01*
X98634247Y-25055285D01*
X98731009Y-25103666D01*
X98779390Y-25200428D01*
X98779390Y-25297190D01*
X98295580Y-25393952D01*
X99214819Y-25732619D02*
X99214819Y-25055285D01*
X99214819Y-25248809D02*
X99263200Y-25152047D01*
X99311580Y-25103666D01*
X99408342Y-25055285D01*
X99505104Y-25055285D01*
D14*
X107529380Y-59732657D02*
X107529380Y-59637419D01*
X107577000Y-59542180D01*
X107624619Y-59494561D01*
X107719857Y-59446942D01*
X107910333Y-59399323D01*
X108148428Y-59399323D01*
X108338904Y-59446942D01*
X108434142Y-59494561D01*
X108481761Y-59542180D01*
X108529380Y-59637419D01*
X108529380Y-59732657D01*
X108481761Y-59827895D01*
X108434142Y-59875514D01*
X108338904Y-59923133D01*
X108148428Y-59970752D01*
X107910333Y-59970752D01*
X107719857Y-59923133D01*
X107624619Y-59875514D01*
X107577000Y-59827895D01*
X107529380Y-59732657D01*
X108434142Y-58970752D02*
X108481761Y-58923133D01*
X108529380Y-58970752D01*
X108481761Y-59018371D01*
X108434142Y-58970752D01*
X108529380Y-58970752D01*
X108529380Y-57970752D02*
X108529380Y-58542180D01*
X108529380Y-58256466D02*
X107529380Y-58256466D01*
X107672238Y-58351704D01*
X107767476Y-58446942D01*
X107815095Y-58542180D01*
X107862714Y-57113609D02*
X108529380Y-57113609D01*
X107862714Y-57542180D02*
X108386523Y-57542180D01*
X108481761Y-57494561D01*
X108529380Y-57399323D01*
X108529380Y-57256466D01*
X108481761Y-57161228D01*
X108434142Y-57113609D01*
X108005571Y-56304085D02*
X108005571Y-56637419D01*
X108529380Y-56637419D02*
X107529380Y-56637419D01*
X107529380Y-56161228D01*
%LPC*%
D16*
X54803200Y-35102800D03*
D17*
X51003200Y-35102800D03*
D18*
X51025600Y-56105800D03*
X51025600Y-65105800D03*
D14*
G36*
X55490104Y-58357004D02*
G01*
X55514373Y-58360604D01*
X55538171Y-58366565D01*
X55561271Y-58374830D01*
X55583449Y-58385320D01*
X55604493Y-58397933D01*
X55624198Y-58412547D01*
X55642377Y-58429023D01*
X55658853Y-58447202D01*
X55673467Y-58466907D01*
X55686080Y-58487951D01*
X55696570Y-58510129D01*
X55704835Y-58533229D01*
X55710796Y-58557027D01*
X55714396Y-58581296D01*
X55715600Y-58605800D01*
X55715600Y-59605800D01*
X55714396Y-59630304D01*
X55710796Y-59654573D01*
X55704835Y-59678371D01*
X55696570Y-59701471D01*
X55686080Y-59723649D01*
X55673467Y-59744693D01*
X55658853Y-59764398D01*
X55642377Y-59782577D01*
X55624198Y-59799053D01*
X55604493Y-59813667D01*
X55583449Y-59826280D01*
X55561271Y-59836770D01*
X55538171Y-59845035D01*
X55514373Y-59850996D01*
X55490104Y-59854596D01*
X55465600Y-59855800D01*
X54465600Y-59855800D01*
X54441096Y-59854596D01*
X54416827Y-59850996D01*
X54393029Y-59845035D01*
X54369929Y-59836770D01*
X54347751Y-59826280D01*
X54326707Y-59813667D01*
X54307002Y-59799053D01*
X54288823Y-59782577D01*
X54272347Y-59764398D01*
X54257733Y-59744693D01*
X54245120Y-59723649D01*
X54234630Y-59701471D01*
X54226365Y-59678371D01*
X54220404Y-59654573D01*
X54216804Y-59630304D01*
X54215600Y-59605800D01*
X54215600Y-58605800D01*
X54216804Y-58581296D01*
X54220404Y-58557027D01*
X54226365Y-58533229D01*
X54234630Y-58510129D01*
X54245120Y-58487951D01*
X54257733Y-58466907D01*
X54272347Y-58447202D01*
X54288823Y-58429023D01*
X54307002Y-58412547D01*
X54326707Y-58397933D01*
X54347751Y-58385320D01*
X54369929Y-58374830D01*
X54393029Y-58366565D01*
X54416827Y-58360604D01*
X54441096Y-58357004D01*
X54465600Y-58355800D01*
X55465600Y-58355800D01*
X55490104Y-58357004D01*
G37*
D19*
X54965600Y-62105800D03*
X51965600Y-59105800D03*
X51965600Y-62105800D03*
D20*
X90424000Y-59283600D03*
X103124000Y-41503600D03*
X90424000Y-56743600D03*
X103124000Y-44043600D03*
X90424000Y-54203600D03*
X103124000Y-46583600D03*
X90424000Y-51663600D03*
X103124000Y-49123600D03*
X90424000Y-49123600D03*
X103124000Y-51663600D03*
X90424000Y-46583600D03*
X103124000Y-54203600D03*
X90424000Y-44043600D03*
X103124000Y-56743600D03*
X90424000Y-41503600D03*
D17*
X103124000Y-59283600D03*
X78917800Y-66471800D03*
D20*
X63677800Y-33451800D03*
X78917800Y-63931800D03*
X63677800Y-35991800D03*
X78917800Y-61391800D03*
X63677800Y-38531800D03*
X78917800Y-58851800D03*
X63677800Y-41071800D03*
X78917800Y-56311800D03*
X63677800Y-43611800D03*
X78917800Y-53771800D03*
X63677800Y-46151800D03*
X78917800Y-51231800D03*
X63677800Y-48691800D03*
X78917800Y-48691800D03*
X63677800Y-51231800D03*
X78917800Y-46151800D03*
X63677800Y-53771800D03*
X78917800Y-43611800D03*
X63677800Y-56311800D03*
X78917800Y-41071800D03*
X63677800Y-58851800D03*
X78917800Y-38531800D03*
X63677800Y-61391800D03*
X78917800Y-35991800D03*
X63677800Y-63931800D03*
X78917800Y-33451800D03*
X63677800Y-66471800D03*
X78917800Y-30911800D03*
X63677800Y-30911800D03*
D18*
X90573600Y-72418400D03*
X102573600Y-72418400D03*
D14*
G36*
X94098104Y-67729604D02*
G01*
X94122373Y-67733204D01*
X94146171Y-67739165D01*
X94169271Y-67747430D01*
X94191449Y-67757920D01*
X94212493Y-67770533D01*
X94232198Y-67785147D01*
X94250377Y-67801623D01*
X94266853Y-67819802D01*
X94281467Y-67839507D01*
X94294080Y-67860551D01*
X94304570Y-67882729D01*
X94312835Y-67905829D01*
X94318796Y-67929627D01*
X94322396Y-67953896D01*
X94323600Y-67978400D01*
X94323600Y-68978400D01*
X94322396Y-69002904D01*
X94318796Y-69027173D01*
X94312835Y-69050971D01*
X94304570Y-69074071D01*
X94294080Y-69096249D01*
X94281467Y-69117293D01*
X94266853Y-69136998D01*
X94250377Y-69155177D01*
X94232198Y-69171653D01*
X94212493Y-69186267D01*
X94191449Y-69198880D01*
X94169271Y-69209370D01*
X94146171Y-69217635D01*
X94122373Y-69223596D01*
X94098104Y-69227196D01*
X94073600Y-69228400D01*
X93073600Y-69228400D01*
X93049096Y-69227196D01*
X93024827Y-69223596D01*
X93001029Y-69217635D01*
X92977929Y-69209370D01*
X92955751Y-69198880D01*
X92934707Y-69186267D01*
X92915002Y-69171653D01*
X92896823Y-69155177D01*
X92880347Y-69136998D01*
X92865733Y-69117293D01*
X92853120Y-69096249D01*
X92842630Y-69074071D01*
X92834365Y-69050971D01*
X92828404Y-69027173D01*
X92824804Y-69002904D01*
X92823600Y-68978400D01*
X92823600Y-67978400D01*
X92824804Y-67953896D01*
X92828404Y-67929627D01*
X92834365Y-67905829D01*
X92842630Y-67882729D01*
X92853120Y-67860551D01*
X92865733Y-67839507D01*
X92880347Y-67819802D01*
X92896823Y-67801623D01*
X92915002Y-67785147D01*
X92934707Y-67770533D01*
X92955751Y-67757920D01*
X92977929Y-67747430D01*
X93001029Y-67739165D01*
X93024827Y-67733204D01*
X93049096Y-67729604D01*
X93073600Y-67728400D01*
X94073600Y-67728400D01*
X94098104Y-67729604D01*
G37*
D19*
X96573600Y-68478400D03*
X99573600Y-68478400D03*
X93573600Y-71478400D03*
X96573600Y-71478400D03*
X99573600Y-71478400D03*
D18*
X51228800Y-43228000D03*
X51228800Y-49228000D03*
D14*
G36*
X55693304Y-45479204D02*
G01*
X55717573Y-45482804D01*
X55741371Y-45488765D01*
X55764471Y-45497030D01*
X55786649Y-45507520D01*
X55807693Y-45520133D01*
X55827398Y-45534747D01*
X55845577Y-45551223D01*
X55862053Y-45569402D01*
X55876667Y-45589107D01*
X55889280Y-45610151D01*
X55899770Y-45632329D01*
X55908035Y-45655429D01*
X55913996Y-45679227D01*
X55917596Y-45703496D01*
X55918800Y-45728000D01*
X55918800Y-46728000D01*
X55917596Y-46752504D01*
X55913996Y-46776773D01*
X55908035Y-46800571D01*
X55899770Y-46823671D01*
X55889280Y-46845849D01*
X55876667Y-46866893D01*
X55862053Y-46886598D01*
X55845577Y-46904777D01*
X55827398Y-46921253D01*
X55807693Y-46935867D01*
X55786649Y-46948480D01*
X55764471Y-46958970D01*
X55741371Y-46967235D01*
X55717573Y-46973196D01*
X55693304Y-46976796D01*
X55668800Y-46978000D01*
X54668800Y-46978000D01*
X54644296Y-46976796D01*
X54620027Y-46973196D01*
X54596229Y-46967235D01*
X54573129Y-46958970D01*
X54550951Y-46948480D01*
X54529907Y-46935867D01*
X54510202Y-46921253D01*
X54492023Y-46904777D01*
X54475547Y-46886598D01*
X54460933Y-46866893D01*
X54448320Y-46845849D01*
X54437830Y-46823671D01*
X54429565Y-46800571D01*
X54423604Y-46776773D01*
X54420004Y-46752504D01*
X54418800Y-46728000D01*
X54418800Y-45728000D01*
X54420004Y-45703496D01*
X54423604Y-45679227D01*
X54429565Y-45655429D01*
X54437830Y-45632329D01*
X54448320Y-45610151D01*
X54460933Y-45589107D01*
X54475547Y-45569402D01*
X54492023Y-45551223D01*
X54510202Y-45534747D01*
X54529907Y-45520133D01*
X54550951Y-45507520D01*
X54573129Y-45497030D01*
X54596229Y-45488765D01*
X54620027Y-45482804D01*
X54644296Y-45479204D01*
X54668800Y-45478000D01*
X55668800Y-45478000D01*
X55693304Y-45479204D01*
G37*
D19*
X52168800Y-46228000D03*
X95221800Y-29232600D03*
X98221800Y-29232600D03*
X95221800Y-32232600D03*
D14*
G36*
X98746304Y-31483804D02*
G01*
X98770573Y-31487404D01*
X98794371Y-31493365D01*
X98817471Y-31501630D01*
X98839649Y-31512120D01*
X98860693Y-31524733D01*
X98880398Y-31539347D01*
X98898577Y-31555823D01*
X98915053Y-31574002D01*
X98929667Y-31593707D01*
X98942280Y-31614751D01*
X98952770Y-31636929D01*
X98961035Y-31660029D01*
X98966996Y-31683827D01*
X98970596Y-31708096D01*
X98971800Y-31732600D01*
X98971800Y-32732600D01*
X98970596Y-32757104D01*
X98966996Y-32781373D01*
X98961035Y-32805171D01*
X98952770Y-32828271D01*
X98942280Y-32850449D01*
X98929667Y-32871493D01*
X98915053Y-32891198D01*
X98898577Y-32909377D01*
X98880398Y-32925853D01*
X98860693Y-32940467D01*
X98839649Y-32953080D01*
X98817471Y-32963570D01*
X98794371Y-32971835D01*
X98770573Y-32977796D01*
X98746304Y-32981396D01*
X98721800Y-32982600D01*
X97721800Y-32982600D01*
X97697296Y-32981396D01*
X97673027Y-32977796D01*
X97649229Y-32971835D01*
X97626129Y-32963570D01*
X97603951Y-32953080D01*
X97582907Y-32940467D01*
X97563202Y-32925853D01*
X97545023Y-32909377D01*
X97528547Y-32891198D01*
X97513933Y-32871493D01*
X97501320Y-32850449D01*
X97490830Y-32828271D01*
X97482565Y-32805171D01*
X97476604Y-32781373D01*
X97473004Y-32757104D01*
X97471800Y-32732600D01*
X97471800Y-31732600D01*
X97473004Y-31708096D01*
X97476604Y-31683827D01*
X97482565Y-31660029D01*
X97490830Y-31636929D01*
X97501320Y-31614751D01*
X97513933Y-31593707D01*
X97528547Y-31574002D01*
X97545023Y-31555823D01*
X97563202Y-31539347D01*
X97582907Y-31524733D01*
X97603951Y-31512120D01*
X97626129Y-31501630D01*
X97649229Y-31493365D01*
X97673027Y-31487404D01*
X97697296Y-31483804D01*
X97721800Y-31482600D01*
X98721800Y-31482600D01*
X98746304Y-31483804D01*
G37*
D18*
X92221800Y-28292600D03*
X101221800Y-28292600D03*
D14*
G36*
X106686779Y-56742844D02*
G01*
X106709834Y-56746263D01*
X106732443Y-56751927D01*
X106754387Y-56759779D01*
X106775457Y-56769744D01*
X106795448Y-56781726D01*
X106814168Y-56795610D01*
X106831438Y-56811262D01*
X106847090Y-56828532D01*
X106860974Y-56847252D01*
X106872956Y-56867243D01*
X106882921Y-56888313D01*
X106890773Y-56910257D01*
X106896437Y-56932866D01*
X106899856Y-56955921D01*
X106901000Y-56979200D01*
X106901000Y-57579200D01*
X106899856Y-57602479D01*
X106896437Y-57625534D01*
X106890773Y-57648143D01*
X106882921Y-57670087D01*
X106872956Y-57691157D01*
X106860974Y-57711148D01*
X106847090Y-57729868D01*
X106831438Y-57747138D01*
X106814168Y-57762790D01*
X106795448Y-57776674D01*
X106775457Y-57788656D01*
X106754387Y-57798621D01*
X106732443Y-57806473D01*
X106709834Y-57812137D01*
X106686779Y-57815556D01*
X106663500Y-57816700D01*
X106188500Y-57816700D01*
X106165221Y-57815556D01*
X106142166Y-57812137D01*
X106119557Y-57806473D01*
X106097613Y-57798621D01*
X106076543Y-57788656D01*
X106056552Y-57776674D01*
X106037832Y-57762790D01*
X106020562Y-57747138D01*
X106004910Y-57729868D01*
X105991026Y-57711148D01*
X105979044Y-57691157D01*
X105969079Y-57670087D01*
X105961227Y-57648143D01*
X105955563Y-57625534D01*
X105952144Y-57602479D01*
X105951000Y-57579200D01*
X105951000Y-56979200D01*
X105952144Y-56955921D01*
X105955563Y-56932866D01*
X105961227Y-56910257D01*
X105969079Y-56888313D01*
X105979044Y-56867243D01*
X105991026Y-56847252D01*
X106004910Y-56828532D01*
X106020562Y-56811262D01*
X106037832Y-56795610D01*
X106056552Y-56781726D01*
X106076543Y-56769744D01*
X106097613Y-56759779D01*
X106119557Y-56751927D01*
X106142166Y-56746263D01*
X106165221Y-56742844D01*
X106188500Y-56741700D01*
X106663500Y-56741700D01*
X106686779Y-56742844D01*
G37*
G36*
X106686779Y-58467844D02*
G01*
X106709834Y-58471263D01*
X106732443Y-58476927D01*
X106754387Y-58484779D01*
X106775457Y-58494744D01*
X106795448Y-58506726D01*
X106814168Y-58520610D01*
X106831438Y-58536262D01*
X106847090Y-58553532D01*
X106860974Y-58572252D01*
X106872956Y-58592243D01*
X106882921Y-58613313D01*
X106890773Y-58635257D01*
X106896437Y-58657866D01*
X106899856Y-58680921D01*
X106901000Y-58704200D01*
X106901000Y-59304200D01*
X106899856Y-59327479D01*
X106896437Y-59350534D01*
X106890773Y-59373143D01*
X106882921Y-59395087D01*
X106872956Y-59416157D01*
X106860974Y-59436148D01*
X106847090Y-59454868D01*
X106831438Y-59472138D01*
X106814168Y-59487790D01*
X106795448Y-59501674D01*
X106775457Y-59513656D01*
X106754387Y-59523621D01*
X106732443Y-59531473D01*
X106709834Y-59537137D01*
X106686779Y-59540556D01*
X106663500Y-59541700D01*
X106188500Y-59541700D01*
X106165221Y-59540556D01*
X106142166Y-59537137D01*
X106119557Y-59531473D01*
X106097613Y-59523621D01*
X106076543Y-59513656D01*
X106056552Y-59501674D01*
X106037832Y-59487790D01*
X106020562Y-59472138D01*
X106004910Y-59454868D01*
X105991026Y-59436148D01*
X105979044Y-59416157D01*
X105969079Y-59395087D01*
X105961227Y-59373143D01*
X105955563Y-59350534D01*
X105952144Y-59327479D01*
X105951000Y-59304200D01*
X105951000Y-58704200D01*
X105952144Y-58680921D01*
X105955563Y-58657866D01*
X105961227Y-58635257D01*
X105969079Y-58613313D01*
X105979044Y-58592243D01*
X105991026Y-58572252D01*
X106004910Y-58553532D01*
X106020562Y-58536262D01*
X106037832Y-58520610D01*
X106056552Y-58506726D01*
X106076543Y-58494744D01*
X106097613Y-58484779D01*
X106119557Y-58476927D01*
X106142166Y-58471263D01*
X106165221Y-58467844D01*
X106188500Y-58466700D01*
X106663500Y-58466700D01*
X106686779Y-58467844D01*
G37*
M02*
